<?xml version="1.0" standalone="no"?>
 <!DOCTYPE svg PUBLIC "-//W3C//DTD SVG 1.1//EN" 
 "http://www.w3.org/Graphics/SVG/1.1/DTD/svg11.dtd"> 
<svg xmlns="http://www.w3.org/2000/svg" version="1.1" 
    width="29.7002cm" height="21.0007cm" viewBox="0 0 116930 82680 ">
<title>SVG Picture created as PSU-5V-6V-Dual9V-drl_map.svg date 2016/05/20 13:48:37 </title>
  <desc>Picture generated by PCBNEW </desc>
<g style="fill:#000000; fill-opacity:1;stroke:#000000; stroke-opacity:1;
stroke-linecap:round; stroke-linejoin:round; "
 transform="translate(0 0) scale(1 1)">
</g>
<g style="fill:#000000; fill-opacity:0.0; 
stroke:#000000; stroke-width:-0.000393701; stroke-opacity:1; 
stroke-linecap:round; stroke-linejoin:round;">
</g>
<g style="fill:#000000; fill-opacity:0.0; 
stroke:#000000; stroke-width:59.0551; stroke-opacity:1; 
stroke-linecap:round; stroke-linejoin:round;">
<path d="M39370 19685
L39370 59055
" />
<path d="M78740 19685
L39370 19685
" />
<path d="M78740 59055
L78740 19685
" />
<path d="M39370 59055
L78740 59055
" />
</g>
<g style="fill:#000000; fill-opacity:0.0; 
stroke:#000000; stroke-width:78.7402; stroke-opacity:1; 
stroke-linecap:round; stroke-linejoin:round;">
<path d="M42751 28901
L42948 29098
" />
<path d="M42948 28901
L42751 29098
" />
<path d="M43801 29001
L43998 29198
" />
<path d="M43998 29001
L43801 29198
" />
<path d="M53726 29201
L53923 29398
" />
<path d="M53923 29201
L53726 29398
" />
<path d="M54771 29201
L54968 29398
" />
<path d="M54968 29201
L54771 29398
" />
<circle cx="40500" cy="24000" r="157.48" /> 
<circle cx="40500" cy="26750" r="157.48" /> 
<circle cx="40500" cy="32000" r="157.48" /> 
<circle cx="40500" cy="34500" r="157.48" /> 
<circle cx="40500" cy="37250" r="157.48" /> 
<circle cx="40750" cy="29450" r="157.48" /> 
<circle cx="41000" cy="44550" r="157.48" /> 
<circle cx="41000" cy="46500" r="157.48" /> 
<circle cx="41000" cy="48400" r="157.48" /> 
<circle cx="41000" cy="55150" r="157.48" /> 
<circle cx="41500" cy="23250" r="157.48" /> 
<circle cx="41500" cy="24750" r="157.48" /> 
<circle cx="41500" cy="26250" r="157.48" /> 
<circle cx="42322.8" cy="37952.8" r="157.48" /> 
<circle cx="42322.8" cy="39212.6" r="157.48" /> 
<circle cx="42322.8" cy="40787.4" r="157.48" /> 
<circle cx="42322.8" cy="43661.4" r="157.48" /> 
<circle cx="42322.8" cy="44448.8" r="157.48" /> 
<circle cx="42750" cy="20500" r="157.48" /> 
<circle cx="42900" cy="31400" r="157.48" /> 
<circle cx="42952.8" cy="23976.4" r="157.48" /> 
<circle cx="42952.8" cy="26259.8" r="157.48" /> 
<circle cx="43464.6" cy="23346.5" r="157.48" /> 
<circle cx="43500" cy="22000" r="157.48" /> 
<circle cx="43500" cy="34000" r="157.48" /> 
<circle cx="43700" cy="32100" r="157.48" /> 
<circle cx="45050" cy="57700" r="157.48" /> 
<circle cx="45157.5" cy="23346.5" r="157.48" /> 
<circle cx="45200" cy="48500" r="157.48" /> 
<circle cx="45250" cy="20500" r="157.48" /> 
<circle cx="45250" cy="22000" r="157.48" /> 
<circle cx="45400" cy="53200" r="157.48" /> 
<circle cx="45500" cy="32000" r="157.48" /> 
<circle cx="45669.3" cy="40236.2" r="157.48" /> 
<circle cx="45669.3" cy="42007.9" r="157.48" /> 
<circle cx="46250" cy="34000" r="157.48" /> 
<circle cx="46254" cy="29995.6" r="157.48" /> 
<circle cx="46450" cy="26600" r="157.48" /> 
<circle cx="46550" cy="23500" r="157.48" /> 
<circle cx="47400" cy="26600" r="157.48" /> 
<circle cx="47500" cy="20500" r="157.48" /> 
<circle cx="47632" cy="29995.6" r="157.48" /> 
<circle cx="48100" cy="28450" r="157.48" /> 
<circle cx="48200" cy="31500" r="157.48" /> 
<circle cx="48600" cy="27150" r="157.48" /> 
<circle cx="48600" cy="27850" r="157.48" /> 
<circle cx="48870.1" cy="24616.1" r="157.48" /> 
<circle cx="48870.1" cy="25994.1" r="157.48" /> 
<circle cx="49250" cy="32750" r="157.48" /> 
<circle cx="50200" cy="26750" r="157.48" /> 
<circle cx="50236.2" cy="41141.7" r="157.48" /> 
<circle cx="50250" cy="29700" r="157.48" /> 
<circle cx="50250" cy="31250" r="157.48" /> 
<circle cx="50350" cy="23750" r="157.48" /> 
<circle cx="50750" cy="57700" r="157.48" /> 
<circle cx="50770.1" cy="28955.1" r="157.48" /> 
<circle cx="51000" cy="20500" r="157.48" /> 
<circle cx="51250" cy="32750" r="157.48" /> 
<circle cx="51700" cy="53150" r="157.48" /> 
<circle cx="51800" cy="29750" r="157.48" /> 
<circle cx="52165.4" cy="39606.3" r="157.48" /> 
<circle cx="52165.4" cy="42952.8" r="157.48" /> 
<circle cx="52400" cy="31250" r="157.48" /> 
<circle cx="52500" cy="25000" r="157.48" /> 
<circle cx="52500" cy="26500" r="157.48" /> 
<circle cx="52750" cy="23500" r="157.48" /> 
<circle cx="53050" cy="48550" r="157.48" /> 
<circle cx="53250" cy="32750" r="157.48" /> 
<circle cx="53661.4" cy="41141.7" r="157.48" /> 
<circle cx="53897.6" cy="24763.8" r="157.48" /> 
<circle cx="53897.6" cy="26653.5" r="157.48" /> 
<circle cx="53900" cy="31750" r="157.48" /> 
<circle cx="54250" cy="20500" r="157.48" /> 
<circle cx="54330.7" cy="23661.4" r="157.48" /> 
<circle cx="54600" cy="32400" r="157.48" /> 
<circle cx="55750" cy="32750" r="157.48" /> 
<circle cx="56141.7" cy="23661.4" r="157.48" /> 
<circle cx="57181.1" cy="30305.1" r="157.48" /> 
<circle cx="57350" cy="26925" r="157.48" /> 
<circle cx="57500" cy="20500" r="157.48" /> 
<circle cx="57500" cy="53250" r="157.48" /> 
<circle cx="57700" cy="57700" r="157.48" /> 
<circle cx="58320.1" cy="22755.1" r="157.48" /> 
<circle cx="58500" cy="33000" r="157.48" /> 
<circle cx="58550" cy="26950" r="157.48" /> 
<circle cx="58559.1" cy="30305.1" r="157.48" /> 
<circle cx="58740.2" cy="41141.7" r="157.48" /> 
<circle cx="59050" cy="28750" r="157.48" /> 
<circle cx="59125" cy="31800" r="157.48" /> 
<circle cx="59500" cy="33000" r="157.48" /> 
<circle cx="59775" cy="27475" r="157.48" /> 
<circle cx="59775" cy="28200" r="157.48" /> 
<circle cx="60000" cy="20500" r="157.48" /> 
<circle cx="60120.1" cy="24927.2" r="157.48" /> 
<circle cx="60120.1" cy="26305.1" r="157.48" /> 
<circle cx="60450" cy="48950" r="157.48" /> 
<circle cx="60470.1" cy="34055.1" r="157.48" /> 
<circle cx="61181.1" cy="39724.4" r="157.48" /> 
<circle cx="61181.1" cy="41141.7" r="157.48" /> 
<circle cx="61181.1" cy="42401.6" r="157.48" /> 
<circle cx="62000" cy="33000" r="157.48" /> 
<circle cx="62120.1" cy="36666.1" r="157.48" /> 
<circle cx="62120.1" cy="38044.1" r="157.48" /> 
<circle cx="62170.1" cy="44366.1" r="157.48" /> 
<circle cx="62170.1" cy="45744.1" r="157.48" /> 
<circle cx="62500" cy="20500" r="157.48" /> 
<circle cx="62500" cy="22500" r="157.48" /> 
<circle cx="62500" cy="24250" r="157.48" /> 
<circle cx="62500" cy="26000" r="157.48" /> 
<circle cx="62500" cy="27750" r="157.48" /> 
<circle cx="62500" cy="30000" r="157.48" /> 
<circle cx="62500" cy="32000" r="157.48" /> 
<circle cx="62900" cy="50200" r="157.48" /> 
<circle cx="62900" cy="53055.1" r="157.48" /> 
<circle cx="63818.9" cy="41141.7" r="157.48" /> 
<circle cx="64800" cy="56500" r="157.48" /> 
<circle cx="65250" cy="57700" r="157.48" /> 
<circle cx="66220.5" cy="41141.7" r="157.48" /> 
<circle cx="68267.7" cy="41181.1" r="157.48" /> 
<circle cx="68750" cy="20500" r="157.48" /> 
<circle cx="68750" cy="24250" r="157.48" /> 
<circle cx="68770.1" cy="25955.1" r="157.48" /> 
<circle cx="69550" cy="56500" r="157.48" /> 
<circle cx="70170.1" cy="55055.1" r="157.48" /> 
<circle cx="70236.2" cy="38110.2" r="157.48" /> 
<circle cx="70236.2" cy="41181.1" r="157.48" /> 
<circle cx="70236.2" cy="43976.4" r="157.48" /> 
<circle cx="70381.1" cy="51505.1" r="157.48" /> 
<circle cx="70431.1" cy="31255.1" r="157.48" /> 
<circle cx="70470.1" cy="27655.1" r="157.48" /> 
<circle cx="71160.1" cy="34166.1" r="157.48" /> 
<circle cx="71160.1" cy="35544.1" r="157.48" /> 
<circle cx="71759.1" cy="51505.1" r="157.48" /> 
<circle cx="71809.1" cy="31255.1" r="157.48" /> 
<circle cx="72070.1" cy="45966.1" r="157.48" /> 
<circle cx="72070.1" cy="47344.1" r="157.48" /> 
<circle cx="72362.2" cy="41181.1" r="157.48" /> 
<circle cx="72470.1" cy="55355.1" r="157.48" /> 
<circle cx="72770.1" cy="27255.1" r="157.48" /> 
<circle cx="73267.7" cy="39566.9" r="157.48" /> 
<circle cx="73267.7" cy="43031.5" r="157.48" /> 
<circle cx="73500" cy="57700" r="157.48" /> 
<circle cx="73770.1" cy="56155.1" r="157.48" /> 
<circle cx="74330.7" cy="41181.1" r="157.48" /> 
<circle cx="74500" cy="20500" r="157.48" /> 
<circle cx="74500" cy="24250" r="157.48" /> 
<circle cx="74870.1" cy="26255.1" r="157.48" /> 
<circle cx="77870.1" cy="24855.1" r="157.48" /> 
<path d="M41120 40608
L41120 41001
" />
<path d="M40923 40805
L41316 40805
" />
<path d="M41277 41108
L41277 40501
" />
<path d="M40962 41108
L40962 40501
" />
<path d="M41277.6 40502 A157.48 157.48 0.0 0 0 40962.6 40502 " />
<path d="M40962.6 41108.3 A157.48 157.48 0.0 0 0 41277.6 41108.3 " />
<path d="M41120 41858
L41120 42251
" />
<path d="M40923 42055
L41316 42055
" />
<path d="M46870 21358
L46870 21751
" />
<path d="M46673 21555
L47066 21555
" />
<path d="M47173 21397
L46566 21397
" />
<path d="M47173 21712
L46566 21712
" />
<path d="M46566.9 21397.6 A157.48 157.48 0.0 0 0 46566.9 21712.6 " />
<path d="M47173.2 21712.6 A157.48 157.48 0.0 0 0 47173.2 21397.6 " />
<path d="M48120 21358
L48120 21751
" />
<path d="M47923 21555
L48316 21555
" />
<path d="M48370 35655
L48370 36049
" />
<path d="M48173 35852
L48566 35852
" />
<path d="M48370 38608
L48370 39001
" />
<path d="M48173 38805
L48566 38805
" />
<path d="M48370 43405
L48370 43799
" />
<path d="M48173 43602
L48566 43602
" />
<path d="M48370 46358
L48370 46751
" />
<path d="M48173 46555
L48566 46555
" />
<path d="M50370 21358
L50370 21751
" />
<path d="M50173 21555
L50566 21555
" />
<path d="M50673 21397
L50066 21397
" />
<path d="M50673 21712
L50066 21712
" />
<path d="M50066.9 21397.6 A157.48 157.48 0.0 0 0 50066.9 21712.6 " />
<path d="M50673.2 21712.6 A157.48 157.48 0.0 0 0 50673.2 21397.6 " />
<path d="M51620 21358
L51620 21751
" />
<path d="M51423 21555
L51816 21555
" />
<path d="M53870 21358
L53870 21751
" />
<path d="M53673 21555
L54066 21555
" />
<path d="M54173 21397
L53566 21397
" />
<path d="M54173 21712
L53566 21712
" />
<path d="M53566.9 21397.6 A157.48 157.48 0.0 0 0 53566.9 21712.6 " />
<path d="M54173.2 21712.6 A157.48 157.48 0.0 0 0 54173.2 21397.6 " />
<path d="M55120 21358
L55120 21751
" />
<path d="M54923 21555
L55316 21555
" />
<path d="M56620 35655
L56620 36049
" />
<path d="M56423 35852
L56816 35852
" />
<path d="M56620 38608
L56620 39001
" />
<path d="M56423 38805
L56816 38805
" />
<path d="M56620 43405
L56620 43799
" />
<path d="M56423 43602
L56816 43602
" />
<path d="M56620 46358
L56620 46751
" />
<path d="M56423 46555
L56816 46555
" />
<path d="M57370 21358
L57370 21751
" />
<path d="M57173 21555
L57566 21555
" />
<path d="M57673 21397
L57066 21397
" />
<path d="M57673 21712
L57066 21712
" />
<path d="M57066.9 21397.6 A157.48 157.48 0.0 0 0 57066.9 21712.6 " />
<path d="M57673.2 21712.6 A157.48 157.48 0.0 0 0 57673.2 21397.6 " />
<path d="M58620 21358
L58620 21751
" />
<path d="M58423 21555
L58816 21555
" />
<path d="M76870 27858
L76870 28251
" />
<path d="M76673 28055
L77066 28055
" />
<path d="M77027 28358
L77027 27751
" />
<path d="M76712 28358
L76712 27751
" />
<path d="M77027.6 27752 A157.48 157.48 0.0 0 0 76712.6 27752 " />
<path d="M76712.6 28358.3 A157.48 157.48 0.0 0 0 77027.6 28358.3 " />
<path d="M76870 29108
L76870 29501
" />
<path d="M76673 29305
L77066 29305
" />
<path d="M76870 31858
L76870 32251
" />
<path d="M76673 32055
L77066 32055
" />
<path d="M77027 32358
L77027 31751
" />
<path d="M76712 32358
L76712 31751
" />
<path d="M77027.6 31752 A157.48 157.48 0.0 0 0 76712.6 31752 " />
<path d="M76712.6 32358.3 A157.48 157.48 0.0 0 0 77027.6 32358.3 " />
<path d="M76870 33108
L76870 33501
" />
<path d="M76673 33305
L77066 33305
" />
<path d="M76870 35358
L76870 35751
" />
<path d="M76673 35555
L77066 35555
" />
<path d="M77027 35858
L77027 35251
" />
<path d="M76712 35858
L76712 35251
" />
<path d="M77027.6 35252 A157.48 157.48 0.0 0 0 76712.6 35252 " />
<path d="M76712.6 35858.3 A157.48 157.48 0.0 0 0 77027.6 35858.3 " />
<path d="M76870 36608
L76870 37001
" />
<path d="M76673 36805
L77066 36805
" />
<path d="M76870 38858
L76870 39251
" />
<path d="M76673 39055
L77066 39055
" />
<path d="M77027 39358
L77027 38751
" />
<path d="M76712 39358
L76712 38751
" />
<path d="M77027.6 38752 A157.48 157.48 0.0 0 0 76712.6 38752 " />
<path d="M76712.6 39358.3 A157.48 157.48 0.0 0 0 77027.6 39358.3 " />
<path d="M76870 40108
L76870 40501
" />
<path d="M76673 40305
L77066 40305
" />
<path d="M76870 42358
L76870 42751
" />
<path d="M76673 42555
L77066 42555
" />
<path d="M77027 42858
L77027 42251
" />
<path d="M76712 42858
L76712 42251
" />
<path d="M77027.6 42252 A157.48 157.48 0.0 0 0 76712.6 42252 " />
<path d="M76712.6 42858.3 A157.48 157.48 0.0 0 0 77027.6 42858.3 " />
<path d="M76870 43608
L76870 44001
" />
<path d="M76673 43805
L77066 43805
" />
<path d="M76870 45858
L76870 46251
" />
<path d="M76673 46055
L77066 46055
" />
<path d="M77027 46358
L77027 45751
" />
<path d="M76712 46358
L76712 45751
" />
<path d="M77027.6 45752 A157.48 157.48 0.0 0 0 76712.6 45752 " />
<path d="M76712.6 46358.3 A157.48 157.48 0.0 0 0 77027.6 46358.3 " />
<path d="M76870 47108
L76870 47501
" />
<path d="M76673 47305
L77066 47305
" />
<path d="M76870 49358
L76870 49751
" />
<path d="M76673 49555
L77066 49555
" />
<path d="M77027 49858
L77027 49251
" />
<path d="M76712 49858
L76712 49251
" />
<path d="M77027.6 49252 A157.48 157.48 0.0 0 0 76712.6 49252 " />
<path d="M76712.6 49858.3 A157.48 157.48 0.0 0 0 77027.6 49858.3 " />
<path d="M76870 50608
L76870 51001
" />
<path d="M76673 50805
L77066 50805
" />
<path d="M76870 53358
L76870 53751
" />
<path d="M76673 53555
L77066 53555
" />
<path d="M77027 53858
L77027 53251
" />
<path d="M76712 53858
L76712 53251
" />
<path d="M77027.6 53252 A157.48 157.48 0.0 0 0 76712.6 53252 " />
<path d="M76712.6 53858.3 A157.48 157.48 0.0 0 0 77027.6 53858.3 " />
<path d="M76870 54608
L76870 55001
" />
<path d="M76673 54805
L77066 54805
" />
<polyline fill="none;"
points="65202,32422
65202,32088
64868,32088
64868,32422
65202,32422
" /> 
<polyline fill="none;"
points="65202,33422
65202,33088
64868,33088
64868,33422
65202,33422
" /> 
<polyline fill="none;"
points="65202,34422
65202,34088
64868,34088
64868,34422
65202,34422
" /> 
<polyline fill="none;"
points="68137,48022
68137,47688
67803,47688
67803,48022
68137,48022
" /> 
<polyline fill="none;"
points="68137,49022
68137,48688
67803,48688
67803,49022
68137,49022
" /> 
<polyline fill="none;"
points="68137,50022
68137,49688
67803,49688
67803,50022
68137,50022
" /> 
<polyline fill="none;"
points="66492,28806
67043,28255
66492,27703
65940,28255
66492,28806
" /> 
<polyline fill="none;"
points="66492,38806
67043,38255
66492,37703
65940,38255
66492,38806
" /> 
<polyline fill="none;"
points="66513,44406
67064,43855
66513,43303
65962,43855
66513,44406
" /> 
<polyline fill="none;"
points="66513,54406
67064,53855
66513,53303
65962,53855
66513,54406
" /> 
<path d="M40708 21023
L41968 22283
" />
<path d="M41968 21023
L40708 22283
" />
<circle cx="41338.6" cy="21653.5" r="629.921" /> 
<path d="M40708 56456
L41968 57716
" />
<path d="M41968 56456
L40708 57716
" />
<circle cx="41338.6" cy="57086.6" r="629.921" /> 
<path d="M76141 21023
L77401 22283
" />
<path d="M77401 21023
L76141 22283
" />
<circle cx="76771.7" cy="21653.5" r="629.921" /> 
<path d="M76141 56456
L77401 57716
" />
<path d="M77401 56456
L76141 57716
" />
<circle cx="76771.7" cy="57086.6" r="629.921" /> 
</g>
<g style="fill:#000000; fill-opacity:0.0; 
stroke:#000000; stroke-width:118.11; stroke-opacity:1; 
stroke-linecap:round; stroke-linejoin:round;">
<path d="M40409 60918
L40409 59737
L40690 59737
L40859 59793
L40971 59905
L41027 60018
L41084 60243
L41084 60411
L41027 60636
L40971 60749
L40859 60861
L40690 60918
L40409 60918
" />
<path d="M41590 60918
L41590 60130
" />
<path d="M41590 60355
L41646 60243
L41702 60187
L41815 60130
L41927 60130
" />
<path d="M42321 60918
L42321 60130
" />
<path d="M42321 59737
L42265 59793
L42321 59849
L42377 59793
L42321 59737
L42321 59849
" />
<path d="M43052 60918
L42940 60861
L42883 60749
L42883 59737
" />
<path d="M43671 60918
L43558 60861
L43502 60749
L43502 59737
" />
<path d="M45021 60918
L45021 59737
L45414 60580
L45808 59737
L45808 60918
" />
<path d="M46877 60918
L46877 60299
L46820 60187
L46708 60130
L46483 60130
L46370 60187
" />
<path d="M46877 60861
L46764 60918
L46483 60918
L46370 60861
L46314 60749
L46314 60636
L46370 60524
L46483 60468
L46764 60468
L46877 60411
" />
<path d="M47439 60130
L47439 61311
" />
<path d="M47439 60187
L47552 60130
L47776 60130
L47889 60187
L47945 60243
L48001 60355
L48001 60693
L47945 60805
L47889 60861
L47776 60918
L47552 60918
L47439 60861
" />
<path d="M48508 60805
L48564 60861
L48508 60918
L48451 60861
L48508 60805
L48508 60918
" />
<path d="M48508 60187
L48564 60243
L48508 60299
L48451 60243
L48508 60187
L48508 60299
" />
<path d="M39143 62765
L39340 62962
" />
<path d="M39340 62765
L39143 62962
" />
<path d="M40634 62217
L40746 62217
L40859 62273
L40915 62329
L40971 62442
L41027 62667
L41027 62948
L40971 63173
L40915 63285
L40859 63342
L40746 63398
L40634 63398
L40521 63342
L40465 63285
L40409 63173
L40352 62948
L40352 62667
L40409 62442
L40465 62329
L40521 62273
L40634 62217
" />
<path d="M41534 63285
L41590 63342
L41534 63398
L41477 63342
L41534 63285
L41534 63398
" />
<path d="M42658 62217
L42096 62217
L42040 62779
L42096 62723
L42208 62667
L42490 62667
L42602 62723
L42658 62779
L42715 62892
L42715 63173
L42658 63285
L42602 63342
L42490 63398
L42208 63398
L42096 63342
L42040 63285
" />
<path d="M43446 62217
L43558 62217
L43671 62273
L43727 62329
L43783 62442
L43839 62667
L43839 62948
L43783 63173
L43727 63285
L43671 63342
L43558 63398
L43446 63398
L43333 63342
L43277 63285
L43221 63173
L43165 62948
L43165 62667
L43221 62442
L43277 62329
L43333 62273
L43446 62217
" />
<path d="M44346 63398
L44346 62611
" />
<path d="M44346 62723
L44402 62667
L44514 62611
L44683 62611
L44796 62667
L44852 62779
L44852 63398
" />
<path d="M44852 62779
L44908 62667
L45021 62611
L45189 62611
L45302 62667
L45358 62779
L45358 63398
" />
<path d="M45920 63398
L45920 62611
" />
<path d="M45920 62723
L45977 62667
L46089 62611
L46258 62611
L46370 62667
L46427 62779
L46427 63398
" />
<path d="M46427 62779
L46483 62667
L46595 62611
L46764 62611
L46877 62667
L46933 62779
L46933 63398
" />
<path d="M49239 62161
L48226 63679
" />
<path d="M50757 62217
L50870 62217
L50982 62273
L51039 62329
L51095 62442
L51151 62667
L51151 62948
L51095 63173
L51039 63285
L50982 63342
L50870 63398
L50757 63398
L50645 63342
L50589 63285
L50532 63173
L50476 62948
L50476 62667
L50532 62442
L50589 62329
L50645 62273
L50757 62217
" />
<path d="M51657 63285
L51714 63342
L51657 63398
L51601 63342
L51657 63285
L51657 63398
" />
<path d="M52445 62217
L52557 62217
L52670 62273
L52726 62329
L52782 62442
L52838 62667
L52838 62948
L52782 63173
L52726 63285
L52670 63342
L52557 63398
L52445 63398
L52332 63342
L52276 63285
L52220 63173
L52163 62948
L52163 62667
L52220 62442
L52276 62329
L52332 62273
L52445 62217
" />
<path d="M53288 62329
L53345 62273
L53457 62217
L53738 62217
L53851 62273
L53907 62329
L53963 62442
L53963 62554
L53907 62723
L53232 63398
L53963 63398
" />
<path d="M54694 62217
L54807 62217
L54919 62273
L54976 62329
L55032 62442
L55088 62667
L55088 62948
L55032 63173
L54976 63285
L54919 63342
L54807 63398
L54694 63398
L54582 63342
L54526 63285
L54469 63173
L54413 62948
L54413 62667
L54469 62442
L54526 62329
L54582 62273
L54694 62217
" />
<path d="M55538 62217
L55538 62442
" />
<path d="M55988 62217
L55988 62442
" />
<path d="M57732 63848
L57675 63792
L57563 63623
L57507 63510
L57450 63342
L57394 63061
L57394 62836
L57450 62554
L57507 62386
L57563 62273
L57675 62104
L57732 62048
" />
<path d="M58688 62611
L58688 63398
" />
<path d="M58406 62161
L58125 63004
L58856 63004
" />
<path d="M60206 63398
L60206 62217
" />
<path d="M60712 63398
L60712 62779
L60656 62667
L60544 62611
L60375 62611
L60262 62667
L60206 62723
" />
<path d="M61444 63398
L61331 63342
L61275 63285
L61219 63173
L61219 62836
L61275 62723
L61331 62667
L61444 62611
L61612 62611
L61725 62667
L61781 62723
L61837 62836
L61837 63173
L61781 63285
L61725 63342
L61612 63398
L61444 63398
" />
<path d="M62512 63398
L62400 63342
L62343 63229
L62343 62217
" />
<path d="M63412 63342
L63300 63398
L63075 63398
L62962 63342
L62906 63229
L62906 62779
L62962 62667
L63075 62611
L63300 62611
L63412 62667
L63468 62779
L63468 62892
L62906 63004
" />
<path d="M63918 63342
L64031 63398
L64256 63398
L64368 63342
L64424 63229
L64424 63173
L64368 63061
L64256 63004
L64087 63004
L63974 62948
L63918 62836
L63918 62779
L63974 62667
L64087 62611
L64256 62611
L64368 62667
" />
<path d="M64818 63848
L64874 63792
L64987 63623
L65043 63510
L65099 63342
L65156 63061
L65156 62836
L65099 62554
L65043 62386
L64987 62273
L64874 62104
L64818 62048
" />
<circle cx="39183.1" cy="64423.2" r="157.48" /> 
<path d="M40634 63776
L40746 63776
L40859 63832
L40915 63888
L40971 64001
L41027 64226
L41027 64507
L40971 64732
L40915 64845
L40859 64901
L40746 64957
L40634 64957
L40521 64901
L40465 64845
L40409 64732
L40352 64507
L40352 64226
L40409 64001
L40465 63888
L40521 63832
L40634 63776
" />
<path d="M41534 64845
L41590 64901
L41534 64957
L41477 64901
L41534 64845
L41534 64957
" />
<path d="M42265 64282
L42152 64226
L42096 64170
L42040 64057
L42040 64001
L42096 63888
L42152 63832
L42265 63776
L42490 63776
L42602 63832
L42658 63888
L42715 64001
L42715 64057
L42658 64170
L42602 64226
L42490 64282
L42265 64282
L42152 64338
L42096 64395
L42040 64507
L42040 64732
L42096 64845
L42152 64901
L42265 64957
L42490 64957
L42602 64901
L42658 64845
L42715 64732
L42715 64507
L42658 64395
L42602 64338
L42490 64282
" />
<path d="M43446 63776
L43558 63776
L43671 63832
L43727 63888
L43783 64001
L43839 64226
L43839 64507
L43783 64732
L43727 64845
L43671 64901
L43558 64957
L43446 64957
L43333 64901
L43277 64845
L43221 64732
L43165 64507
L43165 64226
L43221 64001
L43277 63888
L43333 63832
L43446 63776
" />
<path d="M44346 64957
L44346 64170
" />
<path d="M44346 64282
L44402 64226
L44514 64170
L44683 64170
L44796 64226
L44852 64338
L44852 64957
" />
<path d="M44852 64338
L44908 64226
L45021 64170
L45189 64170
L45302 64226
L45358 64338
L45358 64957
" />
<path d="M45920 64957
L45920 64170
" />
<path d="M45920 64282
L45977 64226
L46089 64170
L46258 64170
L46370 64226
L46427 64338
L46427 64957
" />
<path d="M46427 64338
L46483 64226
L46595 64170
L46764 64170
L46877 64226
L46933 64338
L46933 64957
" />
<path d="M49239 63720
L48226 65238
" />
<path d="M50757 63776
L50870 63776
L50982 63832
L51039 63888
L51095 64001
L51151 64226
L51151 64507
L51095 64732
L51039 64845
L50982 64901
L50870 64957
L50757 64957
L50645 64901
L50589 64845
L50532 64732
L50476 64507
L50476 64226
L50532 64001
L50589 63888
L50645 63832
L50757 63776
" />
<path d="M51657 64845
L51714 64901
L51657 64957
L51601 64901
L51657 64845
L51657 64957
" />
<path d="M52445 63776
L52557 63776
L52670 63832
L52726 63888
L52782 64001
L52838 64226
L52838 64507
L52782 64732
L52726 64845
L52670 64901
L52557 64957
L52445 64957
L52332 64901
L52276 64845
L52220 64732
L52163 64507
L52163 64226
L52220 64001
L52276 63888
L52332 63832
L52445 63776
" />
<path d="M53232 63776
L53963 63776
L53570 64226
L53738 64226
L53851 64282
L53907 64338
L53963 64451
L53963 64732
L53907 64845
L53851 64901
L53738 64957
L53401 64957
L53288 64901
L53232 64845
" />
<path d="M55088 64957
L54413 64957
" />
<path d="M54751 64957
L54751 63776
L54638 63945
L54526 64057
L54413 64113
" />
<path d="M55538 63776
L55538 64001
" />
<path d="M55988 63776
L55988 64001
" />
<path d="M57732 65407
L57675 65351
L57563 65182
L57507 65070
L57450 64901
L57394 64620
L57394 64395
L57450 64113
L57507 63945
L57563 63832
L57675 63663
L57732 63607
" />
<path d="M58800 64957
L58125 64957
" />
<path d="M58463 64957
L58463 63776
L58350 63945
L58238 64057
L58125 64113
" />
<path d="M59812 64170
L59812 64957
" />
<path d="M59531 63720
L59250 64563
L59981 64563
" />
<path d="M60600 64282
L60487 64226
L60431 64170
L60375 64057
L60375 64001
L60431 63888
L60487 63832
L60600 63776
L60825 63776
L60937 63832
L60994 63888
L61050 64001
L61050 64057
L60994 64170
L60937 64226
L60825 64282
L60600 64282
L60487 64338
L60431 64395
L60375 64507
L60375 64732
L60431 64845
L60487 64901
L60600 64957
L60825 64957
L60937 64901
L60994 64845
L61050 64732
L61050 64507
L60994 64395
L60937 64338
L60825 64282
" />
<path d="M62456 64957
L62456 63776
" />
<path d="M62962 64957
L62962 64338
L62906 64226
L62793 64170
L62625 64170
L62512 64226
L62456 64282
" />
<path d="M63693 64957
L63581 64901
L63525 64845
L63468 64732
L63468 64395
L63525 64282
L63581 64226
L63693 64170
L63862 64170
L63974 64226
L64031 64282
L64087 64395
L64087 64732
L64031 64845
L63974 64901
L63862 64957
L63693 64957
" />
<path d="M64762 64957
L64649 64901
L64593 64788
L64593 63776
" />
<path d="M65662 64901
L65549 64957
L65324 64957
L65212 64901
L65156 64788
L65156 64338
L65212 64226
L65324 64170
L65549 64170
L65662 64226
L65718 64338
L65718 64451
L65156 64563
" />
<path d="M66168 64901
L66280 64957
L66505 64957
L66618 64901
L66674 64788
L66674 64732
L66618 64620
L66505 64563
L66337 64563
L66224 64507
L66168 64395
L66168 64338
L66224 64226
L66337 64170
L66505 64170
L66618 64226
" />
<path d="M67068 65407
L67124 65351
L67237 65182
L67293 65070
L67349 64901
L67405 64620
L67405 64395
L67349 64113
L67293 63945
L67237 63832
L67124 63663
L67068 63607
" />
<path d="M39143 65785
L39143 66179
" />
<path d="M38946 65982
L39340 65982
" />
<path d="M41027 66516
L40352 66516
" />
<path d="M40690 66516
L40690 65335
L40577 65504
L40465 65616
L40352 65672
" />
<path d="M41534 66404
L41590 66460
L41534 66516
L41477 66460
L41534 66404
L41534 66516
" />
<path d="M42321 65335
L42433 65335
L42546 65391
L42602 65447
L42658 65560
L42715 65785
L42715 66066
L42658 66291
L42602 66404
L42546 66460
L42433 66516
L42321 66516
L42208 66460
L42152 66404
L42096 66291
L42040 66066
L42040 65785
L42096 65560
L42152 65447
L42208 65391
L42321 65335
" />
<path d="M43446 65335
L43558 65335
L43671 65391
L43727 65447
L43783 65560
L43839 65785
L43839 66066
L43783 66291
L43727 66404
L43671 66460
L43558 66516
L43446 66516
L43333 66460
L43277 66404
L43221 66291
L43165 66066
L43165 65785
L43221 65560
L43277 65447
L43333 65391
L43446 65335
" />
<path d="M44346 66516
L44346 65729
" />
<path d="M44346 65841
L44402 65785
L44514 65729
L44683 65729
L44796 65785
L44852 65897
L44852 66516
" />
<path d="M44852 65897
L44908 65785
L45021 65729
L45189 65729
L45302 65785
L45358 65897
L45358 66516
" />
<path d="M45920 66516
L45920 65729
" />
<path d="M45920 65841
L45977 65785
L46089 65729
L46258 65729
L46370 65785
L46427 65897
L46427 66516
" />
<path d="M46427 65897
L46483 65785
L46595 65729
L46764 65729
L46877 65785
L46933 65897
L46933 66516
" />
<path d="M49239 65279
L48226 66797
" />
<path d="M50757 65335
L50870 65335
L50982 65391
L51039 65447
L51095 65560
L51151 65785
L51151 66066
L51095 66291
L51039 66404
L50982 66460
L50870 66516
L50757 66516
L50645 66460
L50589 66404
L50532 66291
L50476 66066
L50476 65785
L50532 65560
L50589 65447
L50645 65391
L50757 65335
" />
<path d="M51657 66404
L51714 66460
L51657 66516
L51601 66460
L51657 66404
L51657 66516
" />
<path d="M52445 65335
L52557 65335
L52670 65391
L52726 65447
L52782 65560
L52838 65785
L52838 66066
L52782 66291
L52726 66404
L52670 66460
L52557 66516
L52445 66516
L52332 66460
L52276 66404
L52220 66291
L52163 66066
L52163 65785
L52220 65560
L52276 65447
L52332 65391
L52445 65335
" />
<path d="M53232 65335
L53963 65335
L53570 65785
L53738 65785
L53851 65841
L53907 65897
L53963 66010
L53963 66291
L53907 66404
L53851 66460
L53738 66516
L53401 66516
L53288 66460
L53232 66404
" />
<path d="M54526 66516
L54751 66516
L54863 66460
L54919 66404
L55032 66235
L55088 66010
L55088 65560
L55032 65447
L54976 65391
L54863 65335
L54638 65335
L54526 65391
L54469 65447
L54413 65560
L54413 65841
L54469 65954
L54526 66010
L54638 66066
L54863 66066
L54976 66010
L55032 65954
L55088 65841
" />
<path d="M55538 65335
L55538 65560
" />
<path d="M55988 65335
L55988 65560
" />
<path d="M57732 66966
L57675 66910
L57563 66741
L57507 66629
L57450 66460
L57394 66179
L57394 65954
L57450 65672
L57507 65504
L57563 65391
L57675 65223
L57732 65166
" />
<path d="M58125 65447
L58181 65391
L58294 65335
L58575 65335
L58688 65391
L58744 65447
L58800 65560
L58800 65672
L58744 65841
L58069 66516
L58800 66516
" />
<path d="M59925 66516
L59250 66516
" />
<path d="M59588 66516
L59588 65335
L59475 65504
L59363 65616
L59250 65672
" />
<path d="M61331 66516
L61331 65335
" />
<path d="M61837 66516
L61837 65897
L61781 65785
L61669 65729
L61500 65729
L61387 65785
L61331 65841
" />
<path d="M62568 66516
L62456 66460
L62400 66404
L62343 66291
L62343 65954
L62400 65841
L62456 65785
L62568 65729
L62737 65729
L62850 65785
L62906 65841
L62962 65954
L62962 66291
L62906 66404
L62850 66460
L62737 66516
L62568 66516
" />
<path d="M63637 66516
L63525 66460
L63468 66347
L63468 65335
" />
<path d="M64537 66460
L64424 66516
L64199 66516
L64087 66460
L64031 66347
L64031 65897
L64087 65785
L64199 65729
L64424 65729
L64537 65785
L64593 65897
L64593 66010
L64031 66122
" />
<path d="M65043 66460
L65156 66516
L65381 66516
L65493 66460
L65549 66347
L65549 66291
L65493 66179
L65381 66122
L65212 66122
L65099 66066
L65043 65954
L65043 65897
L65099 65785
L65212 65729
L65381 65729
L65493 65785
" />
<path d="M66955 66066
L67855 66066
" />
<path d="M67405 66516
L67405 65616
" />
<path d="M69936 66516
L69261 66516
" />
<path d="M69599 66516
L69599 65335
L69486 65504
L69374 65616
L69261 65672
" />
<path d="M70330 65335
L71061 65335
L70667 65785
L70836 65785
L70949 65841
L71005 65897
L71061 66010
L71061 66291
L71005 66404
L70949 66460
L70836 66516
L70499 66516
L70386 66460
L70330 66404
" />
<path d="M72411 66460
L72523 66516
L72748 66516
L72861 66460
L72917 66347
L72917 66291
L72861 66179
L72748 66122
L72580 66122
L72467 66066
L72411 65954
L72411 65897
L72467 65785
L72580 65729
L72748 65729
L72861 65785
" />
<path d="M73592 66516
L73480 66460
L73423 66347
L73423 65335
" />
<path d="M74211 66516
L74098 66460
L74042 66404
L73986 66291
L73986 65954
L74042 65841
L74098 65785
L74211 65729
L74379 65729
L74492 65785
L74548 65841
L74604 65954
L74604 66291
L74548 66404
L74492 66460
L74379 66516
L74211 66516
" />
<path d="M74942 65729
L75392 65729
" />
<path d="M75111 65335
L75111 66347
L75167 66460
L75279 66516
L75392 66516
" />
<path d="M75729 66460
L75842 66516
L76067 66516
L76179 66460
L76235 66347
L76235 66291
L76179 66179
L76067 66122
L75898 66122
L75785 66066
L75729 65954
L75729 65897
L75785 65785
L75898 65729
L76067 65729
L76179 65785
" />
<path d="M76629 66966
L76685 66910
L76798 66741
L76854 66629
L76910 66460
L76967 66179
L76967 65954
L76910 65672
L76854 65504
L76798 65391
L76685 65223
L76629 65166
" />
<polyline fill="none;"
points="39271,67708
39271,67374
38937,67374
38937,67708
39271,67708
" /> 
<path d="M41027 68075
L40352 68075
" />
<path d="M40690 68075
L40690 66894
L40577 67063
L40465 67175
L40352 67232
" />
<path d="M41534 67963
L41590 68019
L41534 68075
L41477 68019
L41534 67963
L41534 68075
" />
<path d="M42040 67007
L42096 66950
L42208 66894
L42490 66894
L42602 66950
L42658 67007
L42715 67119
L42715 67232
L42658 67400
L41983 68075
L42715 68075
" />
<path d="M43446 66894
L43558 66894
L43671 66950
L43727 67007
L43783 67119
L43839 67344
L43839 67625
L43783 67850
L43727 67963
L43671 68019
L43558 68075
L43446 68075
L43333 68019
L43277 67963
L43221 67850
L43165 67625
L43165 67344
L43221 67119
L43277 67007
L43333 66950
L43446 66894
" />
<path d="M44346 68075
L44346 67288
" />
<path d="M44346 67400
L44402 67344
L44514 67288
L44683 67288
L44796 67344
L44852 67456
L44852 68075
" />
<path d="M44852 67456
L44908 67344
L45021 67288
L45189 67288
L45302 67344
L45358 67456
L45358 68075
" />
<path d="M45920 68075
L45920 67288
" />
<path d="M45920 67400
L45977 67344
L46089 67288
L46258 67288
L46370 67344
L46427 67456
L46427 68075
" />
<path d="M46427 67456
L46483 67344
L46595 67288
L46764 67288
L46877 67344
L46933 67456
L46933 68075
" />
<path d="M49239 66838
L48226 68356
" />
<path d="M50757 66894
L50870 66894
L50982 66950
L51039 67007
L51095 67119
L51151 67344
L51151 67625
L51095 67850
L51039 67963
L50982 68019
L50870 68075
L50757 68075
L50645 68019
L50589 67963
L50532 67850
L50476 67625
L50476 67344
L50532 67119
L50589 67007
L50645 66950
L50757 66894
" />
<path d="M51657 67963
L51714 68019
L51657 68075
L51601 68019
L51657 67963
L51657 68075
" />
<path d="M52445 66894
L52557 66894
L52670 66950
L52726 67007
L52782 67119
L52838 67344
L52838 67625
L52782 67850
L52726 67963
L52670 68019
L52557 68075
L52445 68075
L52332 68019
L52276 67963
L52220 67850
L52163 67625
L52163 67344
L52220 67119
L52276 67007
L52332 66950
L52445 66894
" />
<path d="M53851 67288
L53851 68075
" />
<path d="M53570 66838
L53288 67681
L54019 67681
" />
<path d="M54357 66894
L55144 66894
L54638 68075
" />
<path d="M55538 66894
L55538 67119
" />
<path d="M55988 66894
L55988 67119
" />
<path d="M57732 68525
L57675 68469
L57563 68300
L57507 68188
L57450 68019
L57394 67738
L57394 67513
L57450 67232
L57507 67063
L57563 66950
L57675 66782
L57732 66725
" />
<path d="M58688 66894
L58463 66894
L58350 66950
L58294 67007
L58181 67175
L58125 67400
L58125 67850
L58181 67963
L58238 68019
L58350 68075
L58575 68075
L58688 68019
L58744 67963
L58800 67850
L58800 67569
L58744 67456
L58688 67400
L58575 67344
L58350 67344
L58238 67400
L58181 67456
L58125 67569
" />
<path d="M60206 68075
L60206 66894
" />
<path d="M60712 68075
L60712 67456
L60656 67344
L60544 67288
L60375 67288
L60262 67344
L60206 67400
" />
<path d="M61444 68075
L61331 68019
L61275 67963
L61219 67850
L61219 67513
L61275 67400
L61331 67344
L61444 67288
L61612 67288
L61725 67344
L61781 67400
L61837 67513
L61837 67850
L61781 67963
L61725 68019
L61612 68075
L61444 68075
" />
<path d="M62512 68075
L62400 68019
L62343 67906
L62343 66894
" />
<path d="M63412 68019
L63300 68075
L63075 68075
L62962 68019
L62906 67906
L62906 67456
L62962 67344
L63075 67288
L63300 67288
L63412 67344
L63468 67456
L63468 67569
L62906 67681
" />
<path d="M63918 68019
L64031 68075
L64256 68075
L64368 68019
L64424 67906
L64424 67850
L64368 67738
L64256 67681
L64087 67681
L63974 67625
L63918 67513
L63918 67456
L63974 67344
L64087 67288
L64256 67288
L64368 67344
" />
<path d="M64818 68525
L64874 68469
L64987 68300
L65043 68188
L65099 68019
L65156 67738
L65156 67513
L65099 67232
L65043 67063
L64987 66950
L64874 66782
L64818 66725
" />
<polyline fill="none;"
points="38789,69651
39340,69100
38789,68549
38238,69100
38789,69651
" /> 
<path d="M40352 68566
L40409 68509
L40521 68453
L40802 68453
L40915 68509
L40971 68566
L41027 68678
L41027 68791
L40971 68959
L40296 69634
L41027 69634
" />
<path d="M41534 69522
L41590 69578
L41534 69634
L41477 69578
L41534 69522
L41534 69634
" />
<path d="M42265 68959
L42152 68903
L42096 68847
L42040 68734
L42040 68678
L42096 68566
L42152 68509
L42265 68453
L42490 68453
L42602 68509
L42658 68566
L42715 68678
L42715 68734
L42658 68847
L42602 68903
L42490 68959
L42265 68959
L42152 69016
L42096 69072
L42040 69184
L42040 69409
L42096 69522
L42152 69578
L42265 69634
L42490 69634
L42602 69578
L42658 69522
L42715 69409
L42715 69184
L42658 69072
L42602 69016
L42490 68959
" />
<path d="M43446 68453
L43558 68453
L43671 68509
L43727 68566
L43783 68678
L43839 68903
L43839 69184
L43783 69409
L43727 69522
L43671 69578
L43558 69634
L43446 69634
L43333 69578
L43277 69522
L43221 69409
L43165 69184
L43165 68903
L43221 68678
L43277 68566
L43333 68509
L43446 68453
" />
<path d="M44346 69634
L44346 68847
" />
<path d="M44346 68959
L44402 68903
L44514 68847
L44683 68847
L44796 68903
L44852 69016
L44852 69634
" />
<path d="M44852 69016
L44908 68903
L45021 68847
L45189 68847
L45302 68903
L45358 69016
L45358 69634
" />
<path d="M45920 69634
L45920 68847
" />
<path d="M45920 68959
L45977 68903
L46089 68847
L46258 68847
L46370 68903
L46427 69016
L46427 69634
" />
<path d="M46427 69016
L46483 68903
L46595 68847
L46764 68847
L46877 68903
L46933 69016
L46933 69634
" />
<path d="M49239 68397
L48226 69915
" />
<path d="M50757 68453
L50870 68453
L50982 68509
L51039 68566
L51095 68678
L51151 68903
L51151 69184
L51095 69409
L51039 69522
L50982 69578
L50870 69634
L50757 69634
L50645 69578
L50589 69522
L50532 69409
L50476 69184
L50476 68903
L50532 68678
L50589 68566
L50645 68509
L50757 68453
" />
<path d="M51657 69522
L51714 69578
L51657 69634
L51601 69578
L51657 69522
L51657 69634
" />
<path d="M52838 69634
L52163 69634
" />
<path d="M52501 69634
L52501 68453
L52388 68622
L52276 68734
L52163 68791
" />
<path d="M53963 69634
L53288 69634
" />
<path d="M53626 69634
L53626 68453
L53513 68622
L53401 68734
L53288 68791
" />
<path d="M54694 68453
L54807 68453
L54919 68509
L54976 68566
L55032 68678
L55088 68903
L55088 69184
L55032 69409
L54976 69522
L54919 69578
L54807 69634
L54694 69634
L54582 69578
L54526 69522
L54469 69409
L54413 69184
L54413 68903
L54469 68678
L54526 68566
L54582 68509
L54694 68453
" />
<path d="M55538 68453
L55538 68678
" />
<path d="M55988 68453
L55988 68678
" />
<path d="M57732 70084
L57675 70028
L57563 69859
L57507 69747
L57450 69578
L57394 69297
L57394 69072
L57450 68791
L57507 68622
L57563 68509
L57675 68341
L57732 68284
" />
<path d="M58688 68847
L58688 69634
" />
<path d="M58406 68397
L58125 69241
L58856 69241
" />
<path d="M60206 69634
L60206 68453
" />
<path d="M60712 69634
L60712 69016
L60656 68903
L60544 68847
L60375 68847
L60262 68903
L60206 68959
" />
<path d="M61444 69634
L61331 69578
L61275 69522
L61219 69409
L61219 69072
L61275 68959
L61331 68903
L61444 68847
L61612 68847
L61725 68903
L61781 68959
L61837 69072
L61837 69409
L61781 69522
L61725 69578
L61612 69634
L61444 69634
" />
<path d="M62512 69634
L62400 69578
L62343 69465
L62343 68453
" />
<path d="M63412 69578
L63300 69634
L63075 69634
L62962 69578
L62906 69465
L62906 69016
L62962 68903
L63075 68847
L63300 68847
L63412 68903
L63468 69016
L63468 69128
L62906 69241
" />
<path d="M63918 69578
L64031 69634
L64256 69634
L64368 69578
L64424 69465
L64424 69409
L64368 69297
L64256 69241
L64087 69241
L63974 69184
L63918 69072
L63918 69016
L63974 68903
L64087 68847
L64256 68847
L64368 68903
" />
<path d="M64818 70084
L64874 70028
L64987 69859
L65043 69747
L65099 69578
L65156 69297
L65156 69072
L65099 68791
L65043 68622
L64987 68509
L64874 68341
L64818 68284
" />
<path d="M38080 70084
L39340 71344
" />
<path d="M39340 70084
L38080 71344
" />
<circle cx="38710.6" cy="70714.6" r="629.921" /> 
<path d="M40296 70067
L41027 70067
L40634 70517
L40802 70517
L40915 70573
L40971 70630
L41027 70742
L41027 71023
L40971 71136
L40915 71192
L40802 71248
L40465 71248
L40352 71192
L40296 71136
" />
<path d="M41534 71136
L41590 71192
L41534 71248
L41477 71192
L41534 71136
L41534 71248
" />
<path d="M42040 70180
L42096 70124
L42208 70067
L42490 70067
L42602 70124
L42658 70180
L42715 70292
L42715 70405
L42658 70573
L41983 71248
L42715 71248
" />
<path d="M43446 70067
L43558 70067
L43671 70124
L43727 70180
L43783 70292
L43839 70517
L43839 70798
L43783 71023
L43727 71136
L43671 71192
L43558 71248
L43446 71248
L43333 71192
L43277 71136
L43221 71023
L43165 70798
L43165 70517
L43221 70292
L43277 70180
L43333 70124
L43446 70067
" />
<path d="M44346 71248
L44346 70461
" />
<path d="M44346 70573
L44402 70517
L44514 70461
L44683 70461
L44796 70517
L44852 70630
L44852 71248
" />
<path d="M44852 70630
L44908 70517
L45021 70461
L45189 70461
L45302 70517
L45358 70630
L45358 71248
" />
<path d="M45920 71248
L45920 70461
" />
<path d="M45920 70573
L45977 70517
L46089 70461
L46258 70461
L46370 70517
L46427 70630
L46427 71248
" />
<path d="M46427 70630
L46483 70517
L46595 70461
L46764 70461
L46877 70517
L46933 70630
L46933 71248
" />
<path d="M49239 70011
L48226 71530
" />
<path d="M50757 70067
L50870 70067
L50982 70124
L51039 70180
L51095 70292
L51151 70517
L51151 70798
L51095 71023
L51039 71136
L50982 71192
L50870 71248
L50757 71248
L50645 71192
L50589 71136
L50532 71023
L50476 70798
L50476 70517
L50532 70292
L50589 70180
L50645 70124
L50757 70067
" />
<path d="M51657 71136
L51714 71192
L51657 71248
L51601 71192
L51657 71136
L51657 71248
" />
<path d="M52838 71248
L52163 71248
" />
<path d="M52501 71248
L52501 70067
L52388 70236
L52276 70348
L52163 70405
" />
<path d="M53288 70180
L53345 70124
L53457 70067
L53738 70067
L53851 70124
L53907 70180
L53963 70292
L53963 70405
L53907 70573
L53232 71248
L53963 71248
" />
<path d="M54976 70067
L54751 70067
L54638 70124
L54582 70180
L54469 70348
L54413 70573
L54413 71023
L54469 71136
L54526 71192
L54638 71248
L54863 71248
L54976 71192
L55032 71136
L55088 71023
L55088 70742
L55032 70630
L54976 70573
L54863 70517
L54638 70517
L54526 70573
L54469 70630
L54413 70742
" />
<path d="M55538 70067
L55538 70292
" />
<path d="M55988 70067
L55988 70292
" />
<path d="M57732 71698
L57675 71642
L57563 71473
L57507 71361
L57450 71192
L57394 70911
L57394 70686
L57450 70405
L57507 70236
L57563 70124
L57675 69955
L57732 69899
" />
<path d="M58688 70461
L58688 71248
" />
<path d="M58406 70011
L58125 70855
L58856 70855
" />
<path d="M60206 71248
L60206 70067
" />
<path d="M60712 71248
L60712 70630
L60656 70517
L60544 70461
L60375 70461
L60262 70517
L60206 70573
" />
<path d="M61444 71248
L61331 71192
L61275 71136
L61219 71023
L61219 70686
L61275 70573
L61331 70517
L61444 70461
L61612 70461
L61725 70517
L61781 70573
L61837 70686
L61837 71023
L61781 71136
L61725 71192
L61612 71248
L61444 71248
" />
<path d="M62512 71248
L62400 71192
L62343 71080
L62343 70067
" />
<path d="M63412 71192
L63300 71248
L63075 71248
L62962 71192
L62906 71080
L62906 70630
L62962 70517
L63075 70461
L63300 70461
L63412 70517
L63468 70630
L63468 70742
L62906 70855
" />
<path d="M63918 71192
L64031 71248
L64256 71248
L64368 71192
L64424 71080
L64424 71023
L64368 70911
L64256 70855
L64087 70855
L63974 70798
L63918 70686
L63918 70630
L63974 70517
L64087 70461
L64256 70461
L64368 70517
" />
<path d="M64818 71698
L64874 71642
L64987 71473
L65043 71361
L65099 71192
L65156 70911
L65156 70686
L65099 70405
L65043 70236
L64987 70124
L64874 69955
L64818 69899
" />
<path d="M66955 71698
L66899 71642
L66787 71473
L66730 71361
L66674 71192
L66618 70911
L66618 70686
L66674 70405
L66730 70236
L66787 70124
L66899 69955
L66955 69899
" />
<path d="M67405 70461
L67405 71248
" />
<path d="M67405 70573
L67462 70517
L67574 70461
L67743 70461
L67855 70517
L67911 70630
L67911 71248
" />
<path d="M68643 71248
L68530 71192
L68474 71136
L68418 71023
L68418 70686
L68474 70573
L68530 70517
L68643 70461
L68811 70461
L68924 70517
L68980 70573
L69036 70686
L69036 71023
L68980 71136
L68924 71192
L68811 71248
L68643 71248
" />
<path d="M69374 70461
L69824 70461
" />
<path d="M69543 70067
L69543 71080
L69599 71192
L69711 71248
L69824 71248
" />
<path d="M71117 70461
L71117 71642
" />
<path d="M71117 70517
L71230 70461
L71455 70461
L71567 70517
L71624 70573
L71680 70686
L71680 71023
L71624 71136
L71567 71192
L71455 71248
L71230 71248
L71117 71192
" />
<path d="M72355 71248
L72242 71192
L72186 71080
L72186 70067
" />
<path d="M73311 71248
L73311 70630
L73255 70517
L73142 70461
L72917 70461
L72805 70517
" />
<path d="M73311 71192
L73198 71248
L72917 71248
L72805 71192
L72748 71080
L72748 70967
L72805 70855
L72917 70798
L73198 70798
L73311 70742
" />
<path d="M73705 70461
L74154 70461
" />
<path d="M73873 70067
L73873 71080
L73929 71192
L74042 71248
L74154 71248
" />
<path d="M74998 71192
L74886 71248
L74661 71248
L74548 71192
L74492 71080
L74492 70630
L74548 70517
L74661 70461
L74886 70461
L74998 70517
L75054 70630
L75054 70742
L74492 70855
" />
<path d="M76067 71248
L76067 70067
" />
<path d="M76067 71192
L75954 71248
L75729 71248
L75617 71192
L75561 71136
L75504 71023
L75504 70686
L75561 70573
L75617 70517
L75729 70461
L75954 70461
L76067 70517
" />
<path d="M76517 71698
L76573 71642
L76685 71473
L76742 71361
L76798 71192
L76854 70911
L76854 70686
L76798 70405
L76742 70236
L76685 70124
L76573 69955
L76517 69899
" />
</g> 
</svg>
