G04 #@! TF.FileFunction,Legend,Bot*
%FSLAX46Y46*%
G04 Gerber Fmt 4.6, Leading zero omitted, Abs format (unit mm)*
G04 Created by KiCad (PCBNEW 4.0.2-stable) date 20/05/2016 13:58:28*
%MOMM*%
G01*
G04 APERTURE LIST*
%ADD10C,0.100000*%
%ADD11C,0.150000*%
G04 APERTURE END LIST*
D10*
D11*
X0Y100000000D02*
X0Y0D01*
X100000000Y100000000D02*
X0Y100000000D01*
X100000000Y0D02*
X100000000Y100000000D01*
X0Y0D02*
X100000000Y0D01*
X19235261Y70636175D02*
X18701861Y70636175D01*
X19235261Y70636175D02*
X19768661Y70636175D01*
X19235261Y69366175D02*
X18701861Y69366175D01*
X19235261Y69366175D02*
X19768661Y69366175D01*
X46990000Y69850000D02*
X46456600Y69850000D01*
X46990000Y69850000D02*
X47523400Y69850000D01*
X46990000Y68580000D02*
X46456600Y68580000D01*
X46990000Y68580000D02*
X47523400Y68580000D01*
X19235261Y78256175D02*
X18701861Y78256175D01*
X19235261Y78256175D02*
X19768661Y78256175D01*
X19235261Y76986175D02*
X18701861Y76986175D01*
X19235261Y76986175D02*
X19768661Y76986175D01*
X46990000Y77470000D02*
X46456600Y77470000D01*
X46990000Y77470000D02*
X47523400Y77470000D01*
X46990000Y76200000D02*
X46456600Y76200000D01*
X46990000Y76200000D02*
X47523400Y76200000D01*
X19685000Y55245000D02*
X19685000Y55778400D01*
X19685000Y55245000D02*
X19685000Y54711600D01*
X18415000Y55245000D02*
X18415000Y55778400D01*
X18415000Y55245000D02*
X18415000Y54711600D01*
X19685000Y35560000D02*
X19685000Y36093400D01*
X19685000Y35560000D02*
X19685000Y35026600D01*
X18415000Y35560000D02*
X18415000Y36093400D01*
X18415000Y35560000D02*
X18415000Y35026600D01*
X23495000Y55245000D02*
X23495000Y55778400D01*
X23495000Y55245000D02*
X23495000Y54711600D01*
X22225000Y55245000D02*
X22225000Y55778400D01*
X22225000Y55245000D02*
X22225000Y54711600D01*
X23495000Y35560000D02*
X23495000Y36093400D01*
X23495000Y35560000D02*
X23495000Y35026600D01*
X22225000Y35560000D02*
X22225000Y36093400D01*
X22225000Y35560000D02*
X22225000Y35026600D01*
X27305000Y55245000D02*
X27305000Y55778400D01*
X27305000Y55245000D02*
X27305000Y54711600D01*
X26035000Y55245000D02*
X26035000Y55778400D01*
X26035000Y55245000D02*
X26035000Y54711600D01*
X27178000Y35560000D02*
X27178000Y36093400D01*
X27178000Y35560000D02*
X27178000Y35026600D01*
X25908000Y35560000D02*
X25908000Y36093400D01*
X25908000Y35560000D02*
X25908000Y35026600D01*
X37338000Y55372000D02*
X37338000Y55905400D01*
X37338000Y55372000D02*
X37338000Y54838600D01*
X36068000Y55372000D02*
X36068000Y55905400D01*
X36068000Y55372000D02*
X36068000Y54838600D01*
X35433000Y40767000D02*
X34899600Y40767000D01*
X35433000Y40767000D02*
X35966400Y40767000D01*
X35433000Y39497000D02*
X34899600Y39497000D01*
X35433000Y39497000D02*
X35966400Y39497000D01*
X40640000Y55372000D02*
X40640000Y55905400D01*
X40640000Y55372000D02*
X40640000Y54838600D01*
X39370000Y55372000D02*
X39370000Y55905400D01*
X39370000Y55372000D02*
X39370000Y54838600D01*
X40640000Y35560000D02*
X40640000Y36093400D01*
X40640000Y35560000D02*
X40640000Y35026600D01*
X39370000Y35560000D02*
X39370000Y36093400D01*
X39370000Y35560000D02*
X39370000Y35026600D01*
X44450000Y55372000D02*
X44450000Y55905400D01*
X44450000Y55372000D02*
X44450000Y54838600D01*
X43180000Y55372000D02*
X43180000Y55905400D01*
X43180000Y55372000D02*
X43180000Y54838600D01*
X44450000Y35560000D02*
X44450000Y36093400D01*
X44450000Y35560000D02*
X44450000Y35026600D01*
X43180000Y35560000D02*
X43180000Y36093400D01*
X43180000Y35560000D02*
X43180000Y35026600D01*
X48260000Y55372000D02*
X48260000Y55905400D01*
X48260000Y55372000D02*
X48260000Y54838600D01*
X46990000Y55372000D02*
X46990000Y55905400D01*
X46990000Y55372000D02*
X46990000Y54838600D01*
X48260000Y35560000D02*
X48260000Y36093400D01*
X48260000Y35560000D02*
X48260000Y35026600D01*
X46990000Y35560000D02*
X46990000Y36093400D01*
X46990000Y35560000D02*
X46990000Y35026600D01*
X21775261Y85241175D02*
X21775261Y85774575D01*
X21775261Y85241175D02*
X21775261Y84707775D01*
X20505261Y85241175D02*
X20505261Y85774575D01*
X20505261Y85241175D02*
X20505261Y84707775D01*
X50165000Y84455000D02*
X50165000Y84988400D01*
X50165000Y84455000D02*
X50165000Y83921600D01*
X48895000Y84455000D02*
X48895000Y84988400D01*
X48895000Y84455000D02*
X48895000Y83921600D01*
X73565000Y71712000D02*
X73565000Y71178600D01*
X73565000Y71712000D02*
X73565000Y72245400D01*
X74835000Y71712000D02*
X74835000Y71178600D01*
X74835000Y71712000D02*
X74835000Y72245400D01*
X79756000Y21971000D02*
X80289400Y21971000D01*
X79756000Y21971000D02*
X79222600Y21971000D01*
X79756000Y23241000D02*
X80289400Y23241000D01*
X79756000Y23241000D02*
X79222600Y23241000D01*
X28125261Y85241175D02*
X28125261Y85774575D01*
X28125261Y85241175D02*
X28125261Y84707775D01*
X26855261Y85241175D02*
X26855261Y85774575D01*
X26855261Y85241175D02*
X26855261Y84707775D01*
X56515000Y84455000D02*
X56515000Y84988400D01*
X56515000Y84455000D02*
X56515000Y83921600D01*
X55245000Y84455000D02*
X55245000Y84988400D01*
X55245000Y84455000D02*
X55245000Y83921600D01*
X70739000Y61976000D02*
X70739000Y62509400D01*
X70739000Y61976000D02*
X70739000Y61442600D01*
X69469000Y61976000D02*
X69469000Y62509400D01*
X69469000Y61976000D02*
X69469000Y61442600D01*
X76835000Y31115000D02*
X76835000Y31648400D01*
X76835000Y31115000D02*
X76835000Y30581600D01*
X75565000Y31115000D02*
X75565000Y31648400D01*
X75565000Y31115000D02*
X75565000Y30581600D01*
X12065000Y51270000D02*
X12065000Y50270000D01*
X12065000Y52870000D02*
X12065000Y53870000D01*
X14965000Y48670000D02*
X14165000Y48670000D01*
X14965000Y55470000D02*
X14165000Y55470000D01*
X9165000Y52070000D02*
X9165000Y48670000D01*
X9165000Y48670000D02*
X9965000Y48670000D01*
X9165000Y52070000D02*
X9165000Y55470000D01*
X9165000Y55470000D02*
X9965000Y55470000D01*
X14965000Y52070000D02*
X14965000Y48670000D01*
X14965000Y52070000D02*
X14965000Y55470000D01*
X13320902Y57470000D02*
G75*
G03X13320902Y57470000I-55902J0D01*
G01*
X12065000Y52447500D02*
X12065000Y52847500D01*
X12065000Y51647500D02*
X12065000Y51247500D01*
X12865000Y52447500D02*
X11265000Y52447500D01*
X12865000Y51647500D02*
X12065000Y52447500D01*
X12865000Y51647500D02*
X11265000Y51647500D01*
X11265000Y51647500D02*
X12065000Y52447500D01*
X12065000Y37808000D02*
X12065000Y36808000D01*
X12065000Y39408000D02*
X12065000Y40408000D01*
X14965000Y35208000D02*
X14165000Y35208000D01*
X14965000Y42008000D02*
X14165000Y42008000D01*
X9165000Y38608000D02*
X9165000Y35208000D01*
X9165000Y35208000D02*
X9965000Y35208000D01*
X9165000Y38608000D02*
X9165000Y42008000D01*
X9165000Y42008000D02*
X9965000Y42008000D01*
X14965000Y38608000D02*
X14965000Y35208000D01*
X14965000Y38608000D02*
X14965000Y42008000D01*
X13320902Y44008000D02*
G75*
G03X13320902Y44008000I-55902J0D01*
G01*
X12065000Y38985500D02*
X12065000Y39385500D01*
X12065000Y38185500D02*
X12065000Y37785500D01*
X12865000Y38985500D02*
X11265000Y38985500D01*
X12865000Y38185500D02*
X12065000Y38985500D01*
X12865000Y38185500D02*
X11265000Y38185500D01*
X11265000Y38185500D02*
X12065000Y38985500D01*
X33020000Y58801000D02*
X32486600Y58801000D01*
X33020000Y58801000D02*
X33553400Y58801000D01*
X33020000Y57531000D02*
X32486600Y57531000D01*
X33020000Y57531000D02*
X33553400Y57531000D01*
X33401000Y32893000D02*
X32867600Y32893000D01*
X33401000Y32893000D02*
X33934400Y32893000D01*
X33401000Y31623000D02*
X32867600Y31623000D01*
X33401000Y31623000D02*
X33934400Y31623000D01*
X35560000Y50165000D02*
X36093400Y50165000D01*
X35560000Y50165000D02*
X35026600Y50165000D01*
X35560000Y51435000D02*
X36093400Y51435000D01*
X35560000Y51435000D02*
X35026600Y51435000D01*
X37211000Y35560000D02*
X37211000Y36093400D01*
X37211000Y35560000D02*
X37211000Y35026600D01*
X35941000Y35560000D02*
X35941000Y36093400D01*
X35941000Y35560000D02*
X35941000Y35026600D01*
X80094000Y73279000D02*
X80627400Y73279000D01*
X80094000Y73279000D02*
X79560600Y73279000D01*
X80094000Y74549000D02*
X80627400Y74549000D01*
X80094000Y74549000D02*
X79560600Y74549000D01*
X79840000Y16383000D02*
X79306600Y16383000D01*
X79840000Y16383000D02*
X80373400Y16383000D01*
X79840000Y15113000D02*
X79306600Y15113000D01*
X79840000Y15113000D02*
X80373400Y15113000D01*
X62611000Y58420000D02*
X62611000Y58953400D01*
X62611000Y58420000D02*
X62611000Y57886600D01*
X61341000Y58420000D02*
X61341000Y58953400D01*
X61341000Y58420000D02*
X61341000Y57886600D01*
X65151000Y28575000D02*
X65151000Y29108400D01*
X65151000Y28575000D02*
X65151000Y28041600D01*
X63881000Y28575000D02*
X63881000Y29108400D01*
X63881000Y28575000D02*
X63881000Y28041600D01*
X65659000Y58420000D02*
X65659000Y58953400D01*
X65659000Y58420000D02*
X65659000Y57886600D01*
X64389000Y58420000D02*
X64389000Y58953400D01*
X64389000Y58420000D02*
X64389000Y57886600D01*
X68199000Y28575000D02*
X68199000Y29108400D01*
X68199000Y28575000D02*
X68199000Y28041600D01*
X66929000Y28575000D02*
X66929000Y29108400D01*
X66929000Y28575000D02*
X66929000Y28041600D01*
X74041000Y61976000D02*
X74041000Y62509400D01*
X74041000Y61976000D02*
X74041000Y61442600D01*
X72771000Y61976000D02*
X72771000Y62509400D01*
X72771000Y61976000D02*
X72771000Y61442600D01*
X80137000Y31115000D02*
X80137000Y31648400D01*
X80137000Y31115000D02*
X80137000Y30581600D01*
X78867000Y31115000D02*
X78867000Y31648400D01*
X78867000Y31115000D02*
X78867000Y30581600D01*
X79132000Y26808000D02*
X79132000Y25008000D01*
X78432000Y25908000D02*
X78832000Y25908000D01*
X77932000Y25908000D02*
X77532000Y25908000D01*
X78432000Y26308000D02*
X78432000Y25508000D01*
X77932000Y25508000D02*
X78332000Y25908000D01*
X77932000Y26308000D02*
X77932000Y25508000D01*
X78332000Y25908000D02*
X77932000Y26308000D01*
X76632000Y25008000D02*
X76632000Y25108000D01*
X79632000Y25008000D02*
X76632000Y25008000D01*
X79632000Y25108000D02*
X79632000Y25008000D01*
X76832000Y26808000D02*
X76832000Y26708000D01*
X78232000Y26808000D02*
X76832000Y26808000D01*
X79632000Y26808000D02*
X79632000Y26708000D01*
X78232000Y26808000D02*
X79632000Y26808000D01*
X61606000Y63362000D02*
X59806000Y63362000D01*
X60706000Y64062000D02*
X60706000Y63662000D01*
X60706000Y64562000D02*
X60706000Y64962000D01*
X61106000Y64062000D02*
X60306000Y64062000D01*
X60306000Y64562000D02*
X60706000Y64162000D01*
X61106000Y64562000D02*
X60306000Y64562000D01*
X60706000Y64162000D02*
X61106000Y64562000D01*
X59806000Y65862000D02*
X59906000Y65862000D01*
X59806000Y62862000D02*
X59806000Y65862000D01*
X59906000Y62862000D02*
X59806000Y62862000D01*
X61606000Y65662000D02*
X61506000Y65662000D01*
X61606000Y64262000D02*
X61606000Y65662000D01*
X61606000Y62862000D02*
X61506000Y62862000D01*
X61606000Y64262000D02*
X61606000Y62862000D01*
X85206000Y62446000D02*
X87006000Y62446000D01*
X86106000Y61746000D02*
X86106000Y62146000D01*
X86106000Y61246000D02*
X86106000Y60846000D01*
X85706000Y61746000D02*
X86506000Y61746000D01*
X86506000Y61246000D02*
X86106000Y61646000D01*
X85706000Y61246000D02*
X86506000Y61246000D01*
X86106000Y61646000D02*
X85706000Y61246000D01*
X87006000Y59946000D02*
X86906000Y59946000D01*
X87006000Y62946000D02*
X87006000Y59946000D01*
X86906000Y62946000D02*
X87006000Y62946000D01*
X85206000Y60146000D02*
X85306000Y60146000D01*
X85206000Y61546000D02*
X85206000Y60146000D01*
X85206000Y62946000D02*
X85306000Y62946000D01*
X85206000Y61546000D02*
X85206000Y62946000D01*
X87500000Y33000000D02*
X89300000Y33000000D01*
X88400000Y32300000D02*
X88400000Y32700000D01*
X88400000Y31800000D02*
X88400000Y31400000D01*
X88000000Y32300000D02*
X88800000Y32300000D01*
X88800000Y31800000D02*
X88400000Y32200000D01*
X88000000Y31800000D02*
X88800000Y31800000D01*
X88400000Y32200000D02*
X88000000Y31800000D01*
X89300000Y30500000D02*
X89200000Y30500000D01*
X89300000Y33500000D02*
X89300000Y30500000D01*
X89200000Y33500000D02*
X89300000Y33500000D01*
X87500000Y30700000D02*
X87600000Y30700000D01*
X87500000Y32100000D02*
X87500000Y30700000D01*
X87500000Y33500000D02*
X87600000Y33500000D01*
X87500000Y32100000D02*
X87500000Y33500000D01*
X16359047Y70127857D02*
X16406666Y70080238D01*
X16549523Y70032619D01*
X16644761Y70032619D01*
X16787619Y70080238D01*
X16882857Y70175476D01*
X16930476Y70270714D01*
X16978095Y70461190D01*
X16978095Y70604048D01*
X16930476Y70794524D01*
X16882857Y70889762D01*
X16787619Y70985000D01*
X16644761Y71032619D01*
X16549523Y71032619D01*
X16406666Y70985000D01*
X16359047Y70937381D01*
X15406666Y70032619D02*
X15978095Y70032619D01*
X15692381Y70032619D02*
X15692381Y71032619D01*
X15787619Y70889762D01*
X15882857Y70794524D01*
X15978095Y70746905D01*
X14787619Y71032619D02*
X14692380Y71032619D01*
X14597142Y70985000D01*
X14549523Y70937381D01*
X14501904Y70842143D01*
X14454285Y70651667D01*
X14454285Y70413571D01*
X14501904Y70223095D01*
X14549523Y70127857D01*
X14597142Y70080238D01*
X14692380Y70032619D01*
X14787619Y70032619D01*
X14882857Y70080238D01*
X14930476Y70127857D01*
X14978095Y70223095D01*
X15025714Y70413571D01*
X15025714Y70651667D01*
X14978095Y70842143D01*
X14930476Y70937381D01*
X14882857Y70985000D01*
X14787619Y71032619D01*
X14120952Y71032619D02*
X13501904Y71032619D01*
X13835238Y70651667D01*
X13692380Y70651667D01*
X13597142Y70604048D01*
X13549523Y70556429D01*
X13501904Y70461190D01*
X13501904Y70223095D01*
X13549523Y70127857D01*
X13597142Y70080238D01*
X13692380Y70032619D01*
X13978095Y70032619D01*
X14073333Y70080238D01*
X14120952Y70127857D01*
X44299047Y68857857D02*
X44346666Y68810238D01*
X44489523Y68762619D01*
X44584761Y68762619D01*
X44727619Y68810238D01*
X44822857Y68905476D01*
X44870476Y69000714D01*
X44918095Y69191190D01*
X44918095Y69334048D01*
X44870476Y69524524D01*
X44822857Y69619762D01*
X44727619Y69715000D01*
X44584761Y69762619D01*
X44489523Y69762619D01*
X44346666Y69715000D01*
X44299047Y69667381D01*
X43346666Y68762619D02*
X43918095Y68762619D01*
X43632381Y68762619D02*
X43632381Y69762619D01*
X43727619Y69619762D01*
X43822857Y69524524D01*
X43918095Y69476905D01*
X42727619Y69762619D02*
X42632380Y69762619D01*
X42537142Y69715000D01*
X42489523Y69667381D01*
X42441904Y69572143D01*
X42394285Y69381667D01*
X42394285Y69143571D01*
X42441904Y68953095D01*
X42489523Y68857857D01*
X42537142Y68810238D01*
X42632380Y68762619D01*
X42727619Y68762619D01*
X42822857Y68810238D01*
X42870476Y68857857D01*
X42918095Y68953095D01*
X42965714Y69143571D01*
X42965714Y69381667D01*
X42918095Y69572143D01*
X42870476Y69667381D01*
X42822857Y69715000D01*
X42727619Y69762619D01*
X41537142Y69429286D02*
X41537142Y68762619D01*
X41775238Y69810238D02*
X42013333Y69095952D01*
X41394285Y69095952D01*
X16359047Y77112857D02*
X16406666Y77065238D01*
X16549523Y77017619D01*
X16644761Y77017619D01*
X16787619Y77065238D01*
X16882857Y77160476D01*
X16930476Y77255714D01*
X16978095Y77446190D01*
X16978095Y77589048D01*
X16930476Y77779524D01*
X16882857Y77874762D01*
X16787619Y77970000D01*
X16644761Y78017619D01*
X16549523Y78017619D01*
X16406666Y77970000D01*
X16359047Y77922381D01*
X15406666Y77017619D02*
X15978095Y77017619D01*
X15692381Y77017619D02*
X15692381Y78017619D01*
X15787619Y77874762D01*
X15882857Y77779524D01*
X15978095Y77731905D01*
X14787619Y78017619D02*
X14692380Y78017619D01*
X14597142Y77970000D01*
X14549523Y77922381D01*
X14501904Y77827143D01*
X14454285Y77636667D01*
X14454285Y77398571D01*
X14501904Y77208095D01*
X14549523Y77112857D01*
X14597142Y77065238D01*
X14692380Y77017619D01*
X14787619Y77017619D01*
X14882857Y77065238D01*
X14930476Y77112857D01*
X14978095Y77208095D01*
X15025714Y77398571D01*
X15025714Y77636667D01*
X14978095Y77827143D01*
X14930476Y77922381D01*
X14882857Y77970000D01*
X14787619Y78017619D01*
X14120952Y78017619D02*
X13454285Y78017619D01*
X13882857Y77017619D01*
X44299047Y76477857D02*
X44346666Y76430238D01*
X44489523Y76382619D01*
X44584761Y76382619D01*
X44727619Y76430238D01*
X44822857Y76525476D01*
X44870476Y76620714D01*
X44918095Y76811190D01*
X44918095Y76954048D01*
X44870476Y77144524D01*
X44822857Y77239762D01*
X44727619Y77335000D01*
X44584761Y77382619D01*
X44489523Y77382619D01*
X44346666Y77335000D01*
X44299047Y77287381D01*
X43346666Y76382619D02*
X43918095Y76382619D01*
X43632381Y76382619D02*
X43632381Y77382619D01*
X43727619Y77239762D01*
X43822857Y77144524D01*
X43918095Y77096905D01*
X42727619Y77382619D02*
X42632380Y77382619D01*
X42537142Y77335000D01*
X42489523Y77287381D01*
X42441904Y77192143D01*
X42394285Y77001667D01*
X42394285Y76763571D01*
X42441904Y76573095D01*
X42489523Y76477857D01*
X42537142Y76430238D01*
X42632380Y76382619D01*
X42727619Y76382619D01*
X42822857Y76430238D01*
X42870476Y76477857D01*
X42918095Y76573095D01*
X42965714Y76763571D01*
X42965714Y77001667D01*
X42918095Y77192143D01*
X42870476Y77287381D01*
X42822857Y77335000D01*
X42727619Y77382619D01*
X41822857Y76954048D02*
X41918095Y77001667D01*
X41965714Y77049286D01*
X42013333Y77144524D01*
X42013333Y77192143D01*
X41965714Y77287381D01*
X41918095Y77335000D01*
X41822857Y77382619D01*
X41632380Y77382619D01*
X41537142Y77335000D01*
X41489523Y77287381D01*
X41441904Y77192143D01*
X41441904Y77144524D01*
X41489523Y77049286D01*
X41537142Y77001667D01*
X41632380Y76954048D01*
X41822857Y76954048D01*
X41918095Y76906429D01*
X41965714Y76858810D01*
X42013333Y76763571D01*
X42013333Y76573095D01*
X41965714Y76477857D01*
X41918095Y76430238D01*
X41822857Y76382619D01*
X41632380Y76382619D01*
X41537142Y76430238D01*
X41489523Y76477857D01*
X41441904Y76573095D01*
X41441904Y76763571D01*
X41489523Y76858810D01*
X41537142Y76906429D01*
X41632380Y76954048D01*
X19407143Y60301047D02*
X19454762Y60348666D01*
X19502381Y60491523D01*
X19502381Y60586761D01*
X19454762Y60729619D01*
X19359524Y60824857D01*
X19264286Y60872476D01*
X19073810Y60920095D01*
X18930952Y60920095D01*
X18740476Y60872476D01*
X18645238Y60824857D01*
X18550000Y60729619D01*
X18502381Y60586761D01*
X18502381Y60491523D01*
X18550000Y60348666D01*
X18597619Y60301047D01*
X19502381Y59348666D02*
X19502381Y59920095D01*
X19502381Y59634381D02*
X18502381Y59634381D01*
X18645238Y59729619D01*
X18740476Y59824857D01*
X18788095Y59920095D01*
X18502381Y58729619D02*
X18502381Y58634380D01*
X18550000Y58539142D01*
X18597619Y58491523D01*
X18692857Y58443904D01*
X18883333Y58396285D01*
X19121429Y58396285D01*
X19311905Y58443904D01*
X19407143Y58491523D01*
X19454762Y58539142D01*
X19502381Y58634380D01*
X19502381Y58729619D01*
X19454762Y58824857D01*
X19407143Y58872476D01*
X19311905Y58920095D01*
X19121429Y58967714D01*
X18883333Y58967714D01*
X18692857Y58920095D01*
X18597619Y58872476D01*
X18550000Y58824857D01*
X18502381Y58729619D01*
X19502381Y57920095D02*
X19502381Y57729619D01*
X19454762Y57634380D01*
X19407143Y57586761D01*
X19264286Y57491523D01*
X19073810Y57443904D01*
X18692857Y57443904D01*
X18597619Y57491523D01*
X18550000Y57539142D01*
X18502381Y57634380D01*
X18502381Y57824857D01*
X18550000Y57920095D01*
X18597619Y57967714D01*
X18692857Y58015333D01*
X18930952Y58015333D01*
X19026190Y57967714D01*
X19073810Y57920095D01*
X19121429Y57824857D01*
X19121429Y57634380D01*
X19073810Y57539142D01*
X19026190Y57491523D01*
X18930952Y57443904D01*
X19407143Y32615047D02*
X19454762Y32662666D01*
X19502381Y32805523D01*
X19502381Y32900761D01*
X19454762Y33043619D01*
X19359524Y33138857D01*
X19264286Y33186476D01*
X19073810Y33234095D01*
X18930952Y33234095D01*
X18740476Y33186476D01*
X18645238Y33138857D01*
X18550000Y33043619D01*
X18502381Y32900761D01*
X18502381Y32805523D01*
X18550000Y32662666D01*
X18597619Y32615047D01*
X19502381Y31662666D02*
X19502381Y32234095D01*
X19502381Y31948381D02*
X18502381Y31948381D01*
X18645238Y32043619D01*
X18740476Y32138857D01*
X18788095Y32234095D01*
X19502381Y30710285D02*
X19502381Y31281714D01*
X19502381Y30996000D02*
X18502381Y30996000D01*
X18645238Y31091238D01*
X18740476Y31186476D01*
X18788095Y31281714D01*
X18502381Y30091238D02*
X18502381Y29995999D01*
X18550000Y29900761D01*
X18597619Y29853142D01*
X18692857Y29805523D01*
X18883333Y29757904D01*
X19121429Y29757904D01*
X19311905Y29805523D01*
X19407143Y29853142D01*
X19454762Y29900761D01*
X19502381Y29995999D01*
X19502381Y30091238D01*
X19454762Y30186476D01*
X19407143Y30234095D01*
X19311905Y30281714D01*
X19121429Y30329333D01*
X18883333Y30329333D01*
X18692857Y30281714D01*
X18597619Y30234095D01*
X18550000Y30186476D01*
X18502381Y30091238D01*
X21439143Y56110047D02*
X21486762Y56157666D01*
X21534381Y56300523D01*
X21534381Y56395761D01*
X21486762Y56538619D01*
X21391524Y56633857D01*
X21296286Y56681476D01*
X21105810Y56729095D01*
X20962952Y56729095D01*
X20772476Y56681476D01*
X20677238Y56633857D01*
X20582000Y56538619D01*
X20534381Y56395761D01*
X20534381Y56300523D01*
X20582000Y56157666D01*
X20629619Y56110047D01*
X21534381Y55157666D02*
X21534381Y55729095D01*
X21534381Y55443381D02*
X20534381Y55443381D01*
X20677238Y55538619D01*
X20772476Y55633857D01*
X20820095Y55729095D01*
X21534381Y54205285D02*
X21534381Y54776714D01*
X21534381Y54491000D02*
X20534381Y54491000D01*
X20677238Y54586238D01*
X20772476Y54681476D01*
X20820095Y54776714D01*
X21534381Y53252904D02*
X21534381Y53824333D01*
X21534381Y53538619D02*
X20534381Y53538619D01*
X20677238Y53633857D01*
X20772476Y53729095D01*
X20820095Y53824333D01*
X21439143Y36679047D02*
X21486762Y36726666D01*
X21534381Y36869523D01*
X21534381Y36964761D01*
X21486762Y37107619D01*
X21391524Y37202857D01*
X21296286Y37250476D01*
X21105810Y37298095D01*
X20962952Y37298095D01*
X20772476Y37250476D01*
X20677238Y37202857D01*
X20582000Y37107619D01*
X20534381Y36964761D01*
X20534381Y36869523D01*
X20582000Y36726666D01*
X20629619Y36679047D01*
X21534381Y35726666D02*
X21534381Y36298095D01*
X21534381Y36012381D02*
X20534381Y36012381D01*
X20677238Y36107619D01*
X20772476Y36202857D01*
X20820095Y36298095D01*
X21534381Y34774285D02*
X21534381Y35345714D01*
X21534381Y35060000D02*
X20534381Y35060000D01*
X20677238Y35155238D01*
X20772476Y35250476D01*
X20820095Y35345714D01*
X20629619Y34393333D02*
X20582000Y34345714D01*
X20534381Y34250476D01*
X20534381Y34012380D01*
X20582000Y33917142D01*
X20629619Y33869523D01*
X20724857Y33821904D01*
X20820095Y33821904D01*
X20962952Y33869523D01*
X21534381Y34440952D01*
X21534381Y33821904D01*
X27027143Y52427047D02*
X27074762Y52474666D01*
X27122381Y52617523D01*
X27122381Y52712761D01*
X27074762Y52855619D01*
X26979524Y52950857D01*
X26884286Y52998476D01*
X26693810Y53046095D01*
X26550952Y53046095D01*
X26360476Y52998476D01*
X26265238Y52950857D01*
X26170000Y52855619D01*
X26122381Y52712761D01*
X26122381Y52617523D01*
X26170000Y52474666D01*
X26217619Y52427047D01*
X27122381Y51474666D02*
X27122381Y52046095D01*
X27122381Y51760381D02*
X26122381Y51760381D01*
X26265238Y51855619D01*
X26360476Y51950857D01*
X26408095Y52046095D01*
X27122381Y50522285D02*
X27122381Y51093714D01*
X27122381Y50808000D02*
X26122381Y50808000D01*
X26265238Y50903238D01*
X26360476Y50998476D01*
X26408095Y51093714D01*
X26122381Y50188952D02*
X26122381Y49569904D01*
X26503333Y49903238D01*
X26503333Y49760380D01*
X26550952Y49665142D01*
X26598571Y49617523D01*
X26693810Y49569904D01*
X26931905Y49569904D01*
X27027143Y49617523D01*
X27074762Y49665142D01*
X27122381Y49760380D01*
X27122381Y50046095D01*
X27074762Y50141333D01*
X27027143Y50188952D01*
X26773143Y40743047D02*
X26820762Y40790666D01*
X26868381Y40933523D01*
X26868381Y41028761D01*
X26820762Y41171619D01*
X26725524Y41266857D01*
X26630286Y41314476D01*
X26439810Y41362095D01*
X26296952Y41362095D01*
X26106476Y41314476D01*
X26011238Y41266857D01*
X25916000Y41171619D01*
X25868381Y41028761D01*
X25868381Y40933523D01*
X25916000Y40790666D01*
X25963619Y40743047D01*
X26868381Y39790666D02*
X26868381Y40362095D01*
X26868381Y40076381D02*
X25868381Y40076381D01*
X26011238Y40171619D01*
X26106476Y40266857D01*
X26154095Y40362095D01*
X26868381Y38838285D02*
X26868381Y39409714D01*
X26868381Y39124000D02*
X25868381Y39124000D01*
X26011238Y39219238D01*
X26106476Y39314476D01*
X26154095Y39409714D01*
X26201714Y37981142D02*
X26868381Y37981142D01*
X25820762Y38219238D02*
X26535048Y38457333D01*
X26535048Y37838285D01*
X36933143Y60555047D02*
X36980762Y60602666D01*
X37028381Y60745523D01*
X37028381Y60840761D01*
X36980762Y60983619D01*
X36885524Y61078857D01*
X36790286Y61126476D01*
X36599810Y61174095D01*
X36456952Y61174095D01*
X36266476Y61126476D01*
X36171238Y61078857D01*
X36076000Y60983619D01*
X36028381Y60840761D01*
X36028381Y60745523D01*
X36076000Y60602666D01*
X36123619Y60555047D01*
X37028381Y59602666D02*
X37028381Y60174095D01*
X37028381Y59888381D02*
X36028381Y59888381D01*
X36171238Y59983619D01*
X36266476Y60078857D01*
X36314095Y60174095D01*
X37028381Y58650285D02*
X37028381Y59221714D01*
X37028381Y58936000D02*
X36028381Y58936000D01*
X36171238Y59031238D01*
X36266476Y59126476D01*
X36314095Y59221714D01*
X36028381Y57745523D02*
X36028381Y58221714D01*
X36504571Y58269333D01*
X36456952Y58221714D01*
X36409333Y58126476D01*
X36409333Y57888380D01*
X36456952Y57793142D01*
X36504571Y57745523D01*
X36599810Y57697904D01*
X36837905Y57697904D01*
X36933143Y57745523D01*
X36980762Y57793142D01*
X37028381Y57888380D01*
X37028381Y58126476D01*
X36980762Y58221714D01*
X36933143Y58269333D01*
X36425047Y41552857D02*
X36472666Y41505238D01*
X36615523Y41457619D01*
X36710761Y41457619D01*
X36853619Y41505238D01*
X36948857Y41600476D01*
X36996476Y41695714D01*
X37044095Y41886190D01*
X37044095Y42029048D01*
X36996476Y42219524D01*
X36948857Y42314762D01*
X36853619Y42410000D01*
X36710761Y42457619D01*
X36615523Y42457619D01*
X36472666Y42410000D01*
X36425047Y42362381D01*
X35472666Y41457619D02*
X36044095Y41457619D01*
X35758381Y41457619D02*
X35758381Y42457619D01*
X35853619Y42314762D01*
X35948857Y42219524D01*
X36044095Y42171905D01*
X34520285Y41457619D02*
X35091714Y41457619D01*
X34806000Y41457619D02*
X34806000Y42457619D01*
X34901238Y42314762D01*
X34996476Y42219524D01*
X35091714Y42171905D01*
X33663142Y42457619D02*
X33853619Y42457619D01*
X33948857Y42410000D01*
X33996476Y42362381D01*
X34091714Y42219524D01*
X34139333Y42029048D01*
X34139333Y41648095D01*
X34091714Y41552857D01*
X34044095Y41505238D01*
X33948857Y41457619D01*
X33758380Y41457619D01*
X33663142Y41505238D01*
X33615523Y41552857D01*
X33567904Y41648095D01*
X33567904Y41886190D01*
X33615523Y41981429D01*
X33663142Y42029048D01*
X33758380Y42076667D01*
X33948857Y42076667D01*
X34044095Y42029048D01*
X34091714Y41981429D01*
X34139333Y41886190D01*
X40235143Y60555047D02*
X40282762Y60602666D01*
X40330381Y60745523D01*
X40330381Y60840761D01*
X40282762Y60983619D01*
X40187524Y61078857D01*
X40092286Y61126476D01*
X39901810Y61174095D01*
X39758952Y61174095D01*
X39568476Y61126476D01*
X39473238Y61078857D01*
X39378000Y60983619D01*
X39330381Y60840761D01*
X39330381Y60745523D01*
X39378000Y60602666D01*
X39425619Y60555047D01*
X40330381Y59602666D02*
X40330381Y60174095D01*
X40330381Y59888381D02*
X39330381Y59888381D01*
X39473238Y59983619D01*
X39568476Y60078857D01*
X39616095Y60174095D01*
X40330381Y58650285D02*
X40330381Y59221714D01*
X40330381Y58936000D02*
X39330381Y58936000D01*
X39473238Y59031238D01*
X39568476Y59126476D01*
X39616095Y59221714D01*
X40330381Y58174095D02*
X40330381Y57983619D01*
X40282762Y57888380D01*
X40235143Y57840761D01*
X40092286Y57745523D01*
X39901810Y57697904D01*
X39520857Y57697904D01*
X39425619Y57745523D01*
X39378000Y57793142D01*
X39330381Y57888380D01*
X39330381Y58078857D01*
X39378000Y58174095D01*
X39425619Y58221714D01*
X39520857Y58269333D01*
X39758952Y58269333D01*
X39854190Y58221714D01*
X39901810Y58174095D01*
X39949429Y58078857D01*
X39949429Y57888380D01*
X39901810Y57793142D01*
X39854190Y57745523D01*
X39758952Y57697904D01*
X40235143Y32615047D02*
X40282762Y32662666D01*
X40330381Y32805523D01*
X40330381Y32900761D01*
X40282762Y33043619D01*
X40187524Y33138857D01*
X40092286Y33186476D01*
X39901810Y33234095D01*
X39758952Y33234095D01*
X39568476Y33186476D01*
X39473238Y33138857D01*
X39378000Y33043619D01*
X39330381Y32900761D01*
X39330381Y32805523D01*
X39378000Y32662666D01*
X39425619Y32615047D01*
X40330381Y31662666D02*
X40330381Y32234095D01*
X40330381Y31948381D02*
X39330381Y31948381D01*
X39473238Y32043619D01*
X39568476Y32138857D01*
X39616095Y32234095D01*
X39425619Y31281714D02*
X39378000Y31234095D01*
X39330381Y31138857D01*
X39330381Y30900761D01*
X39378000Y30805523D01*
X39425619Y30757904D01*
X39520857Y30710285D01*
X39616095Y30710285D01*
X39758952Y30757904D01*
X40330381Y31329333D01*
X40330381Y30710285D01*
X39330381Y30091238D02*
X39330381Y29995999D01*
X39378000Y29900761D01*
X39425619Y29853142D01*
X39520857Y29805523D01*
X39711333Y29757904D01*
X39949429Y29757904D01*
X40139905Y29805523D01*
X40235143Y29853142D01*
X40282762Y29900761D01*
X40330381Y29995999D01*
X40330381Y30091238D01*
X40282762Y30186476D01*
X40235143Y30234095D01*
X40139905Y30281714D01*
X39949429Y30329333D01*
X39711333Y30329333D01*
X39520857Y30281714D01*
X39425619Y30234095D01*
X39378000Y30186476D01*
X39330381Y30091238D01*
X42521143Y56491047D02*
X42568762Y56538666D01*
X42616381Y56681523D01*
X42616381Y56776761D01*
X42568762Y56919619D01*
X42473524Y57014857D01*
X42378286Y57062476D01*
X42187810Y57110095D01*
X42044952Y57110095D01*
X41854476Y57062476D01*
X41759238Y57014857D01*
X41664000Y56919619D01*
X41616381Y56776761D01*
X41616381Y56681523D01*
X41664000Y56538666D01*
X41711619Y56491047D01*
X42616381Y55538666D02*
X42616381Y56110095D01*
X42616381Y55824381D02*
X41616381Y55824381D01*
X41759238Y55919619D01*
X41854476Y56014857D01*
X41902095Y56110095D01*
X41711619Y55157714D02*
X41664000Y55110095D01*
X41616381Y55014857D01*
X41616381Y54776761D01*
X41664000Y54681523D01*
X41711619Y54633904D01*
X41806857Y54586285D01*
X41902095Y54586285D01*
X42044952Y54633904D01*
X42616381Y55205333D01*
X42616381Y54586285D01*
X42616381Y53633904D02*
X42616381Y54205333D01*
X42616381Y53919619D02*
X41616381Y53919619D01*
X41759238Y54014857D01*
X41854476Y54110095D01*
X41902095Y54205333D01*
X42521143Y36679047D02*
X42568762Y36726666D01*
X42616381Y36869523D01*
X42616381Y36964761D01*
X42568762Y37107619D01*
X42473524Y37202857D01*
X42378286Y37250476D01*
X42187810Y37298095D01*
X42044952Y37298095D01*
X41854476Y37250476D01*
X41759238Y37202857D01*
X41664000Y37107619D01*
X41616381Y36964761D01*
X41616381Y36869523D01*
X41664000Y36726666D01*
X41711619Y36679047D01*
X42616381Y35726666D02*
X42616381Y36298095D01*
X42616381Y36012381D02*
X41616381Y36012381D01*
X41759238Y36107619D01*
X41854476Y36202857D01*
X41902095Y36298095D01*
X41711619Y35345714D02*
X41664000Y35298095D01*
X41616381Y35202857D01*
X41616381Y34964761D01*
X41664000Y34869523D01*
X41711619Y34821904D01*
X41806857Y34774285D01*
X41902095Y34774285D01*
X42044952Y34821904D01*
X42616381Y35393333D01*
X42616381Y34774285D01*
X41711619Y34393333D02*
X41664000Y34345714D01*
X41616381Y34250476D01*
X41616381Y34012380D01*
X41664000Y33917142D01*
X41711619Y33869523D01*
X41806857Y33821904D01*
X41902095Y33821904D01*
X42044952Y33869523D01*
X42616381Y34440952D01*
X42616381Y33821904D01*
X48109143Y60555047D02*
X48156762Y60602666D01*
X48204381Y60745523D01*
X48204381Y60840761D01*
X48156762Y60983619D01*
X48061524Y61078857D01*
X47966286Y61126476D01*
X47775810Y61174095D01*
X47632952Y61174095D01*
X47442476Y61126476D01*
X47347238Y61078857D01*
X47252000Y60983619D01*
X47204381Y60840761D01*
X47204381Y60745523D01*
X47252000Y60602666D01*
X47299619Y60555047D01*
X48204381Y59602666D02*
X48204381Y60174095D01*
X48204381Y59888381D02*
X47204381Y59888381D01*
X47347238Y59983619D01*
X47442476Y60078857D01*
X47490095Y60174095D01*
X47299619Y59221714D02*
X47252000Y59174095D01*
X47204381Y59078857D01*
X47204381Y58840761D01*
X47252000Y58745523D01*
X47299619Y58697904D01*
X47394857Y58650285D01*
X47490095Y58650285D01*
X47632952Y58697904D01*
X48204381Y59269333D01*
X48204381Y58650285D01*
X47204381Y58316952D02*
X47204381Y57697904D01*
X47585333Y58031238D01*
X47585333Y57888380D01*
X47632952Y57793142D01*
X47680571Y57745523D01*
X47775810Y57697904D01*
X48013905Y57697904D01*
X48109143Y57745523D01*
X48156762Y57793142D01*
X48204381Y57888380D01*
X48204381Y58174095D01*
X48156762Y58269333D01*
X48109143Y58316952D01*
X47855143Y40743047D02*
X47902762Y40790666D01*
X47950381Y40933523D01*
X47950381Y41028761D01*
X47902762Y41171619D01*
X47807524Y41266857D01*
X47712286Y41314476D01*
X47521810Y41362095D01*
X47378952Y41362095D01*
X47188476Y41314476D01*
X47093238Y41266857D01*
X46998000Y41171619D01*
X46950381Y41028761D01*
X46950381Y40933523D01*
X46998000Y40790666D01*
X47045619Y40743047D01*
X47950381Y39790666D02*
X47950381Y40362095D01*
X47950381Y40076381D02*
X46950381Y40076381D01*
X47093238Y40171619D01*
X47188476Y40266857D01*
X47236095Y40362095D01*
X47045619Y39409714D02*
X46998000Y39362095D01*
X46950381Y39266857D01*
X46950381Y39028761D01*
X46998000Y38933523D01*
X47045619Y38885904D01*
X47140857Y38838285D01*
X47236095Y38838285D01*
X47378952Y38885904D01*
X47950381Y39457333D01*
X47950381Y38838285D01*
X47283714Y37981142D02*
X47950381Y37981142D01*
X46902762Y38219238D02*
X47617048Y38457333D01*
X47617048Y37838285D01*
X19661143Y86209047D02*
X19708762Y86256666D01*
X19756381Y86399523D01*
X19756381Y86494761D01*
X19708762Y86637619D01*
X19613524Y86732857D01*
X19518286Y86780476D01*
X19327810Y86828095D01*
X19184952Y86828095D01*
X18994476Y86780476D01*
X18899238Y86732857D01*
X18804000Y86637619D01*
X18756381Y86494761D01*
X18756381Y86399523D01*
X18804000Y86256666D01*
X18851619Y86209047D01*
X19756381Y85256666D02*
X19756381Y85828095D01*
X19756381Y85542381D02*
X18756381Y85542381D01*
X18899238Y85637619D01*
X18994476Y85732857D01*
X19042095Y85828095D01*
X18851619Y84875714D02*
X18804000Y84828095D01*
X18756381Y84732857D01*
X18756381Y84494761D01*
X18804000Y84399523D01*
X18851619Y84351904D01*
X18946857Y84304285D01*
X19042095Y84304285D01*
X19184952Y84351904D01*
X19756381Y84923333D01*
X19756381Y84304285D01*
X19756381Y83828095D02*
X19756381Y83637619D01*
X19708762Y83542380D01*
X19661143Y83494761D01*
X19518286Y83399523D01*
X19327810Y83351904D01*
X18946857Y83351904D01*
X18851619Y83399523D01*
X18804000Y83447142D01*
X18756381Y83542380D01*
X18756381Y83732857D01*
X18804000Y83828095D01*
X18851619Y83875714D01*
X18946857Y83923333D01*
X19184952Y83923333D01*
X19280190Y83875714D01*
X19327810Y83828095D01*
X19375429Y83732857D01*
X19375429Y83542380D01*
X19327810Y83447142D01*
X19280190Y83399523D01*
X19184952Y83351904D01*
X48109143Y85447047D02*
X48156762Y85494666D01*
X48204381Y85637523D01*
X48204381Y85732761D01*
X48156762Y85875619D01*
X48061524Y85970857D01*
X47966286Y86018476D01*
X47775810Y86066095D01*
X47632952Y86066095D01*
X47442476Y86018476D01*
X47347238Y85970857D01*
X47252000Y85875619D01*
X47204381Y85732761D01*
X47204381Y85637523D01*
X47252000Y85494666D01*
X47299619Y85447047D01*
X48204381Y84494666D02*
X48204381Y85066095D01*
X48204381Y84780381D02*
X47204381Y84780381D01*
X47347238Y84875619D01*
X47442476Y84970857D01*
X47490095Y85066095D01*
X47204381Y84161333D02*
X47204381Y83542285D01*
X47585333Y83875619D01*
X47585333Y83732761D01*
X47632952Y83637523D01*
X47680571Y83589904D01*
X47775810Y83542285D01*
X48013905Y83542285D01*
X48109143Y83589904D01*
X48156762Y83637523D01*
X48204381Y83732761D01*
X48204381Y84018476D01*
X48156762Y84113714D01*
X48109143Y84161333D01*
X47204381Y82923238D02*
X47204381Y82827999D01*
X47252000Y82732761D01*
X47299619Y82685142D01*
X47394857Y82637523D01*
X47585333Y82589904D01*
X47823429Y82589904D01*
X48013905Y82637523D01*
X48109143Y82685142D01*
X48156762Y82732761D01*
X48204381Y82827999D01*
X48204381Y82923238D01*
X48156762Y83018476D01*
X48109143Y83066095D01*
X48013905Y83113714D01*
X47823429Y83161333D01*
X47585333Y83161333D01*
X47394857Y83113714D01*
X47299619Y83066095D01*
X47252000Y83018476D01*
X47204381Y82923238D01*
X74557143Y76514047D02*
X74604762Y76561666D01*
X74652381Y76704523D01*
X74652381Y76799761D01*
X74604762Y76942619D01*
X74509524Y77037857D01*
X74414286Y77085476D01*
X74223810Y77133095D01*
X74080952Y77133095D01*
X73890476Y77085476D01*
X73795238Y77037857D01*
X73700000Y76942619D01*
X73652381Y76799761D01*
X73652381Y76704523D01*
X73700000Y76561666D01*
X73747619Y76514047D01*
X74652381Y75561666D02*
X74652381Y76133095D01*
X74652381Y75847381D02*
X73652381Y75847381D01*
X73795238Y75942619D01*
X73890476Y76037857D01*
X73938095Y76133095D01*
X73652381Y75228333D02*
X73652381Y74609285D01*
X74033333Y74942619D01*
X74033333Y74799761D01*
X74080952Y74704523D01*
X74128571Y74656904D01*
X74223810Y74609285D01*
X74461905Y74609285D01*
X74557143Y74656904D01*
X74604762Y74704523D01*
X74652381Y74799761D01*
X74652381Y75085476D01*
X74604762Y75180714D01*
X74557143Y75228333D01*
X74652381Y73656904D02*
X74652381Y74228333D01*
X74652381Y73942619D02*
X73652381Y73942619D01*
X73795238Y74037857D01*
X73890476Y74133095D01*
X73938095Y74228333D01*
X84685047Y22248857D02*
X84732666Y22201238D01*
X84875523Y22153619D01*
X84970761Y22153619D01*
X85113619Y22201238D01*
X85208857Y22296476D01*
X85256476Y22391714D01*
X85304095Y22582190D01*
X85304095Y22725048D01*
X85256476Y22915524D01*
X85208857Y23010762D01*
X85113619Y23106000D01*
X84970761Y23153619D01*
X84875523Y23153619D01*
X84732666Y23106000D01*
X84685047Y23058381D01*
X83732666Y22153619D02*
X84304095Y22153619D01*
X84018381Y22153619D02*
X84018381Y23153619D01*
X84113619Y23010762D01*
X84208857Y22915524D01*
X84304095Y22867905D01*
X83399333Y23153619D02*
X82780285Y23153619D01*
X83113619Y22772667D01*
X82970761Y22772667D01*
X82875523Y22725048D01*
X82827904Y22677429D01*
X82780285Y22582190D01*
X82780285Y22344095D01*
X82827904Y22248857D01*
X82875523Y22201238D01*
X82970761Y22153619D01*
X83256476Y22153619D01*
X83351714Y22201238D01*
X83399333Y22248857D01*
X82399333Y23058381D02*
X82351714Y23106000D01*
X82256476Y23153619D01*
X82018380Y23153619D01*
X81923142Y23106000D01*
X81875523Y23058381D01*
X81827904Y22963143D01*
X81827904Y22867905D01*
X81875523Y22725048D01*
X82446952Y22153619D01*
X81827904Y22153619D01*
X29567143Y86209047D02*
X29614762Y86256666D01*
X29662381Y86399523D01*
X29662381Y86494761D01*
X29614762Y86637619D01*
X29519524Y86732857D01*
X29424286Y86780476D01*
X29233810Y86828095D01*
X29090952Y86828095D01*
X28900476Y86780476D01*
X28805238Y86732857D01*
X28710000Y86637619D01*
X28662381Y86494761D01*
X28662381Y86399523D01*
X28710000Y86256666D01*
X28757619Y86209047D01*
X29662381Y85256666D02*
X29662381Y85828095D01*
X29662381Y85542381D02*
X28662381Y85542381D01*
X28805238Y85637619D01*
X28900476Y85732857D01*
X28948095Y85828095D01*
X28662381Y84923333D02*
X28662381Y84304285D01*
X29043333Y84637619D01*
X29043333Y84494761D01*
X29090952Y84399523D01*
X29138571Y84351904D01*
X29233810Y84304285D01*
X29471905Y84304285D01*
X29567143Y84351904D01*
X29614762Y84399523D01*
X29662381Y84494761D01*
X29662381Y84780476D01*
X29614762Y84875714D01*
X29567143Y84923333D01*
X28662381Y83970952D02*
X28662381Y83351904D01*
X29043333Y83685238D01*
X29043333Y83542380D01*
X29090952Y83447142D01*
X29138571Y83399523D01*
X29233810Y83351904D01*
X29471905Y83351904D01*
X29567143Y83399523D01*
X29614762Y83447142D01*
X29662381Y83542380D01*
X29662381Y83828095D01*
X29614762Y83923333D01*
X29567143Y83970952D01*
X56237143Y89384047D02*
X56284762Y89431666D01*
X56332381Y89574523D01*
X56332381Y89669761D01*
X56284762Y89812619D01*
X56189524Y89907857D01*
X56094286Y89955476D01*
X55903810Y90003095D01*
X55760952Y90003095D01*
X55570476Y89955476D01*
X55475238Y89907857D01*
X55380000Y89812619D01*
X55332381Y89669761D01*
X55332381Y89574523D01*
X55380000Y89431666D01*
X55427619Y89384047D01*
X56332381Y88431666D02*
X56332381Y89003095D01*
X56332381Y88717381D02*
X55332381Y88717381D01*
X55475238Y88812619D01*
X55570476Y88907857D01*
X55618095Y89003095D01*
X55332381Y88098333D02*
X55332381Y87479285D01*
X55713333Y87812619D01*
X55713333Y87669761D01*
X55760952Y87574523D01*
X55808571Y87526904D01*
X55903810Y87479285D01*
X56141905Y87479285D01*
X56237143Y87526904D01*
X56284762Y87574523D01*
X56332381Y87669761D01*
X56332381Y87955476D01*
X56284762Y88050714D01*
X56237143Y88098333D01*
X55665714Y86622142D02*
X56332381Y86622142D01*
X55284762Y86860238D02*
X55999048Y87098333D01*
X55999048Y86479285D01*
X68759343Y62841047D02*
X68806962Y62888666D01*
X68854581Y63031523D01*
X68854581Y63126761D01*
X68806962Y63269619D01*
X68711724Y63364857D01*
X68616486Y63412476D01*
X68426010Y63460095D01*
X68283152Y63460095D01*
X68092676Y63412476D01*
X67997438Y63364857D01*
X67902200Y63269619D01*
X67854581Y63126761D01*
X67854581Y63031523D01*
X67902200Y62888666D01*
X67949819Y62841047D01*
X68854581Y61888666D02*
X68854581Y62460095D01*
X68854581Y62174381D02*
X67854581Y62174381D01*
X67997438Y62269619D01*
X68092676Y62364857D01*
X68140295Y62460095D01*
X67854581Y61555333D02*
X67854581Y60936285D01*
X68235533Y61269619D01*
X68235533Y61126761D01*
X68283152Y61031523D01*
X68330771Y60983904D01*
X68426010Y60936285D01*
X68664105Y60936285D01*
X68759343Y60983904D01*
X68806962Y61031523D01*
X68854581Y61126761D01*
X68854581Y61412476D01*
X68806962Y61507714D01*
X68759343Y61555333D01*
X68854581Y60460095D02*
X68854581Y60269619D01*
X68806962Y60174380D01*
X68759343Y60126761D01*
X68616486Y60031523D01*
X68426010Y59983904D01*
X68045057Y59983904D01*
X67949819Y60031523D01*
X67902200Y60079142D01*
X67854581Y60174380D01*
X67854581Y60364857D01*
X67902200Y60460095D01*
X67949819Y60507714D01*
X68045057Y60555333D01*
X68283152Y60555333D01*
X68378390Y60507714D01*
X68426010Y60460095D01*
X68473629Y60364857D01*
X68473629Y60174380D01*
X68426010Y60079142D01*
X68378390Y60031523D01*
X68283152Y59983904D01*
X76430143Y36425047D02*
X76477762Y36472666D01*
X76525381Y36615523D01*
X76525381Y36710761D01*
X76477762Y36853619D01*
X76382524Y36948857D01*
X76287286Y36996476D01*
X76096810Y37044095D01*
X75953952Y37044095D01*
X75763476Y36996476D01*
X75668238Y36948857D01*
X75573000Y36853619D01*
X75525381Y36710761D01*
X75525381Y36615523D01*
X75573000Y36472666D01*
X75620619Y36425047D01*
X76525381Y35472666D02*
X76525381Y36044095D01*
X76525381Y35758381D02*
X75525381Y35758381D01*
X75668238Y35853619D01*
X75763476Y35948857D01*
X75811095Y36044095D01*
X75858714Y34615523D02*
X76525381Y34615523D01*
X75477762Y34853619D02*
X76192048Y35091714D01*
X76192048Y34472666D01*
X75525381Y33901238D02*
X75525381Y33805999D01*
X75573000Y33710761D01*
X75620619Y33663142D01*
X75715857Y33615523D01*
X75906333Y33567904D01*
X76144429Y33567904D01*
X76334905Y33615523D01*
X76430143Y33663142D01*
X76477762Y33710761D01*
X76525381Y33805999D01*
X76525381Y33901238D01*
X76477762Y33996476D01*
X76430143Y34044095D01*
X76334905Y34091714D01*
X76144429Y34139333D01*
X75906333Y34139333D01*
X75715857Y34091714D01*
X75620619Y34044095D01*
X75573000Y33996476D01*
X75525381Y33901238D01*
X16454381Y53760476D02*
X15454381Y53760476D01*
X15454381Y53522381D01*
X15502000Y53379523D01*
X15597238Y53284285D01*
X15692476Y53236666D01*
X15882952Y53189047D01*
X16025810Y53189047D01*
X16216286Y53236666D01*
X16311524Y53284285D01*
X16406762Y53379523D01*
X16454381Y53522381D01*
X16454381Y53760476D01*
X16454381Y52236666D02*
X16454381Y52808095D01*
X16454381Y52522381D02*
X15454381Y52522381D01*
X15597238Y52617619D01*
X15692476Y52712857D01*
X15740095Y52808095D01*
X15454381Y51617619D02*
X15454381Y51522380D01*
X15502000Y51427142D01*
X15549619Y51379523D01*
X15644857Y51331904D01*
X15835333Y51284285D01*
X16073429Y51284285D01*
X16263905Y51331904D01*
X16359143Y51379523D01*
X16406762Y51427142D01*
X16454381Y51522380D01*
X16454381Y51617619D01*
X16406762Y51712857D01*
X16359143Y51760476D01*
X16263905Y51808095D01*
X16073429Y51855714D01*
X15835333Y51855714D01*
X15644857Y51808095D01*
X15549619Y51760476D01*
X15502000Y51712857D01*
X15454381Y51617619D01*
X16454381Y50331904D02*
X16454381Y50903333D01*
X16454381Y50617619D02*
X15454381Y50617619D01*
X15597238Y50712857D01*
X15692476Y50808095D01*
X15740095Y50903333D01*
X12517381Y58173905D02*
X11517381Y58173905D01*
X12517381Y57602476D02*
X11945952Y58031048D01*
X11517381Y57602476D02*
X12088810Y58173905D01*
X12104667Y46466095D02*
X12104667Y45989904D01*
X12390381Y46561333D02*
X11390381Y46228000D01*
X12390381Y45894666D01*
X16454381Y40298476D02*
X15454381Y40298476D01*
X15454381Y40060381D01*
X15502000Y39917523D01*
X15597238Y39822285D01*
X15692476Y39774666D01*
X15882952Y39727047D01*
X16025810Y39727047D01*
X16216286Y39774666D01*
X16311524Y39822285D01*
X16406762Y39917523D01*
X16454381Y40060381D01*
X16454381Y40298476D01*
X16454381Y38774666D02*
X16454381Y39346095D01*
X16454381Y39060381D02*
X15454381Y39060381D01*
X15597238Y39155619D01*
X15692476Y39250857D01*
X15740095Y39346095D01*
X15454381Y38155619D02*
X15454381Y38060380D01*
X15502000Y37965142D01*
X15549619Y37917523D01*
X15644857Y37869904D01*
X15835333Y37822285D01*
X16073429Y37822285D01*
X16263905Y37869904D01*
X16359143Y37917523D01*
X16406762Y37965142D01*
X16454381Y38060380D01*
X16454381Y38155619D01*
X16406762Y38250857D01*
X16359143Y38298476D01*
X16263905Y38346095D01*
X16073429Y38393714D01*
X15835333Y38393714D01*
X15644857Y38346095D01*
X15549619Y38298476D01*
X15502000Y38250857D01*
X15454381Y38155619D01*
X15549619Y37441333D02*
X15502000Y37393714D01*
X15454381Y37298476D01*
X15454381Y37060380D01*
X15502000Y36965142D01*
X15549619Y36917523D01*
X15644857Y36869904D01*
X15740095Y36869904D01*
X15882952Y36917523D01*
X16454381Y37488952D01*
X16454381Y36869904D01*
X12517381Y44584905D02*
X11517381Y44584905D01*
X12517381Y44013476D02*
X11945952Y44442048D01*
X11517381Y44013476D02*
X12088810Y44584905D01*
X12295167Y33131095D02*
X12295167Y32654904D01*
X12580881Y33226333D02*
X11580881Y32893000D01*
X12580881Y32559666D01*
X34139047Y59491619D02*
X34615238Y59491619D01*
X34615238Y60491619D01*
X33281904Y59491619D02*
X33853333Y59491619D01*
X33567619Y59491619D02*
X33567619Y60491619D01*
X33662857Y60348762D01*
X33758095Y60253524D01*
X33853333Y60205905D01*
X32662857Y60491619D02*
X32567618Y60491619D01*
X32472380Y60444000D01*
X32424761Y60396381D01*
X32377142Y60301143D01*
X32329523Y60110667D01*
X32329523Y59872571D01*
X32377142Y59682095D01*
X32424761Y59586857D01*
X32472380Y59539238D01*
X32567618Y59491619D01*
X32662857Y59491619D01*
X32758095Y59539238D01*
X32805714Y59586857D01*
X32853333Y59682095D01*
X32900952Y59872571D01*
X32900952Y60110667D01*
X32853333Y60301143D01*
X32805714Y60396381D01*
X32758095Y60444000D01*
X32662857Y60491619D01*
X31377142Y59491619D02*
X31948571Y59491619D01*
X31662857Y59491619D02*
X31662857Y60491619D01*
X31758095Y60348762D01*
X31853333Y60253524D01*
X31948571Y60205905D01*
X34393047Y29900619D02*
X34869238Y29900619D01*
X34869238Y30900619D01*
X33535904Y29900619D02*
X34107333Y29900619D01*
X33821619Y29900619D02*
X33821619Y30900619D01*
X33916857Y30757762D01*
X34012095Y30662524D01*
X34107333Y30614905D01*
X32916857Y30900619D02*
X32821618Y30900619D01*
X32726380Y30853000D01*
X32678761Y30805381D01*
X32631142Y30710143D01*
X32583523Y30519667D01*
X32583523Y30281571D01*
X32631142Y30091095D01*
X32678761Y29995857D01*
X32726380Y29948238D01*
X32821618Y29900619D01*
X32916857Y29900619D01*
X33012095Y29948238D01*
X33059714Y29995857D01*
X33107333Y30091095D01*
X33154952Y30281571D01*
X33154952Y30519667D01*
X33107333Y30710143D01*
X33059714Y30805381D01*
X33012095Y30853000D01*
X32916857Y30900619D01*
X32202571Y30805381D02*
X32154952Y30853000D01*
X32059714Y30900619D01*
X31821618Y30900619D01*
X31726380Y30853000D01*
X31678761Y30805381D01*
X31631142Y30710143D01*
X31631142Y30614905D01*
X31678761Y30472048D01*
X32250190Y29900619D01*
X31631142Y29900619D01*
X36679047Y48569619D02*
X37012381Y49045810D01*
X37250476Y48569619D02*
X37250476Y49569619D01*
X36869523Y49569619D01*
X36774285Y49522000D01*
X36726666Y49474381D01*
X36679047Y49379143D01*
X36679047Y49236286D01*
X36726666Y49141048D01*
X36774285Y49093429D01*
X36869523Y49045810D01*
X37250476Y49045810D01*
X35726666Y48569619D02*
X36298095Y48569619D01*
X36012381Y48569619D02*
X36012381Y49569619D01*
X36107619Y49426762D01*
X36202857Y49331524D01*
X36298095Y49283905D01*
X35107619Y49569619D02*
X35012380Y49569619D01*
X34917142Y49522000D01*
X34869523Y49474381D01*
X34821904Y49379143D01*
X34774285Y49188667D01*
X34774285Y48950571D01*
X34821904Y48760095D01*
X34869523Y48664857D01*
X34917142Y48617238D01*
X35012380Y48569619D01*
X35107619Y48569619D01*
X35202857Y48617238D01*
X35250476Y48664857D01*
X35298095Y48760095D01*
X35345714Y48950571D01*
X35345714Y49188667D01*
X35298095Y49379143D01*
X35250476Y49474381D01*
X35202857Y49522000D01*
X35107619Y49569619D01*
X33869523Y49569619D02*
X34345714Y49569619D01*
X34393333Y49093429D01*
X34345714Y49141048D01*
X34250476Y49188667D01*
X34012380Y49188667D01*
X33917142Y49141048D01*
X33869523Y49093429D01*
X33821904Y48998190D01*
X33821904Y48760095D01*
X33869523Y48664857D01*
X33917142Y48617238D01*
X34012380Y48569619D01*
X34250476Y48569619D01*
X34345714Y48617238D01*
X34393333Y48664857D01*
X37028381Y32615047D02*
X36552190Y32948381D01*
X37028381Y33186476D02*
X36028381Y33186476D01*
X36028381Y32805523D01*
X36076000Y32710285D01*
X36123619Y32662666D01*
X36218857Y32615047D01*
X36361714Y32615047D01*
X36456952Y32662666D01*
X36504571Y32710285D01*
X36552190Y32805523D01*
X36552190Y33186476D01*
X37028381Y31662666D02*
X37028381Y32234095D01*
X37028381Y31948381D02*
X36028381Y31948381D01*
X36171238Y32043619D01*
X36266476Y32138857D01*
X36314095Y32234095D01*
X36028381Y31043619D02*
X36028381Y30948380D01*
X36076000Y30853142D01*
X36123619Y30805523D01*
X36218857Y30757904D01*
X36409333Y30710285D01*
X36647429Y30710285D01*
X36837905Y30757904D01*
X36933143Y30805523D01*
X36980762Y30853142D01*
X37028381Y30948380D01*
X37028381Y31043619D01*
X36980762Y31138857D01*
X36933143Y31186476D01*
X36837905Y31234095D01*
X36647429Y31281714D01*
X36409333Y31281714D01*
X36218857Y31234095D01*
X36123619Y31186476D01*
X36076000Y31138857D01*
X36028381Y31043619D01*
X36028381Y29853142D02*
X36028381Y30043619D01*
X36076000Y30138857D01*
X36123619Y30186476D01*
X36266476Y30281714D01*
X36456952Y30329333D01*
X36837905Y30329333D01*
X36933143Y30281714D01*
X36980762Y30234095D01*
X37028381Y30138857D01*
X37028381Y29948380D01*
X36980762Y29853142D01*
X36933143Y29805523D01*
X36837905Y29757904D01*
X36599810Y29757904D01*
X36504571Y29805523D01*
X36456952Y29853142D01*
X36409333Y29948380D01*
X36409333Y30138857D01*
X36456952Y30234095D01*
X36504571Y30281714D01*
X36599810Y30329333D01*
X85150047Y73461619D02*
X85483381Y73937810D01*
X85721476Y73461619D02*
X85721476Y74461619D01*
X85340523Y74461619D01*
X85245285Y74414000D01*
X85197666Y74366381D01*
X85150047Y74271143D01*
X85150047Y74128286D01*
X85197666Y74033048D01*
X85245285Y73985429D01*
X85340523Y73937810D01*
X85721476Y73937810D01*
X84197666Y73461619D02*
X84769095Y73461619D01*
X84483381Y73461619D02*
X84483381Y74461619D01*
X84578619Y74318762D01*
X84673857Y74223524D01*
X84769095Y74175905D01*
X83245285Y73461619D02*
X83816714Y73461619D01*
X83531000Y73461619D02*
X83531000Y74461619D01*
X83626238Y74318762D01*
X83721476Y74223524D01*
X83816714Y74175905D01*
X82911952Y74461619D02*
X82292904Y74461619D01*
X82626238Y74080667D01*
X82483380Y74080667D01*
X82388142Y74033048D01*
X82340523Y73985429D01*
X82292904Y73890190D01*
X82292904Y73652095D01*
X82340523Y73556857D01*
X82388142Y73509238D01*
X82483380Y73461619D01*
X82769095Y73461619D01*
X82864333Y73509238D01*
X82911952Y73556857D01*
X84769047Y15168619D02*
X85102381Y15644810D01*
X85340476Y15168619D02*
X85340476Y16168619D01*
X84959523Y16168619D01*
X84864285Y16121000D01*
X84816666Y16073381D01*
X84769047Y15978143D01*
X84769047Y15835286D01*
X84816666Y15740048D01*
X84864285Y15692429D01*
X84959523Y15644810D01*
X85340476Y15644810D01*
X83816666Y15168619D02*
X84388095Y15168619D01*
X84102381Y15168619D02*
X84102381Y16168619D01*
X84197619Y16025762D01*
X84292857Y15930524D01*
X84388095Y15882905D01*
X82864285Y15168619D02*
X83435714Y15168619D01*
X83150000Y15168619D02*
X83150000Y16168619D01*
X83245238Y16025762D01*
X83340476Y15930524D01*
X83435714Y15882905D01*
X82007142Y15835286D02*
X82007142Y15168619D01*
X82245238Y16216238D02*
X82483333Y15501952D01*
X81864285Y15501952D01*
X62333143Y55475047D02*
X62380762Y55522666D01*
X62428381Y55665523D01*
X62428381Y55760761D01*
X62380762Y55903619D01*
X62285524Y55998857D01*
X62190286Y56046476D01*
X61999810Y56094095D01*
X61856952Y56094095D01*
X61666476Y56046476D01*
X61571238Y55998857D01*
X61476000Y55903619D01*
X61428381Y55760761D01*
X61428381Y55665523D01*
X61476000Y55522666D01*
X61523619Y55475047D01*
X62428381Y54522666D02*
X62428381Y55094095D01*
X62428381Y54808381D02*
X61428381Y54808381D01*
X61571238Y54903619D01*
X61666476Y54998857D01*
X61714095Y55094095D01*
X61761714Y53665523D02*
X62428381Y53665523D01*
X61380762Y53903619D02*
X62095048Y54141714D01*
X62095048Y53522666D01*
X62428381Y52617904D02*
X62428381Y53189333D01*
X62428381Y52903619D02*
X61428381Y52903619D01*
X61571238Y52998857D01*
X61666476Y53094095D01*
X61714095Y53189333D01*
X64873143Y33631047D02*
X64920762Y33678666D01*
X64968381Y33821523D01*
X64968381Y33916761D01*
X64920762Y34059619D01*
X64825524Y34154857D01*
X64730286Y34202476D01*
X64539810Y34250095D01*
X64396952Y34250095D01*
X64206476Y34202476D01*
X64111238Y34154857D01*
X64016000Y34059619D01*
X63968381Y33916761D01*
X63968381Y33821523D01*
X64016000Y33678666D01*
X64063619Y33631047D01*
X64968381Y32678666D02*
X64968381Y33250095D01*
X64968381Y32964381D02*
X63968381Y32964381D01*
X64111238Y33059619D01*
X64206476Y33154857D01*
X64254095Y33250095D01*
X64301714Y31821523D02*
X64968381Y31821523D01*
X63920762Y32059619D02*
X64635048Y32297714D01*
X64635048Y31678666D01*
X64063619Y31345333D02*
X64016000Y31297714D01*
X63968381Y31202476D01*
X63968381Y30964380D01*
X64016000Y30869142D01*
X64063619Y30821523D01*
X64158857Y30773904D01*
X64254095Y30773904D01*
X64396952Y30821523D01*
X64968381Y31392952D01*
X64968381Y30773904D01*
X67413143Y59539047D02*
X67460762Y59586666D01*
X67508381Y59729523D01*
X67508381Y59824761D01*
X67460762Y59967619D01*
X67365524Y60062857D01*
X67270286Y60110476D01*
X67079810Y60158095D01*
X66936952Y60158095D01*
X66746476Y60110476D01*
X66651238Y60062857D01*
X66556000Y59967619D01*
X66508381Y59824761D01*
X66508381Y59729523D01*
X66556000Y59586666D01*
X66603619Y59539047D01*
X67508381Y58586666D02*
X67508381Y59158095D01*
X67508381Y58872381D02*
X66508381Y58872381D01*
X66651238Y58967619D01*
X66746476Y59062857D01*
X66794095Y59158095D01*
X66841714Y57729523D02*
X67508381Y57729523D01*
X66460762Y57967619D02*
X67175048Y58205714D01*
X67175048Y57586666D01*
X66508381Y57300952D02*
X66508381Y56681904D01*
X66889333Y57015238D01*
X66889333Y56872380D01*
X66936952Y56777142D01*
X66984571Y56729523D01*
X67079810Y56681904D01*
X67317905Y56681904D01*
X67413143Y56729523D01*
X67460762Y56777142D01*
X67508381Y56872380D01*
X67508381Y57158095D01*
X67460762Y57253333D01*
X67413143Y57300952D01*
X67921143Y33631047D02*
X67968762Y33678666D01*
X68016381Y33821523D01*
X68016381Y33916761D01*
X67968762Y34059619D01*
X67873524Y34154857D01*
X67778286Y34202476D01*
X67587810Y34250095D01*
X67444952Y34250095D01*
X67254476Y34202476D01*
X67159238Y34154857D01*
X67064000Y34059619D01*
X67016381Y33916761D01*
X67016381Y33821523D01*
X67064000Y33678666D01*
X67111619Y33631047D01*
X68016381Y32678666D02*
X68016381Y33250095D01*
X68016381Y32964381D02*
X67016381Y32964381D01*
X67159238Y33059619D01*
X67254476Y33154857D01*
X67302095Y33250095D01*
X67349714Y31821523D02*
X68016381Y31821523D01*
X66968762Y32059619D02*
X67683048Y32297714D01*
X67683048Y31678666D01*
X67349714Y30869142D02*
X68016381Y30869142D01*
X66968762Y31107238D02*
X67683048Y31345333D01*
X67683048Y30726285D01*
X75541143Y63857047D02*
X75588762Y63904666D01*
X75636381Y64047523D01*
X75636381Y64142761D01*
X75588762Y64285619D01*
X75493524Y64380857D01*
X75398286Y64428476D01*
X75207810Y64476095D01*
X75064952Y64476095D01*
X74874476Y64428476D01*
X74779238Y64380857D01*
X74684000Y64285619D01*
X74636381Y64142761D01*
X74636381Y64047523D01*
X74684000Y63904666D01*
X74731619Y63857047D01*
X75636381Y62904666D02*
X75636381Y63476095D01*
X75636381Y63190381D02*
X74636381Y63190381D01*
X74779238Y63285619D01*
X74874476Y63380857D01*
X74922095Y63476095D01*
X74969714Y62047523D02*
X75636381Y62047523D01*
X74588762Y62285619D02*
X75303048Y62523714D01*
X75303048Y61904666D01*
X74636381Y61047523D02*
X74636381Y61523714D01*
X75112571Y61571333D01*
X75064952Y61523714D01*
X75017333Y61428476D01*
X75017333Y61190380D01*
X75064952Y61095142D01*
X75112571Y61047523D01*
X75207810Y60999904D01*
X75445905Y60999904D01*
X75541143Y61047523D01*
X75588762Y61095142D01*
X75636381Y61190380D01*
X75636381Y61428476D01*
X75588762Y61523714D01*
X75541143Y61571333D01*
X79732143Y36425047D02*
X79779762Y36472666D01*
X79827381Y36615523D01*
X79827381Y36710761D01*
X79779762Y36853619D01*
X79684524Y36948857D01*
X79589286Y36996476D01*
X79398810Y37044095D01*
X79255952Y37044095D01*
X79065476Y36996476D01*
X78970238Y36948857D01*
X78875000Y36853619D01*
X78827381Y36710761D01*
X78827381Y36615523D01*
X78875000Y36472666D01*
X78922619Y36425047D01*
X79827381Y35472666D02*
X79827381Y36044095D01*
X79827381Y35758381D02*
X78827381Y35758381D01*
X78970238Y35853619D01*
X79065476Y35948857D01*
X79113095Y36044095D01*
X79160714Y34615523D02*
X79827381Y34615523D01*
X78779762Y34853619D02*
X79494048Y35091714D01*
X79494048Y34472666D01*
X78827381Y33663142D02*
X78827381Y33853619D01*
X78875000Y33948857D01*
X78922619Y33996476D01*
X79065476Y34091714D01*
X79255952Y34139333D01*
X79636905Y34139333D01*
X79732143Y34091714D01*
X79779762Y34044095D01*
X79827381Y33948857D01*
X79827381Y33758380D01*
X79779762Y33663142D01*
X79732143Y33615523D01*
X79636905Y33567904D01*
X79398810Y33567904D01*
X79303571Y33615523D01*
X79255952Y33663142D01*
X79208333Y33758380D01*
X79208333Y33948857D01*
X79255952Y34044095D01*
X79303571Y34091714D01*
X79398810Y34139333D01*
X79922476Y27155619D02*
X79922476Y28155619D01*
X79684381Y28155619D01*
X79541523Y28108000D01*
X79446285Y28012762D01*
X79398666Y27917524D01*
X79351047Y27727048D01*
X79351047Y27584190D01*
X79398666Y27393714D01*
X79446285Y27298476D01*
X79541523Y27203238D01*
X79684381Y27155619D01*
X79922476Y27155619D01*
X78398666Y27155619D02*
X78970095Y27155619D01*
X78684381Y27155619D02*
X78684381Y28155619D01*
X78779619Y28012762D01*
X78874857Y27917524D01*
X78970095Y27869905D01*
X77779619Y28155619D02*
X77684380Y28155619D01*
X77589142Y28108000D01*
X77541523Y28060381D01*
X77493904Y27965143D01*
X77446285Y27774667D01*
X77446285Y27536571D01*
X77493904Y27346095D01*
X77541523Y27250857D01*
X77589142Y27203238D01*
X77684380Y27155619D01*
X77779619Y27155619D01*
X77874857Y27203238D01*
X77922476Y27250857D01*
X77970095Y27346095D01*
X78017714Y27536571D01*
X78017714Y27774667D01*
X77970095Y27965143D01*
X77922476Y28060381D01*
X77874857Y28108000D01*
X77779619Y28155619D01*
X76541523Y28155619D02*
X77017714Y28155619D01*
X77065333Y27679429D01*
X77017714Y27727048D01*
X76922476Y27774667D01*
X76684380Y27774667D01*
X76589142Y27727048D01*
X76541523Y27679429D01*
X76493904Y27584190D01*
X76493904Y27346095D01*
X76541523Y27250857D01*
X76589142Y27203238D01*
X76684380Y27155619D01*
X76922476Y27155619D01*
X77017714Y27203238D01*
X77065333Y27250857D01*
X81493905Y25455619D02*
X81493905Y26455619D01*
X80922476Y25455619D02*
X81351048Y26027048D01*
X80922476Y26455619D02*
X81493905Y25884190D01*
X75470095Y25741333D02*
X74993904Y25741333D01*
X75565333Y25455619D02*
X75232000Y26455619D01*
X74898666Y25455619D01*
X59380381Y65952476D02*
X58380381Y65952476D01*
X58380381Y65714381D01*
X58428000Y65571523D01*
X58523238Y65476285D01*
X58618476Y65428666D01*
X58808952Y65381047D01*
X58951810Y65381047D01*
X59142286Y65428666D01*
X59237524Y65476285D01*
X59332762Y65571523D01*
X59380381Y65714381D01*
X59380381Y65952476D01*
X59380381Y64428666D02*
X59380381Y65000095D01*
X59380381Y64714381D02*
X58380381Y64714381D01*
X58523238Y64809619D01*
X58618476Y64904857D01*
X58666095Y65000095D01*
X58380381Y63809619D02*
X58380381Y63714380D01*
X58428000Y63619142D01*
X58475619Y63571523D01*
X58570857Y63523904D01*
X58761333Y63476285D01*
X58999429Y63476285D01*
X59189905Y63523904D01*
X59285143Y63571523D01*
X59332762Y63619142D01*
X59380381Y63714380D01*
X59380381Y63809619D01*
X59332762Y63904857D01*
X59285143Y63952476D01*
X59189905Y64000095D01*
X58999429Y64047714D01*
X58761333Y64047714D01*
X58570857Y64000095D01*
X58475619Y63952476D01*
X58428000Y63904857D01*
X58380381Y63809619D01*
X58380381Y62619142D02*
X58380381Y62809619D01*
X58428000Y62904857D01*
X58475619Y62952476D01*
X58618476Y63047714D01*
X58808952Y63095333D01*
X59189905Y63095333D01*
X59285143Y63047714D01*
X59332762Y63000095D01*
X59380381Y62904857D01*
X59380381Y62714380D01*
X59332762Y62619142D01*
X59285143Y62571523D01*
X59189905Y62523904D01*
X58951810Y62523904D01*
X58856571Y62571523D01*
X58808952Y62619142D01*
X58761333Y62714380D01*
X58761333Y62904857D01*
X58808952Y63000095D01*
X58856571Y63047714D01*
X58951810Y63095333D01*
X61158381Y61523905D02*
X60158381Y61523905D01*
X61158381Y60952476D02*
X60586952Y61381048D01*
X60158381Y60952476D02*
X60729810Y61523905D01*
X60872667Y67500095D02*
X60872667Y67023904D01*
X61158381Y67595333D02*
X60158381Y67262000D01*
X61158381Y66928666D01*
X84780381Y62982476D02*
X83780381Y62982476D01*
X83780381Y62744381D01*
X83828000Y62601523D01*
X83923238Y62506285D01*
X84018476Y62458666D01*
X84208952Y62411047D01*
X84351810Y62411047D01*
X84542286Y62458666D01*
X84637524Y62506285D01*
X84732762Y62601523D01*
X84780381Y62744381D01*
X84780381Y62982476D01*
X84780381Y61458666D02*
X84780381Y62030095D01*
X84780381Y61744381D02*
X83780381Y61744381D01*
X83923238Y61839619D01*
X84018476Y61934857D01*
X84066095Y62030095D01*
X83780381Y60839619D02*
X83780381Y60744380D01*
X83828000Y60649142D01*
X83875619Y60601523D01*
X83970857Y60553904D01*
X84161333Y60506285D01*
X84399429Y60506285D01*
X84589905Y60553904D01*
X84685143Y60601523D01*
X84732762Y60649142D01*
X84780381Y60744380D01*
X84780381Y60839619D01*
X84732762Y60934857D01*
X84685143Y60982476D01*
X84589905Y61030095D01*
X84399429Y61077714D01*
X84161333Y61077714D01*
X83970857Y61030095D01*
X83875619Y60982476D01*
X83828000Y60934857D01*
X83780381Y60839619D01*
X83780381Y60172952D02*
X83780381Y59506285D01*
X84780381Y59934857D01*
X86558381Y64807905D02*
X85558381Y64807905D01*
X86558381Y64236476D02*
X85986952Y64665048D01*
X85558381Y64236476D02*
X86129810Y64807905D01*
X86272667Y58784095D02*
X86272667Y58307904D01*
X86558381Y58879333D02*
X85558381Y58546000D01*
X86558381Y58212666D01*
X87152381Y33790476D02*
X86152381Y33790476D01*
X86152381Y33552381D01*
X86200000Y33409523D01*
X86295238Y33314285D01*
X86390476Y33266666D01*
X86580952Y33219047D01*
X86723810Y33219047D01*
X86914286Y33266666D01*
X87009524Y33314285D01*
X87104762Y33409523D01*
X87152381Y33552381D01*
X87152381Y33790476D01*
X87152381Y32266666D02*
X87152381Y32838095D01*
X87152381Y32552381D02*
X86152381Y32552381D01*
X86295238Y32647619D01*
X86390476Y32742857D01*
X86438095Y32838095D01*
X86152381Y31647619D02*
X86152381Y31552380D01*
X86200000Y31457142D01*
X86247619Y31409523D01*
X86342857Y31361904D01*
X86533333Y31314285D01*
X86771429Y31314285D01*
X86961905Y31361904D01*
X87057143Y31409523D01*
X87104762Y31457142D01*
X87152381Y31552380D01*
X87152381Y31647619D01*
X87104762Y31742857D01*
X87057143Y31790476D01*
X86961905Y31838095D01*
X86771429Y31885714D01*
X86533333Y31885714D01*
X86342857Y31838095D01*
X86247619Y31790476D01*
X86200000Y31742857D01*
X86152381Y31647619D01*
X86580952Y30742857D02*
X86533333Y30838095D01*
X86485714Y30885714D01*
X86390476Y30933333D01*
X86342857Y30933333D01*
X86247619Y30885714D01*
X86200000Y30838095D01*
X86152381Y30742857D01*
X86152381Y30552380D01*
X86200000Y30457142D01*
X86247619Y30409523D01*
X86342857Y30361904D01*
X86390476Y30361904D01*
X86485714Y30409523D01*
X86533333Y30457142D01*
X86580952Y30552380D01*
X86580952Y30742857D01*
X86628571Y30838095D01*
X86676190Y30885714D01*
X86771429Y30933333D01*
X86961905Y30933333D01*
X87057143Y30885714D01*
X87104762Y30838095D01*
X87152381Y30742857D01*
X87152381Y30552380D01*
X87104762Y30457142D01*
X87057143Y30409523D01*
X86961905Y30361904D01*
X86771429Y30361904D01*
X86676190Y30409523D01*
X86628571Y30457142D01*
X86580952Y30552380D01*
X88852381Y35361905D02*
X87852381Y35361905D01*
X88852381Y34790476D02*
X88280952Y35219048D01*
X87852381Y34790476D02*
X88423810Y35361905D01*
X88566667Y29338095D02*
X88566667Y28861904D01*
X88852381Y29433333D02*
X87852381Y29100000D01*
X88852381Y28766666D01*
M02*
