G04 #@! TF.FileFunction,Soldermask,Top*
%FSLAX46Y46*%
G04 Gerber Fmt 4.6, Leading zero omitted, Abs format (unit mm)*
G04 Created by KiCad (PCBNEW 4.0.2-stable) date 20/05/2016 13:48:35*
%MOMM*%
G01*
G04 APERTURE LIST*
%ADD10C,0.100000*%
%ADD11C,0.150000*%
%ADD12C,2.400000*%
%ADD13R,1.300000X1.700000*%
%ADD14R,1.700000X1.300000*%
%ADD15R,2.900000X2.100000*%
%ADD16C,2.000000*%
%ADD17O,2.000000X3.600000*%
%ADD18O,3.600000X2.000000*%
%ADD19R,4.600000X2.800000*%
%ADD20O,3.400000X2.400000*%
%ADD21C,3.900000*%
%ADD22R,1.600000X1.050000*%
%ADD23C,3.000000*%
%ADD24C,6.200000*%
%ADD25R,2.100000X1.500000*%
G04 APERTURE END LIST*
D10*
D11*
X0Y100000000D02*
X0Y0D01*
X100000000Y100000000D02*
X0Y100000000D01*
X100000000Y0D02*
X100000000Y100000000D01*
X0Y0D02*
X100000000Y0D01*
D12*
X17485261Y73811175D03*
X20985261Y73811175D03*
X45240000Y73025000D03*
X48740000Y73025000D03*
X22860000Y58935000D03*
X22860000Y51435000D03*
X22860000Y39250000D03*
X22860000Y31750000D03*
X43815000Y58935000D03*
X43815000Y51435000D03*
X43815000Y39250000D03*
X43815000Y31750000D03*
D13*
X12854961Y80161175D03*
X10654961Y80161175D03*
X40470000Y79375000D03*
X38270000Y79375000D03*
D12*
X78895000Y70612000D03*
X82395000Y70612000D03*
X82268000Y19177000D03*
X78768000Y19177000D03*
D14*
X17965261Y86341175D03*
X17965261Y84141175D03*
X45720000Y85555000D03*
X45720000Y83355000D03*
D12*
X80746600Y63218000D03*
X80746600Y59718000D03*
X83058000Y33246000D03*
X83058000Y29746000D03*
D15*
X20415000Y80161175D03*
X16415000Y80161175D03*
X48355000Y79375000D03*
X44355000Y79375000D03*
D16*
X4445000Y43180000D03*
D17*
X4445000Y46355000D03*
D16*
X22225000Y95250000D03*
D18*
X19050000Y95250000D03*
D16*
X31115000Y95250000D03*
D18*
X27940000Y95250000D03*
D16*
X48895000Y95250000D03*
D18*
X45720000Y95250000D03*
D16*
X40005000Y95250000D03*
D18*
X36830000Y95250000D03*
D16*
X95250000Y75565000D03*
D17*
X95250000Y78740000D03*
D16*
X95250000Y10795000D03*
D17*
X95250000Y13970000D03*
D16*
X95250000Y65405000D03*
D17*
X95250000Y68580000D03*
D16*
X95250000Y56515000D03*
D17*
X95250000Y59690000D03*
D16*
X95250000Y47625000D03*
D17*
X95250000Y50800000D03*
D16*
X95250000Y38735000D03*
D17*
X95250000Y41910000D03*
D16*
X95250000Y29845000D03*
D17*
X95250000Y33020000D03*
D16*
X95250000Y20955000D03*
D17*
X95250000Y24130000D03*
D14*
X13520261Y72371175D03*
X13520261Y70171175D03*
X10980261Y72371175D03*
X10980261Y70171175D03*
X41275000Y71585000D03*
X41275000Y69385000D03*
X38735000Y71585000D03*
X38735000Y69385000D03*
X7493000Y79840000D03*
X7493000Y77640000D03*
D13*
X5377000Y75154955D03*
X7577000Y75154955D03*
D14*
X35306000Y79078000D03*
X35306000Y76878000D03*
D13*
X33190000Y74422000D03*
X35390000Y74422000D03*
X79545000Y76200000D03*
X81745000Y76200000D03*
X79418000Y13462000D03*
X81618000Y13462000D03*
D12*
X24130000Y87475000D03*
X24130000Y83975000D03*
X52705000Y86685000D03*
X52705000Y83185000D03*
X57785000Y56868000D03*
X57785000Y53368000D03*
X57912000Y37310000D03*
X57912000Y33810000D03*
D19*
X40640000Y82740000D03*
X40640000Y87440000D03*
X12827000Y83502000D03*
X12827000Y88202000D03*
D20*
X72644000Y23368000D03*
X72644000Y25908000D03*
X72644000Y28448000D03*
D21*
X68944000Y13208000D03*
X68944000Y38608000D03*
D20*
X65190000Y68072000D03*
X65190000Y65532000D03*
X65190000Y62992000D03*
D21*
X68890000Y78232000D03*
X68890000Y52832000D03*
D22*
X40570000Y75565000D03*
X38170000Y76515000D03*
X38170000Y75565000D03*
X38170000Y74615000D03*
X40570000Y74615000D03*
X40570000Y76515000D03*
X12815261Y76046375D03*
X10415261Y76996375D03*
X10415261Y76046375D03*
X10415261Y75096375D03*
X12815261Y75096375D03*
X12815261Y76996375D03*
D23*
X89500000Y5000000D03*
X11000000Y97000000D03*
D24*
X5000000Y5000000D03*
X95000000Y5000000D03*
X95000000Y95000000D03*
X5000000Y95000000D03*
D25*
X30988000Y86282000D03*
X30988000Y82882000D03*
D14*
X30988000Y76624000D03*
X30988000Y78824000D03*
M02*
