M48
;DRILL file {KiCad 4.0.2-stable} date 20/05/2016 13:48:36
;FORMAT={-:-/ absolute / metric / decimal}
FMAT,2
METRIC,TZ
T1C0.500
T2C0.800
T3C1.000
T4C1.200
T5C2.800
T6C3.200
%
G90
G05
M71
T1
X8.839Y76.34
X11.506Y76.086
X36.715Y75.578
X39.37Y75.578
T2
X2.87Y89.04
X2.87Y82.055
X2.87Y68.72
X2.87Y62.37
X2.87Y55.385
X3.505Y75.197
X4.14Y36.843
X4.14Y31.89
X4.14Y27.064
X4.14Y9.919
X5.41Y90.945
X5.41Y87.135
X5.41Y83.325
X7.5Y53.6
X7.5Y50.4
X7.5Y46.4
X7.5Y39.1
X7.5Y37.1
X8.585Y97.93
X8.966Y70.244
X9.1Y89.1
X9.1Y83.3
X10.4Y90.7
X10.49Y94.12
X10.49Y63.64
X10.998Y68.466
X14.427Y3.442
X14.7Y90.7
X14.808Y26.81
X14.935Y97.93
X14.935Y94.12
X15.316Y14.872
X15.57Y68.72
X16.Y47.8
X16.Y43.3
X17.475Y63.64
X17.485Y73.811
X17.983Y82.436
X18.237Y90.31
X20.396Y82.436
X20.65Y97.93
X20.985Y73.811
X22.174Y77.737
X22.428Y69.99
X23.444Y81.039
X23.444Y79.261
X24.13Y87.475
X24.13Y83.975
X25.095Y66.815
X27.508Y82.055
X27.6Y45.5
X27.635Y74.562
X27.635Y70.625
X27.889Y89.675
X28.905Y3.442
X28.956Y76.454
X29.54Y97.93
X30.175Y66.815
X31.318Y14.999
X31.572Y74.435
X32.5Y49.4
X32.5Y40.9
X33.096Y70.625
X33.35Y86.5
X33.35Y82.69
X33.985Y90.31
X34.747Y26.683
X35.255Y66.815
X36.3Y45.5
X36.9Y87.1
X36.9Y82.3
X36.906Y69.355
X37.795Y97.93
X38.Y89.9
X38.684Y67.704
X41.605Y66.815
X42.6Y89.9
X45.24Y73.025
X45.669Y81.611
X46.05Y97.93
X46.05Y14.745
X46.558Y3.442
X48.133Y92.202
X48.59Y66.18
X48.717Y81.547
X48.74Y73.025
X49.2Y45.5
X49.987Y76.975
X50.177Y69.228
X51.13Y66.18
X51.828Y80.213
X51.828Y78.372
X52.4Y97.93
X52.705Y86.685
X52.705Y83.185
X53.543Y25.667
X53.594Y63.5
X55.4Y49.1
X55.4Y45.5
X55.4Y42.3
X57.48Y66.18
X57.785Y56.868
X57.785Y53.368
X57.912Y37.31
X57.912Y33.81
X58.75Y97.93
X58.75Y92.85
X58.75Y88.405
X58.75Y83.96
X58.75Y79.515
X58.75Y73.8
X58.75Y68.72
X59.766Y22.492
X59.766Y15.24
X62.1Y45.5
X64.592Y6.49
X65.735Y3.442
X68.2Y45.5
X73.4Y45.4
X74.625Y97.93
X74.625Y88.405
X74.676Y84.074
X76.657Y6.49
X78.232Y10.16
X78.4Y53.2
X78.4Y45.4
X78.4Y38.3
X78.768Y19.177
X78.895Y70.612
X78.994Y79.756
X80.747Y63.218
X80.747Y59.718
X82.268Y19.177
X82.395Y70.612
X83.058Y33.246
X83.058Y29.746
X83.8Y45.4
X84.074Y9.398
X84.836Y80.772
X86.1Y49.5
X86.1Y40.7
X86.69Y3.442
X87.376Y7.366
X88.8Y45.4
X89.23Y97.93
X89.23Y88.405
X90.17Y83.312
X97.79Y86.868
T3
X4.445Y43.18
X22.225Y95.25
X22.86Y58.935
X22.86Y51.435
X22.86Y39.25
X22.86Y31.75
X31.115Y95.25
X40.005Y95.25
X43.815Y58.935
X43.815Y51.435
X43.815Y39.25
X43.815Y31.75
X48.895Y95.25
X95.25Y75.565
X95.25Y65.405
X95.25Y56.515
X95.25Y47.625
X95.25Y38.735
X95.25Y29.845
X95.25Y20.955
X95.25Y10.795
T4
X65.19Y68.072
X65.19Y65.532
X65.19Y62.992
X72.644Y28.448
X72.644Y25.908
X72.644Y23.368
T5
X68.89Y78.232
X68.89Y52.832
X68.944Y38.608
X68.944Y13.208
T6
X5.Y95.
X5.Y5.
X95.Y95.
X95.Y5.
T3
X4.445Y45.585G85X4.445Y47.125
G05
X19.82Y95.25G85X18.28Y95.25
G05
X28.71Y95.25G85X27.17Y95.25
G05
X37.6Y95.25G85X36.06Y95.25
G05
X46.49Y95.25G85X44.95Y95.25
G05
X95.25Y77.97G85X95.25Y79.51
G05
X95.25Y67.81G85X95.25Y69.35
G05
X95.25Y58.92G85X95.25Y60.46
G05
X95.25Y50.03G85X95.25Y51.57
G05
X95.25Y41.14G85X95.25Y42.68
G05
X95.25Y32.25G85X95.25Y33.79
G05
X95.25Y23.36G85X95.25Y24.9
G05
X95.25Y13.2G85X95.25Y14.74
G05
T0
M30
