M48
;DRILL file {KiCad 4.0.1-stable} date 18/01/2016 16:42:25
;FORMAT={-:-/ absolute / metric / decimal}
FMAT,2
METRIC,TZ
T1C0.500
T2C0.800
T3C1.000
T4C1.200
T5C2.800
T6C3.000
%
G90
G05
M71
T1
X8.839Y76.34
X11.506Y76.086
X36.715Y75.578
X39.37Y75.578
T2
X2.87Y89.04
X2.87Y82.055
X2.87Y68.72
X2.87Y62.37
X2.87Y55.385
X3.505Y75.197
X4.14Y36.843
X4.14Y31.89
X4.14Y27.064
X4.14Y9.919
X5.41Y90.945
X5.41Y87.135
X5.41Y83.325
X7.442Y81.928
X8.585Y97.93
X8.839Y85.738
X8.966Y89.294
X8.966Y70.244
X9.474Y81.928
X10.49Y94.12
X10.49Y63.64
X10.998Y68.466
X12.014Y90.31
X14.427Y3.442
X14.808Y26.81
X14.935Y97.93
X14.935Y94.12
X15.062Y90.31
X15.316Y14.872
X15.57Y68.72
X17.475Y63.64
X17.485Y73.811
X17.983Y82.436
X18.237Y90.31
X20.396Y82.436
X20.65Y97.93
X20.985Y73.811
X21.539Y90.31
X22.174Y77.737
X22.428Y69.99
X23.444Y81.039
X23.444Y79.261
X24.13Y87.475
X24.13Y83.975
X25.095Y66.815
X27.508Y82.055
X27.635Y74.562
X27.635Y70.625
X27.889Y89.675
X28.905Y3.442
X29.54Y97.93
X30.175Y66.815
X31.318Y14.999
X31.572Y74.435
X33.096Y70.625
X33.35Y86.5
X33.35Y82.69
X33.985Y90.31
X34.747Y26.683
X35.255Y66.815
X35.331Y80.683
X36.855Y85.078
X36.855Y88.087
X36.906Y69.355
X37.236Y81.293
X37.795Y97.93
X38.684Y67.704
X39.395Y89.091
X41.605Y66.815
X42.697Y89.091
X45.24Y73.025
X45.669Y81.611
X45.923Y89.04
X46.05Y97.93
X46.05Y92.215
X46.05Y14.745
X46.558Y3.442
X48.59Y66.18
X48.717Y89.04
X48.717Y81.547
X48.74Y73.025
X49.987Y76.975
X50.177Y69.228
X51.13Y66.18
X51.828Y80.213
X51.828Y78.372
X52.4Y97.93
X52.705Y86.685
X52.705Y83.185
X53.543Y25.667
X57.48Y66.18
X57.785Y56.868
X57.785Y53.368
X57.912Y37.31
X57.912Y33.81
X58.75Y97.93
X58.75Y92.85
X58.75Y88.405
X58.75Y83.96
X58.75Y79.515
X58.75Y73.8
X58.75Y68.72
X59.766Y22.492
X60.528Y6.998
X65.735Y3.442
X74.625Y97.93
X74.625Y88.405
X76.657Y6.49
X78.26Y20.955
X78.895Y70.485
X80.747Y62.888
X80.747Y59.388
X81.153Y32.23
X81.153Y28.73
X81.76Y20.955
X82.395Y70.485
X86.69Y3.442
X89.23Y97.93
X89.23Y88.405
T3
X4.445Y43.18
X22.225Y95.25
X22.86Y58.935
X22.86Y51.435
X22.86Y39.25
X22.86Y31.75
X31.115Y95.25
X40.005Y95.25
X43.815Y58.935
X43.815Y51.435
X43.815Y39.25
X43.815Y31.75
X48.895Y95.25
X95.25Y75.565
X95.25Y65.405
X95.25Y56.515
X95.25Y47.625
X95.25Y38.735
X95.25Y29.845
X95.25Y20.955
X95.25Y10.795
T4
X68.89Y66.04
X68.89Y63.5
X68.89Y60.96
X68.89Y29.591
X68.89Y27.051
X68.89Y24.511
T5
X65.39Y39.751
X65.39Y14.351
X72.39Y76.2
X72.39Y50.8
T6
X5.Y95.
X5.Y5.
X95.Y95.
X95.Y5.
T3
X4.445Y45.585G85X4.445Y47.125
G05
X19.82Y95.25G85X18.28Y95.25
G05
X28.71Y95.25G85X27.17Y95.25
G05
X37.6Y95.25G85X36.06Y95.25
G05
X46.49Y95.25G85X44.95Y95.25
G05
X95.25Y77.97G85X95.25Y79.51
G05
X95.25Y67.81G85X95.25Y69.35
G05
X95.25Y58.92G85X95.25Y60.46
G05
X95.25Y50.03G85X95.25Y51.57
G05
X95.25Y41.14G85X95.25Y42.68
G05
X95.25Y32.25G85X95.25Y33.79
G05
X95.25Y23.36G85X95.25Y24.9
G05
X95.25Y13.2G85X95.25Y14.74
G05
T0
M30
