G04 #@! TF.FileFunction,Copper,L2,Bot,Signal*
%FSLAX46Y46*%
G04 Gerber Fmt 4.6, Leading zero omitted, Abs format (unit mm)*
G04 Created by KiCad (PCBNEW 4.0.1-stable) date 18/01/2016 20:26:33*
%MOMM*%
G01*
G04 APERTURE LIST*
%ADD10C,0.100000*%
%ADD11C,0.150000*%
%ADD12C,2.000000*%
%ADD13R,0.900000X1.300000*%
%ADD14R,1.300000X0.900000*%
%ADD15R,3.800000X2.800000*%
%ADD16C,1.600000*%
%ADD17O,1.600000X3.200000*%
%ADD18O,3.200000X1.600000*%
%ADD19R,1.700000X2.500000*%
%ADD20O,3.000000X2.000000*%
%ADD21C,3.500000*%
%ADD22C,1.200000*%
%ADD23C,0.800000*%
%ADD24C,0.300000*%
%ADD25C,2.000000*%
%ADD26C,1.000000*%
%ADD27C,1.500000*%
%ADD28C,0.400000*%
%ADD29C,3.000000*%
%ADD30C,0.254000*%
G04 APERTURE END LIST*
D10*
D11*
X0Y100000000D02*
X0Y0D01*
X100000000Y100000000D02*
X0Y100000000D01*
X100000000Y0D02*
X100000000Y100000000D01*
X0Y0D02*
X100000000Y0D01*
D12*
X17485261Y73811175D03*
X20985261Y73811175D03*
X45240000Y73025000D03*
X48740000Y73025000D03*
D13*
X18135261Y70001175D03*
X20335261Y70001175D03*
X45890000Y69215000D03*
X48090000Y69215000D03*
D12*
X22860000Y58935000D03*
X22860000Y51435000D03*
X22860000Y39250000D03*
X22860000Y31750000D03*
D13*
X18135261Y77621175D03*
X20335261Y77621175D03*
X45890000Y76835000D03*
X48090000Y76835000D03*
D14*
X19050000Y56345000D03*
X19050000Y54145000D03*
X19050000Y36660000D03*
X19050000Y34460000D03*
X22860000Y56345000D03*
X22860000Y54145000D03*
X22860000Y36660000D03*
X22860000Y34460000D03*
X26670000Y56345000D03*
X26670000Y54145000D03*
X26543000Y36660000D03*
X26543000Y34460000D03*
X37211000Y56472000D03*
X37211000Y54272000D03*
D13*
X34841000Y39116000D03*
X37041000Y39116000D03*
D12*
X43815000Y58935000D03*
X43815000Y51435000D03*
X43815000Y39250000D03*
X43815000Y31750000D03*
D14*
X40005000Y56472000D03*
X40005000Y54272000D03*
X40005000Y36660000D03*
X40005000Y34460000D03*
X43815000Y56472000D03*
X43815000Y54272000D03*
X43815000Y36660000D03*
X43815000Y34460000D03*
X47625000Y56472000D03*
X47625000Y54272000D03*
X47625000Y36660000D03*
X47625000Y34460000D03*
D12*
X78895000Y70485000D03*
X82395000Y70485000D03*
X81760000Y20955000D03*
X78260000Y20955000D03*
D14*
X21140261Y86341175D03*
X21140261Y84141175D03*
X49530000Y85555000D03*
X49530000Y83355000D03*
D13*
X79545000Y67310000D03*
X81745000Y67310000D03*
X81110000Y17780000D03*
X78910000Y17780000D03*
D14*
X27490261Y86341175D03*
X27490261Y84141175D03*
X55880000Y85555000D03*
X55880000Y83355000D03*
D12*
X80746600Y62887800D03*
X80746600Y59387800D03*
X81153000Y32230000D03*
X81153000Y28730000D03*
D14*
X77647800Y62822000D03*
X77647800Y60622000D03*
X78105000Y30945000D03*
X78105000Y28745000D03*
D15*
X12065000Y48520000D03*
X12065000Y55620000D03*
X12065000Y35439000D03*
X12065000Y42539000D03*
D13*
X31920000Y58166000D03*
X34120000Y58166000D03*
X32301000Y34417000D03*
X34501000Y34417000D03*
D16*
X4445000Y43180000D03*
D17*
X4445000Y46355000D03*
D16*
X22225000Y95250000D03*
D18*
X19050000Y95250000D03*
D16*
X31115000Y95250000D03*
D18*
X27940000Y95250000D03*
D16*
X48895000Y95250000D03*
D18*
X45720000Y95250000D03*
D16*
X40005000Y95250000D03*
D18*
X36830000Y95250000D03*
D16*
X95250000Y75565000D03*
D17*
X95250000Y78740000D03*
D16*
X95250000Y10795000D03*
D17*
X95250000Y13970000D03*
D16*
X95250000Y65405000D03*
D17*
X95250000Y68580000D03*
D16*
X95250000Y56515000D03*
D17*
X95250000Y59690000D03*
D16*
X95250000Y47625000D03*
D17*
X95250000Y50800000D03*
D16*
X95250000Y38735000D03*
D17*
X95250000Y41910000D03*
D16*
X95250000Y29845000D03*
D17*
X95250000Y33020000D03*
D16*
X95250000Y20955000D03*
D17*
X95250000Y24130000D03*
D13*
X37168000Y51816000D03*
X34968000Y51816000D03*
D14*
X37084000Y36660000D03*
X37084000Y34460000D03*
D13*
X81745000Y73660000D03*
X79545000Y73660000D03*
X78910000Y23495000D03*
X81110000Y23495000D03*
D19*
X73088500Y27083000D03*
X73088500Y31083000D03*
X73406000Y62960000D03*
X73406000Y58960000D03*
X88392000Y56674000D03*
X88392000Y60674000D03*
X88265000Y28988000D03*
X88265000Y32988000D03*
D20*
X68890000Y66040000D03*
X68890000Y63500000D03*
X68890000Y60960000D03*
D21*
X72390000Y76200000D03*
X72390000Y50800000D03*
D20*
X68890000Y24511000D03*
X68890000Y27051000D03*
X68890000Y29591000D03*
D21*
X65390000Y14351000D03*
X65390000Y39751000D03*
D14*
X62230000Y60155000D03*
X62230000Y57955000D03*
X62230000Y29675000D03*
X62230000Y27475000D03*
X64770000Y60155000D03*
X64770000Y57955000D03*
X64770000Y29675000D03*
X64770000Y27475000D03*
X84328000Y62822000D03*
X84328000Y60622000D03*
X84709000Y30945000D03*
X84709000Y28745000D03*
D12*
X24130000Y87475000D03*
X24130000Y83975000D03*
X52705000Y86685000D03*
X52705000Y83185000D03*
X57785000Y56868000D03*
X57785000Y53368000D03*
X57912000Y37310000D03*
X57912000Y33810000D03*
D22*
X74625000Y88405000D03*
X89230000Y88405000D03*
X89230000Y97930000D03*
X74625000Y97930000D03*
X46050000Y14745000D03*
X31318000Y14999000D03*
X15316000Y14872000D03*
X14808000Y26810000D03*
X34747000Y26683000D03*
X53543000Y25667000D03*
X59766000Y22492000D03*
X60528000Y6998000D03*
X76657000Y6490000D03*
X86690000Y3442000D03*
X65735000Y3442000D03*
X46558000Y3442000D03*
X28905000Y3442000D03*
X14427000Y3442000D03*
X4140000Y9919000D03*
X4140000Y27064000D03*
X4140000Y31890000D03*
X4140000Y36843000D03*
X27889000Y89675000D03*
X33096000Y70625000D03*
X27635000Y70625000D03*
X27635000Y74562000D03*
X27508000Y82055000D03*
X31572000Y74435000D03*
X38684000Y67704000D03*
X36906000Y69355000D03*
X15570000Y68720000D03*
X17475000Y63640000D03*
X10490000Y63640000D03*
X25095000Y66815000D03*
X30175000Y66815000D03*
X35255000Y66815000D03*
X41605000Y66815000D03*
X48590000Y66180000D03*
X51130000Y66180000D03*
X57480000Y66180000D03*
X58750000Y68720000D03*
X58750000Y73800000D03*
X58750000Y79515000D03*
X58750000Y83960000D03*
X58750000Y88405000D03*
X58750000Y92850000D03*
X58750000Y97930000D03*
X52400000Y97930000D03*
X29540000Y97930000D03*
X37795000Y97930000D03*
X46050000Y97930000D03*
X46050000Y92215000D03*
X33350000Y82690000D03*
X33350000Y86500000D03*
X33985000Y90310000D03*
X5410000Y83325000D03*
X5410000Y87135000D03*
X5410000Y90945000D03*
X14935000Y94120000D03*
X10490000Y94120000D03*
X8585000Y97930000D03*
X14935000Y97930000D03*
X20650000Y97930000D03*
X2870000Y55385000D03*
X2870000Y62370000D03*
X2870000Y68720000D03*
X2870000Y89040000D03*
X2870000Y82055000D03*
X50177500Y69228000D03*
X49987000Y76975000D03*
X51828500Y78372000D03*
X51828500Y80213500D03*
X48717000Y81547000D03*
X45669000Y81610500D03*
D23*
X39369998Y75578000D03*
X36715500Y75578000D03*
D22*
X37236200Y81293000D03*
X36855200Y85077600D03*
X36855400Y88087200D03*
X39395200Y89090800D03*
X42697200Y89090800D03*
X48717000Y89040000D03*
X45923000Y89040000D03*
D23*
X11506000Y76086000D03*
X8839000Y76340000D03*
D22*
X10998000Y68466000D03*
X8966000Y70244000D03*
X3505000Y75197000D03*
X22428000Y69990000D03*
X22174000Y77737000D03*
X23444000Y79261000D03*
X23444000Y81039000D03*
X20396000Y82436000D03*
X17983000Y82436000D03*
X9474000Y81928000D03*
X8839000Y85738000D03*
X8966000Y89294000D03*
X12014000Y90310000D03*
X15062000Y90310000D03*
X21539000Y90310000D03*
X18237000Y90310000D03*
X7442000Y81928000D03*
X35331200Y80683400D03*
D24*
X89230000Y88405000D02*
X74625000Y88405000D01*
X74625000Y97930000D02*
X89230000Y97930000D01*
X31318000Y14999000D02*
X45796000Y14999000D01*
X45796000Y14999000D02*
X46050000Y14745000D01*
X14808000Y26810000D02*
X14808000Y15380000D01*
X14808000Y15380000D02*
X15316000Y14872000D01*
X53543000Y25667000D02*
X52527000Y26683000D01*
X52527000Y26683000D02*
X34747000Y26683000D01*
X60528000Y6998000D02*
X59766000Y7760000D01*
X59766000Y7760000D02*
X59766000Y22492000D01*
X86690000Y3442000D02*
X79705000Y3442000D01*
X79705000Y3442000D02*
X76657000Y6490000D01*
X46558000Y3442000D02*
X65735000Y3442000D01*
X14427000Y3442000D02*
X28905000Y3442000D01*
X4140000Y27064000D02*
X4140000Y9919000D01*
X4140000Y36843000D02*
X4140000Y31890000D01*
X61671000Y54623000D02*
X59040000Y54623000D01*
X59040000Y54623000D02*
X57785000Y53368000D01*
X62230000Y55182000D02*
X61671000Y54623000D01*
X62230000Y57955000D02*
X62230000Y55182000D01*
X61925000Y35954000D02*
X59268000Y35954000D01*
X59268000Y35954000D02*
X57912000Y37310000D01*
X62230000Y35649000D02*
X61925000Y35954000D01*
X62230000Y29675000D02*
X62230000Y35649000D01*
D25*
X88392000Y56674000D02*
X88392000Y42101000D01*
X88392000Y42101000D02*
X88265000Y41974000D01*
X88265000Y41974000D02*
X88265000Y32988000D01*
D24*
X27635000Y70625000D02*
X33096000Y70625000D01*
X27508000Y82055000D02*
X27508000Y74689000D01*
X27508000Y74689000D02*
X27635000Y74562000D01*
X10998000Y68466000D02*
X15316000Y68466000D01*
X15316000Y68466000D02*
X15570000Y68720000D01*
X10490000Y63640000D02*
X17475000Y63640000D01*
X10998000Y68466000D02*
X10998000Y64148000D01*
X10998000Y64148000D02*
X10490000Y63640000D01*
X35255000Y66815000D02*
X30175000Y66815000D01*
X57480000Y66180000D02*
X51130000Y66180000D01*
X58750000Y73800000D02*
X58750000Y68720000D01*
X58750000Y83960000D02*
X58750000Y79515000D01*
X58750000Y92850000D02*
X58750000Y88405000D01*
X52400000Y97930000D02*
X58750000Y97930000D01*
X37795000Y97930000D02*
X29540000Y97930000D01*
X40005000Y95250000D02*
X42685000Y97930000D01*
X42685000Y97930000D02*
X46050000Y97930000D01*
X33350000Y86500000D02*
X33350000Y82690000D01*
X36830000Y93155000D02*
X33985000Y90310000D01*
X36830000Y95250000D02*
X36830000Y93155000D01*
X5410000Y90945000D02*
X5410000Y87135000D01*
X10490000Y94120000D02*
X14935000Y94120000D01*
X14935000Y97930000D02*
X8585000Y97930000D01*
X27940000Y97625000D02*
X27635000Y97930000D01*
X27635000Y97930000D02*
X20650000Y97930000D01*
X27940000Y95250000D02*
X27940000Y97625000D01*
X2870000Y68720000D02*
X2870000Y62370000D01*
X2870000Y82055000D02*
X2870000Y89040000D01*
X48090000Y69215000D02*
X50164500Y69215000D01*
X50164500Y69215000D02*
X50177500Y69228000D01*
X51828500Y80213500D02*
X51828500Y78372000D01*
X45669000Y81610500D02*
X48653500Y81610500D01*
X48653500Y81610500D02*
X48717000Y81547000D01*
D25*
X81760000Y20955000D02*
X81760000Y18430000D01*
X81760000Y18430000D02*
X81110000Y17780000D01*
X81760000Y20955000D02*
X81760000Y22845000D01*
X81760000Y22845000D02*
X81110000Y23495000D01*
X82395000Y70485000D02*
X82395000Y67960000D01*
X82395000Y67960000D02*
X81745000Y67310000D01*
X82395000Y70485000D02*
X82395000Y73010000D01*
X82395000Y73010000D02*
X81745000Y73660000D01*
D24*
X36855200Y85077600D02*
X36855200Y81674000D01*
X36855200Y81674000D02*
X37236200Y81293000D01*
X48717000Y89040000D02*
X42748000Y89040000D01*
X42748000Y89040000D02*
X42697200Y89090800D01*
X46731200Y83355000D02*
X45923000Y84163200D01*
X45923000Y84163200D02*
X45923000Y89040000D01*
X49530000Y83355000D02*
X46731200Y83355000D01*
X20335261Y70001175D02*
X22416825Y70001175D01*
X22416825Y70001175D02*
X22428000Y69990000D01*
X20335261Y77621175D02*
X22058175Y77621175D01*
X22058175Y77621175D02*
X22174000Y77737000D01*
X23444000Y81039000D02*
X23444000Y79261000D01*
X21140261Y84141175D02*
X21140261Y83180261D01*
X21140261Y83180261D02*
X20396000Y82436000D01*
X8839000Y85738000D02*
X8839000Y82563000D01*
X8839000Y82563000D02*
X9474000Y81928000D01*
X12014000Y90310000D02*
X9982000Y90310000D01*
X9982000Y90310000D02*
X8966000Y89294000D01*
X21539000Y90310000D02*
X16002000Y90310000D01*
X16002000Y90310000D02*
X15062000Y90310000D01*
X15062000Y90310000D02*
X14935000Y90437000D01*
X18563825Y84141175D02*
X18237000Y84468000D01*
X18237000Y84468000D02*
X18237000Y90310000D01*
X21140261Y84141175D02*
X18563825Y84141175D01*
D25*
X73406000Y58960000D02*
X70890000Y58960000D01*
X70890000Y58960000D02*
X68890000Y60960000D01*
D24*
X47881000Y56528000D02*
X49434000Y56528000D01*
X49434000Y56528000D02*
X49774000Y56868000D01*
X47625000Y56472000D02*
X47825000Y56472000D01*
X47825000Y56472000D02*
X47881000Y56528000D01*
D25*
X57785000Y56868000D02*
X49774000Y56868000D01*
X62230000Y60155000D02*
X59202000Y60155000D01*
X59202000Y60155000D02*
X58784999Y59737999D01*
X58784999Y59737999D02*
X58784999Y57867999D01*
X58784999Y57867999D02*
X57785000Y56868000D01*
X64770000Y60155000D02*
X68085000Y60155000D01*
X68085000Y60155000D02*
X68890000Y60960000D01*
X62230000Y60155000D02*
X64770000Y60155000D01*
D26*
X37168000Y51816000D02*
X37168000Y54229000D01*
X37168000Y54229000D02*
X37211000Y54272000D01*
X37041000Y39116000D02*
X37041000Y36703000D01*
X37041000Y36703000D02*
X37084000Y36660000D01*
D25*
X68890000Y27051000D02*
X73056500Y27051000D01*
X73056500Y27051000D02*
X73088500Y27083000D01*
D24*
X48605000Y34430000D02*
X49255000Y34430000D01*
X49255000Y34430000D02*
X49875000Y33810000D01*
X47625000Y34460000D02*
X48575000Y34460000D01*
X48575000Y34460000D02*
X48605000Y34430000D01*
D25*
X57912000Y33810000D02*
X49875000Y33810000D01*
X64770000Y27475000D02*
X65194000Y27051000D01*
X65194000Y27051000D02*
X68890000Y27051000D01*
X62230000Y27475000D02*
X64770000Y27475000D01*
X57912000Y33810000D02*
X58911999Y32810001D01*
X58911999Y32810001D02*
X58911999Y28143001D01*
X58911999Y28143001D02*
X59580000Y27475000D01*
X59580000Y27475000D02*
X62230000Y27475000D01*
D26*
X78895000Y70485000D02*
X78895000Y67960000D01*
X78895000Y67960000D02*
X79545000Y67310000D01*
X78895000Y70485000D02*
X78895000Y73010000D01*
X78895000Y73010000D02*
X79545000Y73660000D01*
D25*
X78895000Y70485000D02*
X73335000Y70485000D01*
X73335000Y70485000D02*
X68890000Y66040000D01*
D26*
X78260000Y20955000D02*
X78260000Y18430000D01*
X78260000Y18430000D02*
X78910000Y17780000D01*
X78260000Y20955000D02*
X78260000Y22845000D01*
X78260000Y22845000D02*
X78910000Y23495000D01*
D25*
X68890000Y24511000D02*
X72446000Y20955000D01*
X72446000Y20955000D02*
X78260000Y20955000D01*
D27*
X24130000Y87475000D02*
X26356436Y87475000D01*
X26356436Y87475000D02*
X27490261Y86341175D01*
X24130000Y87475000D02*
X22274086Y87475000D01*
X22274086Y87475000D02*
X21140261Y86341175D01*
D28*
X7442000Y81928000D02*
X7442000Y90564000D01*
X7442000Y90564000D02*
X9220000Y92342000D01*
X9220000Y92342000D02*
X22301000Y92342000D01*
X22301000Y92342000D02*
X24130000Y90513000D01*
X24130000Y90513000D02*
X24130000Y87475000D01*
D27*
X52705000Y86685000D02*
X54750000Y86685000D01*
X54750000Y86685000D02*
X55880000Y85555000D01*
X52705000Y86685000D02*
X50660000Y86685000D01*
X50660000Y86685000D02*
X49530000Y85555000D01*
D28*
X51536400Y90437000D02*
X52705000Y89268400D01*
X52705000Y89268400D02*
X52705000Y86685000D01*
X36423400Y90437000D02*
X51536400Y90437000D01*
X35331200Y89344800D02*
X36423400Y90437000D01*
X35331200Y80683400D02*
X35331200Y89344800D01*
D25*
X88392000Y60674000D02*
X88392000Y61408000D01*
X88392000Y61408000D02*
X86978000Y62822000D01*
X87706000Y63550000D02*
X86978000Y62822000D01*
X95250000Y75565000D02*
X95250000Y78740000D01*
X87706000Y73800000D02*
X89471000Y75565000D01*
X89471000Y75565000D02*
X95250000Y75565000D01*
X87706000Y63550000D02*
X87706000Y73800000D01*
X84328000Y62822000D02*
X86978000Y62822000D01*
X80746600Y62887800D02*
X84262200Y62887800D01*
X84262200Y62887800D02*
X84328000Y62822000D01*
X77647800Y62822000D02*
X80680800Y62822000D01*
X80680800Y62822000D02*
X80746600Y62887800D01*
X73406000Y62960000D02*
X77509800Y62960000D01*
X77509800Y62960000D02*
X77647800Y62822000D01*
X68890000Y63500000D02*
X72866000Y63500000D01*
X72866000Y63500000D02*
X73406000Y62960000D01*
X88265000Y28988000D02*
X88265000Y28385000D01*
X88265000Y28385000D02*
X86690000Y26810000D01*
X74085800Y31083000D02*
X76423800Y28745000D01*
X76423800Y28745000D02*
X76550800Y28745000D01*
X73088500Y31083000D02*
X74085800Y31083000D01*
X73088500Y31083000D02*
X70382000Y31083000D01*
X70382000Y31083000D02*
X68890000Y29591000D01*
X78105000Y28745000D02*
X76550800Y28745000D01*
X81153000Y28730000D02*
X78120000Y28730000D01*
X78120000Y28730000D02*
X78105000Y28745000D01*
X84709000Y28745000D02*
X81168000Y28745000D01*
X81168000Y28745000D02*
X81153000Y28730000D01*
X95250000Y13970000D02*
X89052500Y13970000D01*
X89052500Y13970000D02*
X86690000Y16332500D01*
X86690000Y16332500D02*
X86690000Y26810000D01*
X86690000Y26810000D02*
X84755000Y28745000D01*
X84755000Y28745000D02*
X84709000Y28745000D01*
D29*
X95250000Y10795000D02*
X95250000Y13970000D01*
X12065000Y42539000D02*
X12065000Y48520000D01*
D25*
X4445000Y43180000D02*
X7112000Y43180000D01*
D29*
X11519000Y43180000D02*
X12065000Y42634000D01*
X7112000Y43180000D02*
X11519000Y43180000D01*
X12065000Y42634000D02*
X12065000Y42539000D01*
D25*
X45240000Y73025000D02*
X45240000Y76185000D01*
X45240000Y76185000D02*
X45890000Y76835000D01*
X17485261Y73811175D02*
X17485261Y76971175D01*
X17485261Y76971175D02*
X18135261Y77621175D01*
X45890000Y69215000D02*
X45890000Y66565000D01*
X45890000Y66565000D02*
X43803000Y64478000D01*
X43803000Y64478000D02*
X43332000Y64478000D01*
X45240000Y73025000D02*
X45240000Y69865000D01*
X45240000Y69865000D02*
X45890000Y69215000D01*
X22860000Y64478000D02*
X43332000Y64478000D01*
X19431000Y66055436D02*
X18135261Y67351175D01*
X22860000Y64478000D02*
X21282564Y66055436D01*
X21282564Y66055436D02*
X19431000Y66055436D01*
X22860000Y58935000D02*
X22860000Y64478000D01*
X17485261Y73811175D02*
X17485261Y70651175D01*
X17485261Y70651175D02*
X18135261Y70001175D01*
X18135261Y67351175D02*
X18135261Y70001175D01*
X12790000Y56345000D02*
X12065000Y55620000D01*
D30*
G36*
X17861673Y35269698D02*
X17765000Y35036309D01*
X17765000Y34745750D01*
X17923750Y34587000D01*
X18923000Y34587000D01*
X18923000Y34607000D01*
X19177000Y34607000D01*
X19177000Y34587000D01*
X20176250Y34587000D01*
X20335000Y34745750D01*
X20335000Y35036309D01*
X20238327Y35269698D01*
X20062026Y35446000D01*
X21847974Y35446000D01*
X21671673Y35269698D01*
X21575000Y35036309D01*
X21575000Y34745750D01*
X21733750Y34587000D01*
X22733000Y34587000D01*
X22733000Y34607000D01*
X22987000Y34607000D01*
X22987000Y34587000D01*
X23986250Y34587000D01*
X24145000Y34745750D01*
X24145000Y35036309D01*
X24048327Y35269698D01*
X23872026Y35446000D01*
X25530974Y35446000D01*
X25354673Y35269698D01*
X25258000Y35036309D01*
X25258000Y34745750D01*
X25416750Y34587000D01*
X26416000Y34587000D01*
X26416000Y34607000D01*
X26670000Y34607000D01*
X26670000Y34587000D01*
X27669250Y34587000D01*
X27828000Y34745750D01*
X27828000Y35036309D01*
X27731327Y35269698D01*
X27555026Y35446000D01*
X31331974Y35446000D01*
X31312673Y35426699D01*
X31216000Y35193310D01*
X31216000Y34702750D01*
X31374750Y34544000D01*
X32174000Y34544000D01*
X32174000Y34564000D01*
X32428000Y34564000D01*
X32428000Y34544000D01*
X32448000Y34544000D01*
X32448000Y34290000D01*
X32428000Y34290000D01*
X32428000Y33290750D01*
X32586750Y33132000D01*
X32877309Y33132000D01*
X32969000Y33169980D01*
X32969000Y29477000D01*
X8077000Y29477000D01*
X8077000Y30597468D01*
X21887073Y30597468D01*
X21985736Y30330613D01*
X22595461Y30104092D01*
X23245460Y30128144D01*
X23734264Y30330613D01*
X23832927Y30597468D01*
X22860000Y31570395D01*
X21887073Y30597468D01*
X8077000Y30597468D01*
X8077000Y32014539D01*
X21214092Y32014539D01*
X21238144Y31364540D01*
X21440613Y30875736D01*
X21707468Y30777073D01*
X22680395Y31750000D01*
X23039605Y31750000D01*
X24012532Y30777073D01*
X24279387Y30875736D01*
X24505908Y31485461D01*
X24481856Y32135460D01*
X24279387Y32624264D01*
X24012532Y32722927D01*
X23039605Y31750000D01*
X22680395Y31750000D01*
X21707468Y32722927D01*
X21440613Y32624264D01*
X21214092Y32014539D01*
X8077000Y32014539D01*
X8077000Y35153250D01*
X9530000Y35153250D01*
X9530000Y33912691D01*
X9626673Y33679302D01*
X9805301Y33500673D01*
X10038690Y33404000D01*
X11779250Y33404000D01*
X11938000Y33562750D01*
X11938000Y35312000D01*
X12192000Y35312000D01*
X12192000Y33562750D01*
X12350750Y33404000D01*
X14091310Y33404000D01*
X14324699Y33500673D01*
X14503327Y33679302D01*
X14600000Y33912691D01*
X14600000Y34174250D01*
X17765000Y34174250D01*
X17765000Y33883691D01*
X17861673Y33650302D01*
X18040301Y33471673D01*
X18273690Y33375000D01*
X18764250Y33375000D01*
X18923000Y33533750D01*
X18923000Y34333000D01*
X19177000Y34333000D01*
X19177000Y33533750D01*
X19335750Y33375000D01*
X19826310Y33375000D01*
X20059699Y33471673D01*
X20238327Y33650302D01*
X20335000Y33883691D01*
X20335000Y34174250D01*
X21575000Y34174250D01*
X21575000Y33883691D01*
X21671673Y33650302D01*
X21850301Y33471673D01*
X22083690Y33375000D01*
X22559506Y33375000D01*
X22474540Y33371856D01*
X21985736Y33169387D01*
X21887073Y32902532D01*
X22860000Y31929605D01*
X23832927Y32902532D01*
X23734264Y33169387D01*
X23180817Y33375000D01*
X23636310Y33375000D01*
X23869699Y33471673D01*
X24048327Y33650302D01*
X24145000Y33883691D01*
X24145000Y34174250D01*
X25258000Y34174250D01*
X25258000Y33883691D01*
X25354673Y33650302D01*
X25533301Y33471673D01*
X25766690Y33375000D01*
X26257250Y33375000D01*
X26416000Y33533750D01*
X26416000Y34333000D01*
X26670000Y34333000D01*
X26670000Y33533750D01*
X26828750Y33375000D01*
X27319310Y33375000D01*
X27552699Y33471673D01*
X27731327Y33650302D01*
X27828000Y33883691D01*
X27828000Y34131250D01*
X31216000Y34131250D01*
X31216000Y33640690D01*
X31312673Y33407301D01*
X31491302Y33228673D01*
X31724691Y33132000D01*
X32015250Y33132000D01*
X32174000Y33290750D01*
X32174000Y34290000D01*
X31374750Y34290000D01*
X31216000Y34131250D01*
X27828000Y34131250D01*
X27828000Y34174250D01*
X27669250Y34333000D01*
X26670000Y34333000D01*
X26416000Y34333000D01*
X25416750Y34333000D01*
X25258000Y34174250D01*
X24145000Y34174250D01*
X23986250Y34333000D01*
X22987000Y34333000D01*
X22987000Y34313000D01*
X22733000Y34313000D01*
X22733000Y34333000D01*
X21733750Y34333000D01*
X21575000Y34174250D01*
X20335000Y34174250D01*
X20176250Y34333000D01*
X19177000Y34333000D01*
X18923000Y34333000D01*
X17923750Y34333000D01*
X17765000Y34174250D01*
X14600000Y34174250D01*
X14600000Y35153250D01*
X14441250Y35312000D01*
X12192000Y35312000D01*
X11938000Y35312000D01*
X9688750Y35312000D01*
X9530000Y35153250D01*
X8077000Y35153250D01*
X8077000Y35446000D01*
X18037974Y35446000D01*
X17861673Y35269698D01*
X17861673Y35269698D01*
G37*
X17861673Y35269698D02*
X17765000Y35036309D01*
X17765000Y34745750D01*
X17923750Y34587000D01*
X18923000Y34587000D01*
X18923000Y34607000D01*
X19177000Y34607000D01*
X19177000Y34587000D01*
X20176250Y34587000D01*
X20335000Y34745750D01*
X20335000Y35036309D01*
X20238327Y35269698D01*
X20062026Y35446000D01*
X21847974Y35446000D01*
X21671673Y35269698D01*
X21575000Y35036309D01*
X21575000Y34745750D01*
X21733750Y34587000D01*
X22733000Y34587000D01*
X22733000Y34607000D01*
X22987000Y34607000D01*
X22987000Y34587000D01*
X23986250Y34587000D01*
X24145000Y34745750D01*
X24145000Y35036309D01*
X24048327Y35269698D01*
X23872026Y35446000D01*
X25530974Y35446000D01*
X25354673Y35269698D01*
X25258000Y35036309D01*
X25258000Y34745750D01*
X25416750Y34587000D01*
X26416000Y34587000D01*
X26416000Y34607000D01*
X26670000Y34607000D01*
X26670000Y34587000D01*
X27669250Y34587000D01*
X27828000Y34745750D01*
X27828000Y35036309D01*
X27731327Y35269698D01*
X27555026Y35446000D01*
X31331974Y35446000D01*
X31312673Y35426699D01*
X31216000Y35193310D01*
X31216000Y34702750D01*
X31374750Y34544000D01*
X32174000Y34544000D01*
X32174000Y34564000D01*
X32428000Y34564000D01*
X32428000Y34544000D01*
X32448000Y34544000D01*
X32448000Y34290000D01*
X32428000Y34290000D01*
X32428000Y33290750D01*
X32586750Y33132000D01*
X32877309Y33132000D01*
X32969000Y33169980D01*
X32969000Y29477000D01*
X8077000Y29477000D01*
X8077000Y30597468D01*
X21887073Y30597468D01*
X21985736Y30330613D01*
X22595461Y30104092D01*
X23245460Y30128144D01*
X23734264Y30330613D01*
X23832927Y30597468D01*
X22860000Y31570395D01*
X21887073Y30597468D01*
X8077000Y30597468D01*
X8077000Y32014539D01*
X21214092Y32014539D01*
X21238144Y31364540D01*
X21440613Y30875736D01*
X21707468Y30777073D01*
X22680395Y31750000D01*
X23039605Y31750000D01*
X24012532Y30777073D01*
X24279387Y30875736D01*
X24505908Y31485461D01*
X24481856Y32135460D01*
X24279387Y32624264D01*
X24012532Y32722927D01*
X23039605Y31750000D01*
X22680395Y31750000D01*
X21707468Y32722927D01*
X21440613Y32624264D01*
X21214092Y32014539D01*
X8077000Y32014539D01*
X8077000Y35153250D01*
X9530000Y35153250D01*
X9530000Y33912691D01*
X9626673Y33679302D01*
X9805301Y33500673D01*
X10038690Y33404000D01*
X11779250Y33404000D01*
X11938000Y33562750D01*
X11938000Y35312000D01*
X12192000Y35312000D01*
X12192000Y33562750D01*
X12350750Y33404000D01*
X14091310Y33404000D01*
X14324699Y33500673D01*
X14503327Y33679302D01*
X14600000Y33912691D01*
X14600000Y34174250D01*
X17765000Y34174250D01*
X17765000Y33883691D01*
X17861673Y33650302D01*
X18040301Y33471673D01*
X18273690Y33375000D01*
X18764250Y33375000D01*
X18923000Y33533750D01*
X18923000Y34333000D01*
X19177000Y34333000D01*
X19177000Y33533750D01*
X19335750Y33375000D01*
X19826310Y33375000D01*
X20059699Y33471673D01*
X20238327Y33650302D01*
X20335000Y33883691D01*
X20335000Y34174250D01*
X21575000Y34174250D01*
X21575000Y33883691D01*
X21671673Y33650302D01*
X21850301Y33471673D01*
X22083690Y33375000D01*
X22559506Y33375000D01*
X22474540Y33371856D01*
X21985736Y33169387D01*
X21887073Y32902532D01*
X22860000Y31929605D01*
X23832927Y32902532D01*
X23734264Y33169387D01*
X23180817Y33375000D01*
X23636310Y33375000D01*
X23869699Y33471673D01*
X24048327Y33650302D01*
X24145000Y33883691D01*
X24145000Y34174250D01*
X25258000Y34174250D01*
X25258000Y33883691D01*
X25354673Y33650302D01*
X25533301Y33471673D01*
X25766690Y33375000D01*
X26257250Y33375000D01*
X26416000Y33533750D01*
X26416000Y34333000D01*
X26670000Y34333000D01*
X26670000Y33533750D01*
X26828750Y33375000D01*
X27319310Y33375000D01*
X27552699Y33471673D01*
X27731327Y33650302D01*
X27828000Y33883691D01*
X27828000Y34131250D01*
X31216000Y34131250D01*
X31216000Y33640690D01*
X31312673Y33407301D01*
X31491302Y33228673D01*
X31724691Y33132000D01*
X32015250Y33132000D01*
X32174000Y33290750D01*
X32174000Y34290000D01*
X31374750Y34290000D01*
X31216000Y34131250D01*
X27828000Y34131250D01*
X27828000Y34174250D01*
X27669250Y34333000D01*
X26670000Y34333000D01*
X26416000Y34333000D01*
X25416750Y34333000D01*
X25258000Y34174250D01*
X24145000Y34174250D01*
X23986250Y34333000D01*
X22987000Y34333000D01*
X22987000Y34313000D01*
X22733000Y34313000D01*
X22733000Y34333000D01*
X21733750Y34333000D01*
X21575000Y34174250D01*
X20335000Y34174250D01*
X20176250Y34333000D01*
X19177000Y34333000D01*
X18923000Y34333000D01*
X17923750Y34333000D01*
X17765000Y34174250D01*
X14600000Y34174250D01*
X14600000Y35153250D01*
X14441250Y35312000D01*
X12192000Y35312000D01*
X11938000Y35312000D01*
X9688750Y35312000D01*
X9530000Y35153250D01*
X8077000Y35153250D01*
X8077000Y35446000D01*
X18037974Y35446000D01*
X17861673Y35269698D01*
G36*
X35895673Y35269698D02*
X35799000Y35036309D01*
X35799000Y34745750D01*
X35957750Y34587000D01*
X36957000Y34587000D01*
X36957000Y34607000D01*
X37211000Y34607000D01*
X37211000Y34587000D01*
X38210250Y34587000D01*
X38369000Y34745750D01*
X38369000Y35036309D01*
X38272327Y35269698D01*
X38096026Y35446000D01*
X38992974Y35446000D01*
X38816673Y35269698D01*
X38720000Y35036309D01*
X38720000Y34745750D01*
X38878750Y34587000D01*
X39878000Y34587000D01*
X39878000Y34607000D01*
X40132000Y34607000D01*
X40132000Y34587000D01*
X41131250Y34587000D01*
X41290000Y34745750D01*
X41290000Y35036309D01*
X41193327Y35269698D01*
X41017026Y35446000D01*
X42802974Y35446000D01*
X42626673Y35269698D01*
X42530000Y35036309D01*
X42530000Y34745750D01*
X42688750Y34587000D01*
X43688000Y34587000D01*
X43688000Y34607000D01*
X43942000Y34607000D01*
X43942000Y34587000D01*
X44941250Y34587000D01*
X45100000Y34745750D01*
X45100000Y35036309D01*
X45003327Y35269698D01*
X44827026Y35446000D01*
X46612974Y35446000D01*
X46436673Y35269698D01*
X46340000Y35036309D01*
X46340000Y34745750D01*
X46498750Y34587000D01*
X47498000Y34587000D01*
X47498000Y34607000D01*
X47752000Y34607000D01*
X47752000Y34587000D01*
X48751250Y34587000D01*
X48910000Y34745750D01*
X48910000Y35036309D01*
X48813327Y35269698D01*
X48637026Y35446000D01*
X49733000Y35446000D01*
X49733000Y29858000D01*
X33731000Y29858000D01*
X33731000Y30597468D01*
X42842073Y30597468D01*
X42940736Y30330613D01*
X43550461Y30104092D01*
X44200460Y30128144D01*
X44689264Y30330613D01*
X44787927Y30597468D01*
X43815000Y31570395D01*
X42842073Y30597468D01*
X33731000Y30597468D01*
X33731000Y32014539D01*
X42169092Y32014539D01*
X42193144Y31364540D01*
X42395613Y30875736D01*
X42662468Y30777073D01*
X43635395Y31750000D01*
X43994605Y31750000D01*
X44967532Y30777073D01*
X45234387Y30875736D01*
X45460908Y31485461D01*
X45436856Y32135460D01*
X45234387Y32624264D01*
X44967532Y32722927D01*
X43994605Y31750000D01*
X43635395Y31750000D01*
X42662468Y32722927D01*
X42395613Y32624264D01*
X42169092Y32014539D01*
X33731000Y32014539D01*
X33731000Y33212230D01*
X33924691Y33132000D01*
X34215250Y33132000D01*
X34374000Y33290750D01*
X34374000Y34290000D01*
X34628000Y34290000D01*
X34628000Y33290750D01*
X34786750Y33132000D01*
X35077309Y33132000D01*
X35310698Y33228673D01*
X35489327Y33407301D01*
X35586000Y33640690D01*
X35586000Y34131250D01*
X35543000Y34174250D01*
X35799000Y34174250D01*
X35799000Y33883691D01*
X35895673Y33650302D01*
X36074301Y33471673D01*
X36307690Y33375000D01*
X36798250Y33375000D01*
X36957000Y33533750D01*
X36957000Y34333000D01*
X37211000Y34333000D01*
X37211000Y33533750D01*
X37369750Y33375000D01*
X37860310Y33375000D01*
X38093699Y33471673D01*
X38272327Y33650302D01*
X38369000Y33883691D01*
X38369000Y34174250D01*
X38720000Y34174250D01*
X38720000Y33883691D01*
X38816673Y33650302D01*
X38995301Y33471673D01*
X39228690Y33375000D01*
X39719250Y33375000D01*
X39878000Y33533750D01*
X39878000Y34333000D01*
X40132000Y34333000D01*
X40132000Y33533750D01*
X40290750Y33375000D01*
X40781310Y33375000D01*
X41014699Y33471673D01*
X41193327Y33650302D01*
X41290000Y33883691D01*
X41290000Y34174250D01*
X42530000Y34174250D01*
X42530000Y33883691D01*
X42626673Y33650302D01*
X42805301Y33471673D01*
X43038690Y33375000D01*
X43514506Y33375000D01*
X43429540Y33371856D01*
X42940736Y33169387D01*
X42842073Y32902532D01*
X43815000Y31929605D01*
X44787927Y32902532D01*
X44689264Y33169387D01*
X44135817Y33375000D01*
X44591310Y33375000D01*
X44824699Y33471673D01*
X45003327Y33650302D01*
X45100000Y33883691D01*
X45100000Y34174250D01*
X46340000Y34174250D01*
X46340000Y33883691D01*
X46436673Y33650302D01*
X46615301Y33471673D01*
X46848690Y33375000D01*
X47339250Y33375000D01*
X47498000Y33533750D01*
X47498000Y34333000D01*
X47752000Y34333000D01*
X47752000Y33533750D01*
X47910750Y33375000D01*
X48401310Y33375000D01*
X48634699Y33471673D01*
X48813327Y33650302D01*
X48910000Y33883691D01*
X48910000Y34174250D01*
X48751250Y34333000D01*
X47752000Y34333000D01*
X47498000Y34333000D01*
X46498750Y34333000D01*
X46340000Y34174250D01*
X45100000Y34174250D01*
X44941250Y34333000D01*
X43942000Y34333000D01*
X43942000Y34313000D01*
X43688000Y34313000D01*
X43688000Y34333000D01*
X42688750Y34333000D01*
X42530000Y34174250D01*
X41290000Y34174250D01*
X41131250Y34333000D01*
X40132000Y34333000D01*
X39878000Y34333000D01*
X38878750Y34333000D01*
X38720000Y34174250D01*
X38369000Y34174250D01*
X38210250Y34333000D01*
X37211000Y34333000D01*
X36957000Y34333000D01*
X35957750Y34333000D01*
X35799000Y34174250D01*
X35543000Y34174250D01*
X35427250Y34290000D01*
X34628000Y34290000D01*
X34374000Y34290000D01*
X34354000Y34290000D01*
X34354000Y34544000D01*
X34374000Y34544000D01*
X34374000Y34564000D01*
X34628000Y34564000D01*
X34628000Y34544000D01*
X35427250Y34544000D01*
X35586000Y34702750D01*
X35586000Y35193310D01*
X35489327Y35426699D01*
X35470026Y35446000D01*
X36071974Y35446000D01*
X35895673Y35269698D01*
X35895673Y35269698D01*
G37*
X35895673Y35269698D02*
X35799000Y35036309D01*
X35799000Y34745750D01*
X35957750Y34587000D01*
X36957000Y34587000D01*
X36957000Y34607000D01*
X37211000Y34607000D01*
X37211000Y34587000D01*
X38210250Y34587000D01*
X38369000Y34745750D01*
X38369000Y35036309D01*
X38272327Y35269698D01*
X38096026Y35446000D01*
X38992974Y35446000D01*
X38816673Y35269698D01*
X38720000Y35036309D01*
X38720000Y34745750D01*
X38878750Y34587000D01*
X39878000Y34587000D01*
X39878000Y34607000D01*
X40132000Y34607000D01*
X40132000Y34587000D01*
X41131250Y34587000D01*
X41290000Y34745750D01*
X41290000Y35036309D01*
X41193327Y35269698D01*
X41017026Y35446000D01*
X42802974Y35446000D01*
X42626673Y35269698D01*
X42530000Y35036309D01*
X42530000Y34745750D01*
X42688750Y34587000D01*
X43688000Y34587000D01*
X43688000Y34607000D01*
X43942000Y34607000D01*
X43942000Y34587000D01*
X44941250Y34587000D01*
X45100000Y34745750D01*
X45100000Y35036309D01*
X45003327Y35269698D01*
X44827026Y35446000D01*
X46612974Y35446000D01*
X46436673Y35269698D01*
X46340000Y35036309D01*
X46340000Y34745750D01*
X46498750Y34587000D01*
X47498000Y34587000D01*
X47498000Y34607000D01*
X47752000Y34607000D01*
X47752000Y34587000D01*
X48751250Y34587000D01*
X48910000Y34745750D01*
X48910000Y35036309D01*
X48813327Y35269698D01*
X48637026Y35446000D01*
X49733000Y35446000D01*
X49733000Y29858000D01*
X33731000Y29858000D01*
X33731000Y30597468D01*
X42842073Y30597468D01*
X42940736Y30330613D01*
X43550461Y30104092D01*
X44200460Y30128144D01*
X44689264Y30330613D01*
X44787927Y30597468D01*
X43815000Y31570395D01*
X42842073Y30597468D01*
X33731000Y30597468D01*
X33731000Y32014539D01*
X42169092Y32014539D01*
X42193144Y31364540D01*
X42395613Y30875736D01*
X42662468Y30777073D01*
X43635395Y31750000D01*
X43994605Y31750000D01*
X44967532Y30777073D01*
X45234387Y30875736D01*
X45460908Y31485461D01*
X45436856Y32135460D01*
X45234387Y32624264D01*
X44967532Y32722927D01*
X43994605Y31750000D01*
X43635395Y31750000D01*
X42662468Y32722927D01*
X42395613Y32624264D01*
X42169092Y32014539D01*
X33731000Y32014539D01*
X33731000Y33212230D01*
X33924691Y33132000D01*
X34215250Y33132000D01*
X34374000Y33290750D01*
X34374000Y34290000D01*
X34628000Y34290000D01*
X34628000Y33290750D01*
X34786750Y33132000D01*
X35077309Y33132000D01*
X35310698Y33228673D01*
X35489327Y33407301D01*
X35586000Y33640690D01*
X35586000Y34131250D01*
X35543000Y34174250D01*
X35799000Y34174250D01*
X35799000Y33883691D01*
X35895673Y33650302D01*
X36074301Y33471673D01*
X36307690Y33375000D01*
X36798250Y33375000D01*
X36957000Y33533750D01*
X36957000Y34333000D01*
X37211000Y34333000D01*
X37211000Y33533750D01*
X37369750Y33375000D01*
X37860310Y33375000D01*
X38093699Y33471673D01*
X38272327Y33650302D01*
X38369000Y33883691D01*
X38369000Y34174250D01*
X38720000Y34174250D01*
X38720000Y33883691D01*
X38816673Y33650302D01*
X38995301Y33471673D01*
X39228690Y33375000D01*
X39719250Y33375000D01*
X39878000Y33533750D01*
X39878000Y34333000D01*
X40132000Y34333000D01*
X40132000Y33533750D01*
X40290750Y33375000D01*
X40781310Y33375000D01*
X41014699Y33471673D01*
X41193327Y33650302D01*
X41290000Y33883691D01*
X41290000Y34174250D01*
X42530000Y34174250D01*
X42530000Y33883691D01*
X42626673Y33650302D01*
X42805301Y33471673D01*
X43038690Y33375000D01*
X43514506Y33375000D01*
X43429540Y33371856D01*
X42940736Y33169387D01*
X42842073Y32902532D01*
X43815000Y31929605D01*
X44787927Y32902532D01*
X44689264Y33169387D01*
X44135817Y33375000D01*
X44591310Y33375000D01*
X44824699Y33471673D01*
X45003327Y33650302D01*
X45100000Y33883691D01*
X45100000Y34174250D01*
X46340000Y34174250D01*
X46340000Y33883691D01*
X46436673Y33650302D01*
X46615301Y33471673D01*
X46848690Y33375000D01*
X47339250Y33375000D01*
X47498000Y33533750D01*
X47498000Y34333000D01*
X47752000Y34333000D01*
X47752000Y33533750D01*
X47910750Y33375000D01*
X48401310Y33375000D01*
X48634699Y33471673D01*
X48813327Y33650302D01*
X48910000Y33883691D01*
X48910000Y34174250D01*
X48751250Y34333000D01*
X47752000Y34333000D01*
X47498000Y34333000D01*
X46498750Y34333000D01*
X46340000Y34174250D01*
X45100000Y34174250D01*
X44941250Y34333000D01*
X43942000Y34333000D01*
X43942000Y34313000D01*
X43688000Y34313000D01*
X43688000Y34333000D01*
X42688750Y34333000D01*
X42530000Y34174250D01*
X41290000Y34174250D01*
X41131250Y34333000D01*
X40132000Y34333000D01*
X39878000Y34333000D01*
X38878750Y34333000D01*
X38720000Y34174250D01*
X38369000Y34174250D01*
X38210250Y34333000D01*
X37211000Y34333000D01*
X36957000Y34333000D01*
X35957750Y34333000D01*
X35799000Y34174250D01*
X35543000Y34174250D01*
X35427250Y34290000D01*
X34628000Y34290000D01*
X34374000Y34290000D01*
X34354000Y34290000D01*
X34354000Y34544000D01*
X34374000Y34544000D01*
X34374000Y34564000D01*
X34628000Y34564000D01*
X34628000Y34544000D01*
X35427250Y34544000D01*
X35586000Y34702750D01*
X35586000Y35193310D01*
X35489327Y35426699D01*
X35470026Y35446000D01*
X36071974Y35446000D01*
X35895673Y35269698D01*
G36*
X59893000Y65037000D02*
X46662926Y65037000D01*
X47040463Y65414537D01*
X47393152Y65942374D01*
X47517001Y66565000D01*
X47517000Y66565005D01*
X47517000Y67930000D01*
X47804250Y67930000D01*
X47963000Y68088750D01*
X47963000Y69088000D01*
X48217000Y69088000D01*
X48217000Y68088750D01*
X48375750Y67930000D01*
X48666309Y67930000D01*
X48899698Y68026673D01*
X49078327Y68205301D01*
X49175000Y68438690D01*
X49175000Y68929250D01*
X49016250Y69088000D01*
X48217000Y69088000D01*
X47963000Y69088000D01*
X47943000Y69088000D01*
X47943000Y69342000D01*
X47963000Y69342000D01*
X47963000Y70341250D01*
X48217000Y70341250D01*
X48217000Y69342000D01*
X49016250Y69342000D01*
X49175000Y69500750D01*
X49175000Y69991310D01*
X49078327Y70224699D01*
X48899698Y70403327D01*
X48666309Y70500000D01*
X48375750Y70500000D01*
X48217000Y70341250D01*
X47963000Y70341250D01*
X47804250Y70500000D01*
X47513691Y70500000D01*
X47280302Y70403327D01*
X47121362Y70244388D01*
X47040463Y70365463D01*
X46867000Y70538926D01*
X46867000Y71872468D01*
X47767073Y71872468D01*
X47865736Y71605613D01*
X48475461Y71379092D01*
X49125460Y71403144D01*
X49614264Y71605613D01*
X49712927Y71872468D01*
X48740000Y72845395D01*
X47767073Y71872468D01*
X46867000Y71872468D01*
X46867000Y73024153D01*
X46867231Y73289539D01*
X47094092Y73289539D01*
X47118144Y72639540D01*
X47320613Y72150736D01*
X47587468Y72052073D01*
X48560395Y73025000D01*
X48919605Y73025000D01*
X49892532Y72052073D01*
X50159387Y72150736D01*
X50385908Y72760461D01*
X50361856Y73410460D01*
X50159387Y73899264D01*
X49892532Y73997927D01*
X48919605Y73025000D01*
X48560395Y73025000D01*
X47587468Y73997927D01*
X47320613Y73899264D01*
X47094092Y73289539D01*
X46867231Y73289539D01*
X46867282Y73347211D01*
X46867000Y73347893D01*
X46867000Y74177532D01*
X47767073Y74177532D01*
X48740000Y73204605D01*
X49712927Y74177532D01*
X49614264Y74444387D01*
X49004539Y74670908D01*
X48354540Y74646856D01*
X47865736Y74444387D01*
X47767073Y74177532D01*
X46867000Y74177532D01*
X46867000Y75511074D01*
X47040463Y75684537D01*
X47121362Y75805612D01*
X47280302Y75646673D01*
X47513691Y75550000D01*
X47804250Y75550000D01*
X47963000Y75708750D01*
X47963000Y76708000D01*
X48217000Y76708000D01*
X48217000Y75708750D01*
X48375750Y75550000D01*
X48666309Y75550000D01*
X48899698Y75646673D01*
X49078327Y75825301D01*
X49175000Y76058690D01*
X49175000Y76549250D01*
X49016250Y76708000D01*
X48217000Y76708000D01*
X47963000Y76708000D01*
X47943000Y76708000D01*
X47943000Y76962000D01*
X47963000Y76962000D01*
X47963000Y77961250D01*
X48217000Y77961250D01*
X48217000Y76962000D01*
X49016250Y76962000D01*
X49175000Y77120750D01*
X49175000Y77611310D01*
X49078327Y77844699D01*
X48899698Y78023327D01*
X48666309Y78120000D01*
X48375750Y78120000D01*
X48217000Y77961250D01*
X47963000Y77961250D01*
X47804250Y78120000D01*
X47513691Y78120000D01*
X47280302Y78023327D01*
X47121362Y77864388D01*
X47040463Y77985463D01*
X46512626Y78338152D01*
X45890000Y78462001D01*
X45267374Y78338152D01*
X44739537Y77985463D01*
X44089537Y77335463D01*
X43736848Y76807626D01*
X43613000Y76185000D01*
X43613000Y73025847D01*
X43612718Y72702789D01*
X43613000Y72702107D01*
X43613000Y69865000D01*
X43736848Y69242374D01*
X44089537Y68714537D01*
X44263000Y68541074D01*
X44263000Y67238926D01*
X43129074Y66105000D01*
X23533925Y66105000D01*
X22433027Y67205899D01*
X21905190Y67558588D01*
X21282564Y67682436D01*
X20104925Y67682436D01*
X19762261Y68025101D01*
X19762261Y68716175D01*
X20049511Y68716175D01*
X20208261Y68874925D01*
X20208261Y69874175D01*
X20462261Y69874175D01*
X20462261Y68874925D01*
X20621011Y68716175D01*
X20911570Y68716175D01*
X21144959Y68812848D01*
X21323588Y68991476D01*
X21420261Y69224865D01*
X21420261Y69715425D01*
X21261511Y69874175D01*
X20462261Y69874175D01*
X20208261Y69874175D01*
X20188261Y69874175D01*
X20188261Y70128175D01*
X20208261Y70128175D01*
X20208261Y71127425D01*
X20462261Y71127425D01*
X20462261Y70128175D01*
X21261511Y70128175D01*
X21420261Y70286925D01*
X21420261Y70777485D01*
X21323588Y71010874D01*
X21144959Y71189502D01*
X20911570Y71286175D01*
X20621011Y71286175D01*
X20462261Y71127425D01*
X20208261Y71127425D01*
X20049511Y71286175D01*
X19758952Y71286175D01*
X19525563Y71189502D01*
X19366623Y71030563D01*
X19285724Y71151638D01*
X19112261Y71325101D01*
X19112261Y72658643D01*
X20012334Y72658643D01*
X20110997Y72391788D01*
X20720722Y72165267D01*
X21370721Y72189319D01*
X21859525Y72391788D01*
X21958188Y72658643D01*
X20985261Y73631570D01*
X20012334Y72658643D01*
X19112261Y72658643D01*
X19112261Y73810328D01*
X19112492Y74075714D01*
X19339353Y74075714D01*
X19363405Y73425715D01*
X19565874Y72936911D01*
X19832729Y72838248D01*
X20805656Y73811175D01*
X21164866Y73811175D01*
X22137793Y72838248D01*
X22404648Y72936911D01*
X22631169Y73546636D01*
X22607117Y74196635D01*
X22404648Y74685439D01*
X22137793Y74784102D01*
X21164866Y73811175D01*
X20805656Y73811175D01*
X19832729Y74784102D01*
X19565874Y74685439D01*
X19339353Y74075714D01*
X19112492Y74075714D01*
X19112543Y74133386D01*
X19112261Y74134068D01*
X19112261Y74963707D01*
X20012334Y74963707D01*
X20985261Y73990780D01*
X21958188Y74963707D01*
X21859525Y75230562D01*
X21249800Y75457083D01*
X20599801Y75433031D01*
X20110997Y75230562D01*
X20012334Y74963707D01*
X19112261Y74963707D01*
X19112261Y76297249D01*
X19285724Y76470712D01*
X19366623Y76591787D01*
X19525563Y76432848D01*
X19758952Y76336175D01*
X20049511Y76336175D01*
X20208261Y76494925D01*
X20208261Y77494175D01*
X20462261Y77494175D01*
X20462261Y76494925D01*
X20621011Y76336175D01*
X20911570Y76336175D01*
X21144959Y76432848D01*
X21323588Y76611476D01*
X21420261Y76844865D01*
X21420261Y77335425D01*
X21261511Y77494175D01*
X20462261Y77494175D01*
X20208261Y77494175D01*
X20188261Y77494175D01*
X20188261Y77748175D01*
X20208261Y77748175D01*
X20208261Y78747425D01*
X20462261Y78747425D01*
X20462261Y77748175D01*
X21261511Y77748175D01*
X21420261Y77906925D01*
X21420261Y78397485D01*
X21323588Y78630874D01*
X21144959Y78809502D01*
X20911570Y78906175D01*
X20621011Y78906175D01*
X20462261Y78747425D01*
X20208261Y78747425D01*
X20049511Y78906175D01*
X19758952Y78906175D01*
X19525563Y78809502D01*
X19366623Y78650563D01*
X19285724Y78771638D01*
X18757887Y79124327D01*
X18135261Y79248176D01*
X17512635Y79124327D01*
X16984798Y78771638D01*
X16334798Y78121638D01*
X15982109Y77593801D01*
X15858261Y76971175D01*
X15858261Y73812022D01*
X15857979Y73488964D01*
X15858261Y73488282D01*
X15858261Y70651175D01*
X15982109Y70028549D01*
X16334798Y69500712D01*
X16508261Y69327249D01*
X16508261Y67351175D01*
X16632109Y66728549D01*
X16984798Y66200712D01*
X18280535Y64904976D01*
X18280537Y64904973D01*
X18661439Y64650463D01*
X18808374Y64552284D01*
X19431000Y64428435D01*
X19431005Y64428436D01*
X20608638Y64428436D01*
X21233000Y63804075D01*
X21233000Y62997000D01*
X7950000Y62997000D01*
X7722112Y62954120D01*
X7512811Y62819438D01*
X7372399Y62613938D01*
X7323000Y62370000D01*
X7323000Y55258000D01*
X7365880Y55030112D01*
X7500562Y54820811D01*
X7706062Y54680399D01*
X7950000Y54631000D01*
X9525717Y54631000D01*
X9525717Y54220000D01*
X9569437Y53987648D01*
X9706757Y53774247D01*
X9916283Y53631083D01*
X10165000Y53580717D01*
X13965000Y53580717D01*
X14197352Y53624437D01*
X14410753Y53761757D01*
X14477367Y53859250D01*
X17765000Y53859250D01*
X17765000Y53568691D01*
X17861673Y53335302D01*
X18040301Y53156673D01*
X18273690Y53060000D01*
X18764250Y53060000D01*
X18923000Y53218750D01*
X18923000Y54018000D01*
X19177000Y54018000D01*
X19177000Y53218750D01*
X19335750Y53060000D01*
X19826310Y53060000D01*
X20059699Y53156673D01*
X20238327Y53335302D01*
X20335000Y53568691D01*
X20335000Y53859250D01*
X21575000Y53859250D01*
X21575000Y53568691D01*
X21671673Y53335302D01*
X21850301Y53156673D01*
X22083690Y53060000D01*
X22559506Y53060000D01*
X22474540Y53056856D01*
X21985736Y52854387D01*
X21887073Y52587532D01*
X22860000Y51614605D01*
X23832927Y52587532D01*
X23831161Y52592310D01*
X33883000Y52592310D01*
X33883000Y52101750D01*
X34041750Y51943000D01*
X34841000Y51943000D01*
X34841000Y52942250D01*
X34682250Y53101000D01*
X34391691Y53101000D01*
X34158302Y53004327D01*
X33979673Y52825699D01*
X33883000Y52592310D01*
X23831161Y52592310D01*
X23734264Y52854387D01*
X23180817Y53060000D01*
X23636310Y53060000D01*
X23869699Y53156673D01*
X24048327Y53335302D01*
X24145000Y53568691D01*
X24145000Y53859250D01*
X25385000Y53859250D01*
X25385000Y53568691D01*
X25481673Y53335302D01*
X25660301Y53156673D01*
X25893690Y53060000D01*
X26384250Y53060000D01*
X26543000Y53218750D01*
X26543000Y54018000D01*
X26797000Y54018000D01*
X26797000Y53218750D01*
X26955750Y53060000D01*
X27446310Y53060000D01*
X27679699Y53156673D01*
X27858327Y53335302D01*
X27955000Y53568691D01*
X27955000Y53859250D01*
X27796250Y54018000D01*
X26797000Y54018000D01*
X26543000Y54018000D01*
X25543750Y54018000D01*
X25385000Y53859250D01*
X24145000Y53859250D01*
X23986250Y54018000D01*
X22987000Y54018000D01*
X22987000Y53998000D01*
X22733000Y53998000D01*
X22733000Y54018000D01*
X21733750Y54018000D01*
X21575000Y53859250D01*
X20335000Y53859250D01*
X20176250Y54018000D01*
X19177000Y54018000D01*
X18923000Y54018000D01*
X17923750Y54018000D01*
X17765000Y53859250D01*
X14477367Y53859250D01*
X14553917Y53971283D01*
X14604283Y54220000D01*
X14604283Y54631000D01*
X17765000Y54631000D01*
X17765000Y54430750D01*
X17923750Y54272000D01*
X18923000Y54272000D01*
X18923000Y54292000D01*
X19177000Y54292000D01*
X19177000Y54272000D01*
X20176250Y54272000D01*
X20335000Y54430750D01*
X20335000Y54631000D01*
X21575000Y54631000D01*
X21575000Y54430750D01*
X21733750Y54272000D01*
X22733000Y54272000D01*
X22733000Y54292000D01*
X22987000Y54292000D01*
X22987000Y54272000D01*
X23986250Y54272000D01*
X24145000Y54430750D01*
X24145000Y54631000D01*
X25385000Y54631000D01*
X25385000Y54430750D01*
X25543750Y54272000D01*
X26543000Y54272000D01*
X26543000Y54292000D01*
X26797000Y54292000D01*
X26797000Y54272000D01*
X27796250Y54272000D01*
X27955000Y54430750D01*
X27955000Y54631000D01*
X32588000Y54631000D01*
X32815888Y54673880D01*
X32970239Y54773203D01*
X33106062Y54680399D01*
X33350000Y54631000D01*
X35921717Y54631000D01*
X35921717Y53822000D01*
X35965437Y53589648D01*
X36041000Y53472220D01*
X36041000Y52621281D01*
X35956327Y52825699D01*
X35777698Y53004327D01*
X35544309Y53101000D01*
X35253750Y53101000D01*
X35095000Y52942250D01*
X35095000Y51943000D01*
X35115000Y51943000D01*
X35115000Y51689000D01*
X35095000Y51689000D01*
X35095000Y50689750D01*
X35253750Y50531000D01*
X35544309Y50531000D01*
X35777698Y50627673D01*
X35956327Y50806301D01*
X36053000Y51039690D01*
X36053000Y51530250D01*
X35894252Y51688998D01*
X36053000Y51688998D01*
X36053000Y51755672D01*
X36078717Y51626384D01*
X36078717Y51166000D01*
X36122437Y50933648D01*
X36259757Y50720247D01*
X36469283Y50577083D01*
X36718000Y50526717D01*
X37618000Y50526717D01*
X37850352Y50570437D01*
X38063753Y50707757D01*
X38206917Y50917283D01*
X38257283Y51166000D01*
X38257283Y51626384D01*
X38271834Y51699539D01*
X42169092Y51699539D01*
X42193144Y51049540D01*
X42395613Y50560736D01*
X42662468Y50462073D01*
X43635395Y51435000D01*
X43994605Y51435000D01*
X44967532Y50462073D01*
X45234387Y50560736D01*
X45460908Y51170461D01*
X45436856Y51820460D01*
X45273239Y52215468D01*
X56812073Y52215468D01*
X56910736Y51948613D01*
X57520461Y51722092D01*
X58170460Y51746144D01*
X58659264Y51948613D01*
X58757927Y52215468D01*
X57785000Y53188395D01*
X56812073Y52215468D01*
X45273239Y52215468D01*
X45234387Y52309264D01*
X44967532Y52407927D01*
X43994605Y51435000D01*
X43635395Y51435000D01*
X42662468Y52407927D01*
X42395613Y52309264D01*
X42169092Y51699539D01*
X38271834Y51699539D01*
X38295000Y51816000D01*
X38295000Y52587532D01*
X42842073Y52587532D01*
X43815000Y51614605D01*
X44787927Y52587532D01*
X44689264Y52854387D01*
X44079539Y53080908D01*
X43429540Y53056856D01*
X42940736Y52854387D01*
X42842073Y52587532D01*
X38295000Y52587532D01*
X38295000Y53356194D01*
X38306753Y53363757D01*
X38449917Y53573283D01*
X38500283Y53822000D01*
X38500283Y53986250D01*
X38720000Y53986250D01*
X38720000Y53695691D01*
X38816673Y53462302D01*
X38995301Y53283673D01*
X39228690Y53187000D01*
X39719250Y53187000D01*
X39878000Y53345750D01*
X39878000Y54145000D01*
X40132000Y54145000D01*
X40132000Y53345750D01*
X40290750Y53187000D01*
X40781310Y53187000D01*
X41014699Y53283673D01*
X41193327Y53462302D01*
X41290000Y53695691D01*
X41290000Y53986250D01*
X42530000Y53986250D01*
X42530000Y53695691D01*
X42626673Y53462302D01*
X42805301Y53283673D01*
X43038690Y53187000D01*
X43529250Y53187000D01*
X43688000Y53345750D01*
X43688000Y54145000D01*
X43942000Y54145000D01*
X43942000Y53345750D01*
X44100750Y53187000D01*
X44591310Y53187000D01*
X44824699Y53283673D01*
X45003327Y53462302D01*
X45100000Y53695691D01*
X45100000Y53986250D01*
X46340000Y53986250D01*
X46340000Y53695691D01*
X46436673Y53462302D01*
X46615301Y53283673D01*
X46848690Y53187000D01*
X47339250Y53187000D01*
X47498000Y53345750D01*
X47498000Y54145000D01*
X47752000Y54145000D01*
X47752000Y53345750D01*
X47910750Y53187000D01*
X48401310Y53187000D01*
X48634699Y53283673D01*
X48813327Y53462302D01*
X48883841Y53632539D01*
X56139092Y53632539D01*
X56163144Y52982540D01*
X56365613Y52493736D01*
X56632468Y52395073D01*
X57605395Y53368000D01*
X57964605Y53368000D01*
X58937532Y52395073D01*
X59204387Y52493736D01*
X59430908Y53103461D01*
X59406856Y53753460D01*
X59204387Y54242264D01*
X58937532Y54340927D01*
X57964605Y53368000D01*
X57605395Y53368000D01*
X56632468Y54340927D01*
X56365613Y54242264D01*
X56139092Y53632539D01*
X48883841Y53632539D01*
X48910000Y53695691D01*
X48910000Y53986250D01*
X48751250Y54145000D01*
X47752000Y54145000D01*
X47498000Y54145000D01*
X46498750Y54145000D01*
X46340000Y53986250D01*
X45100000Y53986250D01*
X44941250Y54145000D01*
X43942000Y54145000D01*
X43688000Y54145000D01*
X42688750Y54145000D01*
X42530000Y53986250D01*
X41290000Y53986250D01*
X41131250Y54145000D01*
X40132000Y54145000D01*
X39878000Y54145000D01*
X38878750Y54145000D01*
X38720000Y53986250D01*
X38500283Y53986250D01*
X38500283Y54631000D01*
X38720000Y54631000D01*
X38720000Y54557750D01*
X38878750Y54399000D01*
X39878000Y54399000D01*
X39878000Y54419000D01*
X40132000Y54419000D01*
X40132000Y54399000D01*
X41131250Y54399000D01*
X41290000Y54557750D01*
X41290000Y54631000D01*
X42530000Y54631000D01*
X42530000Y54557750D01*
X42688750Y54399000D01*
X43688000Y54399000D01*
X43688000Y54419000D01*
X43942000Y54419000D01*
X43942000Y54399000D01*
X44941250Y54399000D01*
X45100000Y54557750D01*
X45100000Y54631000D01*
X46340000Y54631000D01*
X46340000Y54557750D01*
X46498750Y54399000D01*
X47498000Y54399000D01*
X47498000Y54419000D01*
X47752000Y54419000D01*
X47752000Y54399000D01*
X48751250Y54399000D01*
X48872782Y54520532D01*
X56812073Y54520532D01*
X57785000Y53547605D01*
X58757927Y54520532D01*
X58659264Y54787387D01*
X58049539Y55013908D01*
X57399540Y54989856D01*
X56910736Y54787387D01*
X56812073Y54520532D01*
X48872782Y54520532D01*
X48910000Y54557750D01*
X48910000Y54631000D01*
X49860000Y54631000D01*
X50087888Y54673880D01*
X50297189Y54808562D01*
X50437601Y55014062D01*
X50461281Y55131000D01*
X60528000Y55131000D01*
X60577410Y55141006D01*
X60619035Y55169447D01*
X60646315Y55211841D01*
X60655000Y55258000D01*
X60655000Y57669250D01*
X60945000Y57669250D01*
X60945000Y57378691D01*
X61041673Y57145302D01*
X61220301Y56966673D01*
X61453690Y56870000D01*
X61944250Y56870000D01*
X62103000Y57028750D01*
X62103000Y57828000D01*
X62357000Y57828000D01*
X62357000Y57028750D01*
X62515750Y56870000D01*
X63006310Y56870000D01*
X63239699Y56966673D01*
X63418327Y57145302D01*
X63500000Y57342478D01*
X63581673Y57145302D01*
X63760301Y56966673D01*
X63993690Y56870000D01*
X64484250Y56870000D01*
X64643000Y57028750D01*
X64643000Y57828000D01*
X64897000Y57828000D01*
X64897000Y57028750D01*
X65055750Y56870000D01*
X65546310Y56870000D01*
X65779699Y56966673D01*
X65958327Y57145302D01*
X66055000Y57378691D01*
X66055000Y57669250D01*
X65896250Y57828000D01*
X64897000Y57828000D01*
X64643000Y57828000D01*
X63643750Y57828000D01*
X63500000Y57684250D01*
X63356250Y57828000D01*
X62357000Y57828000D01*
X62103000Y57828000D01*
X61103750Y57828000D01*
X60945000Y57669250D01*
X60655000Y57669250D01*
X60655000Y58528000D01*
X60945000Y58528000D01*
X60945000Y58240750D01*
X61103750Y58082000D01*
X62103000Y58082000D01*
X62103000Y58102000D01*
X62357000Y58102000D01*
X62357000Y58082000D01*
X63356250Y58082000D01*
X63500000Y58225750D01*
X63643750Y58082000D01*
X64643000Y58082000D01*
X64643000Y58102000D01*
X64897000Y58102000D01*
X64897000Y58082000D01*
X65896250Y58082000D01*
X66055000Y58240750D01*
X66055000Y58528000D01*
X66243000Y58528000D01*
X66243000Y55258000D01*
X66253006Y55208590D01*
X66281447Y55166965D01*
X66323841Y55139685D01*
X66370000Y55131000D01*
X75895000Y55131000D01*
X75944410Y55141006D01*
X75986035Y55169447D01*
X76013315Y55211841D01*
X76022000Y55258000D01*
X76022000Y58235268D01*
X79773673Y58235268D01*
X79872336Y57968413D01*
X80482061Y57741892D01*
X81132060Y57765944D01*
X81620864Y57968413D01*
X81719527Y58235268D01*
X80746600Y59208195D01*
X79773673Y58235268D01*
X76022000Y58235268D01*
X76022000Y60336250D01*
X76362800Y60336250D01*
X76362800Y60045691D01*
X76459473Y59812302D01*
X76638101Y59633673D01*
X76871490Y59537000D01*
X77362050Y59537000D01*
X77520800Y59695750D01*
X77520800Y60495000D01*
X77774800Y60495000D01*
X77774800Y59695750D01*
X77933550Y59537000D01*
X78424110Y59537000D01*
X78657499Y59633673D01*
X78676164Y59652339D01*
X79100692Y59652339D01*
X79124744Y59002340D01*
X79327213Y58513536D01*
X79594068Y58414873D01*
X80566995Y59387800D01*
X80926205Y59387800D01*
X81899132Y58414873D01*
X82165987Y58513536D01*
X82392508Y59123261D01*
X82368456Y59773260D01*
X82165987Y60262064D01*
X81965336Y60336250D01*
X83043000Y60336250D01*
X83043000Y60045691D01*
X83139673Y59812302D01*
X83318301Y59633673D01*
X83551690Y59537000D01*
X84042250Y59537000D01*
X84201000Y59695750D01*
X84201000Y60495000D01*
X84455000Y60495000D01*
X84455000Y59695750D01*
X84613750Y59537000D01*
X85104310Y59537000D01*
X85337699Y59633673D01*
X85516327Y59812302D01*
X85613000Y60045691D01*
X85613000Y60336250D01*
X85454250Y60495000D01*
X84455000Y60495000D01*
X84201000Y60495000D01*
X83201750Y60495000D01*
X83043000Y60336250D01*
X81965336Y60336250D01*
X81899132Y60360727D01*
X80926205Y59387800D01*
X80566995Y59387800D01*
X79594068Y60360727D01*
X79327213Y60262064D01*
X79100692Y59652339D01*
X78676164Y59652339D01*
X78836127Y59812302D01*
X78932800Y60045691D01*
X78932800Y60336250D01*
X78774050Y60495000D01*
X77774800Y60495000D01*
X77520800Y60495000D01*
X76521550Y60495000D01*
X76362800Y60336250D01*
X76022000Y60336250D01*
X76022000Y60973000D01*
X76362800Y60973000D01*
X76362800Y60907750D01*
X76521550Y60749000D01*
X77520800Y60749000D01*
X77520800Y60769000D01*
X77774800Y60769000D01*
X77774800Y60749000D01*
X78774050Y60749000D01*
X78932800Y60907750D01*
X78932800Y60973000D01*
X80272644Y60973000D01*
X79872336Y60807187D01*
X79773673Y60540332D01*
X80746600Y59567405D01*
X81719527Y60540332D01*
X81620864Y60807187D01*
X81174546Y60973000D01*
X83043000Y60973000D01*
X83043000Y60907750D01*
X83201750Y60749000D01*
X84201000Y60749000D01*
X84201000Y60769000D01*
X84455000Y60769000D01*
X84455000Y60749000D01*
X85454250Y60749000D01*
X85613000Y60907750D01*
X85613000Y60973000D01*
X85928000Y60973000D01*
X85928000Y55258000D01*
X85938006Y55208590D01*
X85966447Y55166965D01*
X86008841Y55139685D01*
X86055000Y55131000D01*
X86976046Y55131000D01*
X87003673Y55064302D01*
X87182301Y54885673D01*
X87415690Y54789000D01*
X88106250Y54789000D01*
X88265000Y54947750D01*
X88265000Y55131000D01*
X88519000Y55131000D01*
X88519000Y54947750D01*
X88677750Y54789000D01*
X89368310Y54789000D01*
X89601699Y54885673D01*
X89780327Y55064302D01*
X89807954Y55131000D01*
X91135000Y55131000D01*
X91184410Y55141006D01*
X91226035Y55169447D01*
X91253315Y55211841D01*
X91262000Y55258000D01*
X91262000Y55507255D01*
X94421861Y55507255D01*
X94495995Y55261136D01*
X95033223Y55068035D01*
X95603454Y55095222D01*
X96004005Y55261136D01*
X96078139Y55507255D01*
X95250000Y56335395D01*
X94421861Y55507255D01*
X91262000Y55507255D01*
X91262000Y56731777D01*
X93803035Y56731777D01*
X93830222Y56161546D01*
X93996136Y55760995D01*
X94242255Y55686861D01*
X95070395Y56515000D01*
X95429605Y56515000D01*
X96257745Y55686861D01*
X96503864Y55760995D01*
X96696965Y56298223D01*
X96669778Y56868454D01*
X96503864Y57269005D01*
X96257745Y57343139D01*
X95429605Y56515000D01*
X95070395Y56515000D01*
X94242255Y57343139D01*
X93996136Y57269005D01*
X93803035Y56731777D01*
X91262000Y56731777D01*
X91262000Y59563000D01*
X93815000Y59563000D01*
X93815000Y58763000D01*
X93972834Y58223517D01*
X94325104Y57785500D01*
X94476111Y57702852D01*
X94421861Y57522745D01*
X95250000Y56694605D01*
X96078139Y57522745D01*
X96023889Y57702852D01*
X96174896Y57785500D01*
X96527166Y58223517D01*
X96685000Y58763000D01*
X96685000Y59563000D01*
X95377000Y59563000D01*
X95377000Y59543000D01*
X95123000Y59543000D01*
X95123000Y59563000D01*
X93815000Y59563000D01*
X91262000Y59563000D01*
X91262000Y60617000D01*
X93815000Y60617000D01*
X93815000Y59817000D01*
X95123000Y59817000D01*
X95123000Y61759915D01*
X95377000Y61759915D01*
X95377000Y59817000D01*
X96685000Y59817000D01*
X96685000Y60617000D01*
X96527166Y61156483D01*
X96174896Y61594500D01*
X95681819Y61864367D01*
X95599039Y61881904D01*
X95377000Y61759915D01*
X95123000Y61759915D01*
X94900961Y61881904D01*
X94818181Y61864367D01*
X94325104Y61594500D01*
X93972834Y61156483D01*
X93815000Y60617000D01*
X91262000Y60617000D01*
X91262000Y64397255D01*
X94421861Y64397255D01*
X94495995Y64151136D01*
X95033223Y63958035D01*
X95603454Y63985222D01*
X96004005Y64151136D01*
X96078139Y64397255D01*
X95250000Y65225395D01*
X94421861Y64397255D01*
X91262000Y64397255D01*
X91262000Y65621777D01*
X93803035Y65621777D01*
X93830222Y65051546D01*
X93996136Y64650995D01*
X94242255Y64576861D01*
X95070395Y65405000D01*
X95429605Y65405000D01*
X96257745Y64576861D01*
X96503864Y64650995D01*
X96696965Y65188223D01*
X96669778Y65758454D01*
X96503864Y66159005D01*
X96257745Y66233139D01*
X95429605Y65405000D01*
X95070395Y65405000D01*
X94242255Y66233139D01*
X93996136Y66159005D01*
X93803035Y65621777D01*
X91262000Y65621777D01*
X91262000Y68453000D01*
X93815000Y68453000D01*
X93815000Y67653000D01*
X93972834Y67113517D01*
X94325104Y66675500D01*
X94476111Y66592852D01*
X94421861Y66412745D01*
X95250000Y65584605D01*
X96078139Y66412745D01*
X96023889Y66592852D01*
X96174896Y66675500D01*
X96527166Y67113517D01*
X96685000Y67653000D01*
X96685000Y68453000D01*
X95377000Y68453000D01*
X95377000Y68433000D01*
X95123000Y68433000D01*
X95123000Y68453000D01*
X93815000Y68453000D01*
X91262000Y68453000D01*
X91262000Y69507000D01*
X93815000Y69507000D01*
X93815000Y68707000D01*
X95123000Y68707000D01*
X95123000Y70649915D01*
X95377000Y70649915D01*
X95377000Y68707000D01*
X96685000Y68707000D01*
X96685000Y69507000D01*
X96527166Y70046483D01*
X96174896Y70484500D01*
X95681819Y70754367D01*
X95599039Y70771904D01*
X95377000Y70649915D01*
X95123000Y70649915D01*
X94900961Y70771904D01*
X94818181Y70754367D01*
X94325104Y70484500D01*
X93972834Y70046483D01*
X93815000Y69507000D01*
X91262000Y69507000D01*
X91262000Y71131137D01*
X99263000Y71131137D01*
X99263000Y19315137D01*
X90627000Y19315137D01*
X90627000Y19947255D01*
X94421861Y19947255D01*
X94495995Y19701136D01*
X95033223Y19508035D01*
X95603454Y19535222D01*
X96004005Y19701136D01*
X96078139Y19947255D01*
X95250000Y20775395D01*
X94421861Y19947255D01*
X90627000Y19947255D01*
X90627000Y21171777D01*
X93803035Y21171777D01*
X93830222Y20601546D01*
X93996136Y20200995D01*
X94242255Y20126861D01*
X95070395Y20955000D01*
X95429605Y20955000D01*
X96257745Y20126861D01*
X96503864Y20200995D01*
X96696965Y20738223D01*
X96669778Y21308454D01*
X96503864Y21709005D01*
X96257745Y21783139D01*
X95429605Y20955000D01*
X95070395Y20955000D01*
X94242255Y21783139D01*
X93996136Y21709005D01*
X93803035Y21171777D01*
X90627000Y21171777D01*
X90627000Y24003000D01*
X93815000Y24003000D01*
X93815000Y23203000D01*
X93972834Y22663517D01*
X94325104Y22225500D01*
X94476111Y22142852D01*
X94421861Y21962745D01*
X95250000Y21134605D01*
X96078139Y21962745D01*
X96023889Y22142852D01*
X96174896Y22225500D01*
X96527166Y22663517D01*
X96685000Y23203000D01*
X96685000Y24003000D01*
X95377000Y24003000D01*
X95377000Y23983000D01*
X95123000Y23983000D01*
X95123000Y24003000D01*
X93815000Y24003000D01*
X90627000Y24003000D01*
X90627000Y25057000D01*
X93815000Y25057000D01*
X93815000Y24257000D01*
X95123000Y24257000D01*
X95123000Y26199915D01*
X95377000Y26199915D01*
X95377000Y24257000D01*
X96685000Y24257000D01*
X96685000Y25057000D01*
X96527166Y25596483D01*
X96174896Y26034500D01*
X95681819Y26304367D01*
X95599039Y26321904D01*
X95377000Y26199915D01*
X95123000Y26199915D01*
X94900961Y26321904D01*
X94818181Y26304367D01*
X94325104Y26034500D01*
X93972834Y25596483D01*
X93815000Y25057000D01*
X90627000Y25057000D01*
X90627000Y28837255D01*
X94421861Y28837255D01*
X94495995Y28591136D01*
X95033223Y28398035D01*
X95603454Y28425222D01*
X96004005Y28591136D01*
X96078139Y28837255D01*
X95250000Y29665395D01*
X94421861Y28837255D01*
X90627000Y28837255D01*
X90627000Y30061777D01*
X93803035Y30061777D01*
X93830222Y29491546D01*
X93996136Y29090995D01*
X94242255Y29016861D01*
X95070395Y29845000D01*
X95429605Y29845000D01*
X96257745Y29016861D01*
X96503864Y29090995D01*
X96696965Y29628223D01*
X96669778Y30198454D01*
X96503864Y30599005D01*
X96257745Y30673139D01*
X95429605Y29845000D01*
X95070395Y29845000D01*
X94242255Y30673139D01*
X93996136Y30599005D01*
X93803035Y30061777D01*
X90627000Y30061777D01*
X90627000Y32893000D01*
X93815000Y32893000D01*
X93815000Y32093000D01*
X93972834Y31553517D01*
X94325104Y31115500D01*
X94476111Y31032852D01*
X94421861Y30852745D01*
X95250000Y30024605D01*
X96078139Y30852745D01*
X96023889Y31032852D01*
X96174896Y31115500D01*
X96527166Y31553517D01*
X96685000Y32093000D01*
X96685000Y32893000D01*
X95377000Y32893000D01*
X95377000Y32873000D01*
X95123000Y32873000D01*
X95123000Y32893000D01*
X93815000Y32893000D01*
X90627000Y32893000D01*
X90627000Y33947000D01*
X93815000Y33947000D01*
X93815000Y33147000D01*
X95123000Y33147000D01*
X95123000Y35089915D01*
X95377000Y35089915D01*
X95377000Y33147000D01*
X96685000Y33147000D01*
X96685000Y33947000D01*
X96527166Y34486483D01*
X96174896Y34924500D01*
X95681819Y35194367D01*
X95599039Y35211904D01*
X95377000Y35089915D01*
X95123000Y35089915D01*
X94900961Y35211904D01*
X94818181Y35194367D01*
X94325104Y34924500D01*
X93972834Y34486483D01*
X93815000Y33947000D01*
X90627000Y33947000D01*
X90627000Y35573000D01*
X90616994Y35622410D01*
X90588553Y35664035D01*
X90546159Y35691315D01*
X90500181Y35700000D01*
X86055181Y35706350D01*
X86005757Y35696415D01*
X85964092Y35668033D01*
X85936751Y35625678D01*
X85928000Y35579350D01*
X85928000Y31680647D01*
X85897327Y31754698D01*
X85718699Y31933327D01*
X85485310Y32030000D01*
X84994750Y32030000D01*
X84836000Y31871250D01*
X84836000Y31072000D01*
X84856000Y31072000D01*
X84856000Y30818000D01*
X84836000Y30818000D01*
X84836000Y30798000D01*
X84582000Y30798000D01*
X84582000Y30818000D01*
X83582750Y30818000D01*
X83511750Y30747000D01*
X81873688Y30747000D01*
X82027264Y30810613D01*
X82125927Y31077468D01*
X81153000Y32050395D01*
X80180073Y31077468D01*
X80278736Y30810613D01*
X80449963Y30747000D01*
X79302250Y30747000D01*
X79231250Y30818000D01*
X78232000Y30818000D01*
X78232000Y30798000D01*
X77978000Y30798000D01*
X77978000Y30818000D01*
X76978750Y30818000D01*
X76907750Y30747000D01*
X76722726Y30747000D01*
X76657000Y30812726D01*
X76657000Y31521309D01*
X76820000Y31521309D01*
X76820000Y31230750D01*
X76978750Y31072000D01*
X77978000Y31072000D01*
X77978000Y31871250D01*
X78232000Y31871250D01*
X78232000Y31072000D01*
X79231250Y31072000D01*
X79390000Y31230750D01*
X79390000Y31521309D01*
X79293327Y31754698D01*
X79114699Y31933327D01*
X78881310Y32030000D01*
X78390750Y32030000D01*
X78232000Y31871250D01*
X77978000Y31871250D01*
X77819250Y32030000D01*
X77328690Y32030000D01*
X77095301Y31933327D01*
X76916673Y31754698D01*
X76820000Y31521309D01*
X76657000Y31521309D01*
X76657000Y32494539D01*
X79507092Y32494539D01*
X79531144Y31844540D01*
X79733613Y31355736D01*
X80000468Y31257073D01*
X80973395Y32230000D01*
X81332605Y32230000D01*
X82305532Y31257073D01*
X82572387Y31355736D01*
X82633899Y31521309D01*
X83424000Y31521309D01*
X83424000Y31230750D01*
X83582750Y31072000D01*
X84582000Y31072000D01*
X84582000Y31871250D01*
X84423250Y32030000D01*
X83932690Y32030000D01*
X83699301Y31933327D01*
X83520673Y31754698D01*
X83424000Y31521309D01*
X82633899Y31521309D01*
X82798908Y31965461D01*
X82774856Y32615460D01*
X82572387Y33104264D01*
X82305532Y33202927D01*
X81332605Y32230000D01*
X80973395Y32230000D01*
X80000468Y33202927D01*
X79733613Y33104264D01*
X79507092Y32494539D01*
X76657000Y32494539D01*
X76657000Y33382532D01*
X80180073Y33382532D01*
X81153000Y32409605D01*
X82125927Y33382532D01*
X82027264Y33649387D01*
X81417539Y33875908D01*
X80767540Y33851856D01*
X80278736Y33649387D01*
X80180073Y33382532D01*
X76657000Y33382532D01*
X76657000Y35592957D01*
X76646994Y35642367D01*
X76618553Y35683992D01*
X76576159Y35711272D01*
X76530181Y35719957D01*
X66243181Y35734653D01*
X66193757Y35724718D01*
X66152092Y35696336D01*
X66124751Y35653981D01*
X66116000Y35607653D01*
X66116000Y28969000D01*
X66001280Y28969000D01*
X66055000Y29098691D01*
X66055000Y29389250D01*
X65896250Y29548000D01*
X64897000Y29548000D01*
X64897000Y29528000D01*
X64643000Y29528000D01*
X64643000Y29548000D01*
X63643750Y29548000D01*
X63500000Y29404250D01*
X63356250Y29548000D01*
X62357000Y29548000D01*
X62357000Y29528000D01*
X62103000Y29528000D01*
X62103000Y29548000D01*
X61103750Y29548000D01*
X60945000Y29389250D01*
X60945000Y29102000D01*
X60538999Y29102000D01*
X60538999Y30251309D01*
X60945000Y30251309D01*
X60945000Y29960750D01*
X61103750Y29802000D01*
X62103000Y29802000D01*
X62103000Y30601250D01*
X62357000Y30601250D01*
X62357000Y29802000D01*
X63356250Y29802000D01*
X63500000Y29945750D01*
X63643750Y29802000D01*
X64643000Y29802000D01*
X64643000Y30601250D01*
X64897000Y30601250D01*
X64897000Y29802000D01*
X65896250Y29802000D01*
X66055000Y29960750D01*
X66055000Y30251309D01*
X65958327Y30484698D01*
X65779699Y30663327D01*
X65546310Y30760000D01*
X65055750Y30760000D01*
X64897000Y30601250D01*
X64643000Y30601250D01*
X64484250Y30760000D01*
X63993690Y30760000D01*
X63760301Y30663327D01*
X63581673Y30484698D01*
X63500000Y30287522D01*
X63418327Y30484698D01*
X63239699Y30663327D01*
X63006310Y30760000D01*
X62515750Y30760000D01*
X62357000Y30601250D01*
X62103000Y30601250D01*
X61944250Y30760000D01*
X61453690Y30760000D01*
X61220301Y30663327D01*
X61041673Y30484698D01*
X60945000Y30251309D01*
X60538999Y30251309D01*
X60538999Y32810001D01*
X60528000Y32865297D01*
X60528000Y35615999D01*
X60517994Y35665409D01*
X60489553Y35707034D01*
X60447159Y35734314D01*
X60401181Y35742999D01*
X58436667Y35745805D01*
X58786264Y35890613D01*
X58884927Y36157468D01*
X57912000Y37130395D01*
X56939073Y36157468D01*
X57037736Y35890613D01*
X57423618Y35747253D01*
X50452338Y35757212D01*
X50444120Y35800888D01*
X50309438Y36010189D01*
X50103938Y36150601D01*
X49860000Y36200000D01*
X48910000Y36200000D01*
X48910000Y36374250D01*
X48751250Y36533000D01*
X47752000Y36533000D01*
X47752000Y36513000D01*
X47498000Y36513000D01*
X47498000Y36533000D01*
X46498750Y36533000D01*
X46340000Y36374250D01*
X46340000Y36200000D01*
X45100000Y36200000D01*
X45100000Y36374250D01*
X44941250Y36533000D01*
X43942000Y36533000D01*
X43942000Y36513000D01*
X43688000Y36513000D01*
X43688000Y36533000D01*
X42688750Y36533000D01*
X42530000Y36374250D01*
X42530000Y36200000D01*
X41290000Y36200000D01*
X41290000Y36374250D01*
X41131250Y36533000D01*
X40132000Y36533000D01*
X40132000Y36513000D01*
X39878000Y36513000D01*
X39878000Y36533000D01*
X38878750Y36533000D01*
X38720000Y36374250D01*
X38720000Y36200000D01*
X38371258Y36200000D01*
X38373283Y36210000D01*
X38373283Y37110000D01*
X38349517Y37236309D01*
X38720000Y37236309D01*
X38720000Y36945750D01*
X38878750Y36787000D01*
X39878000Y36787000D01*
X39878000Y37586250D01*
X40132000Y37586250D01*
X40132000Y36787000D01*
X41131250Y36787000D01*
X41290000Y36945750D01*
X41290000Y37236309D01*
X42530000Y37236309D01*
X42530000Y36945750D01*
X42688750Y36787000D01*
X43688000Y36787000D01*
X43688000Y36807000D01*
X43942000Y36807000D01*
X43942000Y36787000D01*
X44941250Y36787000D01*
X45100000Y36945750D01*
X45100000Y37236309D01*
X46340000Y37236309D01*
X46340000Y36945750D01*
X46498750Y36787000D01*
X47498000Y36787000D01*
X47498000Y37586250D01*
X47752000Y37586250D01*
X47752000Y36787000D01*
X48751250Y36787000D01*
X48910000Y36945750D01*
X48910000Y37236309D01*
X48813327Y37469698D01*
X48708487Y37574539D01*
X56266092Y37574539D01*
X56290144Y36924540D01*
X56492613Y36435736D01*
X56759468Y36337073D01*
X57732395Y37310000D01*
X58091605Y37310000D01*
X59064532Y36337073D01*
X59331387Y36435736D01*
X59557908Y37045461D01*
X59533856Y37695460D01*
X59331387Y38184264D01*
X59064532Y38282927D01*
X58091605Y37310000D01*
X57732395Y37310000D01*
X56759468Y38282927D01*
X56492613Y38184264D01*
X56266092Y37574539D01*
X48708487Y37574539D01*
X48634699Y37648327D01*
X48401310Y37745000D01*
X47910750Y37745000D01*
X47752000Y37586250D01*
X47498000Y37586250D01*
X47339250Y37745000D01*
X46848690Y37745000D01*
X46615301Y37648327D01*
X46436673Y37469698D01*
X46340000Y37236309D01*
X45100000Y37236309D01*
X45003327Y37469698D01*
X44824699Y37648327D01*
X44591310Y37745000D01*
X44482576Y37745000D01*
X44689264Y37830613D01*
X44787927Y38097468D01*
X43815000Y39070395D01*
X42842073Y38097468D01*
X42940736Y37830613D01*
X43171180Y37745000D01*
X43038690Y37745000D01*
X42805301Y37648327D01*
X42626673Y37469698D01*
X42530000Y37236309D01*
X41290000Y37236309D01*
X41193327Y37469698D01*
X41014699Y37648327D01*
X40781310Y37745000D01*
X40290750Y37745000D01*
X40132000Y37586250D01*
X39878000Y37586250D01*
X39719250Y37745000D01*
X39228690Y37745000D01*
X38995301Y37648327D01*
X38816673Y37469698D01*
X38720000Y37236309D01*
X38349517Y37236309D01*
X38329563Y37342352D01*
X38192243Y37555753D01*
X38168000Y37572318D01*
X38168000Y39116000D01*
X38130283Y39305616D01*
X38130283Y39514539D01*
X42169092Y39514539D01*
X42193144Y38864540D01*
X42395613Y38375736D01*
X42662468Y38277073D01*
X43635395Y39250000D01*
X43994605Y39250000D01*
X44967532Y38277073D01*
X45234387Y38375736D01*
X45266632Y38462532D01*
X56939073Y38462532D01*
X57912000Y37489605D01*
X58884927Y38462532D01*
X58786264Y38729387D01*
X58176539Y38955908D01*
X57526540Y38931856D01*
X57037736Y38729387D01*
X56939073Y38462532D01*
X45266632Y38462532D01*
X45460908Y38985461D01*
X45450000Y39280260D01*
X63012588Y39280260D01*
X63373703Y38406297D01*
X64041780Y37737053D01*
X64915111Y37374414D01*
X65860740Y37373588D01*
X66716677Y37727255D01*
X94421861Y37727255D01*
X94495995Y37481136D01*
X95033223Y37288035D01*
X95603454Y37315222D01*
X96004005Y37481136D01*
X96078139Y37727255D01*
X95250000Y38555395D01*
X94421861Y37727255D01*
X66716677Y37727255D01*
X66734703Y37734703D01*
X67403947Y38402780D01*
X67631910Y38951777D01*
X93803035Y38951777D01*
X93830222Y38381546D01*
X93996136Y37980995D01*
X94242255Y37906861D01*
X95070395Y38735000D01*
X95429605Y38735000D01*
X96257745Y37906861D01*
X96503864Y37980995D01*
X96696965Y38518223D01*
X96669778Y39088454D01*
X96503864Y39489005D01*
X96257745Y39563139D01*
X95429605Y38735000D01*
X95070395Y38735000D01*
X94242255Y39563139D01*
X93996136Y39489005D01*
X93803035Y38951777D01*
X67631910Y38951777D01*
X67766586Y39276111D01*
X67767412Y40221740D01*
X67406297Y41095703D01*
X66738220Y41764947D01*
X66694744Y41783000D01*
X93815000Y41783000D01*
X93815000Y40983000D01*
X93972834Y40443517D01*
X94325104Y40005500D01*
X94476111Y39922852D01*
X94421861Y39742745D01*
X95250000Y38914605D01*
X96078139Y39742745D01*
X96023889Y39922852D01*
X96174896Y40005500D01*
X96527166Y40443517D01*
X96685000Y40983000D01*
X96685000Y41783000D01*
X95377000Y41783000D01*
X95377000Y41763000D01*
X95123000Y41763000D01*
X95123000Y41783000D01*
X93815000Y41783000D01*
X66694744Y41783000D01*
X65864889Y42127586D01*
X64919260Y42128412D01*
X64045297Y41767297D01*
X63376053Y41099220D01*
X63013414Y40225889D01*
X63012588Y39280260D01*
X45450000Y39280260D01*
X45436856Y39635460D01*
X45234387Y40124264D01*
X44967532Y40222927D01*
X43994605Y39250000D01*
X43635395Y39250000D01*
X42662468Y40222927D01*
X42395613Y40124264D01*
X42169092Y39514539D01*
X38130283Y39514539D01*
X38130283Y39766000D01*
X38086563Y39998352D01*
X37949243Y40211753D01*
X37739717Y40354917D01*
X37504585Y40402532D01*
X42842073Y40402532D01*
X43815000Y39429605D01*
X44787927Y40402532D01*
X44689264Y40669387D01*
X44079539Y40895908D01*
X43429540Y40871856D01*
X42940736Y40669387D01*
X42842073Y40402532D01*
X37504585Y40402532D01*
X37491000Y40405283D01*
X36591000Y40405283D01*
X36358648Y40361563D01*
X36145247Y40224243D01*
X36002083Y40014717D01*
X35951717Y39766000D01*
X35951717Y39305616D01*
X35926000Y39176328D01*
X35926000Y39243002D01*
X35767252Y39243002D01*
X35926000Y39401750D01*
X35926000Y39892310D01*
X35829327Y40125699D01*
X35650698Y40304327D01*
X35417309Y40401000D01*
X35126750Y40401000D01*
X34968000Y40242250D01*
X34968000Y39243000D01*
X34988000Y39243000D01*
X34988000Y38989000D01*
X34968000Y38989000D01*
X34968000Y37989750D01*
X35126750Y37831000D01*
X35417309Y37831000D01*
X35650698Y37927673D01*
X35829327Y38106301D01*
X35914000Y38310719D01*
X35914000Y37459580D01*
X35845083Y37358717D01*
X35794717Y37110000D01*
X35794717Y36210000D01*
X35796599Y36200000D01*
X33961294Y36200000D01*
X33863802Y36270642D01*
X33621322Y36326761D01*
X33376112Y36284120D01*
X33209627Y36176990D01*
X33096000Y36200000D01*
X27828000Y36200000D01*
X27828000Y36374250D01*
X27669250Y36533000D01*
X26670000Y36533000D01*
X26670000Y36513000D01*
X26416000Y36513000D01*
X26416000Y36533000D01*
X25416750Y36533000D01*
X25258000Y36374250D01*
X25258000Y36200000D01*
X24145000Y36200000D01*
X24145000Y36374250D01*
X23986250Y36533000D01*
X22987000Y36533000D01*
X22987000Y36513000D01*
X22733000Y36513000D01*
X22733000Y36533000D01*
X21733750Y36533000D01*
X21575000Y36374250D01*
X21575000Y36200000D01*
X20335000Y36200000D01*
X20335000Y36374250D01*
X20176250Y36533000D01*
X19177000Y36533000D01*
X19177000Y36513000D01*
X18923000Y36513000D01*
X18923000Y36533000D01*
X17923750Y36533000D01*
X17765000Y36374250D01*
X17765000Y36200000D01*
X14604283Y36200000D01*
X14604283Y36839000D01*
X14560563Y37071352D01*
X14454416Y37236309D01*
X17765000Y37236309D01*
X17765000Y36945750D01*
X17923750Y36787000D01*
X18923000Y36787000D01*
X18923000Y37586250D01*
X19177000Y37586250D01*
X19177000Y36787000D01*
X20176250Y36787000D01*
X20335000Y36945750D01*
X20335000Y37236309D01*
X21575000Y37236309D01*
X21575000Y36945750D01*
X21733750Y36787000D01*
X22733000Y36787000D01*
X22733000Y36807000D01*
X22987000Y36807000D01*
X22987000Y36787000D01*
X23986250Y36787000D01*
X24145000Y36945750D01*
X24145000Y37236309D01*
X25258000Y37236309D01*
X25258000Y36945750D01*
X25416750Y36787000D01*
X26416000Y36787000D01*
X26416000Y37586250D01*
X26670000Y37586250D01*
X26670000Y36787000D01*
X27669250Y36787000D01*
X27828000Y36945750D01*
X27828000Y37236309D01*
X27731327Y37469698D01*
X27552699Y37648327D01*
X27319310Y37745000D01*
X26828750Y37745000D01*
X26670000Y37586250D01*
X26416000Y37586250D01*
X26257250Y37745000D01*
X25766690Y37745000D01*
X25533301Y37648327D01*
X25354673Y37469698D01*
X25258000Y37236309D01*
X24145000Y37236309D01*
X24048327Y37469698D01*
X23869699Y37648327D01*
X23636310Y37745000D01*
X23527576Y37745000D01*
X23734264Y37830613D01*
X23832927Y38097468D01*
X22860000Y39070395D01*
X21887073Y38097468D01*
X21985736Y37830613D01*
X22216180Y37745000D01*
X22083690Y37745000D01*
X21850301Y37648327D01*
X21671673Y37469698D01*
X21575000Y37236309D01*
X20335000Y37236309D01*
X20238327Y37469698D01*
X20059699Y37648327D01*
X19826310Y37745000D01*
X19335750Y37745000D01*
X19177000Y37586250D01*
X18923000Y37586250D01*
X18764250Y37745000D01*
X18273690Y37745000D01*
X18040301Y37648327D01*
X17861673Y37469698D01*
X17765000Y37236309D01*
X14454416Y37236309D01*
X14423243Y37284753D01*
X14213717Y37427917D01*
X13965000Y37478283D01*
X10165000Y37478283D01*
X9932648Y37434563D01*
X9719247Y37297243D01*
X9576083Y37087717D01*
X9525717Y36839000D01*
X9525717Y36200000D01*
X7950000Y36200000D01*
X7722112Y36157120D01*
X7512811Y36022438D01*
X7373639Y35818752D01*
X6680181Y35819743D01*
X6630757Y35809808D01*
X6589092Y35781426D01*
X6561751Y35739071D01*
X6553000Y35692743D01*
X6553000Y28080000D01*
X6563006Y28030590D01*
X6591447Y27988965D01*
X6633841Y27961685D01*
X6680000Y27953000D01*
X55448000Y27953000D01*
X55448000Y24905000D01*
X55458006Y24855590D01*
X55486447Y24813965D01*
X55528841Y24786685D01*
X55575000Y24778000D01*
X61798000Y24778000D01*
X61798000Y7760000D01*
X61808006Y7710590D01*
X61836447Y7668965D01*
X61878841Y7641685D01*
X61925000Y7633000D01*
X99263000Y7633000D01*
X99263000Y1537000D01*
X1727000Y1537000D01*
X1727000Y4578770D01*
X2872632Y4578770D01*
X3195766Y3796726D01*
X3793578Y3197869D01*
X4575057Y2873370D01*
X5421230Y2872632D01*
X6203274Y3195766D01*
X6802131Y3793578D01*
X7126630Y4575057D01*
X7126633Y4578770D01*
X92872632Y4578770D01*
X93195766Y3796726D01*
X93793578Y3197869D01*
X94575057Y2873370D01*
X95421230Y2872632D01*
X96203274Y3195766D01*
X96802131Y3793578D01*
X97126630Y4575057D01*
X97127368Y5421230D01*
X96804234Y6203274D01*
X96206422Y6802131D01*
X95424943Y7126630D01*
X94578770Y7127368D01*
X93796726Y6804234D01*
X93197869Y6206422D01*
X92873370Y5424943D01*
X92872632Y4578770D01*
X7126633Y4578770D01*
X7127368Y5421230D01*
X6804234Y6203274D01*
X6206422Y6802131D01*
X5424943Y7126630D01*
X4578770Y7127368D01*
X3796726Y6804234D01*
X3197869Y6206422D01*
X2873370Y5424943D01*
X2872632Y4578770D01*
X1727000Y4578770D01*
X1727000Y39514539D01*
X21214092Y39514539D01*
X21238144Y38864540D01*
X21440613Y38375736D01*
X21707468Y38277073D01*
X22680395Y39250000D01*
X23039605Y39250000D01*
X24012532Y38277073D01*
X24279387Y38375736D01*
X24448245Y38830250D01*
X33756000Y38830250D01*
X33756000Y38339690D01*
X33852673Y38106301D01*
X34031302Y37927673D01*
X34264691Y37831000D01*
X34555250Y37831000D01*
X34714000Y37989750D01*
X34714000Y38989000D01*
X33914750Y38989000D01*
X33756000Y38830250D01*
X24448245Y38830250D01*
X24505908Y38985461D01*
X24481856Y39635460D01*
X24375466Y39892310D01*
X33756000Y39892310D01*
X33756000Y39401750D01*
X33914750Y39243000D01*
X34714000Y39243000D01*
X34714000Y40242250D01*
X34555250Y40401000D01*
X34264691Y40401000D01*
X34031302Y40304327D01*
X33852673Y40125699D01*
X33756000Y39892310D01*
X24375466Y39892310D01*
X24279387Y40124264D01*
X24012532Y40222927D01*
X23039605Y39250000D01*
X22680395Y39250000D01*
X21707468Y40222927D01*
X21440613Y40124264D01*
X21214092Y39514539D01*
X1727000Y39514539D01*
X1727000Y40402532D01*
X21887073Y40402532D01*
X22860000Y39429605D01*
X23832927Y40402532D01*
X23734264Y40669387D01*
X23124539Y40895908D01*
X22474540Y40871856D01*
X21985736Y40669387D01*
X21887073Y40402532D01*
X1727000Y40402532D01*
X1727000Y43180000D01*
X2818000Y43180000D01*
X2941848Y42557374D01*
X3294537Y42029537D01*
X3822374Y41676848D01*
X4445000Y41553000D01*
X5792042Y41553000D01*
X6298032Y41214908D01*
X7112000Y41053000D01*
X9541899Y41053000D01*
X9569437Y40906648D01*
X9706757Y40693247D01*
X9916283Y40550083D01*
X10165000Y40499717D01*
X11624016Y40499717D01*
X12065000Y40412000D01*
X12505984Y40499717D01*
X13965000Y40499717D01*
X14197352Y40543437D01*
X14410753Y40680757D01*
X14553917Y40890283D01*
X14604283Y41139000D01*
X14604283Y42837000D01*
X93815000Y42837000D01*
X93815000Y42037000D01*
X95123000Y42037000D01*
X95123000Y43979915D01*
X95377000Y43979915D01*
X95377000Y42037000D01*
X96685000Y42037000D01*
X96685000Y42837000D01*
X96527166Y43376483D01*
X96174896Y43814500D01*
X95681819Y44084367D01*
X95599039Y44101904D01*
X95377000Y43979915D01*
X95123000Y43979915D01*
X94900961Y44101904D01*
X94818181Y44084367D01*
X94325104Y43814500D01*
X93972834Y43376483D01*
X93815000Y42837000D01*
X14604283Y42837000D01*
X14604283Y43939000D01*
X14560563Y44171352D01*
X14423243Y44384753D01*
X14213717Y44527917D01*
X14192000Y44532315D01*
X14192000Y46523430D01*
X14197352Y46524437D01*
X14341595Y46617255D01*
X94421861Y46617255D01*
X94495995Y46371136D01*
X95033223Y46178035D01*
X95603454Y46205222D01*
X96004005Y46371136D01*
X96078139Y46617255D01*
X95250000Y47445395D01*
X94421861Y46617255D01*
X14341595Y46617255D01*
X14410753Y46661757D01*
X14553917Y46871283D01*
X14604283Y47120000D01*
X14604283Y47841777D01*
X93803035Y47841777D01*
X93830222Y47271546D01*
X93996136Y46870995D01*
X94242255Y46796861D01*
X95070395Y47625000D01*
X95429605Y47625000D01*
X96257745Y46796861D01*
X96503864Y46870995D01*
X96696965Y47408223D01*
X96669778Y47978454D01*
X96503864Y48379005D01*
X96257745Y48453139D01*
X95429605Y47625000D01*
X95070395Y47625000D01*
X94242255Y48453139D01*
X93996136Y48379005D01*
X93803035Y47841777D01*
X14604283Y47841777D01*
X14604283Y49920000D01*
X14560563Y50152352D01*
X14476836Y50282468D01*
X21887073Y50282468D01*
X21985736Y50015613D01*
X22595461Y49789092D01*
X23245460Y49813144D01*
X23734264Y50015613D01*
X23832927Y50282468D01*
X42842073Y50282468D01*
X42940736Y50015613D01*
X43550461Y49789092D01*
X44200460Y49813144D01*
X44689264Y50015613D01*
X44787927Y50282468D01*
X44741135Y50329260D01*
X70012588Y50329260D01*
X70373703Y49455297D01*
X71041780Y48786053D01*
X71915111Y48423414D01*
X72860740Y48422588D01*
X73734703Y48783703D01*
X74403947Y49451780D01*
X74766586Y50325111D01*
X74766889Y50673000D01*
X93815000Y50673000D01*
X93815000Y49873000D01*
X93972834Y49333517D01*
X94325104Y48895500D01*
X94476111Y48812852D01*
X94421861Y48632745D01*
X95250000Y47804605D01*
X96078139Y48632745D01*
X96023889Y48812852D01*
X96174896Y48895500D01*
X96527166Y49333517D01*
X96685000Y49873000D01*
X96685000Y50673000D01*
X95377000Y50673000D01*
X95377000Y50653000D01*
X95123000Y50653000D01*
X95123000Y50673000D01*
X93815000Y50673000D01*
X74766889Y50673000D01*
X74767412Y51270740D01*
X74578889Y51727000D01*
X93815000Y51727000D01*
X93815000Y50927000D01*
X95123000Y50927000D01*
X95123000Y52869915D01*
X95377000Y52869915D01*
X95377000Y50927000D01*
X96685000Y50927000D01*
X96685000Y51727000D01*
X96527166Y52266483D01*
X96174896Y52704500D01*
X95681819Y52974367D01*
X95599039Y52991904D01*
X95377000Y52869915D01*
X95123000Y52869915D01*
X94900961Y52991904D01*
X94818181Y52974367D01*
X94325104Y52704500D01*
X93972834Y52266483D01*
X93815000Y51727000D01*
X74578889Y51727000D01*
X74406297Y52144703D01*
X73738220Y52813947D01*
X72864889Y53176586D01*
X71919260Y53177412D01*
X71045297Y52816297D01*
X70376053Y52148220D01*
X70013414Y51274889D01*
X70012588Y50329260D01*
X44741135Y50329260D01*
X43815000Y51255395D01*
X42842073Y50282468D01*
X23832927Y50282468D01*
X22860000Y51255395D01*
X21887073Y50282468D01*
X14476836Y50282468D01*
X14423243Y50365753D01*
X14213717Y50508917D01*
X13965000Y50559283D01*
X12505984Y50559283D01*
X12065000Y50647000D01*
X11624016Y50559283D01*
X10165000Y50559283D01*
X9932648Y50515563D01*
X9719247Y50378243D01*
X9576083Y50168717D01*
X9525717Y49920000D01*
X9525717Y47120000D01*
X9569437Y46887648D01*
X9706757Y46674247D01*
X9916283Y46531083D01*
X9938000Y46526685D01*
X9938000Y45307000D01*
X7112000Y45307000D01*
X6298032Y45145092D01*
X5792042Y44807000D01*
X5656607Y44807000D01*
X5722166Y44888517D01*
X5880000Y45428000D01*
X5880000Y46228000D01*
X4572000Y46228000D01*
X4572000Y46208000D01*
X4318000Y46208000D01*
X4318000Y46228000D01*
X3010000Y46228000D01*
X3010000Y45428000D01*
X3167834Y44888517D01*
X3504054Y44470457D01*
X3294537Y44330463D01*
X2941848Y43802626D01*
X2818000Y43180000D01*
X1727000Y43180000D01*
X1727000Y47282000D01*
X3010000Y47282000D01*
X3010000Y46482000D01*
X4318000Y46482000D01*
X4318000Y48424915D01*
X4572000Y48424915D01*
X4572000Y46482000D01*
X5880000Y46482000D01*
X5880000Y47282000D01*
X5722166Y47821483D01*
X5369896Y48259500D01*
X4876819Y48529367D01*
X4794039Y48546904D01*
X4572000Y48424915D01*
X4318000Y48424915D01*
X4095961Y48546904D01*
X4013181Y48529367D01*
X3520104Y48259500D01*
X3167834Y47821483D01*
X3010000Y47282000D01*
X1727000Y47282000D01*
X1727000Y51699539D01*
X21214092Y51699539D01*
X21238144Y51049540D01*
X21440613Y50560736D01*
X21707468Y50462073D01*
X22680395Y51435000D01*
X23039605Y51435000D01*
X24012532Y50462073D01*
X24279387Y50560736D01*
X24505908Y51170461D01*
X24492595Y51530250D01*
X33883000Y51530250D01*
X33883000Y51039690D01*
X33979673Y50806301D01*
X34158302Y50627673D01*
X34391691Y50531000D01*
X34682250Y50531000D01*
X34841000Y50689750D01*
X34841000Y51689000D01*
X34041750Y51689000D01*
X33883000Y51530250D01*
X24492595Y51530250D01*
X24481856Y51820460D01*
X24279387Y52309264D01*
X24012532Y52407927D01*
X23039605Y51435000D01*
X22680395Y51435000D01*
X21707468Y52407927D01*
X21440613Y52309264D01*
X21214092Y51699539D01*
X1727000Y51699539D01*
X1727000Y55256844D01*
X1727200Y55258000D01*
X1727200Y80440405D01*
X34103988Y80440405D01*
X34290394Y79989269D01*
X34635253Y79643807D01*
X35086064Y79456614D01*
X35574195Y79456188D01*
X36025331Y79642594D01*
X36370793Y79987453D01*
X36557986Y80438264D01*
X36558412Y80926395D01*
X36372006Y81377531D01*
X36158200Y81591711D01*
X36158200Y82032468D01*
X51732073Y82032468D01*
X51830736Y81765613D01*
X52440461Y81539092D01*
X53090460Y81563144D01*
X53579264Y81765613D01*
X53677927Y82032468D01*
X52705000Y83005395D01*
X51732073Y82032468D01*
X36158200Y82032468D01*
X36158200Y83069250D01*
X48245000Y83069250D01*
X48245000Y82778691D01*
X48341673Y82545302D01*
X48520301Y82366673D01*
X48753690Y82270000D01*
X49244250Y82270000D01*
X49403000Y82428750D01*
X49403000Y83228000D01*
X49657000Y83228000D01*
X49657000Y82428750D01*
X49815750Y82270000D01*
X50306310Y82270000D01*
X50539699Y82366673D01*
X50718327Y82545302D01*
X50815000Y82778691D01*
X50815000Y83069250D01*
X50656250Y83228000D01*
X49657000Y83228000D01*
X49403000Y83228000D01*
X48403750Y83228000D01*
X48245000Y83069250D01*
X36158200Y83069250D01*
X36158200Y83449539D01*
X51059092Y83449539D01*
X51083144Y82799540D01*
X51285613Y82310736D01*
X51552468Y82212073D01*
X52525395Y83185000D01*
X52884605Y83185000D01*
X53857532Y82212073D01*
X54124387Y82310736D01*
X54350908Y82920461D01*
X54345403Y83069250D01*
X54595000Y83069250D01*
X54595000Y82778691D01*
X54691673Y82545302D01*
X54870301Y82366673D01*
X55103690Y82270000D01*
X55594250Y82270000D01*
X55753000Y82428750D01*
X55753000Y83228000D01*
X56007000Y83228000D01*
X56007000Y82428750D01*
X56165750Y82270000D01*
X56656310Y82270000D01*
X56889699Y82366673D01*
X57068327Y82545302D01*
X57165000Y82778691D01*
X57165000Y83069250D01*
X57006250Y83228000D01*
X56007000Y83228000D01*
X55753000Y83228000D01*
X54753750Y83228000D01*
X54595000Y83069250D01*
X54345403Y83069250D01*
X54326856Y83570460D01*
X54124387Y84059264D01*
X53857532Y84157927D01*
X52884605Y83185000D01*
X52525395Y83185000D01*
X51552468Y84157927D01*
X51285613Y84059264D01*
X51059092Y83449539D01*
X36158200Y83449539D01*
X36158200Y89002246D01*
X36765954Y89610000D01*
X51193846Y89610000D01*
X51878000Y88925846D01*
X51878000Y88103708D01*
X51784582Y88065108D01*
X51781469Y88062000D01*
X50660000Y88062000D01*
X50133045Y87957182D01*
X49686314Y87658686D01*
X48593073Y86565445D01*
X48434247Y86463243D01*
X48291083Y86253717D01*
X48240717Y86005000D01*
X48240717Y85995983D01*
X48153000Y85555000D01*
X48240717Y85114017D01*
X48240717Y85105000D01*
X48284437Y84872648D01*
X48421757Y84659247D01*
X48631283Y84516083D01*
X48663791Y84509500D01*
X48767805Y84440000D01*
X48753690Y84440000D01*
X48520301Y84343327D01*
X48341673Y84164698D01*
X48245000Y83931309D01*
X48245000Y83640750D01*
X48403750Y83482000D01*
X49403000Y83482000D01*
X49403000Y83502000D01*
X49657000Y83502000D01*
X49657000Y83482000D01*
X50656250Y83482000D01*
X50815000Y83640750D01*
X50815000Y83931309D01*
X50718327Y84164698D01*
X50545494Y84337532D01*
X51732073Y84337532D01*
X52705000Y83364605D01*
X53677927Y84337532D01*
X53579264Y84604387D01*
X52969539Y84830908D01*
X52319540Y84806856D01*
X51830736Y84604387D01*
X51732073Y84337532D01*
X50545494Y84337532D01*
X50539699Y84343327D01*
X50306310Y84440000D01*
X50292195Y84440000D01*
X50389749Y84505184D01*
X50412352Y84509437D01*
X50625753Y84646757D01*
X50747909Y84825537D01*
X51230372Y85308000D01*
X51780679Y85308000D01*
X51782175Y85306501D01*
X52379950Y85058283D01*
X53027211Y85057718D01*
X53625418Y85304892D01*
X53628531Y85308000D01*
X54179628Y85308000D01*
X54669555Y84818073D01*
X54771757Y84659247D01*
X54981283Y84516083D01*
X55013791Y84509500D01*
X55117805Y84440000D01*
X55103690Y84440000D01*
X54870301Y84343327D01*
X54691673Y84164698D01*
X54595000Y83931309D01*
X54595000Y83640750D01*
X54753750Y83482000D01*
X55753000Y83482000D01*
X55753000Y83502000D01*
X56007000Y83502000D01*
X56007000Y83482000D01*
X57006250Y83482000D01*
X57165000Y83640750D01*
X57165000Y83931309D01*
X57068327Y84164698D01*
X56889699Y84343327D01*
X56656310Y84440000D01*
X56642195Y84440000D01*
X56739749Y84505184D01*
X56762352Y84509437D01*
X56975753Y84646757D01*
X57118917Y84856283D01*
X57169283Y85105000D01*
X57169283Y85114017D01*
X57257000Y85555000D01*
X57169283Y85995983D01*
X57169283Y86005000D01*
X57125563Y86237352D01*
X56988243Y86450753D01*
X56809463Y86572909D01*
X55723686Y87658686D01*
X55276955Y87957182D01*
X54750000Y88062000D01*
X53629321Y88062000D01*
X53627825Y88063499D01*
X53532000Y88103289D01*
X53532000Y89268400D01*
X53469048Y89584879D01*
X53289777Y89853177D01*
X52121177Y91021777D01*
X51852879Y91201048D01*
X51536400Y91264000D01*
X36423400Y91264000D01*
X36106921Y91201048D01*
X35838623Y91021777D01*
X34746423Y89929577D01*
X34567152Y89661279D01*
X34504200Y89344800D01*
X34504200Y81591569D01*
X34291607Y81379347D01*
X34104414Y80928536D01*
X34103988Y80440405D01*
X1727200Y80440405D01*
X1727200Y81685005D01*
X6214788Y81685005D01*
X6401194Y81233869D01*
X6746053Y80888407D01*
X7196864Y80701214D01*
X7684995Y80700788D01*
X8136131Y80887194D01*
X8481593Y81232053D01*
X8668786Y81682864D01*
X8669212Y82170995D01*
X8482806Y82622131D01*
X8282819Y82822468D01*
X23157073Y82822468D01*
X23255736Y82555613D01*
X23865461Y82329092D01*
X24515460Y82353144D01*
X25004264Y82555613D01*
X25102927Y82822468D01*
X24130000Y83795395D01*
X23157073Y82822468D01*
X8282819Y82822468D01*
X8269000Y82836311D01*
X8269000Y83855425D01*
X19855261Y83855425D01*
X19855261Y83564866D01*
X19951934Y83331477D01*
X20130562Y83152848D01*
X20363951Y83056175D01*
X20854511Y83056175D01*
X21013261Y83214925D01*
X21013261Y84014175D01*
X21267261Y84014175D01*
X21267261Y83214925D01*
X21426011Y83056175D01*
X21916571Y83056175D01*
X22149960Y83152848D01*
X22328588Y83331477D01*
X22425261Y83564866D01*
X22425261Y83855425D01*
X22266511Y84014175D01*
X21267261Y84014175D01*
X21013261Y84014175D01*
X20014011Y84014175D01*
X19855261Y83855425D01*
X8269000Y83855425D01*
X8269000Y84239539D01*
X22484092Y84239539D01*
X22508144Y83589540D01*
X22710613Y83100736D01*
X22977468Y83002073D01*
X23950395Y83975000D01*
X24309605Y83975000D01*
X25282532Y83002073D01*
X25549387Y83100736D01*
X25775908Y83710461D01*
X25770544Y83855425D01*
X26205261Y83855425D01*
X26205261Y83564866D01*
X26301934Y83331477D01*
X26480562Y83152848D01*
X26713951Y83056175D01*
X27204511Y83056175D01*
X27363261Y83214925D01*
X27363261Y84014175D01*
X27617261Y84014175D01*
X27617261Y83214925D01*
X27776011Y83056175D01*
X28266571Y83056175D01*
X28499960Y83152848D01*
X28678588Y83331477D01*
X28775261Y83564866D01*
X28775261Y83855425D01*
X28616511Y84014175D01*
X27617261Y84014175D01*
X27363261Y84014175D01*
X26364011Y84014175D01*
X26205261Y83855425D01*
X25770544Y83855425D01*
X25751856Y84360460D01*
X25549387Y84849264D01*
X25282532Y84947927D01*
X24309605Y83975000D01*
X23950395Y83975000D01*
X22977468Y84947927D01*
X22710613Y84849264D01*
X22484092Y84239539D01*
X8269000Y84239539D01*
X8269000Y90221446D01*
X9562555Y91515000D01*
X21958446Y91515000D01*
X23303000Y90170445D01*
X23303000Y88893708D01*
X23209582Y88855108D01*
X23206469Y88852000D01*
X22274086Y88852000D01*
X21747131Y88747182D01*
X21300400Y88448686D01*
X20203334Y87351620D01*
X20044508Y87249418D01*
X19901344Y87039892D01*
X19850978Y86791175D01*
X19850978Y86782158D01*
X19763261Y86341175D01*
X19850978Y85900192D01*
X19850978Y85891175D01*
X19894698Y85658823D01*
X20032018Y85445422D01*
X20241544Y85302258D01*
X20274052Y85295675D01*
X20378066Y85226175D01*
X20363951Y85226175D01*
X20130562Y85129502D01*
X19951934Y84950873D01*
X19855261Y84717484D01*
X19855261Y84426925D01*
X20014011Y84268175D01*
X21013261Y84268175D01*
X21013261Y84288175D01*
X21267261Y84288175D01*
X21267261Y84268175D01*
X22266511Y84268175D01*
X22425261Y84426925D01*
X22425261Y84717484D01*
X22328588Y84950873D01*
X22151930Y85127532D01*
X23157073Y85127532D01*
X24130000Y84154605D01*
X25102927Y85127532D01*
X25004264Y85394387D01*
X24394539Y85620908D01*
X23744540Y85596856D01*
X23255736Y85394387D01*
X23157073Y85127532D01*
X22151930Y85127532D01*
X22149960Y85129502D01*
X21916571Y85226175D01*
X21902456Y85226175D01*
X22000010Y85291359D01*
X22022613Y85295612D01*
X22236014Y85432932D01*
X22358170Y85611712D01*
X22844458Y86098000D01*
X23205679Y86098000D01*
X23207175Y86096501D01*
X23804950Y85848283D01*
X24452211Y85847718D01*
X25050418Y86094892D01*
X25053531Y86098000D01*
X25786064Y86098000D01*
X26279816Y85604248D01*
X26382018Y85445422D01*
X26591544Y85302258D01*
X26624052Y85295675D01*
X26728066Y85226175D01*
X26713951Y85226175D01*
X26480562Y85129502D01*
X26301934Y84950873D01*
X26205261Y84717484D01*
X26205261Y84426925D01*
X26364011Y84268175D01*
X27363261Y84268175D01*
X27363261Y84288175D01*
X27617261Y84288175D01*
X27617261Y84268175D01*
X28616511Y84268175D01*
X28775261Y84426925D01*
X28775261Y84717484D01*
X28678588Y84950873D01*
X28499960Y85129502D01*
X28266571Y85226175D01*
X28252456Y85226175D01*
X28350010Y85291359D01*
X28372613Y85295612D01*
X28586014Y85432932D01*
X28729178Y85642458D01*
X28779544Y85891175D01*
X28779544Y85900192D01*
X28867261Y86341175D01*
X28779544Y86782158D01*
X28779544Y86791175D01*
X28735824Y87023527D01*
X28598504Y87236928D01*
X28419724Y87359084D01*
X27330122Y88448686D01*
X26883391Y88747182D01*
X26356436Y88852000D01*
X25054321Y88852000D01*
X25052825Y88853499D01*
X24957000Y88893289D01*
X24957000Y90513000D01*
X24894048Y90829479D01*
X24765559Y91021777D01*
X24714778Y91097777D01*
X22885777Y92926777D01*
X22617479Y93106048D01*
X22301000Y93169000D01*
X9220000Y93169000D01*
X8903521Y93106048D01*
X8635223Y92926778D01*
X6857223Y91148777D01*
X6677952Y90880479D01*
X6615000Y90564000D01*
X6615000Y82836169D01*
X6402407Y82623947D01*
X6215214Y82173136D01*
X6214788Y81685005D01*
X1727200Y81685005D01*
X1727200Y94578770D01*
X2872632Y94578770D01*
X3195766Y93796726D01*
X3793578Y93197869D01*
X4575057Y92873370D01*
X5421230Y92872632D01*
X6203274Y93195766D01*
X6802131Y93793578D01*
X7126630Y94575057D01*
X7127218Y95250000D01*
X16779370Y95250000D01*
X16887994Y94703911D01*
X17197329Y94240959D01*
X17660281Y93931624D01*
X18206370Y93823000D01*
X19893630Y93823000D01*
X20439719Y93931624D01*
X20902671Y94240959D01*
X21028287Y94428957D01*
X21415614Y94040953D01*
X21939907Y93823248D01*
X22507603Y93822752D01*
X23032275Y94039543D01*
X23434047Y94440614D01*
X23625199Y94900961D01*
X25748096Y94900961D01*
X25765633Y94818181D01*
X26035500Y94325104D01*
X26473517Y93972834D01*
X27013000Y93815000D01*
X27813000Y93815000D01*
X27813000Y95123000D01*
X25870085Y95123000D01*
X25748096Y94900961D01*
X23625199Y94900961D01*
X23651752Y94964907D01*
X23652248Y95532603D01*
X23624798Y95599039D01*
X25748096Y95599039D01*
X25870085Y95377000D01*
X27813000Y95377000D01*
X27813000Y96685000D01*
X28067000Y96685000D01*
X28067000Y95377000D01*
X28087000Y95377000D01*
X28087000Y95123000D01*
X28067000Y95123000D01*
X28067000Y93815000D01*
X28867000Y93815000D01*
X29406483Y93972834D01*
X29741484Y94242255D01*
X30286861Y94242255D01*
X30360995Y93996136D01*
X30898223Y93803035D01*
X31468454Y93830222D01*
X31869005Y93996136D01*
X31943139Y94242255D01*
X31115000Y95070395D01*
X30286861Y94242255D01*
X29741484Y94242255D01*
X29844500Y94325104D01*
X29927148Y94476111D01*
X30107255Y94421861D01*
X30935395Y95250000D01*
X31294605Y95250000D01*
X32122745Y94421861D01*
X32368864Y94495995D01*
X32514424Y94900961D01*
X34638096Y94900961D01*
X34655633Y94818181D01*
X34925500Y94325104D01*
X35363517Y93972834D01*
X35903000Y93815000D01*
X36703000Y93815000D01*
X36703000Y95123000D01*
X34760085Y95123000D01*
X34638096Y94900961D01*
X32514424Y94900961D01*
X32561965Y95033223D01*
X32534989Y95599039D01*
X34638096Y95599039D01*
X34760085Y95377000D01*
X36703000Y95377000D01*
X36703000Y96685000D01*
X36957000Y96685000D01*
X36957000Y95377000D01*
X36977000Y95377000D01*
X36977000Y95123000D01*
X36957000Y95123000D01*
X36957000Y93815000D01*
X37757000Y93815000D01*
X38296483Y93972834D01*
X38631484Y94242255D01*
X39176861Y94242255D01*
X39250995Y93996136D01*
X39788223Y93803035D01*
X40358454Y93830222D01*
X40759005Y93996136D01*
X40833139Y94242255D01*
X40005000Y95070395D01*
X39176861Y94242255D01*
X38631484Y94242255D01*
X38734500Y94325104D01*
X38817148Y94476111D01*
X38997255Y94421861D01*
X39825395Y95250000D01*
X40184605Y95250000D01*
X41012745Y94421861D01*
X41258864Y94495995D01*
X41451965Y95033223D01*
X41441630Y95250000D01*
X43449370Y95250000D01*
X43557994Y94703911D01*
X43867329Y94240959D01*
X44330281Y93931624D01*
X44876370Y93823000D01*
X46563630Y93823000D01*
X47109719Y93931624D01*
X47572671Y94240959D01*
X47698287Y94428957D01*
X48085614Y94040953D01*
X48609907Y93823248D01*
X49177603Y93822752D01*
X49702275Y94039543D01*
X50104047Y94440614D01*
X50321752Y94964907D01*
X50322248Y95532603D01*
X50105457Y96057275D01*
X49704386Y96459047D01*
X49180093Y96676752D01*
X48612397Y96677248D01*
X48087725Y96460457D01*
X47698025Y96071436D01*
X47572671Y96259041D01*
X47109719Y96568376D01*
X46563630Y96677000D01*
X44876370Y96677000D01*
X44330281Y96568376D01*
X43867329Y96259041D01*
X43557994Y95796089D01*
X43449370Y95250000D01*
X41441630Y95250000D01*
X41424778Y95603454D01*
X41258864Y96004005D01*
X41012745Y96078139D01*
X40184605Y95250000D01*
X39825395Y95250000D01*
X38997255Y96078139D01*
X38817148Y96023889D01*
X38734500Y96174896D01*
X38631485Y96257745D01*
X39176861Y96257745D01*
X40005000Y95429605D01*
X40833139Y96257745D01*
X40759005Y96503864D01*
X40221777Y96696965D01*
X39651546Y96669778D01*
X39250995Y96503864D01*
X39176861Y96257745D01*
X38631485Y96257745D01*
X38296483Y96527166D01*
X37757000Y96685000D01*
X36957000Y96685000D01*
X36703000Y96685000D01*
X35903000Y96685000D01*
X35363517Y96527166D01*
X34925500Y96174896D01*
X34655633Y95681819D01*
X34638096Y95599039D01*
X32534989Y95599039D01*
X32534778Y95603454D01*
X32368864Y96004005D01*
X32122745Y96078139D01*
X31294605Y95250000D01*
X30935395Y95250000D01*
X30107255Y96078139D01*
X29927148Y96023889D01*
X29844500Y96174896D01*
X29741485Y96257745D01*
X30286861Y96257745D01*
X31115000Y95429605D01*
X31943139Y96257745D01*
X31869005Y96503864D01*
X31331777Y96696965D01*
X30761546Y96669778D01*
X30360995Y96503864D01*
X30286861Y96257745D01*
X29741485Y96257745D01*
X29406483Y96527166D01*
X28867000Y96685000D01*
X28067000Y96685000D01*
X27813000Y96685000D01*
X27013000Y96685000D01*
X26473517Y96527166D01*
X26035500Y96174896D01*
X25765633Y95681819D01*
X25748096Y95599039D01*
X23624798Y95599039D01*
X23435457Y96057275D01*
X23034386Y96459047D01*
X22510093Y96676752D01*
X21942397Y96677248D01*
X21417725Y96460457D01*
X21028025Y96071436D01*
X20902671Y96259041D01*
X20439719Y96568376D01*
X19893630Y96677000D01*
X18206370Y96677000D01*
X17660281Y96568376D01*
X17197329Y96259041D01*
X16887994Y95796089D01*
X16779370Y95250000D01*
X7127218Y95250000D01*
X7127368Y95421230D01*
X6804234Y96203274D01*
X6206422Y96802131D01*
X5424943Y97126630D01*
X4578770Y97127368D01*
X3796726Y96804234D01*
X3197869Y96206422D01*
X2873370Y95424943D01*
X2872632Y94578770D01*
X1727200Y94578770D01*
X1727200Y99073000D01*
X59893000Y99073000D01*
X59893000Y65037000D01*
X59893000Y65037000D01*
G37*
X59893000Y65037000D02*
X46662926Y65037000D01*
X47040463Y65414537D01*
X47393152Y65942374D01*
X47517001Y66565000D01*
X47517000Y66565005D01*
X47517000Y67930000D01*
X47804250Y67930000D01*
X47963000Y68088750D01*
X47963000Y69088000D01*
X48217000Y69088000D01*
X48217000Y68088750D01*
X48375750Y67930000D01*
X48666309Y67930000D01*
X48899698Y68026673D01*
X49078327Y68205301D01*
X49175000Y68438690D01*
X49175000Y68929250D01*
X49016250Y69088000D01*
X48217000Y69088000D01*
X47963000Y69088000D01*
X47943000Y69088000D01*
X47943000Y69342000D01*
X47963000Y69342000D01*
X47963000Y70341250D01*
X48217000Y70341250D01*
X48217000Y69342000D01*
X49016250Y69342000D01*
X49175000Y69500750D01*
X49175000Y69991310D01*
X49078327Y70224699D01*
X48899698Y70403327D01*
X48666309Y70500000D01*
X48375750Y70500000D01*
X48217000Y70341250D01*
X47963000Y70341250D01*
X47804250Y70500000D01*
X47513691Y70500000D01*
X47280302Y70403327D01*
X47121362Y70244388D01*
X47040463Y70365463D01*
X46867000Y70538926D01*
X46867000Y71872468D01*
X47767073Y71872468D01*
X47865736Y71605613D01*
X48475461Y71379092D01*
X49125460Y71403144D01*
X49614264Y71605613D01*
X49712927Y71872468D01*
X48740000Y72845395D01*
X47767073Y71872468D01*
X46867000Y71872468D01*
X46867000Y73024153D01*
X46867231Y73289539D01*
X47094092Y73289539D01*
X47118144Y72639540D01*
X47320613Y72150736D01*
X47587468Y72052073D01*
X48560395Y73025000D01*
X48919605Y73025000D01*
X49892532Y72052073D01*
X50159387Y72150736D01*
X50385908Y72760461D01*
X50361856Y73410460D01*
X50159387Y73899264D01*
X49892532Y73997927D01*
X48919605Y73025000D01*
X48560395Y73025000D01*
X47587468Y73997927D01*
X47320613Y73899264D01*
X47094092Y73289539D01*
X46867231Y73289539D01*
X46867282Y73347211D01*
X46867000Y73347893D01*
X46867000Y74177532D01*
X47767073Y74177532D01*
X48740000Y73204605D01*
X49712927Y74177532D01*
X49614264Y74444387D01*
X49004539Y74670908D01*
X48354540Y74646856D01*
X47865736Y74444387D01*
X47767073Y74177532D01*
X46867000Y74177532D01*
X46867000Y75511074D01*
X47040463Y75684537D01*
X47121362Y75805612D01*
X47280302Y75646673D01*
X47513691Y75550000D01*
X47804250Y75550000D01*
X47963000Y75708750D01*
X47963000Y76708000D01*
X48217000Y76708000D01*
X48217000Y75708750D01*
X48375750Y75550000D01*
X48666309Y75550000D01*
X48899698Y75646673D01*
X49078327Y75825301D01*
X49175000Y76058690D01*
X49175000Y76549250D01*
X49016250Y76708000D01*
X48217000Y76708000D01*
X47963000Y76708000D01*
X47943000Y76708000D01*
X47943000Y76962000D01*
X47963000Y76962000D01*
X47963000Y77961250D01*
X48217000Y77961250D01*
X48217000Y76962000D01*
X49016250Y76962000D01*
X49175000Y77120750D01*
X49175000Y77611310D01*
X49078327Y77844699D01*
X48899698Y78023327D01*
X48666309Y78120000D01*
X48375750Y78120000D01*
X48217000Y77961250D01*
X47963000Y77961250D01*
X47804250Y78120000D01*
X47513691Y78120000D01*
X47280302Y78023327D01*
X47121362Y77864388D01*
X47040463Y77985463D01*
X46512626Y78338152D01*
X45890000Y78462001D01*
X45267374Y78338152D01*
X44739537Y77985463D01*
X44089537Y77335463D01*
X43736848Y76807626D01*
X43613000Y76185000D01*
X43613000Y73025847D01*
X43612718Y72702789D01*
X43613000Y72702107D01*
X43613000Y69865000D01*
X43736848Y69242374D01*
X44089537Y68714537D01*
X44263000Y68541074D01*
X44263000Y67238926D01*
X43129074Y66105000D01*
X23533925Y66105000D01*
X22433027Y67205899D01*
X21905190Y67558588D01*
X21282564Y67682436D01*
X20104925Y67682436D01*
X19762261Y68025101D01*
X19762261Y68716175D01*
X20049511Y68716175D01*
X20208261Y68874925D01*
X20208261Y69874175D01*
X20462261Y69874175D01*
X20462261Y68874925D01*
X20621011Y68716175D01*
X20911570Y68716175D01*
X21144959Y68812848D01*
X21323588Y68991476D01*
X21420261Y69224865D01*
X21420261Y69715425D01*
X21261511Y69874175D01*
X20462261Y69874175D01*
X20208261Y69874175D01*
X20188261Y69874175D01*
X20188261Y70128175D01*
X20208261Y70128175D01*
X20208261Y71127425D01*
X20462261Y71127425D01*
X20462261Y70128175D01*
X21261511Y70128175D01*
X21420261Y70286925D01*
X21420261Y70777485D01*
X21323588Y71010874D01*
X21144959Y71189502D01*
X20911570Y71286175D01*
X20621011Y71286175D01*
X20462261Y71127425D01*
X20208261Y71127425D01*
X20049511Y71286175D01*
X19758952Y71286175D01*
X19525563Y71189502D01*
X19366623Y71030563D01*
X19285724Y71151638D01*
X19112261Y71325101D01*
X19112261Y72658643D01*
X20012334Y72658643D01*
X20110997Y72391788D01*
X20720722Y72165267D01*
X21370721Y72189319D01*
X21859525Y72391788D01*
X21958188Y72658643D01*
X20985261Y73631570D01*
X20012334Y72658643D01*
X19112261Y72658643D01*
X19112261Y73810328D01*
X19112492Y74075714D01*
X19339353Y74075714D01*
X19363405Y73425715D01*
X19565874Y72936911D01*
X19832729Y72838248D01*
X20805656Y73811175D01*
X21164866Y73811175D01*
X22137793Y72838248D01*
X22404648Y72936911D01*
X22631169Y73546636D01*
X22607117Y74196635D01*
X22404648Y74685439D01*
X22137793Y74784102D01*
X21164866Y73811175D01*
X20805656Y73811175D01*
X19832729Y74784102D01*
X19565874Y74685439D01*
X19339353Y74075714D01*
X19112492Y74075714D01*
X19112543Y74133386D01*
X19112261Y74134068D01*
X19112261Y74963707D01*
X20012334Y74963707D01*
X20985261Y73990780D01*
X21958188Y74963707D01*
X21859525Y75230562D01*
X21249800Y75457083D01*
X20599801Y75433031D01*
X20110997Y75230562D01*
X20012334Y74963707D01*
X19112261Y74963707D01*
X19112261Y76297249D01*
X19285724Y76470712D01*
X19366623Y76591787D01*
X19525563Y76432848D01*
X19758952Y76336175D01*
X20049511Y76336175D01*
X20208261Y76494925D01*
X20208261Y77494175D01*
X20462261Y77494175D01*
X20462261Y76494925D01*
X20621011Y76336175D01*
X20911570Y76336175D01*
X21144959Y76432848D01*
X21323588Y76611476D01*
X21420261Y76844865D01*
X21420261Y77335425D01*
X21261511Y77494175D01*
X20462261Y77494175D01*
X20208261Y77494175D01*
X20188261Y77494175D01*
X20188261Y77748175D01*
X20208261Y77748175D01*
X20208261Y78747425D01*
X20462261Y78747425D01*
X20462261Y77748175D01*
X21261511Y77748175D01*
X21420261Y77906925D01*
X21420261Y78397485D01*
X21323588Y78630874D01*
X21144959Y78809502D01*
X20911570Y78906175D01*
X20621011Y78906175D01*
X20462261Y78747425D01*
X20208261Y78747425D01*
X20049511Y78906175D01*
X19758952Y78906175D01*
X19525563Y78809502D01*
X19366623Y78650563D01*
X19285724Y78771638D01*
X18757887Y79124327D01*
X18135261Y79248176D01*
X17512635Y79124327D01*
X16984798Y78771638D01*
X16334798Y78121638D01*
X15982109Y77593801D01*
X15858261Y76971175D01*
X15858261Y73812022D01*
X15857979Y73488964D01*
X15858261Y73488282D01*
X15858261Y70651175D01*
X15982109Y70028549D01*
X16334798Y69500712D01*
X16508261Y69327249D01*
X16508261Y67351175D01*
X16632109Y66728549D01*
X16984798Y66200712D01*
X18280535Y64904976D01*
X18280537Y64904973D01*
X18661439Y64650463D01*
X18808374Y64552284D01*
X19431000Y64428435D01*
X19431005Y64428436D01*
X20608638Y64428436D01*
X21233000Y63804075D01*
X21233000Y62997000D01*
X7950000Y62997000D01*
X7722112Y62954120D01*
X7512811Y62819438D01*
X7372399Y62613938D01*
X7323000Y62370000D01*
X7323000Y55258000D01*
X7365880Y55030112D01*
X7500562Y54820811D01*
X7706062Y54680399D01*
X7950000Y54631000D01*
X9525717Y54631000D01*
X9525717Y54220000D01*
X9569437Y53987648D01*
X9706757Y53774247D01*
X9916283Y53631083D01*
X10165000Y53580717D01*
X13965000Y53580717D01*
X14197352Y53624437D01*
X14410753Y53761757D01*
X14477367Y53859250D01*
X17765000Y53859250D01*
X17765000Y53568691D01*
X17861673Y53335302D01*
X18040301Y53156673D01*
X18273690Y53060000D01*
X18764250Y53060000D01*
X18923000Y53218750D01*
X18923000Y54018000D01*
X19177000Y54018000D01*
X19177000Y53218750D01*
X19335750Y53060000D01*
X19826310Y53060000D01*
X20059699Y53156673D01*
X20238327Y53335302D01*
X20335000Y53568691D01*
X20335000Y53859250D01*
X21575000Y53859250D01*
X21575000Y53568691D01*
X21671673Y53335302D01*
X21850301Y53156673D01*
X22083690Y53060000D01*
X22559506Y53060000D01*
X22474540Y53056856D01*
X21985736Y52854387D01*
X21887073Y52587532D01*
X22860000Y51614605D01*
X23832927Y52587532D01*
X23831161Y52592310D01*
X33883000Y52592310D01*
X33883000Y52101750D01*
X34041750Y51943000D01*
X34841000Y51943000D01*
X34841000Y52942250D01*
X34682250Y53101000D01*
X34391691Y53101000D01*
X34158302Y53004327D01*
X33979673Y52825699D01*
X33883000Y52592310D01*
X23831161Y52592310D01*
X23734264Y52854387D01*
X23180817Y53060000D01*
X23636310Y53060000D01*
X23869699Y53156673D01*
X24048327Y53335302D01*
X24145000Y53568691D01*
X24145000Y53859250D01*
X25385000Y53859250D01*
X25385000Y53568691D01*
X25481673Y53335302D01*
X25660301Y53156673D01*
X25893690Y53060000D01*
X26384250Y53060000D01*
X26543000Y53218750D01*
X26543000Y54018000D01*
X26797000Y54018000D01*
X26797000Y53218750D01*
X26955750Y53060000D01*
X27446310Y53060000D01*
X27679699Y53156673D01*
X27858327Y53335302D01*
X27955000Y53568691D01*
X27955000Y53859250D01*
X27796250Y54018000D01*
X26797000Y54018000D01*
X26543000Y54018000D01*
X25543750Y54018000D01*
X25385000Y53859250D01*
X24145000Y53859250D01*
X23986250Y54018000D01*
X22987000Y54018000D01*
X22987000Y53998000D01*
X22733000Y53998000D01*
X22733000Y54018000D01*
X21733750Y54018000D01*
X21575000Y53859250D01*
X20335000Y53859250D01*
X20176250Y54018000D01*
X19177000Y54018000D01*
X18923000Y54018000D01*
X17923750Y54018000D01*
X17765000Y53859250D01*
X14477367Y53859250D01*
X14553917Y53971283D01*
X14604283Y54220000D01*
X14604283Y54631000D01*
X17765000Y54631000D01*
X17765000Y54430750D01*
X17923750Y54272000D01*
X18923000Y54272000D01*
X18923000Y54292000D01*
X19177000Y54292000D01*
X19177000Y54272000D01*
X20176250Y54272000D01*
X20335000Y54430750D01*
X20335000Y54631000D01*
X21575000Y54631000D01*
X21575000Y54430750D01*
X21733750Y54272000D01*
X22733000Y54272000D01*
X22733000Y54292000D01*
X22987000Y54292000D01*
X22987000Y54272000D01*
X23986250Y54272000D01*
X24145000Y54430750D01*
X24145000Y54631000D01*
X25385000Y54631000D01*
X25385000Y54430750D01*
X25543750Y54272000D01*
X26543000Y54272000D01*
X26543000Y54292000D01*
X26797000Y54292000D01*
X26797000Y54272000D01*
X27796250Y54272000D01*
X27955000Y54430750D01*
X27955000Y54631000D01*
X32588000Y54631000D01*
X32815888Y54673880D01*
X32970239Y54773203D01*
X33106062Y54680399D01*
X33350000Y54631000D01*
X35921717Y54631000D01*
X35921717Y53822000D01*
X35965437Y53589648D01*
X36041000Y53472220D01*
X36041000Y52621281D01*
X35956327Y52825699D01*
X35777698Y53004327D01*
X35544309Y53101000D01*
X35253750Y53101000D01*
X35095000Y52942250D01*
X35095000Y51943000D01*
X35115000Y51943000D01*
X35115000Y51689000D01*
X35095000Y51689000D01*
X35095000Y50689750D01*
X35253750Y50531000D01*
X35544309Y50531000D01*
X35777698Y50627673D01*
X35956327Y50806301D01*
X36053000Y51039690D01*
X36053000Y51530250D01*
X35894252Y51688998D01*
X36053000Y51688998D01*
X36053000Y51755672D01*
X36078717Y51626384D01*
X36078717Y51166000D01*
X36122437Y50933648D01*
X36259757Y50720247D01*
X36469283Y50577083D01*
X36718000Y50526717D01*
X37618000Y50526717D01*
X37850352Y50570437D01*
X38063753Y50707757D01*
X38206917Y50917283D01*
X38257283Y51166000D01*
X38257283Y51626384D01*
X38271834Y51699539D01*
X42169092Y51699539D01*
X42193144Y51049540D01*
X42395613Y50560736D01*
X42662468Y50462073D01*
X43635395Y51435000D01*
X43994605Y51435000D01*
X44967532Y50462073D01*
X45234387Y50560736D01*
X45460908Y51170461D01*
X45436856Y51820460D01*
X45273239Y52215468D01*
X56812073Y52215468D01*
X56910736Y51948613D01*
X57520461Y51722092D01*
X58170460Y51746144D01*
X58659264Y51948613D01*
X58757927Y52215468D01*
X57785000Y53188395D01*
X56812073Y52215468D01*
X45273239Y52215468D01*
X45234387Y52309264D01*
X44967532Y52407927D01*
X43994605Y51435000D01*
X43635395Y51435000D01*
X42662468Y52407927D01*
X42395613Y52309264D01*
X42169092Y51699539D01*
X38271834Y51699539D01*
X38295000Y51816000D01*
X38295000Y52587532D01*
X42842073Y52587532D01*
X43815000Y51614605D01*
X44787927Y52587532D01*
X44689264Y52854387D01*
X44079539Y53080908D01*
X43429540Y53056856D01*
X42940736Y52854387D01*
X42842073Y52587532D01*
X38295000Y52587532D01*
X38295000Y53356194D01*
X38306753Y53363757D01*
X38449917Y53573283D01*
X38500283Y53822000D01*
X38500283Y53986250D01*
X38720000Y53986250D01*
X38720000Y53695691D01*
X38816673Y53462302D01*
X38995301Y53283673D01*
X39228690Y53187000D01*
X39719250Y53187000D01*
X39878000Y53345750D01*
X39878000Y54145000D01*
X40132000Y54145000D01*
X40132000Y53345750D01*
X40290750Y53187000D01*
X40781310Y53187000D01*
X41014699Y53283673D01*
X41193327Y53462302D01*
X41290000Y53695691D01*
X41290000Y53986250D01*
X42530000Y53986250D01*
X42530000Y53695691D01*
X42626673Y53462302D01*
X42805301Y53283673D01*
X43038690Y53187000D01*
X43529250Y53187000D01*
X43688000Y53345750D01*
X43688000Y54145000D01*
X43942000Y54145000D01*
X43942000Y53345750D01*
X44100750Y53187000D01*
X44591310Y53187000D01*
X44824699Y53283673D01*
X45003327Y53462302D01*
X45100000Y53695691D01*
X45100000Y53986250D01*
X46340000Y53986250D01*
X46340000Y53695691D01*
X46436673Y53462302D01*
X46615301Y53283673D01*
X46848690Y53187000D01*
X47339250Y53187000D01*
X47498000Y53345750D01*
X47498000Y54145000D01*
X47752000Y54145000D01*
X47752000Y53345750D01*
X47910750Y53187000D01*
X48401310Y53187000D01*
X48634699Y53283673D01*
X48813327Y53462302D01*
X48883841Y53632539D01*
X56139092Y53632539D01*
X56163144Y52982540D01*
X56365613Y52493736D01*
X56632468Y52395073D01*
X57605395Y53368000D01*
X57964605Y53368000D01*
X58937532Y52395073D01*
X59204387Y52493736D01*
X59430908Y53103461D01*
X59406856Y53753460D01*
X59204387Y54242264D01*
X58937532Y54340927D01*
X57964605Y53368000D01*
X57605395Y53368000D01*
X56632468Y54340927D01*
X56365613Y54242264D01*
X56139092Y53632539D01*
X48883841Y53632539D01*
X48910000Y53695691D01*
X48910000Y53986250D01*
X48751250Y54145000D01*
X47752000Y54145000D01*
X47498000Y54145000D01*
X46498750Y54145000D01*
X46340000Y53986250D01*
X45100000Y53986250D01*
X44941250Y54145000D01*
X43942000Y54145000D01*
X43688000Y54145000D01*
X42688750Y54145000D01*
X42530000Y53986250D01*
X41290000Y53986250D01*
X41131250Y54145000D01*
X40132000Y54145000D01*
X39878000Y54145000D01*
X38878750Y54145000D01*
X38720000Y53986250D01*
X38500283Y53986250D01*
X38500283Y54631000D01*
X38720000Y54631000D01*
X38720000Y54557750D01*
X38878750Y54399000D01*
X39878000Y54399000D01*
X39878000Y54419000D01*
X40132000Y54419000D01*
X40132000Y54399000D01*
X41131250Y54399000D01*
X41290000Y54557750D01*
X41290000Y54631000D01*
X42530000Y54631000D01*
X42530000Y54557750D01*
X42688750Y54399000D01*
X43688000Y54399000D01*
X43688000Y54419000D01*
X43942000Y54419000D01*
X43942000Y54399000D01*
X44941250Y54399000D01*
X45100000Y54557750D01*
X45100000Y54631000D01*
X46340000Y54631000D01*
X46340000Y54557750D01*
X46498750Y54399000D01*
X47498000Y54399000D01*
X47498000Y54419000D01*
X47752000Y54419000D01*
X47752000Y54399000D01*
X48751250Y54399000D01*
X48872782Y54520532D01*
X56812073Y54520532D01*
X57785000Y53547605D01*
X58757927Y54520532D01*
X58659264Y54787387D01*
X58049539Y55013908D01*
X57399540Y54989856D01*
X56910736Y54787387D01*
X56812073Y54520532D01*
X48872782Y54520532D01*
X48910000Y54557750D01*
X48910000Y54631000D01*
X49860000Y54631000D01*
X50087888Y54673880D01*
X50297189Y54808562D01*
X50437601Y55014062D01*
X50461281Y55131000D01*
X60528000Y55131000D01*
X60577410Y55141006D01*
X60619035Y55169447D01*
X60646315Y55211841D01*
X60655000Y55258000D01*
X60655000Y57669250D01*
X60945000Y57669250D01*
X60945000Y57378691D01*
X61041673Y57145302D01*
X61220301Y56966673D01*
X61453690Y56870000D01*
X61944250Y56870000D01*
X62103000Y57028750D01*
X62103000Y57828000D01*
X62357000Y57828000D01*
X62357000Y57028750D01*
X62515750Y56870000D01*
X63006310Y56870000D01*
X63239699Y56966673D01*
X63418327Y57145302D01*
X63500000Y57342478D01*
X63581673Y57145302D01*
X63760301Y56966673D01*
X63993690Y56870000D01*
X64484250Y56870000D01*
X64643000Y57028750D01*
X64643000Y57828000D01*
X64897000Y57828000D01*
X64897000Y57028750D01*
X65055750Y56870000D01*
X65546310Y56870000D01*
X65779699Y56966673D01*
X65958327Y57145302D01*
X66055000Y57378691D01*
X66055000Y57669250D01*
X65896250Y57828000D01*
X64897000Y57828000D01*
X64643000Y57828000D01*
X63643750Y57828000D01*
X63500000Y57684250D01*
X63356250Y57828000D01*
X62357000Y57828000D01*
X62103000Y57828000D01*
X61103750Y57828000D01*
X60945000Y57669250D01*
X60655000Y57669250D01*
X60655000Y58528000D01*
X60945000Y58528000D01*
X60945000Y58240750D01*
X61103750Y58082000D01*
X62103000Y58082000D01*
X62103000Y58102000D01*
X62357000Y58102000D01*
X62357000Y58082000D01*
X63356250Y58082000D01*
X63500000Y58225750D01*
X63643750Y58082000D01*
X64643000Y58082000D01*
X64643000Y58102000D01*
X64897000Y58102000D01*
X64897000Y58082000D01*
X65896250Y58082000D01*
X66055000Y58240750D01*
X66055000Y58528000D01*
X66243000Y58528000D01*
X66243000Y55258000D01*
X66253006Y55208590D01*
X66281447Y55166965D01*
X66323841Y55139685D01*
X66370000Y55131000D01*
X75895000Y55131000D01*
X75944410Y55141006D01*
X75986035Y55169447D01*
X76013315Y55211841D01*
X76022000Y55258000D01*
X76022000Y58235268D01*
X79773673Y58235268D01*
X79872336Y57968413D01*
X80482061Y57741892D01*
X81132060Y57765944D01*
X81620864Y57968413D01*
X81719527Y58235268D01*
X80746600Y59208195D01*
X79773673Y58235268D01*
X76022000Y58235268D01*
X76022000Y60336250D01*
X76362800Y60336250D01*
X76362800Y60045691D01*
X76459473Y59812302D01*
X76638101Y59633673D01*
X76871490Y59537000D01*
X77362050Y59537000D01*
X77520800Y59695750D01*
X77520800Y60495000D01*
X77774800Y60495000D01*
X77774800Y59695750D01*
X77933550Y59537000D01*
X78424110Y59537000D01*
X78657499Y59633673D01*
X78676164Y59652339D01*
X79100692Y59652339D01*
X79124744Y59002340D01*
X79327213Y58513536D01*
X79594068Y58414873D01*
X80566995Y59387800D01*
X80926205Y59387800D01*
X81899132Y58414873D01*
X82165987Y58513536D01*
X82392508Y59123261D01*
X82368456Y59773260D01*
X82165987Y60262064D01*
X81965336Y60336250D01*
X83043000Y60336250D01*
X83043000Y60045691D01*
X83139673Y59812302D01*
X83318301Y59633673D01*
X83551690Y59537000D01*
X84042250Y59537000D01*
X84201000Y59695750D01*
X84201000Y60495000D01*
X84455000Y60495000D01*
X84455000Y59695750D01*
X84613750Y59537000D01*
X85104310Y59537000D01*
X85337699Y59633673D01*
X85516327Y59812302D01*
X85613000Y60045691D01*
X85613000Y60336250D01*
X85454250Y60495000D01*
X84455000Y60495000D01*
X84201000Y60495000D01*
X83201750Y60495000D01*
X83043000Y60336250D01*
X81965336Y60336250D01*
X81899132Y60360727D01*
X80926205Y59387800D01*
X80566995Y59387800D01*
X79594068Y60360727D01*
X79327213Y60262064D01*
X79100692Y59652339D01*
X78676164Y59652339D01*
X78836127Y59812302D01*
X78932800Y60045691D01*
X78932800Y60336250D01*
X78774050Y60495000D01*
X77774800Y60495000D01*
X77520800Y60495000D01*
X76521550Y60495000D01*
X76362800Y60336250D01*
X76022000Y60336250D01*
X76022000Y60973000D01*
X76362800Y60973000D01*
X76362800Y60907750D01*
X76521550Y60749000D01*
X77520800Y60749000D01*
X77520800Y60769000D01*
X77774800Y60769000D01*
X77774800Y60749000D01*
X78774050Y60749000D01*
X78932800Y60907750D01*
X78932800Y60973000D01*
X80272644Y60973000D01*
X79872336Y60807187D01*
X79773673Y60540332D01*
X80746600Y59567405D01*
X81719527Y60540332D01*
X81620864Y60807187D01*
X81174546Y60973000D01*
X83043000Y60973000D01*
X83043000Y60907750D01*
X83201750Y60749000D01*
X84201000Y60749000D01*
X84201000Y60769000D01*
X84455000Y60769000D01*
X84455000Y60749000D01*
X85454250Y60749000D01*
X85613000Y60907750D01*
X85613000Y60973000D01*
X85928000Y60973000D01*
X85928000Y55258000D01*
X85938006Y55208590D01*
X85966447Y55166965D01*
X86008841Y55139685D01*
X86055000Y55131000D01*
X86976046Y55131000D01*
X87003673Y55064302D01*
X87182301Y54885673D01*
X87415690Y54789000D01*
X88106250Y54789000D01*
X88265000Y54947750D01*
X88265000Y55131000D01*
X88519000Y55131000D01*
X88519000Y54947750D01*
X88677750Y54789000D01*
X89368310Y54789000D01*
X89601699Y54885673D01*
X89780327Y55064302D01*
X89807954Y55131000D01*
X91135000Y55131000D01*
X91184410Y55141006D01*
X91226035Y55169447D01*
X91253315Y55211841D01*
X91262000Y55258000D01*
X91262000Y55507255D01*
X94421861Y55507255D01*
X94495995Y55261136D01*
X95033223Y55068035D01*
X95603454Y55095222D01*
X96004005Y55261136D01*
X96078139Y55507255D01*
X95250000Y56335395D01*
X94421861Y55507255D01*
X91262000Y55507255D01*
X91262000Y56731777D01*
X93803035Y56731777D01*
X93830222Y56161546D01*
X93996136Y55760995D01*
X94242255Y55686861D01*
X95070395Y56515000D01*
X95429605Y56515000D01*
X96257745Y55686861D01*
X96503864Y55760995D01*
X96696965Y56298223D01*
X96669778Y56868454D01*
X96503864Y57269005D01*
X96257745Y57343139D01*
X95429605Y56515000D01*
X95070395Y56515000D01*
X94242255Y57343139D01*
X93996136Y57269005D01*
X93803035Y56731777D01*
X91262000Y56731777D01*
X91262000Y59563000D01*
X93815000Y59563000D01*
X93815000Y58763000D01*
X93972834Y58223517D01*
X94325104Y57785500D01*
X94476111Y57702852D01*
X94421861Y57522745D01*
X95250000Y56694605D01*
X96078139Y57522745D01*
X96023889Y57702852D01*
X96174896Y57785500D01*
X96527166Y58223517D01*
X96685000Y58763000D01*
X96685000Y59563000D01*
X95377000Y59563000D01*
X95377000Y59543000D01*
X95123000Y59543000D01*
X95123000Y59563000D01*
X93815000Y59563000D01*
X91262000Y59563000D01*
X91262000Y60617000D01*
X93815000Y60617000D01*
X93815000Y59817000D01*
X95123000Y59817000D01*
X95123000Y61759915D01*
X95377000Y61759915D01*
X95377000Y59817000D01*
X96685000Y59817000D01*
X96685000Y60617000D01*
X96527166Y61156483D01*
X96174896Y61594500D01*
X95681819Y61864367D01*
X95599039Y61881904D01*
X95377000Y61759915D01*
X95123000Y61759915D01*
X94900961Y61881904D01*
X94818181Y61864367D01*
X94325104Y61594500D01*
X93972834Y61156483D01*
X93815000Y60617000D01*
X91262000Y60617000D01*
X91262000Y64397255D01*
X94421861Y64397255D01*
X94495995Y64151136D01*
X95033223Y63958035D01*
X95603454Y63985222D01*
X96004005Y64151136D01*
X96078139Y64397255D01*
X95250000Y65225395D01*
X94421861Y64397255D01*
X91262000Y64397255D01*
X91262000Y65621777D01*
X93803035Y65621777D01*
X93830222Y65051546D01*
X93996136Y64650995D01*
X94242255Y64576861D01*
X95070395Y65405000D01*
X95429605Y65405000D01*
X96257745Y64576861D01*
X96503864Y64650995D01*
X96696965Y65188223D01*
X96669778Y65758454D01*
X96503864Y66159005D01*
X96257745Y66233139D01*
X95429605Y65405000D01*
X95070395Y65405000D01*
X94242255Y66233139D01*
X93996136Y66159005D01*
X93803035Y65621777D01*
X91262000Y65621777D01*
X91262000Y68453000D01*
X93815000Y68453000D01*
X93815000Y67653000D01*
X93972834Y67113517D01*
X94325104Y66675500D01*
X94476111Y66592852D01*
X94421861Y66412745D01*
X95250000Y65584605D01*
X96078139Y66412745D01*
X96023889Y66592852D01*
X96174896Y66675500D01*
X96527166Y67113517D01*
X96685000Y67653000D01*
X96685000Y68453000D01*
X95377000Y68453000D01*
X95377000Y68433000D01*
X95123000Y68433000D01*
X95123000Y68453000D01*
X93815000Y68453000D01*
X91262000Y68453000D01*
X91262000Y69507000D01*
X93815000Y69507000D01*
X93815000Y68707000D01*
X95123000Y68707000D01*
X95123000Y70649915D01*
X95377000Y70649915D01*
X95377000Y68707000D01*
X96685000Y68707000D01*
X96685000Y69507000D01*
X96527166Y70046483D01*
X96174896Y70484500D01*
X95681819Y70754367D01*
X95599039Y70771904D01*
X95377000Y70649915D01*
X95123000Y70649915D01*
X94900961Y70771904D01*
X94818181Y70754367D01*
X94325104Y70484500D01*
X93972834Y70046483D01*
X93815000Y69507000D01*
X91262000Y69507000D01*
X91262000Y71131137D01*
X99263000Y71131137D01*
X99263000Y19315137D01*
X90627000Y19315137D01*
X90627000Y19947255D01*
X94421861Y19947255D01*
X94495995Y19701136D01*
X95033223Y19508035D01*
X95603454Y19535222D01*
X96004005Y19701136D01*
X96078139Y19947255D01*
X95250000Y20775395D01*
X94421861Y19947255D01*
X90627000Y19947255D01*
X90627000Y21171777D01*
X93803035Y21171777D01*
X93830222Y20601546D01*
X93996136Y20200995D01*
X94242255Y20126861D01*
X95070395Y20955000D01*
X95429605Y20955000D01*
X96257745Y20126861D01*
X96503864Y20200995D01*
X96696965Y20738223D01*
X96669778Y21308454D01*
X96503864Y21709005D01*
X96257745Y21783139D01*
X95429605Y20955000D01*
X95070395Y20955000D01*
X94242255Y21783139D01*
X93996136Y21709005D01*
X93803035Y21171777D01*
X90627000Y21171777D01*
X90627000Y24003000D01*
X93815000Y24003000D01*
X93815000Y23203000D01*
X93972834Y22663517D01*
X94325104Y22225500D01*
X94476111Y22142852D01*
X94421861Y21962745D01*
X95250000Y21134605D01*
X96078139Y21962745D01*
X96023889Y22142852D01*
X96174896Y22225500D01*
X96527166Y22663517D01*
X96685000Y23203000D01*
X96685000Y24003000D01*
X95377000Y24003000D01*
X95377000Y23983000D01*
X95123000Y23983000D01*
X95123000Y24003000D01*
X93815000Y24003000D01*
X90627000Y24003000D01*
X90627000Y25057000D01*
X93815000Y25057000D01*
X93815000Y24257000D01*
X95123000Y24257000D01*
X95123000Y26199915D01*
X95377000Y26199915D01*
X95377000Y24257000D01*
X96685000Y24257000D01*
X96685000Y25057000D01*
X96527166Y25596483D01*
X96174896Y26034500D01*
X95681819Y26304367D01*
X95599039Y26321904D01*
X95377000Y26199915D01*
X95123000Y26199915D01*
X94900961Y26321904D01*
X94818181Y26304367D01*
X94325104Y26034500D01*
X93972834Y25596483D01*
X93815000Y25057000D01*
X90627000Y25057000D01*
X90627000Y28837255D01*
X94421861Y28837255D01*
X94495995Y28591136D01*
X95033223Y28398035D01*
X95603454Y28425222D01*
X96004005Y28591136D01*
X96078139Y28837255D01*
X95250000Y29665395D01*
X94421861Y28837255D01*
X90627000Y28837255D01*
X90627000Y30061777D01*
X93803035Y30061777D01*
X93830222Y29491546D01*
X93996136Y29090995D01*
X94242255Y29016861D01*
X95070395Y29845000D01*
X95429605Y29845000D01*
X96257745Y29016861D01*
X96503864Y29090995D01*
X96696965Y29628223D01*
X96669778Y30198454D01*
X96503864Y30599005D01*
X96257745Y30673139D01*
X95429605Y29845000D01*
X95070395Y29845000D01*
X94242255Y30673139D01*
X93996136Y30599005D01*
X93803035Y30061777D01*
X90627000Y30061777D01*
X90627000Y32893000D01*
X93815000Y32893000D01*
X93815000Y32093000D01*
X93972834Y31553517D01*
X94325104Y31115500D01*
X94476111Y31032852D01*
X94421861Y30852745D01*
X95250000Y30024605D01*
X96078139Y30852745D01*
X96023889Y31032852D01*
X96174896Y31115500D01*
X96527166Y31553517D01*
X96685000Y32093000D01*
X96685000Y32893000D01*
X95377000Y32893000D01*
X95377000Y32873000D01*
X95123000Y32873000D01*
X95123000Y32893000D01*
X93815000Y32893000D01*
X90627000Y32893000D01*
X90627000Y33947000D01*
X93815000Y33947000D01*
X93815000Y33147000D01*
X95123000Y33147000D01*
X95123000Y35089915D01*
X95377000Y35089915D01*
X95377000Y33147000D01*
X96685000Y33147000D01*
X96685000Y33947000D01*
X96527166Y34486483D01*
X96174896Y34924500D01*
X95681819Y35194367D01*
X95599039Y35211904D01*
X95377000Y35089915D01*
X95123000Y35089915D01*
X94900961Y35211904D01*
X94818181Y35194367D01*
X94325104Y34924500D01*
X93972834Y34486483D01*
X93815000Y33947000D01*
X90627000Y33947000D01*
X90627000Y35573000D01*
X90616994Y35622410D01*
X90588553Y35664035D01*
X90546159Y35691315D01*
X90500181Y35700000D01*
X86055181Y35706350D01*
X86005757Y35696415D01*
X85964092Y35668033D01*
X85936751Y35625678D01*
X85928000Y35579350D01*
X85928000Y31680647D01*
X85897327Y31754698D01*
X85718699Y31933327D01*
X85485310Y32030000D01*
X84994750Y32030000D01*
X84836000Y31871250D01*
X84836000Y31072000D01*
X84856000Y31072000D01*
X84856000Y30818000D01*
X84836000Y30818000D01*
X84836000Y30798000D01*
X84582000Y30798000D01*
X84582000Y30818000D01*
X83582750Y30818000D01*
X83511750Y30747000D01*
X81873688Y30747000D01*
X82027264Y30810613D01*
X82125927Y31077468D01*
X81153000Y32050395D01*
X80180073Y31077468D01*
X80278736Y30810613D01*
X80449963Y30747000D01*
X79302250Y30747000D01*
X79231250Y30818000D01*
X78232000Y30818000D01*
X78232000Y30798000D01*
X77978000Y30798000D01*
X77978000Y30818000D01*
X76978750Y30818000D01*
X76907750Y30747000D01*
X76722726Y30747000D01*
X76657000Y30812726D01*
X76657000Y31521309D01*
X76820000Y31521309D01*
X76820000Y31230750D01*
X76978750Y31072000D01*
X77978000Y31072000D01*
X77978000Y31871250D01*
X78232000Y31871250D01*
X78232000Y31072000D01*
X79231250Y31072000D01*
X79390000Y31230750D01*
X79390000Y31521309D01*
X79293327Y31754698D01*
X79114699Y31933327D01*
X78881310Y32030000D01*
X78390750Y32030000D01*
X78232000Y31871250D01*
X77978000Y31871250D01*
X77819250Y32030000D01*
X77328690Y32030000D01*
X77095301Y31933327D01*
X76916673Y31754698D01*
X76820000Y31521309D01*
X76657000Y31521309D01*
X76657000Y32494539D01*
X79507092Y32494539D01*
X79531144Y31844540D01*
X79733613Y31355736D01*
X80000468Y31257073D01*
X80973395Y32230000D01*
X81332605Y32230000D01*
X82305532Y31257073D01*
X82572387Y31355736D01*
X82633899Y31521309D01*
X83424000Y31521309D01*
X83424000Y31230750D01*
X83582750Y31072000D01*
X84582000Y31072000D01*
X84582000Y31871250D01*
X84423250Y32030000D01*
X83932690Y32030000D01*
X83699301Y31933327D01*
X83520673Y31754698D01*
X83424000Y31521309D01*
X82633899Y31521309D01*
X82798908Y31965461D01*
X82774856Y32615460D01*
X82572387Y33104264D01*
X82305532Y33202927D01*
X81332605Y32230000D01*
X80973395Y32230000D01*
X80000468Y33202927D01*
X79733613Y33104264D01*
X79507092Y32494539D01*
X76657000Y32494539D01*
X76657000Y33382532D01*
X80180073Y33382532D01*
X81153000Y32409605D01*
X82125927Y33382532D01*
X82027264Y33649387D01*
X81417539Y33875908D01*
X80767540Y33851856D01*
X80278736Y33649387D01*
X80180073Y33382532D01*
X76657000Y33382532D01*
X76657000Y35592957D01*
X76646994Y35642367D01*
X76618553Y35683992D01*
X76576159Y35711272D01*
X76530181Y35719957D01*
X66243181Y35734653D01*
X66193757Y35724718D01*
X66152092Y35696336D01*
X66124751Y35653981D01*
X66116000Y35607653D01*
X66116000Y28969000D01*
X66001280Y28969000D01*
X66055000Y29098691D01*
X66055000Y29389250D01*
X65896250Y29548000D01*
X64897000Y29548000D01*
X64897000Y29528000D01*
X64643000Y29528000D01*
X64643000Y29548000D01*
X63643750Y29548000D01*
X63500000Y29404250D01*
X63356250Y29548000D01*
X62357000Y29548000D01*
X62357000Y29528000D01*
X62103000Y29528000D01*
X62103000Y29548000D01*
X61103750Y29548000D01*
X60945000Y29389250D01*
X60945000Y29102000D01*
X60538999Y29102000D01*
X60538999Y30251309D01*
X60945000Y30251309D01*
X60945000Y29960750D01*
X61103750Y29802000D01*
X62103000Y29802000D01*
X62103000Y30601250D01*
X62357000Y30601250D01*
X62357000Y29802000D01*
X63356250Y29802000D01*
X63500000Y29945750D01*
X63643750Y29802000D01*
X64643000Y29802000D01*
X64643000Y30601250D01*
X64897000Y30601250D01*
X64897000Y29802000D01*
X65896250Y29802000D01*
X66055000Y29960750D01*
X66055000Y30251309D01*
X65958327Y30484698D01*
X65779699Y30663327D01*
X65546310Y30760000D01*
X65055750Y30760000D01*
X64897000Y30601250D01*
X64643000Y30601250D01*
X64484250Y30760000D01*
X63993690Y30760000D01*
X63760301Y30663327D01*
X63581673Y30484698D01*
X63500000Y30287522D01*
X63418327Y30484698D01*
X63239699Y30663327D01*
X63006310Y30760000D01*
X62515750Y30760000D01*
X62357000Y30601250D01*
X62103000Y30601250D01*
X61944250Y30760000D01*
X61453690Y30760000D01*
X61220301Y30663327D01*
X61041673Y30484698D01*
X60945000Y30251309D01*
X60538999Y30251309D01*
X60538999Y32810001D01*
X60528000Y32865297D01*
X60528000Y35615999D01*
X60517994Y35665409D01*
X60489553Y35707034D01*
X60447159Y35734314D01*
X60401181Y35742999D01*
X58436667Y35745805D01*
X58786264Y35890613D01*
X58884927Y36157468D01*
X57912000Y37130395D01*
X56939073Y36157468D01*
X57037736Y35890613D01*
X57423618Y35747253D01*
X50452338Y35757212D01*
X50444120Y35800888D01*
X50309438Y36010189D01*
X50103938Y36150601D01*
X49860000Y36200000D01*
X48910000Y36200000D01*
X48910000Y36374250D01*
X48751250Y36533000D01*
X47752000Y36533000D01*
X47752000Y36513000D01*
X47498000Y36513000D01*
X47498000Y36533000D01*
X46498750Y36533000D01*
X46340000Y36374250D01*
X46340000Y36200000D01*
X45100000Y36200000D01*
X45100000Y36374250D01*
X44941250Y36533000D01*
X43942000Y36533000D01*
X43942000Y36513000D01*
X43688000Y36513000D01*
X43688000Y36533000D01*
X42688750Y36533000D01*
X42530000Y36374250D01*
X42530000Y36200000D01*
X41290000Y36200000D01*
X41290000Y36374250D01*
X41131250Y36533000D01*
X40132000Y36533000D01*
X40132000Y36513000D01*
X39878000Y36513000D01*
X39878000Y36533000D01*
X38878750Y36533000D01*
X38720000Y36374250D01*
X38720000Y36200000D01*
X38371258Y36200000D01*
X38373283Y36210000D01*
X38373283Y37110000D01*
X38349517Y37236309D01*
X38720000Y37236309D01*
X38720000Y36945750D01*
X38878750Y36787000D01*
X39878000Y36787000D01*
X39878000Y37586250D01*
X40132000Y37586250D01*
X40132000Y36787000D01*
X41131250Y36787000D01*
X41290000Y36945750D01*
X41290000Y37236309D01*
X42530000Y37236309D01*
X42530000Y36945750D01*
X42688750Y36787000D01*
X43688000Y36787000D01*
X43688000Y36807000D01*
X43942000Y36807000D01*
X43942000Y36787000D01*
X44941250Y36787000D01*
X45100000Y36945750D01*
X45100000Y37236309D01*
X46340000Y37236309D01*
X46340000Y36945750D01*
X46498750Y36787000D01*
X47498000Y36787000D01*
X47498000Y37586250D01*
X47752000Y37586250D01*
X47752000Y36787000D01*
X48751250Y36787000D01*
X48910000Y36945750D01*
X48910000Y37236309D01*
X48813327Y37469698D01*
X48708487Y37574539D01*
X56266092Y37574539D01*
X56290144Y36924540D01*
X56492613Y36435736D01*
X56759468Y36337073D01*
X57732395Y37310000D01*
X58091605Y37310000D01*
X59064532Y36337073D01*
X59331387Y36435736D01*
X59557908Y37045461D01*
X59533856Y37695460D01*
X59331387Y38184264D01*
X59064532Y38282927D01*
X58091605Y37310000D01*
X57732395Y37310000D01*
X56759468Y38282927D01*
X56492613Y38184264D01*
X56266092Y37574539D01*
X48708487Y37574539D01*
X48634699Y37648327D01*
X48401310Y37745000D01*
X47910750Y37745000D01*
X47752000Y37586250D01*
X47498000Y37586250D01*
X47339250Y37745000D01*
X46848690Y37745000D01*
X46615301Y37648327D01*
X46436673Y37469698D01*
X46340000Y37236309D01*
X45100000Y37236309D01*
X45003327Y37469698D01*
X44824699Y37648327D01*
X44591310Y37745000D01*
X44482576Y37745000D01*
X44689264Y37830613D01*
X44787927Y38097468D01*
X43815000Y39070395D01*
X42842073Y38097468D01*
X42940736Y37830613D01*
X43171180Y37745000D01*
X43038690Y37745000D01*
X42805301Y37648327D01*
X42626673Y37469698D01*
X42530000Y37236309D01*
X41290000Y37236309D01*
X41193327Y37469698D01*
X41014699Y37648327D01*
X40781310Y37745000D01*
X40290750Y37745000D01*
X40132000Y37586250D01*
X39878000Y37586250D01*
X39719250Y37745000D01*
X39228690Y37745000D01*
X38995301Y37648327D01*
X38816673Y37469698D01*
X38720000Y37236309D01*
X38349517Y37236309D01*
X38329563Y37342352D01*
X38192243Y37555753D01*
X38168000Y37572318D01*
X38168000Y39116000D01*
X38130283Y39305616D01*
X38130283Y39514539D01*
X42169092Y39514539D01*
X42193144Y38864540D01*
X42395613Y38375736D01*
X42662468Y38277073D01*
X43635395Y39250000D01*
X43994605Y39250000D01*
X44967532Y38277073D01*
X45234387Y38375736D01*
X45266632Y38462532D01*
X56939073Y38462532D01*
X57912000Y37489605D01*
X58884927Y38462532D01*
X58786264Y38729387D01*
X58176539Y38955908D01*
X57526540Y38931856D01*
X57037736Y38729387D01*
X56939073Y38462532D01*
X45266632Y38462532D01*
X45460908Y38985461D01*
X45450000Y39280260D01*
X63012588Y39280260D01*
X63373703Y38406297D01*
X64041780Y37737053D01*
X64915111Y37374414D01*
X65860740Y37373588D01*
X66716677Y37727255D01*
X94421861Y37727255D01*
X94495995Y37481136D01*
X95033223Y37288035D01*
X95603454Y37315222D01*
X96004005Y37481136D01*
X96078139Y37727255D01*
X95250000Y38555395D01*
X94421861Y37727255D01*
X66716677Y37727255D01*
X66734703Y37734703D01*
X67403947Y38402780D01*
X67631910Y38951777D01*
X93803035Y38951777D01*
X93830222Y38381546D01*
X93996136Y37980995D01*
X94242255Y37906861D01*
X95070395Y38735000D01*
X95429605Y38735000D01*
X96257745Y37906861D01*
X96503864Y37980995D01*
X96696965Y38518223D01*
X96669778Y39088454D01*
X96503864Y39489005D01*
X96257745Y39563139D01*
X95429605Y38735000D01*
X95070395Y38735000D01*
X94242255Y39563139D01*
X93996136Y39489005D01*
X93803035Y38951777D01*
X67631910Y38951777D01*
X67766586Y39276111D01*
X67767412Y40221740D01*
X67406297Y41095703D01*
X66738220Y41764947D01*
X66694744Y41783000D01*
X93815000Y41783000D01*
X93815000Y40983000D01*
X93972834Y40443517D01*
X94325104Y40005500D01*
X94476111Y39922852D01*
X94421861Y39742745D01*
X95250000Y38914605D01*
X96078139Y39742745D01*
X96023889Y39922852D01*
X96174896Y40005500D01*
X96527166Y40443517D01*
X96685000Y40983000D01*
X96685000Y41783000D01*
X95377000Y41783000D01*
X95377000Y41763000D01*
X95123000Y41763000D01*
X95123000Y41783000D01*
X93815000Y41783000D01*
X66694744Y41783000D01*
X65864889Y42127586D01*
X64919260Y42128412D01*
X64045297Y41767297D01*
X63376053Y41099220D01*
X63013414Y40225889D01*
X63012588Y39280260D01*
X45450000Y39280260D01*
X45436856Y39635460D01*
X45234387Y40124264D01*
X44967532Y40222927D01*
X43994605Y39250000D01*
X43635395Y39250000D01*
X42662468Y40222927D01*
X42395613Y40124264D01*
X42169092Y39514539D01*
X38130283Y39514539D01*
X38130283Y39766000D01*
X38086563Y39998352D01*
X37949243Y40211753D01*
X37739717Y40354917D01*
X37504585Y40402532D01*
X42842073Y40402532D01*
X43815000Y39429605D01*
X44787927Y40402532D01*
X44689264Y40669387D01*
X44079539Y40895908D01*
X43429540Y40871856D01*
X42940736Y40669387D01*
X42842073Y40402532D01*
X37504585Y40402532D01*
X37491000Y40405283D01*
X36591000Y40405283D01*
X36358648Y40361563D01*
X36145247Y40224243D01*
X36002083Y40014717D01*
X35951717Y39766000D01*
X35951717Y39305616D01*
X35926000Y39176328D01*
X35926000Y39243002D01*
X35767252Y39243002D01*
X35926000Y39401750D01*
X35926000Y39892310D01*
X35829327Y40125699D01*
X35650698Y40304327D01*
X35417309Y40401000D01*
X35126750Y40401000D01*
X34968000Y40242250D01*
X34968000Y39243000D01*
X34988000Y39243000D01*
X34988000Y38989000D01*
X34968000Y38989000D01*
X34968000Y37989750D01*
X35126750Y37831000D01*
X35417309Y37831000D01*
X35650698Y37927673D01*
X35829327Y38106301D01*
X35914000Y38310719D01*
X35914000Y37459580D01*
X35845083Y37358717D01*
X35794717Y37110000D01*
X35794717Y36210000D01*
X35796599Y36200000D01*
X33961294Y36200000D01*
X33863802Y36270642D01*
X33621322Y36326761D01*
X33376112Y36284120D01*
X33209627Y36176990D01*
X33096000Y36200000D01*
X27828000Y36200000D01*
X27828000Y36374250D01*
X27669250Y36533000D01*
X26670000Y36533000D01*
X26670000Y36513000D01*
X26416000Y36513000D01*
X26416000Y36533000D01*
X25416750Y36533000D01*
X25258000Y36374250D01*
X25258000Y36200000D01*
X24145000Y36200000D01*
X24145000Y36374250D01*
X23986250Y36533000D01*
X22987000Y36533000D01*
X22987000Y36513000D01*
X22733000Y36513000D01*
X22733000Y36533000D01*
X21733750Y36533000D01*
X21575000Y36374250D01*
X21575000Y36200000D01*
X20335000Y36200000D01*
X20335000Y36374250D01*
X20176250Y36533000D01*
X19177000Y36533000D01*
X19177000Y36513000D01*
X18923000Y36513000D01*
X18923000Y36533000D01*
X17923750Y36533000D01*
X17765000Y36374250D01*
X17765000Y36200000D01*
X14604283Y36200000D01*
X14604283Y36839000D01*
X14560563Y37071352D01*
X14454416Y37236309D01*
X17765000Y37236309D01*
X17765000Y36945750D01*
X17923750Y36787000D01*
X18923000Y36787000D01*
X18923000Y37586250D01*
X19177000Y37586250D01*
X19177000Y36787000D01*
X20176250Y36787000D01*
X20335000Y36945750D01*
X20335000Y37236309D01*
X21575000Y37236309D01*
X21575000Y36945750D01*
X21733750Y36787000D01*
X22733000Y36787000D01*
X22733000Y36807000D01*
X22987000Y36807000D01*
X22987000Y36787000D01*
X23986250Y36787000D01*
X24145000Y36945750D01*
X24145000Y37236309D01*
X25258000Y37236309D01*
X25258000Y36945750D01*
X25416750Y36787000D01*
X26416000Y36787000D01*
X26416000Y37586250D01*
X26670000Y37586250D01*
X26670000Y36787000D01*
X27669250Y36787000D01*
X27828000Y36945750D01*
X27828000Y37236309D01*
X27731327Y37469698D01*
X27552699Y37648327D01*
X27319310Y37745000D01*
X26828750Y37745000D01*
X26670000Y37586250D01*
X26416000Y37586250D01*
X26257250Y37745000D01*
X25766690Y37745000D01*
X25533301Y37648327D01*
X25354673Y37469698D01*
X25258000Y37236309D01*
X24145000Y37236309D01*
X24048327Y37469698D01*
X23869699Y37648327D01*
X23636310Y37745000D01*
X23527576Y37745000D01*
X23734264Y37830613D01*
X23832927Y38097468D01*
X22860000Y39070395D01*
X21887073Y38097468D01*
X21985736Y37830613D01*
X22216180Y37745000D01*
X22083690Y37745000D01*
X21850301Y37648327D01*
X21671673Y37469698D01*
X21575000Y37236309D01*
X20335000Y37236309D01*
X20238327Y37469698D01*
X20059699Y37648327D01*
X19826310Y37745000D01*
X19335750Y37745000D01*
X19177000Y37586250D01*
X18923000Y37586250D01*
X18764250Y37745000D01*
X18273690Y37745000D01*
X18040301Y37648327D01*
X17861673Y37469698D01*
X17765000Y37236309D01*
X14454416Y37236309D01*
X14423243Y37284753D01*
X14213717Y37427917D01*
X13965000Y37478283D01*
X10165000Y37478283D01*
X9932648Y37434563D01*
X9719247Y37297243D01*
X9576083Y37087717D01*
X9525717Y36839000D01*
X9525717Y36200000D01*
X7950000Y36200000D01*
X7722112Y36157120D01*
X7512811Y36022438D01*
X7373639Y35818752D01*
X6680181Y35819743D01*
X6630757Y35809808D01*
X6589092Y35781426D01*
X6561751Y35739071D01*
X6553000Y35692743D01*
X6553000Y28080000D01*
X6563006Y28030590D01*
X6591447Y27988965D01*
X6633841Y27961685D01*
X6680000Y27953000D01*
X55448000Y27953000D01*
X55448000Y24905000D01*
X55458006Y24855590D01*
X55486447Y24813965D01*
X55528841Y24786685D01*
X55575000Y24778000D01*
X61798000Y24778000D01*
X61798000Y7760000D01*
X61808006Y7710590D01*
X61836447Y7668965D01*
X61878841Y7641685D01*
X61925000Y7633000D01*
X99263000Y7633000D01*
X99263000Y1537000D01*
X1727000Y1537000D01*
X1727000Y4578770D01*
X2872632Y4578770D01*
X3195766Y3796726D01*
X3793578Y3197869D01*
X4575057Y2873370D01*
X5421230Y2872632D01*
X6203274Y3195766D01*
X6802131Y3793578D01*
X7126630Y4575057D01*
X7126633Y4578770D01*
X92872632Y4578770D01*
X93195766Y3796726D01*
X93793578Y3197869D01*
X94575057Y2873370D01*
X95421230Y2872632D01*
X96203274Y3195766D01*
X96802131Y3793578D01*
X97126630Y4575057D01*
X97127368Y5421230D01*
X96804234Y6203274D01*
X96206422Y6802131D01*
X95424943Y7126630D01*
X94578770Y7127368D01*
X93796726Y6804234D01*
X93197869Y6206422D01*
X92873370Y5424943D01*
X92872632Y4578770D01*
X7126633Y4578770D01*
X7127368Y5421230D01*
X6804234Y6203274D01*
X6206422Y6802131D01*
X5424943Y7126630D01*
X4578770Y7127368D01*
X3796726Y6804234D01*
X3197869Y6206422D01*
X2873370Y5424943D01*
X2872632Y4578770D01*
X1727000Y4578770D01*
X1727000Y39514539D01*
X21214092Y39514539D01*
X21238144Y38864540D01*
X21440613Y38375736D01*
X21707468Y38277073D01*
X22680395Y39250000D01*
X23039605Y39250000D01*
X24012532Y38277073D01*
X24279387Y38375736D01*
X24448245Y38830250D01*
X33756000Y38830250D01*
X33756000Y38339690D01*
X33852673Y38106301D01*
X34031302Y37927673D01*
X34264691Y37831000D01*
X34555250Y37831000D01*
X34714000Y37989750D01*
X34714000Y38989000D01*
X33914750Y38989000D01*
X33756000Y38830250D01*
X24448245Y38830250D01*
X24505908Y38985461D01*
X24481856Y39635460D01*
X24375466Y39892310D01*
X33756000Y39892310D01*
X33756000Y39401750D01*
X33914750Y39243000D01*
X34714000Y39243000D01*
X34714000Y40242250D01*
X34555250Y40401000D01*
X34264691Y40401000D01*
X34031302Y40304327D01*
X33852673Y40125699D01*
X33756000Y39892310D01*
X24375466Y39892310D01*
X24279387Y40124264D01*
X24012532Y40222927D01*
X23039605Y39250000D01*
X22680395Y39250000D01*
X21707468Y40222927D01*
X21440613Y40124264D01*
X21214092Y39514539D01*
X1727000Y39514539D01*
X1727000Y40402532D01*
X21887073Y40402532D01*
X22860000Y39429605D01*
X23832927Y40402532D01*
X23734264Y40669387D01*
X23124539Y40895908D01*
X22474540Y40871856D01*
X21985736Y40669387D01*
X21887073Y40402532D01*
X1727000Y40402532D01*
X1727000Y43180000D01*
X2818000Y43180000D01*
X2941848Y42557374D01*
X3294537Y42029537D01*
X3822374Y41676848D01*
X4445000Y41553000D01*
X5792042Y41553000D01*
X6298032Y41214908D01*
X7112000Y41053000D01*
X9541899Y41053000D01*
X9569437Y40906648D01*
X9706757Y40693247D01*
X9916283Y40550083D01*
X10165000Y40499717D01*
X11624016Y40499717D01*
X12065000Y40412000D01*
X12505984Y40499717D01*
X13965000Y40499717D01*
X14197352Y40543437D01*
X14410753Y40680757D01*
X14553917Y40890283D01*
X14604283Y41139000D01*
X14604283Y42837000D01*
X93815000Y42837000D01*
X93815000Y42037000D01*
X95123000Y42037000D01*
X95123000Y43979915D01*
X95377000Y43979915D01*
X95377000Y42037000D01*
X96685000Y42037000D01*
X96685000Y42837000D01*
X96527166Y43376483D01*
X96174896Y43814500D01*
X95681819Y44084367D01*
X95599039Y44101904D01*
X95377000Y43979915D01*
X95123000Y43979915D01*
X94900961Y44101904D01*
X94818181Y44084367D01*
X94325104Y43814500D01*
X93972834Y43376483D01*
X93815000Y42837000D01*
X14604283Y42837000D01*
X14604283Y43939000D01*
X14560563Y44171352D01*
X14423243Y44384753D01*
X14213717Y44527917D01*
X14192000Y44532315D01*
X14192000Y46523430D01*
X14197352Y46524437D01*
X14341595Y46617255D01*
X94421861Y46617255D01*
X94495995Y46371136D01*
X95033223Y46178035D01*
X95603454Y46205222D01*
X96004005Y46371136D01*
X96078139Y46617255D01*
X95250000Y47445395D01*
X94421861Y46617255D01*
X14341595Y46617255D01*
X14410753Y46661757D01*
X14553917Y46871283D01*
X14604283Y47120000D01*
X14604283Y47841777D01*
X93803035Y47841777D01*
X93830222Y47271546D01*
X93996136Y46870995D01*
X94242255Y46796861D01*
X95070395Y47625000D01*
X95429605Y47625000D01*
X96257745Y46796861D01*
X96503864Y46870995D01*
X96696965Y47408223D01*
X96669778Y47978454D01*
X96503864Y48379005D01*
X96257745Y48453139D01*
X95429605Y47625000D01*
X95070395Y47625000D01*
X94242255Y48453139D01*
X93996136Y48379005D01*
X93803035Y47841777D01*
X14604283Y47841777D01*
X14604283Y49920000D01*
X14560563Y50152352D01*
X14476836Y50282468D01*
X21887073Y50282468D01*
X21985736Y50015613D01*
X22595461Y49789092D01*
X23245460Y49813144D01*
X23734264Y50015613D01*
X23832927Y50282468D01*
X42842073Y50282468D01*
X42940736Y50015613D01*
X43550461Y49789092D01*
X44200460Y49813144D01*
X44689264Y50015613D01*
X44787927Y50282468D01*
X44741135Y50329260D01*
X70012588Y50329260D01*
X70373703Y49455297D01*
X71041780Y48786053D01*
X71915111Y48423414D01*
X72860740Y48422588D01*
X73734703Y48783703D01*
X74403947Y49451780D01*
X74766586Y50325111D01*
X74766889Y50673000D01*
X93815000Y50673000D01*
X93815000Y49873000D01*
X93972834Y49333517D01*
X94325104Y48895500D01*
X94476111Y48812852D01*
X94421861Y48632745D01*
X95250000Y47804605D01*
X96078139Y48632745D01*
X96023889Y48812852D01*
X96174896Y48895500D01*
X96527166Y49333517D01*
X96685000Y49873000D01*
X96685000Y50673000D01*
X95377000Y50673000D01*
X95377000Y50653000D01*
X95123000Y50653000D01*
X95123000Y50673000D01*
X93815000Y50673000D01*
X74766889Y50673000D01*
X74767412Y51270740D01*
X74578889Y51727000D01*
X93815000Y51727000D01*
X93815000Y50927000D01*
X95123000Y50927000D01*
X95123000Y52869915D01*
X95377000Y52869915D01*
X95377000Y50927000D01*
X96685000Y50927000D01*
X96685000Y51727000D01*
X96527166Y52266483D01*
X96174896Y52704500D01*
X95681819Y52974367D01*
X95599039Y52991904D01*
X95377000Y52869915D01*
X95123000Y52869915D01*
X94900961Y52991904D01*
X94818181Y52974367D01*
X94325104Y52704500D01*
X93972834Y52266483D01*
X93815000Y51727000D01*
X74578889Y51727000D01*
X74406297Y52144703D01*
X73738220Y52813947D01*
X72864889Y53176586D01*
X71919260Y53177412D01*
X71045297Y52816297D01*
X70376053Y52148220D01*
X70013414Y51274889D01*
X70012588Y50329260D01*
X44741135Y50329260D01*
X43815000Y51255395D01*
X42842073Y50282468D01*
X23832927Y50282468D01*
X22860000Y51255395D01*
X21887073Y50282468D01*
X14476836Y50282468D01*
X14423243Y50365753D01*
X14213717Y50508917D01*
X13965000Y50559283D01*
X12505984Y50559283D01*
X12065000Y50647000D01*
X11624016Y50559283D01*
X10165000Y50559283D01*
X9932648Y50515563D01*
X9719247Y50378243D01*
X9576083Y50168717D01*
X9525717Y49920000D01*
X9525717Y47120000D01*
X9569437Y46887648D01*
X9706757Y46674247D01*
X9916283Y46531083D01*
X9938000Y46526685D01*
X9938000Y45307000D01*
X7112000Y45307000D01*
X6298032Y45145092D01*
X5792042Y44807000D01*
X5656607Y44807000D01*
X5722166Y44888517D01*
X5880000Y45428000D01*
X5880000Y46228000D01*
X4572000Y46228000D01*
X4572000Y46208000D01*
X4318000Y46208000D01*
X4318000Y46228000D01*
X3010000Y46228000D01*
X3010000Y45428000D01*
X3167834Y44888517D01*
X3504054Y44470457D01*
X3294537Y44330463D01*
X2941848Y43802626D01*
X2818000Y43180000D01*
X1727000Y43180000D01*
X1727000Y47282000D01*
X3010000Y47282000D01*
X3010000Y46482000D01*
X4318000Y46482000D01*
X4318000Y48424915D01*
X4572000Y48424915D01*
X4572000Y46482000D01*
X5880000Y46482000D01*
X5880000Y47282000D01*
X5722166Y47821483D01*
X5369896Y48259500D01*
X4876819Y48529367D01*
X4794039Y48546904D01*
X4572000Y48424915D01*
X4318000Y48424915D01*
X4095961Y48546904D01*
X4013181Y48529367D01*
X3520104Y48259500D01*
X3167834Y47821483D01*
X3010000Y47282000D01*
X1727000Y47282000D01*
X1727000Y51699539D01*
X21214092Y51699539D01*
X21238144Y51049540D01*
X21440613Y50560736D01*
X21707468Y50462073D01*
X22680395Y51435000D01*
X23039605Y51435000D01*
X24012532Y50462073D01*
X24279387Y50560736D01*
X24505908Y51170461D01*
X24492595Y51530250D01*
X33883000Y51530250D01*
X33883000Y51039690D01*
X33979673Y50806301D01*
X34158302Y50627673D01*
X34391691Y50531000D01*
X34682250Y50531000D01*
X34841000Y50689750D01*
X34841000Y51689000D01*
X34041750Y51689000D01*
X33883000Y51530250D01*
X24492595Y51530250D01*
X24481856Y51820460D01*
X24279387Y52309264D01*
X24012532Y52407927D01*
X23039605Y51435000D01*
X22680395Y51435000D01*
X21707468Y52407927D01*
X21440613Y52309264D01*
X21214092Y51699539D01*
X1727000Y51699539D01*
X1727000Y55256844D01*
X1727200Y55258000D01*
X1727200Y80440405D01*
X34103988Y80440405D01*
X34290394Y79989269D01*
X34635253Y79643807D01*
X35086064Y79456614D01*
X35574195Y79456188D01*
X36025331Y79642594D01*
X36370793Y79987453D01*
X36557986Y80438264D01*
X36558412Y80926395D01*
X36372006Y81377531D01*
X36158200Y81591711D01*
X36158200Y82032468D01*
X51732073Y82032468D01*
X51830736Y81765613D01*
X52440461Y81539092D01*
X53090460Y81563144D01*
X53579264Y81765613D01*
X53677927Y82032468D01*
X52705000Y83005395D01*
X51732073Y82032468D01*
X36158200Y82032468D01*
X36158200Y83069250D01*
X48245000Y83069250D01*
X48245000Y82778691D01*
X48341673Y82545302D01*
X48520301Y82366673D01*
X48753690Y82270000D01*
X49244250Y82270000D01*
X49403000Y82428750D01*
X49403000Y83228000D01*
X49657000Y83228000D01*
X49657000Y82428750D01*
X49815750Y82270000D01*
X50306310Y82270000D01*
X50539699Y82366673D01*
X50718327Y82545302D01*
X50815000Y82778691D01*
X50815000Y83069250D01*
X50656250Y83228000D01*
X49657000Y83228000D01*
X49403000Y83228000D01*
X48403750Y83228000D01*
X48245000Y83069250D01*
X36158200Y83069250D01*
X36158200Y83449539D01*
X51059092Y83449539D01*
X51083144Y82799540D01*
X51285613Y82310736D01*
X51552468Y82212073D01*
X52525395Y83185000D01*
X52884605Y83185000D01*
X53857532Y82212073D01*
X54124387Y82310736D01*
X54350908Y82920461D01*
X54345403Y83069250D01*
X54595000Y83069250D01*
X54595000Y82778691D01*
X54691673Y82545302D01*
X54870301Y82366673D01*
X55103690Y82270000D01*
X55594250Y82270000D01*
X55753000Y82428750D01*
X55753000Y83228000D01*
X56007000Y83228000D01*
X56007000Y82428750D01*
X56165750Y82270000D01*
X56656310Y82270000D01*
X56889699Y82366673D01*
X57068327Y82545302D01*
X57165000Y82778691D01*
X57165000Y83069250D01*
X57006250Y83228000D01*
X56007000Y83228000D01*
X55753000Y83228000D01*
X54753750Y83228000D01*
X54595000Y83069250D01*
X54345403Y83069250D01*
X54326856Y83570460D01*
X54124387Y84059264D01*
X53857532Y84157927D01*
X52884605Y83185000D01*
X52525395Y83185000D01*
X51552468Y84157927D01*
X51285613Y84059264D01*
X51059092Y83449539D01*
X36158200Y83449539D01*
X36158200Y89002246D01*
X36765954Y89610000D01*
X51193846Y89610000D01*
X51878000Y88925846D01*
X51878000Y88103708D01*
X51784582Y88065108D01*
X51781469Y88062000D01*
X50660000Y88062000D01*
X50133045Y87957182D01*
X49686314Y87658686D01*
X48593073Y86565445D01*
X48434247Y86463243D01*
X48291083Y86253717D01*
X48240717Y86005000D01*
X48240717Y85995983D01*
X48153000Y85555000D01*
X48240717Y85114017D01*
X48240717Y85105000D01*
X48284437Y84872648D01*
X48421757Y84659247D01*
X48631283Y84516083D01*
X48663791Y84509500D01*
X48767805Y84440000D01*
X48753690Y84440000D01*
X48520301Y84343327D01*
X48341673Y84164698D01*
X48245000Y83931309D01*
X48245000Y83640750D01*
X48403750Y83482000D01*
X49403000Y83482000D01*
X49403000Y83502000D01*
X49657000Y83502000D01*
X49657000Y83482000D01*
X50656250Y83482000D01*
X50815000Y83640750D01*
X50815000Y83931309D01*
X50718327Y84164698D01*
X50545494Y84337532D01*
X51732073Y84337532D01*
X52705000Y83364605D01*
X53677927Y84337532D01*
X53579264Y84604387D01*
X52969539Y84830908D01*
X52319540Y84806856D01*
X51830736Y84604387D01*
X51732073Y84337532D01*
X50545494Y84337532D01*
X50539699Y84343327D01*
X50306310Y84440000D01*
X50292195Y84440000D01*
X50389749Y84505184D01*
X50412352Y84509437D01*
X50625753Y84646757D01*
X50747909Y84825537D01*
X51230372Y85308000D01*
X51780679Y85308000D01*
X51782175Y85306501D01*
X52379950Y85058283D01*
X53027211Y85057718D01*
X53625418Y85304892D01*
X53628531Y85308000D01*
X54179628Y85308000D01*
X54669555Y84818073D01*
X54771757Y84659247D01*
X54981283Y84516083D01*
X55013791Y84509500D01*
X55117805Y84440000D01*
X55103690Y84440000D01*
X54870301Y84343327D01*
X54691673Y84164698D01*
X54595000Y83931309D01*
X54595000Y83640750D01*
X54753750Y83482000D01*
X55753000Y83482000D01*
X55753000Y83502000D01*
X56007000Y83502000D01*
X56007000Y83482000D01*
X57006250Y83482000D01*
X57165000Y83640750D01*
X57165000Y83931309D01*
X57068327Y84164698D01*
X56889699Y84343327D01*
X56656310Y84440000D01*
X56642195Y84440000D01*
X56739749Y84505184D01*
X56762352Y84509437D01*
X56975753Y84646757D01*
X57118917Y84856283D01*
X57169283Y85105000D01*
X57169283Y85114017D01*
X57257000Y85555000D01*
X57169283Y85995983D01*
X57169283Y86005000D01*
X57125563Y86237352D01*
X56988243Y86450753D01*
X56809463Y86572909D01*
X55723686Y87658686D01*
X55276955Y87957182D01*
X54750000Y88062000D01*
X53629321Y88062000D01*
X53627825Y88063499D01*
X53532000Y88103289D01*
X53532000Y89268400D01*
X53469048Y89584879D01*
X53289777Y89853177D01*
X52121177Y91021777D01*
X51852879Y91201048D01*
X51536400Y91264000D01*
X36423400Y91264000D01*
X36106921Y91201048D01*
X35838623Y91021777D01*
X34746423Y89929577D01*
X34567152Y89661279D01*
X34504200Y89344800D01*
X34504200Y81591569D01*
X34291607Y81379347D01*
X34104414Y80928536D01*
X34103988Y80440405D01*
X1727200Y80440405D01*
X1727200Y81685005D01*
X6214788Y81685005D01*
X6401194Y81233869D01*
X6746053Y80888407D01*
X7196864Y80701214D01*
X7684995Y80700788D01*
X8136131Y80887194D01*
X8481593Y81232053D01*
X8668786Y81682864D01*
X8669212Y82170995D01*
X8482806Y82622131D01*
X8282819Y82822468D01*
X23157073Y82822468D01*
X23255736Y82555613D01*
X23865461Y82329092D01*
X24515460Y82353144D01*
X25004264Y82555613D01*
X25102927Y82822468D01*
X24130000Y83795395D01*
X23157073Y82822468D01*
X8282819Y82822468D01*
X8269000Y82836311D01*
X8269000Y83855425D01*
X19855261Y83855425D01*
X19855261Y83564866D01*
X19951934Y83331477D01*
X20130562Y83152848D01*
X20363951Y83056175D01*
X20854511Y83056175D01*
X21013261Y83214925D01*
X21013261Y84014175D01*
X21267261Y84014175D01*
X21267261Y83214925D01*
X21426011Y83056175D01*
X21916571Y83056175D01*
X22149960Y83152848D01*
X22328588Y83331477D01*
X22425261Y83564866D01*
X22425261Y83855425D01*
X22266511Y84014175D01*
X21267261Y84014175D01*
X21013261Y84014175D01*
X20014011Y84014175D01*
X19855261Y83855425D01*
X8269000Y83855425D01*
X8269000Y84239539D01*
X22484092Y84239539D01*
X22508144Y83589540D01*
X22710613Y83100736D01*
X22977468Y83002073D01*
X23950395Y83975000D01*
X24309605Y83975000D01*
X25282532Y83002073D01*
X25549387Y83100736D01*
X25775908Y83710461D01*
X25770544Y83855425D01*
X26205261Y83855425D01*
X26205261Y83564866D01*
X26301934Y83331477D01*
X26480562Y83152848D01*
X26713951Y83056175D01*
X27204511Y83056175D01*
X27363261Y83214925D01*
X27363261Y84014175D01*
X27617261Y84014175D01*
X27617261Y83214925D01*
X27776011Y83056175D01*
X28266571Y83056175D01*
X28499960Y83152848D01*
X28678588Y83331477D01*
X28775261Y83564866D01*
X28775261Y83855425D01*
X28616511Y84014175D01*
X27617261Y84014175D01*
X27363261Y84014175D01*
X26364011Y84014175D01*
X26205261Y83855425D01*
X25770544Y83855425D01*
X25751856Y84360460D01*
X25549387Y84849264D01*
X25282532Y84947927D01*
X24309605Y83975000D01*
X23950395Y83975000D01*
X22977468Y84947927D01*
X22710613Y84849264D01*
X22484092Y84239539D01*
X8269000Y84239539D01*
X8269000Y90221446D01*
X9562555Y91515000D01*
X21958446Y91515000D01*
X23303000Y90170445D01*
X23303000Y88893708D01*
X23209582Y88855108D01*
X23206469Y88852000D01*
X22274086Y88852000D01*
X21747131Y88747182D01*
X21300400Y88448686D01*
X20203334Y87351620D01*
X20044508Y87249418D01*
X19901344Y87039892D01*
X19850978Y86791175D01*
X19850978Y86782158D01*
X19763261Y86341175D01*
X19850978Y85900192D01*
X19850978Y85891175D01*
X19894698Y85658823D01*
X20032018Y85445422D01*
X20241544Y85302258D01*
X20274052Y85295675D01*
X20378066Y85226175D01*
X20363951Y85226175D01*
X20130562Y85129502D01*
X19951934Y84950873D01*
X19855261Y84717484D01*
X19855261Y84426925D01*
X20014011Y84268175D01*
X21013261Y84268175D01*
X21013261Y84288175D01*
X21267261Y84288175D01*
X21267261Y84268175D01*
X22266511Y84268175D01*
X22425261Y84426925D01*
X22425261Y84717484D01*
X22328588Y84950873D01*
X22151930Y85127532D01*
X23157073Y85127532D01*
X24130000Y84154605D01*
X25102927Y85127532D01*
X25004264Y85394387D01*
X24394539Y85620908D01*
X23744540Y85596856D01*
X23255736Y85394387D01*
X23157073Y85127532D01*
X22151930Y85127532D01*
X22149960Y85129502D01*
X21916571Y85226175D01*
X21902456Y85226175D01*
X22000010Y85291359D01*
X22022613Y85295612D01*
X22236014Y85432932D01*
X22358170Y85611712D01*
X22844458Y86098000D01*
X23205679Y86098000D01*
X23207175Y86096501D01*
X23804950Y85848283D01*
X24452211Y85847718D01*
X25050418Y86094892D01*
X25053531Y86098000D01*
X25786064Y86098000D01*
X26279816Y85604248D01*
X26382018Y85445422D01*
X26591544Y85302258D01*
X26624052Y85295675D01*
X26728066Y85226175D01*
X26713951Y85226175D01*
X26480562Y85129502D01*
X26301934Y84950873D01*
X26205261Y84717484D01*
X26205261Y84426925D01*
X26364011Y84268175D01*
X27363261Y84268175D01*
X27363261Y84288175D01*
X27617261Y84288175D01*
X27617261Y84268175D01*
X28616511Y84268175D01*
X28775261Y84426925D01*
X28775261Y84717484D01*
X28678588Y84950873D01*
X28499960Y85129502D01*
X28266571Y85226175D01*
X28252456Y85226175D01*
X28350010Y85291359D01*
X28372613Y85295612D01*
X28586014Y85432932D01*
X28729178Y85642458D01*
X28779544Y85891175D01*
X28779544Y85900192D01*
X28867261Y86341175D01*
X28779544Y86782158D01*
X28779544Y86791175D01*
X28735824Y87023527D01*
X28598504Y87236928D01*
X28419724Y87359084D01*
X27330122Y88448686D01*
X26883391Y88747182D01*
X26356436Y88852000D01*
X25054321Y88852000D01*
X25052825Y88853499D01*
X24957000Y88893289D01*
X24957000Y90513000D01*
X24894048Y90829479D01*
X24765559Y91021777D01*
X24714778Y91097777D01*
X22885777Y92926777D01*
X22617479Y93106048D01*
X22301000Y93169000D01*
X9220000Y93169000D01*
X8903521Y93106048D01*
X8635223Y92926778D01*
X6857223Y91148777D01*
X6677952Y90880479D01*
X6615000Y90564000D01*
X6615000Y82836169D01*
X6402407Y82623947D01*
X6215214Y82173136D01*
X6214788Y81685005D01*
X1727200Y81685005D01*
X1727200Y94578770D01*
X2872632Y94578770D01*
X3195766Y93796726D01*
X3793578Y93197869D01*
X4575057Y92873370D01*
X5421230Y92872632D01*
X6203274Y93195766D01*
X6802131Y93793578D01*
X7126630Y94575057D01*
X7127218Y95250000D01*
X16779370Y95250000D01*
X16887994Y94703911D01*
X17197329Y94240959D01*
X17660281Y93931624D01*
X18206370Y93823000D01*
X19893630Y93823000D01*
X20439719Y93931624D01*
X20902671Y94240959D01*
X21028287Y94428957D01*
X21415614Y94040953D01*
X21939907Y93823248D01*
X22507603Y93822752D01*
X23032275Y94039543D01*
X23434047Y94440614D01*
X23625199Y94900961D01*
X25748096Y94900961D01*
X25765633Y94818181D01*
X26035500Y94325104D01*
X26473517Y93972834D01*
X27013000Y93815000D01*
X27813000Y93815000D01*
X27813000Y95123000D01*
X25870085Y95123000D01*
X25748096Y94900961D01*
X23625199Y94900961D01*
X23651752Y94964907D01*
X23652248Y95532603D01*
X23624798Y95599039D01*
X25748096Y95599039D01*
X25870085Y95377000D01*
X27813000Y95377000D01*
X27813000Y96685000D01*
X28067000Y96685000D01*
X28067000Y95377000D01*
X28087000Y95377000D01*
X28087000Y95123000D01*
X28067000Y95123000D01*
X28067000Y93815000D01*
X28867000Y93815000D01*
X29406483Y93972834D01*
X29741484Y94242255D01*
X30286861Y94242255D01*
X30360995Y93996136D01*
X30898223Y93803035D01*
X31468454Y93830222D01*
X31869005Y93996136D01*
X31943139Y94242255D01*
X31115000Y95070395D01*
X30286861Y94242255D01*
X29741484Y94242255D01*
X29844500Y94325104D01*
X29927148Y94476111D01*
X30107255Y94421861D01*
X30935395Y95250000D01*
X31294605Y95250000D01*
X32122745Y94421861D01*
X32368864Y94495995D01*
X32514424Y94900961D01*
X34638096Y94900961D01*
X34655633Y94818181D01*
X34925500Y94325104D01*
X35363517Y93972834D01*
X35903000Y93815000D01*
X36703000Y93815000D01*
X36703000Y95123000D01*
X34760085Y95123000D01*
X34638096Y94900961D01*
X32514424Y94900961D01*
X32561965Y95033223D01*
X32534989Y95599039D01*
X34638096Y95599039D01*
X34760085Y95377000D01*
X36703000Y95377000D01*
X36703000Y96685000D01*
X36957000Y96685000D01*
X36957000Y95377000D01*
X36977000Y95377000D01*
X36977000Y95123000D01*
X36957000Y95123000D01*
X36957000Y93815000D01*
X37757000Y93815000D01*
X38296483Y93972834D01*
X38631484Y94242255D01*
X39176861Y94242255D01*
X39250995Y93996136D01*
X39788223Y93803035D01*
X40358454Y93830222D01*
X40759005Y93996136D01*
X40833139Y94242255D01*
X40005000Y95070395D01*
X39176861Y94242255D01*
X38631484Y94242255D01*
X38734500Y94325104D01*
X38817148Y94476111D01*
X38997255Y94421861D01*
X39825395Y95250000D01*
X40184605Y95250000D01*
X41012745Y94421861D01*
X41258864Y94495995D01*
X41451965Y95033223D01*
X41441630Y95250000D01*
X43449370Y95250000D01*
X43557994Y94703911D01*
X43867329Y94240959D01*
X44330281Y93931624D01*
X44876370Y93823000D01*
X46563630Y93823000D01*
X47109719Y93931624D01*
X47572671Y94240959D01*
X47698287Y94428957D01*
X48085614Y94040953D01*
X48609907Y93823248D01*
X49177603Y93822752D01*
X49702275Y94039543D01*
X50104047Y94440614D01*
X50321752Y94964907D01*
X50322248Y95532603D01*
X50105457Y96057275D01*
X49704386Y96459047D01*
X49180093Y96676752D01*
X48612397Y96677248D01*
X48087725Y96460457D01*
X47698025Y96071436D01*
X47572671Y96259041D01*
X47109719Y96568376D01*
X46563630Y96677000D01*
X44876370Y96677000D01*
X44330281Y96568376D01*
X43867329Y96259041D01*
X43557994Y95796089D01*
X43449370Y95250000D01*
X41441630Y95250000D01*
X41424778Y95603454D01*
X41258864Y96004005D01*
X41012745Y96078139D01*
X40184605Y95250000D01*
X39825395Y95250000D01*
X38997255Y96078139D01*
X38817148Y96023889D01*
X38734500Y96174896D01*
X38631485Y96257745D01*
X39176861Y96257745D01*
X40005000Y95429605D01*
X40833139Y96257745D01*
X40759005Y96503864D01*
X40221777Y96696965D01*
X39651546Y96669778D01*
X39250995Y96503864D01*
X39176861Y96257745D01*
X38631485Y96257745D01*
X38296483Y96527166D01*
X37757000Y96685000D01*
X36957000Y96685000D01*
X36703000Y96685000D01*
X35903000Y96685000D01*
X35363517Y96527166D01*
X34925500Y96174896D01*
X34655633Y95681819D01*
X34638096Y95599039D01*
X32534989Y95599039D01*
X32534778Y95603454D01*
X32368864Y96004005D01*
X32122745Y96078139D01*
X31294605Y95250000D01*
X30935395Y95250000D01*
X30107255Y96078139D01*
X29927148Y96023889D01*
X29844500Y96174896D01*
X29741485Y96257745D01*
X30286861Y96257745D01*
X31115000Y95429605D01*
X31943139Y96257745D01*
X31869005Y96503864D01*
X31331777Y96696965D01*
X30761546Y96669778D01*
X30360995Y96503864D01*
X30286861Y96257745D01*
X29741485Y96257745D01*
X29406483Y96527166D01*
X28867000Y96685000D01*
X28067000Y96685000D01*
X27813000Y96685000D01*
X27013000Y96685000D01*
X26473517Y96527166D01*
X26035500Y96174896D01*
X25765633Y95681819D01*
X25748096Y95599039D01*
X23624798Y95599039D01*
X23435457Y96057275D01*
X23034386Y96459047D01*
X22510093Y96676752D01*
X21942397Y96677248D01*
X21417725Y96460457D01*
X21028025Y96071436D01*
X20902671Y96259041D01*
X20439719Y96568376D01*
X19893630Y96677000D01*
X18206370Y96677000D01*
X17660281Y96568376D01*
X17197329Y96259041D01*
X16887994Y95796089D01*
X16779370Y95250000D01*
X7127218Y95250000D01*
X7127368Y95421230D01*
X6804234Y96203274D01*
X6206422Y96802131D01*
X5424943Y97126630D01*
X4578770Y97127368D01*
X3796726Y96804234D01*
X3197869Y96206422D01*
X2873370Y95424943D01*
X2872632Y94578770D01*
X1727200Y94578770D01*
X1727200Y99073000D01*
X59893000Y99073000D01*
X59893000Y65037000D01*
G36*
X32461000Y59451000D02*
X32205750Y59451000D01*
X32047000Y59292250D01*
X32047000Y58293000D01*
X32067000Y58293000D01*
X32067000Y58039000D01*
X32047000Y58039000D01*
X32047000Y57039750D01*
X32205750Y56881000D01*
X32461000Y56881000D01*
X32461000Y55385000D01*
X27708026Y55385000D01*
X27858327Y55535302D01*
X27955000Y55768691D01*
X27955000Y56059250D01*
X27796250Y56218000D01*
X26797000Y56218000D01*
X26797000Y56198000D01*
X26543000Y56198000D01*
X26543000Y56218000D01*
X25543750Y56218000D01*
X25385000Y56059250D01*
X25385000Y55768691D01*
X25481673Y55535302D01*
X25631974Y55385000D01*
X23898026Y55385000D01*
X24048327Y55535302D01*
X24145000Y55768691D01*
X24145000Y56059250D01*
X23986250Y56218000D01*
X22987000Y56218000D01*
X22987000Y56198000D01*
X22733000Y56198000D01*
X22733000Y56218000D01*
X21733750Y56218000D01*
X21575000Y56059250D01*
X21575000Y55768691D01*
X21671673Y55535302D01*
X21821974Y55385000D01*
X20088026Y55385000D01*
X20238327Y55535302D01*
X20335000Y55768691D01*
X20335000Y56059250D01*
X20176250Y56218000D01*
X19177000Y56218000D01*
X19177000Y56198000D01*
X18923000Y56198000D01*
X18923000Y56218000D01*
X17923750Y56218000D01*
X17765000Y56059250D01*
X17765000Y55768691D01*
X17861673Y55535302D01*
X18011974Y55385000D01*
X14549250Y55385000D01*
X14441250Y55493000D01*
X12192000Y55493000D01*
X12192000Y55473000D01*
X11938000Y55473000D01*
X11938000Y55493000D01*
X9688750Y55493000D01*
X9580750Y55385000D01*
X8077000Y55385000D01*
X8077000Y57146309D01*
X9530000Y57146309D01*
X9530000Y55905750D01*
X9688750Y55747000D01*
X11938000Y55747000D01*
X11938000Y57496250D01*
X12192000Y57496250D01*
X12192000Y55747000D01*
X14441250Y55747000D01*
X14600000Y55905750D01*
X14600000Y56921309D01*
X17765000Y56921309D01*
X17765000Y56630750D01*
X17923750Y56472000D01*
X18923000Y56472000D01*
X18923000Y57271250D01*
X19177000Y57271250D01*
X19177000Y56472000D01*
X20176250Y56472000D01*
X20335000Y56630750D01*
X20335000Y56921309D01*
X21575000Y56921309D01*
X21575000Y56630750D01*
X21733750Y56472000D01*
X22733000Y56472000D01*
X22733000Y56492000D01*
X22987000Y56492000D01*
X22987000Y56472000D01*
X23986250Y56472000D01*
X24145000Y56630750D01*
X24145000Y56921309D01*
X25385000Y56921309D01*
X25385000Y56630750D01*
X25543750Y56472000D01*
X26543000Y56472000D01*
X26543000Y57271250D01*
X26797000Y57271250D01*
X26797000Y56472000D01*
X27796250Y56472000D01*
X27955000Y56630750D01*
X27955000Y56921309D01*
X27858327Y57154698D01*
X27679699Y57333327D01*
X27446310Y57430000D01*
X26955750Y57430000D01*
X26797000Y57271250D01*
X26543000Y57271250D01*
X26384250Y57430000D01*
X25893690Y57430000D01*
X25660301Y57333327D01*
X25481673Y57154698D01*
X25385000Y56921309D01*
X24145000Y56921309D01*
X24048327Y57154698D01*
X23869699Y57333327D01*
X23636310Y57430000D01*
X23527576Y57430000D01*
X23734264Y57515613D01*
X23832927Y57782468D01*
X23735145Y57880250D01*
X30835000Y57880250D01*
X30835000Y57389690D01*
X30931673Y57156301D01*
X31110302Y56977673D01*
X31343691Y56881000D01*
X31634250Y56881000D01*
X31793000Y57039750D01*
X31793000Y58039000D01*
X30993750Y58039000D01*
X30835000Y57880250D01*
X23735145Y57880250D01*
X22860000Y58755395D01*
X21887073Y57782468D01*
X21985736Y57515613D01*
X22216180Y57430000D01*
X22083690Y57430000D01*
X21850301Y57333327D01*
X21671673Y57154698D01*
X21575000Y56921309D01*
X20335000Y56921309D01*
X20238327Y57154698D01*
X20059699Y57333327D01*
X19826310Y57430000D01*
X19335750Y57430000D01*
X19177000Y57271250D01*
X18923000Y57271250D01*
X18764250Y57430000D01*
X18273690Y57430000D01*
X18040301Y57333327D01*
X17861673Y57154698D01*
X17765000Y56921309D01*
X14600000Y56921309D01*
X14600000Y57146309D01*
X14503327Y57379698D01*
X14324699Y57558327D01*
X14091310Y57655000D01*
X12350750Y57655000D01*
X12192000Y57496250D01*
X11938000Y57496250D01*
X11779250Y57655000D01*
X10038690Y57655000D01*
X9805301Y57558327D01*
X9626673Y57379698D01*
X9530000Y57146309D01*
X8077000Y57146309D01*
X8077000Y59199539D01*
X21214092Y59199539D01*
X21238144Y58549540D01*
X21440613Y58060736D01*
X21707468Y57962073D01*
X22680395Y58935000D01*
X23039605Y58935000D01*
X24012532Y57962073D01*
X24279387Y58060736D01*
X24505908Y58670461D01*
X24495849Y58942310D01*
X30835000Y58942310D01*
X30835000Y58451750D01*
X30993750Y58293000D01*
X31793000Y58293000D01*
X31793000Y59292250D01*
X31634250Y59451000D01*
X31343691Y59451000D01*
X31110302Y59354327D01*
X30931673Y59175699D01*
X30835000Y58942310D01*
X24495849Y58942310D01*
X24481856Y59320460D01*
X24279387Y59809264D01*
X24012532Y59907927D01*
X23039605Y58935000D01*
X22680395Y58935000D01*
X21707468Y59907927D01*
X21440613Y59809264D01*
X21214092Y59199539D01*
X8077000Y59199539D01*
X8077000Y60087532D01*
X21887073Y60087532D01*
X22860000Y59114605D01*
X23832927Y60087532D01*
X23734264Y60354387D01*
X23124539Y60580908D01*
X22474540Y60556856D01*
X21985736Y60354387D01*
X21887073Y60087532D01*
X8077000Y60087532D01*
X8077000Y62243000D01*
X32461000Y62243000D01*
X32461000Y59451000D01*
X32461000Y59451000D01*
G37*
X32461000Y59451000D02*
X32205750Y59451000D01*
X32047000Y59292250D01*
X32047000Y58293000D01*
X32067000Y58293000D01*
X32067000Y58039000D01*
X32047000Y58039000D01*
X32047000Y57039750D01*
X32205750Y56881000D01*
X32461000Y56881000D01*
X32461000Y55385000D01*
X27708026Y55385000D01*
X27858327Y55535302D01*
X27955000Y55768691D01*
X27955000Y56059250D01*
X27796250Y56218000D01*
X26797000Y56218000D01*
X26797000Y56198000D01*
X26543000Y56198000D01*
X26543000Y56218000D01*
X25543750Y56218000D01*
X25385000Y56059250D01*
X25385000Y55768691D01*
X25481673Y55535302D01*
X25631974Y55385000D01*
X23898026Y55385000D01*
X24048327Y55535302D01*
X24145000Y55768691D01*
X24145000Y56059250D01*
X23986250Y56218000D01*
X22987000Y56218000D01*
X22987000Y56198000D01*
X22733000Y56198000D01*
X22733000Y56218000D01*
X21733750Y56218000D01*
X21575000Y56059250D01*
X21575000Y55768691D01*
X21671673Y55535302D01*
X21821974Y55385000D01*
X20088026Y55385000D01*
X20238327Y55535302D01*
X20335000Y55768691D01*
X20335000Y56059250D01*
X20176250Y56218000D01*
X19177000Y56218000D01*
X19177000Y56198000D01*
X18923000Y56198000D01*
X18923000Y56218000D01*
X17923750Y56218000D01*
X17765000Y56059250D01*
X17765000Y55768691D01*
X17861673Y55535302D01*
X18011974Y55385000D01*
X14549250Y55385000D01*
X14441250Y55493000D01*
X12192000Y55493000D01*
X12192000Y55473000D01*
X11938000Y55473000D01*
X11938000Y55493000D01*
X9688750Y55493000D01*
X9580750Y55385000D01*
X8077000Y55385000D01*
X8077000Y57146309D01*
X9530000Y57146309D01*
X9530000Y55905750D01*
X9688750Y55747000D01*
X11938000Y55747000D01*
X11938000Y57496250D01*
X12192000Y57496250D01*
X12192000Y55747000D01*
X14441250Y55747000D01*
X14600000Y55905750D01*
X14600000Y56921309D01*
X17765000Y56921309D01*
X17765000Y56630750D01*
X17923750Y56472000D01*
X18923000Y56472000D01*
X18923000Y57271250D01*
X19177000Y57271250D01*
X19177000Y56472000D01*
X20176250Y56472000D01*
X20335000Y56630750D01*
X20335000Y56921309D01*
X21575000Y56921309D01*
X21575000Y56630750D01*
X21733750Y56472000D01*
X22733000Y56472000D01*
X22733000Y56492000D01*
X22987000Y56492000D01*
X22987000Y56472000D01*
X23986250Y56472000D01*
X24145000Y56630750D01*
X24145000Y56921309D01*
X25385000Y56921309D01*
X25385000Y56630750D01*
X25543750Y56472000D01*
X26543000Y56472000D01*
X26543000Y57271250D01*
X26797000Y57271250D01*
X26797000Y56472000D01*
X27796250Y56472000D01*
X27955000Y56630750D01*
X27955000Y56921309D01*
X27858327Y57154698D01*
X27679699Y57333327D01*
X27446310Y57430000D01*
X26955750Y57430000D01*
X26797000Y57271250D01*
X26543000Y57271250D01*
X26384250Y57430000D01*
X25893690Y57430000D01*
X25660301Y57333327D01*
X25481673Y57154698D01*
X25385000Y56921309D01*
X24145000Y56921309D01*
X24048327Y57154698D01*
X23869699Y57333327D01*
X23636310Y57430000D01*
X23527576Y57430000D01*
X23734264Y57515613D01*
X23832927Y57782468D01*
X23735145Y57880250D01*
X30835000Y57880250D01*
X30835000Y57389690D01*
X30931673Y57156301D01*
X31110302Y56977673D01*
X31343691Y56881000D01*
X31634250Y56881000D01*
X31793000Y57039750D01*
X31793000Y58039000D01*
X30993750Y58039000D01*
X30835000Y57880250D01*
X23735145Y57880250D01*
X22860000Y58755395D01*
X21887073Y57782468D01*
X21985736Y57515613D01*
X22216180Y57430000D01*
X22083690Y57430000D01*
X21850301Y57333327D01*
X21671673Y57154698D01*
X21575000Y56921309D01*
X20335000Y56921309D01*
X20238327Y57154698D01*
X20059699Y57333327D01*
X19826310Y57430000D01*
X19335750Y57430000D01*
X19177000Y57271250D01*
X18923000Y57271250D01*
X18764250Y57430000D01*
X18273690Y57430000D01*
X18040301Y57333327D01*
X17861673Y57154698D01*
X17765000Y56921309D01*
X14600000Y56921309D01*
X14600000Y57146309D01*
X14503327Y57379698D01*
X14324699Y57558327D01*
X14091310Y57655000D01*
X12350750Y57655000D01*
X12192000Y57496250D01*
X11938000Y57496250D01*
X11779250Y57655000D01*
X10038690Y57655000D01*
X9805301Y57558327D01*
X9626673Y57379698D01*
X9530000Y57146309D01*
X8077000Y57146309D01*
X8077000Y59199539D01*
X21214092Y59199539D01*
X21238144Y58549540D01*
X21440613Y58060736D01*
X21707468Y57962073D01*
X22680395Y58935000D01*
X23039605Y58935000D01*
X24012532Y57962073D01*
X24279387Y58060736D01*
X24505908Y58670461D01*
X24495849Y58942310D01*
X30835000Y58942310D01*
X30835000Y58451750D01*
X30993750Y58293000D01*
X31793000Y58293000D01*
X31793000Y59292250D01*
X31634250Y59451000D01*
X31343691Y59451000D01*
X31110302Y59354327D01*
X30931673Y59175699D01*
X30835000Y58942310D01*
X24495849Y58942310D01*
X24481856Y59320460D01*
X24279387Y59809264D01*
X24012532Y59907927D01*
X23039605Y58935000D01*
X22680395Y58935000D01*
X21707468Y59907927D01*
X21440613Y59809264D01*
X21214092Y59199539D01*
X8077000Y59199539D01*
X8077000Y60087532D01*
X21887073Y60087532D01*
X22860000Y59114605D01*
X23832927Y60087532D01*
X23734264Y60354387D01*
X23124539Y60580908D01*
X22474540Y60556856D01*
X21985736Y60354387D01*
X21887073Y60087532D01*
X8077000Y60087532D01*
X8077000Y62243000D01*
X32461000Y62243000D01*
X32461000Y59451000D01*
G36*
X49733000Y55385000D02*
X37281378Y55385000D01*
X37271323Y55387000D01*
X37338002Y55387000D01*
X37338002Y55545748D01*
X37496750Y55387000D01*
X37987310Y55387000D01*
X38220699Y55483673D01*
X38399327Y55662302D01*
X38496000Y55895691D01*
X38496000Y56186250D01*
X38720000Y56186250D01*
X38720000Y55895691D01*
X38816673Y55662302D01*
X38995301Y55483673D01*
X39228690Y55387000D01*
X39719250Y55387000D01*
X39878000Y55545750D01*
X39878000Y56345000D01*
X40132000Y56345000D01*
X40132000Y55545750D01*
X40290750Y55387000D01*
X40781310Y55387000D01*
X41014699Y55483673D01*
X41193327Y55662302D01*
X41290000Y55895691D01*
X41290000Y56186250D01*
X42530000Y56186250D01*
X42530000Y55895691D01*
X42626673Y55662302D01*
X42805301Y55483673D01*
X43038690Y55387000D01*
X43529250Y55387000D01*
X43688000Y55545750D01*
X43688000Y56345000D01*
X43942000Y56345000D01*
X43942000Y55545750D01*
X44100750Y55387000D01*
X44591310Y55387000D01*
X44824699Y55483673D01*
X45003327Y55662302D01*
X45100000Y55895691D01*
X45100000Y56186250D01*
X46340000Y56186250D01*
X46340000Y55895691D01*
X46436673Y55662302D01*
X46615301Y55483673D01*
X46848690Y55387000D01*
X47339250Y55387000D01*
X47498000Y55545750D01*
X47498000Y56345000D01*
X47752000Y56345000D01*
X47752000Y55545750D01*
X47910750Y55387000D01*
X48401310Y55387000D01*
X48634699Y55483673D01*
X48813327Y55662302D01*
X48910000Y55895691D01*
X48910000Y56186250D01*
X48751250Y56345000D01*
X47752000Y56345000D01*
X47498000Y56345000D01*
X46498750Y56345000D01*
X46340000Y56186250D01*
X45100000Y56186250D01*
X44941250Y56345000D01*
X43942000Y56345000D01*
X43688000Y56345000D01*
X42688750Y56345000D01*
X42530000Y56186250D01*
X41290000Y56186250D01*
X41131250Y56345000D01*
X40132000Y56345000D01*
X39878000Y56345000D01*
X38878750Y56345000D01*
X38720000Y56186250D01*
X38496000Y56186250D01*
X38337250Y56345000D01*
X37338000Y56345000D01*
X37338000Y56325000D01*
X37084000Y56325000D01*
X37084000Y56345000D01*
X36084750Y56345000D01*
X35926000Y56186250D01*
X35926000Y55895691D01*
X36022673Y55662302D01*
X36201301Y55483673D01*
X36434690Y55387000D01*
X36925250Y55387000D01*
X37083998Y55545748D01*
X37083998Y55387000D01*
X37150677Y55387000D01*
X37140622Y55385000D01*
X33477000Y55385000D01*
X33477000Y56908624D01*
X33543691Y56881000D01*
X33834250Y56881000D01*
X33993000Y57039750D01*
X33993000Y58039000D01*
X34247000Y58039000D01*
X34247000Y57039750D01*
X34405750Y56881000D01*
X34696309Y56881000D01*
X34929698Y56977673D01*
X35000334Y57048309D01*
X35926000Y57048309D01*
X35926000Y56757750D01*
X36084750Y56599000D01*
X37084000Y56599000D01*
X37084000Y57398250D01*
X37338000Y57398250D01*
X37338000Y56599000D01*
X38337250Y56599000D01*
X38496000Y56757750D01*
X38496000Y57048309D01*
X38720000Y57048309D01*
X38720000Y56757750D01*
X38878750Y56599000D01*
X39878000Y56599000D01*
X39878000Y57398250D01*
X40132000Y57398250D01*
X40132000Y56599000D01*
X41131250Y56599000D01*
X41290000Y56757750D01*
X41290000Y57048309D01*
X42530000Y57048309D01*
X42530000Y56757750D01*
X42688750Y56599000D01*
X43688000Y56599000D01*
X43688000Y56619000D01*
X43942000Y56619000D01*
X43942000Y56599000D01*
X44941250Y56599000D01*
X45100000Y56757750D01*
X45100000Y57048309D01*
X46340000Y57048309D01*
X46340000Y56757750D01*
X46498750Y56599000D01*
X47498000Y56599000D01*
X47498000Y57398250D01*
X47752000Y57398250D01*
X47752000Y56599000D01*
X48751250Y56599000D01*
X48910000Y56757750D01*
X48910000Y57048309D01*
X48813327Y57281698D01*
X48634699Y57460327D01*
X48401310Y57557000D01*
X47910750Y57557000D01*
X47752000Y57398250D01*
X47498000Y57398250D01*
X47339250Y57557000D01*
X46848690Y57557000D01*
X46615301Y57460327D01*
X46436673Y57281698D01*
X46340000Y57048309D01*
X45100000Y57048309D01*
X45003327Y57281698D01*
X44824699Y57460327D01*
X44689525Y57516318D01*
X44787927Y57782468D01*
X43815000Y58755395D01*
X42842073Y57782468D01*
X42940475Y57516318D01*
X42805301Y57460327D01*
X42626673Y57281698D01*
X42530000Y57048309D01*
X41290000Y57048309D01*
X41193327Y57281698D01*
X41014699Y57460327D01*
X40781310Y57557000D01*
X40290750Y57557000D01*
X40132000Y57398250D01*
X39878000Y57398250D01*
X39719250Y57557000D01*
X39228690Y57557000D01*
X38995301Y57460327D01*
X38816673Y57281698D01*
X38720000Y57048309D01*
X38496000Y57048309D01*
X38399327Y57281698D01*
X38220699Y57460327D01*
X37987310Y57557000D01*
X37496750Y57557000D01*
X37338000Y57398250D01*
X37084000Y57398250D01*
X36925250Y57557000D01*
X36434690Y57557000D01*
X36201301Y57460327D01*
X36022673Y57281698D01*
X35926000Y57048309D01*
X35000334Y57048309D01*
X35108327Y57156301D01*
X35205000Y57389690D01*
X35205000Y57880250D01*
X35046250Y58039000D01*
X34247000Y58039000D01*
X33993000Y58039000D01*
X33973000Y58039000D01*
X33973000Y58293000D01*
X33993000Y58293000D01*
X33993000Y59292250D01*
X34247000Y59292250D01*
X34247000Y58293000D01*
X35046250Y58293000D01*
X35205000Y58451750D01*
X35205000Y58942310D01*
X35108327Y59175699D01*
X35084487Y59199539D01*
X42169092Y59199539D01*
X42193144Y58549540D01*
X42395613Y58060736D01*
X42662468Y57962073D01*
X43635395Y58935000D01*
X43994605Y58935000D01*
X44967532Y57962073D01*
X45234387Y58060736D01*
X45460908Y58670461D01*
X45436856Y59320460D01*
X45234387Y59809264D01*
X44967532Y59907927D01*
X43994605Y58935000D01*
X43635395Y58935000D01*
X42662468Y59907927D01*
X42395613Y59809264D01*
X42169092Y59199539D01*
X35084487Y59199539D01*
X34929698Y59354327D01*
X34696309Y59451000D01*
X34405750Y59451000D01*
X34247000Y59292250D01*
X33993000Y59292250D01*
X33834250Y59451000D01*
X33543691Y59451000D01*
X33477000Y59423376D01*
X33477000Y60087532D01*
X42842073Y60087532D01*
X43815000Y59114605D01*
X44787927Y60087532D01*
X44689264Y60354387D01*
X44079539Y60580908D01*
X43429540Y60556856D01*
X42940736Y60354387D01*
X42842073Y60087532D01*
X33477000Y60087532D01*
X33477000Y60973000D01*
X49733000Y60973000D01*
X49733000Y55385000D01*
X49733000Y55385000D01*
G37*
X49733000Y55385000D02*
X37281378Y55385000D01*
X37271323Y55387000D01*
X37338002Y55387000D01*
X37338002Y55545748D01*
X37496750Y55387000D01*
X37987310Y55387000D01*
X38220699Y55483673D01*
X38399327Y55662302D01*
X38496000Y55895691D01*
X38496000Y56186250D01*
X38720000Y56186250D01*
X38720000Y55895691D01*
X38816673Y55662302D01*
X38995301Y55483673D01*
X39228690Y55387000D01*
X39719250Y55387000D01*
X39878000Y55545750D01*
X39878000Y56345000D01*
X40132000Y56345000D01*
X40132000Y55545750D01*
X40290750Y55387000D01*
X40781310Y55387000D01*
X41014699Y55483673D01*
X41193327Y55662302D01*
X41290000Y55895691D01*
X41290000Y56186250D01*
X42530000Y56186250D01*
X42530000Y55895691D01*
X42626673Y55662302D01*
X42805301Y55483673D01*
X43038690Y55387000D01*
X43529250Y55387000D01*
X43688000Y55545750D01*
X43688000Y56345000D01*
X43942000Y56345000D01*
X43942000Y55545750D01*
X44100750Y55387000D01*
X44591310Y55387000D01*
X44824699Y55483673D01*
X45003327Y55662302D01*
X45100000Y55895691D01*
X45100000Y56186250D01*
X46340000Y56186250D01*
X46340000Y55895691D01*
X46436673Y55662302D01*
X46615301Y55483673D01*
X46848690Y55387000D01*
X47339250Y55387000D01*
X47498000Y55545750D01*
X47498000Y56345000D01*
X47752000Y56345000D01*
X47752000Y55545750D01*
X47910750Y55387000D01*
X48401310Y55387000D01*
X48634699Y55483673D01*
X48813327Y55662302D01*
X48910000Y55895691D01*
X48910000Y56186250D01*
X48751250Y56345000D01*
X47752000Y56345000D01*
X47498000Y56345000D01*
X46498750Y56345000D01*
X46340000Y56186250D01*
X45100000Y56186250D01*
X44941250Y56345000D01*
X43942000Y56345000D01*
X43688000Y56345000D01*
X42688750Y56345000D01*
X42530000Y56186250D01*
X41290000Y56186250D01*
X41131250Y56345000D01*
X40132000Y56345000D01*
X39878000Y56345000D01*
X38878750Y56345000D01*
X38720000Y56186250D01*
X38496000Y56186250D01*
X38337250Y56345000D01*
X37338000Y56345000D01*
X37338000Y56325000D01*
X37084000Y56325000D01*
X37084000Y56345000D01*
X36084750Y56345000D01*
X35926000Y56186250D01*
X35926000Y55895691D01*
X36022673Y55662302D01*
X36201301Y55483673D01*
X36434690Y55387000D01*
X36925250Y55387000D01*
X37083998Y55545748D01*
X37083998Y55387000D01*
X37150677Y55387000D01*
X37140622Y55385000D01*
X33477000Y55385000D01*
X33477000Y56908624D01*
X33543691Y56881000D01*
X33834250Y56881000D01*
X33993000Y57039750D01*
X33993000Y58039000D01*
X34247000Y58039000D01*
X34247000Y57039750D01*
X34405750Y56881000D01*
X34696309Y56881000D01*
X34929698Y56977673D01*
X35000334Y57048309D01*
X35926000Y57048309D01*
X35926000Y56757750D01*
X36084750Y56599000D01*
X37084000Y56599000D01*
X37084000Y57398250D01*
X37338000Y57398250D01*
X37338000Y56599000D01*
X38337250Y56599000D01*
X38496000Y56757750D01*
X38496000Y57048309D01*
X38720000Y57048309D01*
X38720000Y56757750D01*
X38878750Y56599000D01*
X39878000Y56599000D01*
X39878000Y57398250D01*
X40132000Y57398250D01*
X40132000Y56599000D01*
X41131250Y56599000D01*
X41290000Y56757750D01*
X41290000Y57048309D01*
X42530000Y57048309D01*
X42530000Y56757750D01*
X42688750Y56599000D01*
X43688000Y56599000D01*
X43688000Y56619000D01*
X43942000Y56619000D01*
X43942000Y56599000D01*
X44941250Y56599000D01*
X45100000Y56757750D01*
X45100000Y57048309D01*
X46340000Y57048309D01*
X46340000Y56757750D01*
X46498750Y56599000D01*
X47498000Y56599000D01*
X47498000Y57398250D01*
X47752000Y57398250D01*
X47752000Y56599000D01*
X48751250Y56599000D01*
X48910000Y56757750D01*
X48910000Y57048309D01*
X48813327Y57281698D01*
X48634699Y57460327D01*
X48401310Y57557000D01*
X47910750Y57557000D01*
X47752000Y57398250D01*
X47498000Y57398250D01*
X47339250Y57557000D01*
X46848690Y57557000D01*
X46615301Y57460327D01*
X46436673Y57281698D01*
X46340000Y57048309D01*
X45100000Y57048309D01*
X45003327Y57281698D01*
X44824699Y57460327D01*
X44689525Y57516318D01*
X44787927Y57782468D01*
X43815000Y58755395D01*
X42842073Y57782468D01*
X42940475Y57516318D01*
X42805301Y57460327D01*
X42626673Y57281698D01*
X42530000Y57048309D01*
X41290000Y57048309D01*
X41193327Y57281698D01*
X41014699Y57460327D01*
X40781310Y57557000D01*
X40290750Y57557000D01*
X40132000Y57398250D01*
X39878000Y57398250D01*
X39719250Y57557000D01*
X39228690Y57557000D01*
X38995301Y57460327D01*
X38816673Y57281698D01*
X38720000Y57048309D01*
X38496000Y57048309D01*
X38399327Y57281698D01*
X38220699Y57460327D01*
X37987310Y57557000D01*
X37496750Y57557000D01*
X37338000Y57398250D01*
X37084000Y57398250D01*
X36925250Y57557000D01*
X36434690Y57557000D01*
X36201301Y57460327D01*
X36022673Y57281698D01*
X35926000Y57048309D01*
X35000334Y57048309D01*
X35108327Y57156301D01*
X35205000Y57389690D01*
X35205000Y57880250D01*
X35046250Y58039000D01*
X34247000Y58039000D01*
X33993000Y58039000D01*
X33973000Y58039000D01*
X33973000Y58293000D01*
X33993000Y58293000D01*
X33993000Y59292250D01*
X34247000Y59292250D01*
X34247000Y58293000D01*
X35046250Y58293000D01*
X35205000Y58451750D01*
X35205000Y58942310D01*
X35108327Y59175699D01*
X35084487Y59199539D01*
X42169092Y59199539D01*
X42193144Y58549540D01*
X42395613Y58060736D01*
X42662468Y57962073D01*
X43635395Y58935000D01*
X43994605Y58935000D01*
X44967532Y57962073D01*
X45234387Y58060736D01*
X45460908Y58670461D01*
X45436856Y59320460D01*
X45234387Y59809264D01*
X44967532Y59907927D01*
X43994605Y58935000D01*
X43635395Y58935000D01*
X42662468Y59907927D01*
X42395613Y59809264D01*
X42169092Y59199539D01*
X35084487Y59199539D01*
X34929698Y59354327D01*
X34696309Y59451000D01*
X34405750Y59451000D01*
X34247000Y59292250D01*
X33993000Y59292250D01*
X33834250Y59451000D01*
X33543691Y59451000D01*
X33477000Y59423376D01*
X33477000Y60087532D01*
X42842073Y60087532D01*
X43815000Y59114605D01*
X44787927Y60087532D01*
X44689264Y60354387D01*
X44079539Y60580908D01*
X43429540Y60556856D01*
X42940736Y60354387D01*
X42842073Y60087532D01*
X33477000Y60087532D01*
X33477000Y60973000D01*
X49733000Y60973000D01*
X49733000Y55385000D01*
G36*
X90373000Y86627000D02*
X58877000Y86627000D01*
X58877000Y99073000D01*
X90373000Y99073000D01*
X90373000Y86627000D01*
X90373000Y86627000D01*
G37*
X90373000Y86627000D02*
X58877000Y86627000D01*
X58877000Y99073000D01*
X90373000Y99073000D01*
X90373000Y86627000D01*
M02*
