G04 #@! TF.FileFunction,Legend,Top*
%FSLAX46Y46*%
G04 Gerber Fmt 4.6, Leading zero omitted, Abs format (unit mm)*
G04 Created by KiCad (PCBNEW 4.0.1-stable) date 18/01/2016 20:26:33*
%MOMM*%
G01*
G04 APERTURE LIST*
%ADD10C,0.100000*%
%ADD11C,0.300000*%
%ADD12C,0.150000*%
G04 APERTURE END LIST*
D10*
D11*
X88947715Y26348429D02*
X89090572Y26348429D01*
X89233429Y26277000D01*
X89304858Y26205571D01*
X89376287Y26062714D01*
X89447715Y25777000D01*
X89447715Y25419857D01*
X89376287Y25134143D01*
X89304858Y24991286D01*
X89233429Y24919857D01*
X89090572Y24848429D01*
X88947715Y24848429D01*
X88804858Y24919857D01*
X88733429Y24991286D01*
X88662001Y25134143D01*
X88590572Y25419857D01*
X88590572Y25777000D01*
X88662001Y26062714D01*
X88733429Y26205571D01*
X88804858Y26277000D01*
X88947715Y26348429D01*
X89876286Y26348429D02*
X90376286Y24848429D01*
X90876286Y26348429D01*
X88947715Y34730429D02*
X89090572Y34730429D01*
X89233429Y34659000D01*
X89304858Y34587571D01*
X89376287Y34444714D01*
X89447715Y34159000D01*
X89447715Y33801857D01*
X89376287Y33516143D01*
X89304858Y33373286D01*
X89233429Y33301857D01*
X89090572Y33230429D01*
X88947715Y33230429D01*
X88804858Y33301857D01*
X88733429Y33373286D01*
X88662001Y33516143D01*
X88590572Y33801857D01*
X88590572Y34159000D01*
X88662001Y34444714D01*
X88733429Y34587571D01*
X88804858Y34659000D01*
X88947715Y34730429D01*
X89876286Y34730429D02*
X90376286Y33230429D01*
X90876286Y34730429D01*
X88947715Y70163429D02*
X89090572Y70163429D01*
X89233429Y70092000D01*
X89304858Y70020571D01*
X89376287Y69877714D01*
X89447715Y69592000D01*
X89447715Y69234857D01*
X89376287Y68949143D01*
X89304858Y68806286D01*
X89233429Y68734857D01*
X89090572Y68663429D01*
X88947715Y68663429D01*
X88804858Y68734857D01*
X88733429Y68806286D01*
X88662001Y68949143D01*
X88590572Y69234857D01*
X88590572Y69592000D01*
X88662001Y69877714D01*
X88733429Y70020571D01*
X88804858Y70092000D01*
X88947715Y70163429D01*
X89876286Y70163429D02*
X90376286Y68663429D01*
X90876286Y70163429D01*
X88947715Y61781429D02*
X89090572Y61781429D01*
X89233429Y61710000D01*
X89304858Y61638571D01*
X89376287Y61495714D01*
X89447715Y61210000D01*
X89447715Y60852857D01*
X89376287Y60567143D01*
X89304858Y60424286D01*
X89233429Y60352857D01*
X89090572Y60281429D01*
X88947715Y60281429D01*
X88804858Y60352857D01*
X88733429Y60424286D01*
X88662001Y60567143D01*
X88590572Y60852857D01*
X88590572Y61210000D01*
X88662001Y61495714D01*
X88733429Y61638571D01*
X88804858Y61710000D01*
X88947715Y61781429D01*
X89876286Y61781429D02*
X90376286Y60281429D01*
X90876286Y61781429D01*
X88947715Y43493429D02*
X89090572Y43493429D01*
X89233429Y43422000D01*
X89304858Y43350571D01*
X89376287Y43207714D01*
X89447715Y42922000D01*
X89447715Y42564857D01*
X89376287Y42279143D01*
X89304858Y42136286D01*
X89233429Y42064857D01*
X89090572Y41993429D01*
X88947715Y41993429D01*
X88804858Y42064857D01*
X88733429Y42136286D01*
X88662001Y42279143D01*
X88590572Y42564857D01*
X88590572Y42922000D01*
X88662001Y43207714D01*
X88733429Y43350571D01*
X88804858Y43422000D01*
X88947715Y43493429D01*
X89876286Y43493429D02*
X90376286Y41993429D01*
X90876286Y43493429D01*
X88947715Y52510429D02*
X89090572Y52510429D01*
X89233429Y52439000D01*
X89304858Y52367571D01*
X89376287Y52224714D01*
X89447715Y51939000D01*
X89447715Y51581857D01*
X89376287Y51296143D01*
X89304858Y51153286D01*
X89233429Y51081857D01*
X89090572Y51010429D01*
X88947715Y51010429D01*
X88804858Y51081857D01*
X88733429Y51153286D01*
X88662001Y51296143D01*
X88590572Y51581857D01*
X88590572Y51939000D01*
X88662001Y52224714D01*
X88733429Y52367571D01*
X88804858Y52439000D01*
X88947715Y52510429D01*
X89876286Y52510429D02*
X90376286Y51010429D01*
X90876286Y52510429D01*
X86717429Y14370857D02*
X87860286Y14370857D01*
X88646000Y13799429D02*
X88931715Y13799429D01*
X89074572Y13870857D01*
X89146000Y13942286D01*
X89288858Y14156571D01*
X89360286Y14442286D01*
X89360286Y15013714D01*
X89288858Y15156571D01*
X89217429Y15228000D01*
X89074572Y15299429D01*
X88788858Y15299429D01*
X88646000Y15228000D01*
X88574572Y15156571D01*
X88503143Y15013714D01*
X88503143Y14656571D01*
X88574572Y14513714D01*
X88646000Y14442286D01*
X88788858Y14370857D01*
X89074572Y14370857D01*
X89217429Y14442286D01*
X89288858Y14513714D01*
X89360286Y14656571D01*
X89788857Y15299429D02*
X90288857Y13799429D01*
X90788857Y15299429D01*
X93321429Y82569857D02*
X94464286Y82569857D01*
X93892857Y81998429D02*
X93892857Y83141286D01*
X95250000Y81998429D02*
X95535715Y81998429D01*
X95678572Y82069857D01*
X95750000Y82141286D01*
X95892858Y82355571D01*
X95964286Y82641286D01*
X95964286Y83212714D01*
X95892858Y83355571D01*
X95821429Y83427000D01*
X95678572Y83498429D01*
X95392858Y83498429D01*
X95250000Y83427000D01*
X95178572Y83355571D01*
X95107143Y83212714D01*
X95107143Y82855571D01*
X95178572Y82712714D01*
X95250000Y82641286D01*
X95392858Y82569857D01*
X95678572Y82569857D01*
X95821429Y82641286D01*
X95892858Y82712714D01*
X95964286Y82855571D01*
X96392857Y83498429D02*
X96892857Y81998429D01*
X97392857Y83498429D01*
X14319287Y93023429D02*
X13605001Y93023429D01*
X13533572Y92309143D01*
X13605001Y92380571D01*
X13747858Y92452000D01*
X14105001Y92452000D01*
X14247858Y92380571D01*
X14319287Y92309143D01*
X14390715Y92166286D01*
X14390715Y91809143D01*
X14319287Y91666286D01*
X14247858Y91594857D01*
X14105001Y91523429D01*
X13747858Y91523429D01*
X13605001Y91594857D01*
X13533572Y91666286D01*
X14819286Y93023429D02*
X15319286Y91523429D01*
X15819286Y93023429D01*
X52220858Y96071429D02*
X51935144Y96071429D01*
X51792287Y96000000D01*
X51720858Y95928571D01*
X51578001Y95714286D01*
X51506572Y95428571D01*
X51506572Y94857143D01*
X51578001Y94714286D01*
X51649429Y94642857D01*
X51792287Y94571429D01*
X52078001Y94571429D01*
X52220858Y94642857D01*
X52292287Y94714286D01*
X52363715Y94857143D01*
X52363715Y95214286D01*
X52292287Y95357143D01*
X52220858Y95428571D01*
X52078001Y95500000D01*
X51792287Y95500000D01*
X51649429Y95428571D01*
X51578001Y95357143D01*
X51506572Y95214286D01*
X52792286Y96071429D02*
X53292286Y94571429D01*
X53792286Y96071429D01*
X34718715Y90864429D02*
X34861572Y90864429D01*
X35004429Y90793000D01*
X35075858Y90721571D01*
X35147287Y90578714D01*
X35218715Y90293000D01*
X35218715Y89935857D01*
X35147287Y89650143D01*
X35075858Y89507286D01*
X35004429Y89435857D01*
X34861572Y89364429D01*
X34718715Y89364429D01*
X34575858Y89435857D01*
X34504429Y89507286D01*
X34433001Y89650143D01*
X34361572Y89935857D01*
X34361572Y90293000D01*
X34433001Y90578714D01*
X34504429Y90721571D01*
X34575858Y90793000D01*
X34718715Y90864429D01*
X35647286Y90864429D02*
X36147286Y89364429D01*
X36647286Y90864429D01*
X30654715Y90864429D02*
X30797572Y90864429D01*
X30940429Y90793000D01*
X31011858Y90721571D01*
X31083287Y90578714D01*
X31154715Y90293000D01*
X31154715Y89935857D01*
X31083287Y89650143D01*
X31011858Y89507286D01*
X30940429Y89435857D01*
X30797572Y89364429D01*
X30654715Y89364429D01*
X30511858Y89435857D01*
X30440429Y89507286D01*
X30369001Y89650143D01*
X30297572Y89935857D01*
X30297572Y90293000D01*
X30369001Y90578714D01*
X30440429Y90721571D01*
X30511858Y90793000D01*
X30654715Y90864429D01*
X31583286Y90864429D02*
X32083286Y89364429D01*
X32583286Y90864429D01*
X4703429Y22181429D02*
X3989143Y22181429D01*
X3989143Y23681429D01*
X5203429Y22181429D02*
X5203429Y23181429D01*
X5203429Y23681429D02*
X5132000Y23610000D01*
X5203429Y23538571D01*
X5274857Y23610000D01*
X5203429Y23681429D01*
X5203429Y23538571D01*
X6560572Y22252857D02*
X6417715Y22181429D01*
X6132001Y22181429D01*
X5989143Y22252857D01*
X5917715Y22324286D01*
X5846286Y22467143D01*
X5846286Y22895714D01*
X5917715Y23038571D01*
X5989143Y23110000D01*
X6132001Y23181429D01*
X6417715Y23181429D01*
X6560572Y23110000D01*
X7774857Y22252857D02*
X7632000Y22181429D01*
X7346286Y22181429D01*
X7203429Y22252857D01*
X7132000Y22395714D01*
X7132000Y22967143D01*
X7203429Y23110000D01*
X7346286Y23181429D01*
X7632000Y23181429D01*
X7774857Y23110000D01*
X7846286Y22967143D01*
X7846286Y22824286D01*
X7132000Y22681429D01*
X8489143Y23181429D02*
X8489143Y22181429D01*
X8489143Y23038571D02*
X8560571Y23110000D01*
X8703429Y23181429D01*
X8917714Y23181429D01*
X9060571Y23110000D01*
X9132000Y22967143D01*
X9132000Y22181429D01*
X9774857Y22252857D02*
X9917714Y22181429D01*
X10203429Y22181429D01*
X10346286Y22252857D01*
X10417714Y22395714D01*
X10417714Y22467143D01*
X10346286Y22610000D01*
X10203429Y22681429D01*
X9989143Y22681429D01*
X9846286Y22752857D01*
X9774857Y22895714D01*
X9774857Y22967143D01*
X9846286Y23110000D01*
X9989143Y23181429D01*
X10203429Y23181429D01*
X10346286Y23110000D01*
X11632000Y22252857D02*
X11489143Y22181429D01*
X11203429Y22181429D01*
X11060572Y22252857D01*
X10989143Y22395714D01*
X10989143Y22967143D01*
X11060572Y23110000D01*
X11203429Y23181429D01*
X11489143Y23181429D01*
X11632000Y23110000D01*
X11703429Y22967143D01*
X11703429Y22824286D01*
X10989143Y22681429D01*
X12989143Y22181429D02*
X12989143Y23681429D01*
X12989143Y22252857D02*
X12846286Y22181429D01*
X12560572Y22181429D01*
X12417714Y22252857D01*
X12346286Y22324286D01*
X12274857Y22467143D01*
X12274857Y22895714D01*
X12346286Y23038571D01*
X12417714Y23110000D01*
X12560572Y23181429D01*
X12846286Y23181429D01*
X12989143Y23110000D01*
X15489143Y23181429D02*
X15489143Y22181429D01*
X14846286Y23181429D02*
X14846286Y22395714D01*
X14917714Y22252857D01*
X15060572Y22181429D01*
X15274857Y22181429D01*
X15417714Y22252857D01*
X15489143Y22324286D01*
X16203429Y23181429D02*
X16203429Y22181429D01*
X16203429Y23038571D02*
X16274857Y23110000D01*
X16417715Y23181429D01*
X16632000Y23181429D01*
X16774857Y23110000D01*
X16846286Y22967143D01*
X16846286Y22181429D01*
X18203429Y22181429D02*
X18203429Y23681429D01*
X18203429Y22252857D02*
X18060572Y22181429D01*
X17774858Y22181429D01*
X17632000Y22252857D01*
X17560572Y22324286D01*
X17489143Y22467143D01*
X17489143Y22895714D01*
X17560572Y23038571D01*
X17632000Y23110000D01*
X17774858Y23181429D01*
X18060572Y23181429D01*
X18203429Y23110000D01*
X19489143Y22252857D02*
X19346286Y22181429D01*
X19060572Y22181429D01*
X18917715Y22252857D01*
X18846286Y22395714D01*
X18846286Y22967143D01*
X18917715Y23110000D01*
X19060572Y23181429D01*
X19346286Y23181429D01*
X19489143Y23110000D01*
X19560572Y22967143D01*
X19560572Y22824286D01*
X18846286Y22681429D01*
X20203429Y22181429D02*
X20203429Y23181429D01*
X20203429Y22895714D02*
X20274857Y23038571D01*
X20346286Y23110000D01*
X20489143Y23181429D01*
X20632000Y23181429D01*
X22060571Y23681429D02*
X22917714Y23681429D01*
X22489143Y22181429D02*
X22489143Y23681429D01*
X23346285Y22610000D02*
X24060571Y22610000D01*
X23203428Y22181429D02*
X23703428Y23681429D01*
X24203428Y22181429D01*
X24703428Y22181429D02*
X24703428Y23681429D01*
X25274856Y23681429D01*
X25417714Y23610000D01*
X25489142Y23538571D01*
X25560571Y23395714D01*
X25560571Y23181429D01*
X25489142Y23038571D01*
X25417714Y22967143D01*
X25274856Y22895714D01*
X24703428Y22895714D01*
X27060571Y22181429D02*
X26560571Y22895714D01*
X26203428Y22181429D02*
X26203428Y23681429D01*
X26774856Y23681429D01*
X26917714Y23610000D01*
X26989142Y23538571D01*
X27060571Y23395714D01*
X27060571Y23181429D01*
X26989142Y23038571D01*
X26917714Y22967143D01*
X26774856Y22895714D01*
X26203428Y22895714D01*
X29131999Y23681429D02*
X29417713Y23681429D01*
X29560571Y23610000D01*
X29703428Y23467143D01*
X29774856Y23181429D01*
X29774856Y22681429D01*
X29703428Y22395714D01*
X29560571Y22252857D01*
X29417713Y22181429D01*
X29131999Y22181429D01*
X28989142Y22252857D01*
X28846285Y22395714D01*
X28774856Y22681429D01*
X28774856Y23181429D01*
X28846285Y23467143D01*
X28989142Y23610000D01*
X29131999Y23681429D01*
X30417714Y23181429D02*
X30417714Y21681429D01*
X30417714Y23110000D02*
X30560571Y23181429D01*
X30846285Y23181429D01*
X30989142Y23110000D01*
X31060571Y23038571D01*
X31132000Y22895714D01*
X31132000Y22467143D01*
X31060571Y22324286D01*
X30989142Y22252857D01*
X30846285Y22181429D01*
X30560571Y22181429D01*
X30417714Y22252857D01*
X32346285Y22252857D02*
X32203428Y22181429D01*
X31917714Y22181429D01*
X31774857Y22252857D01*
X31703428Y22395714D01*
X31703428Y22967143D01*
X31774857Y23110000D01*
X31917714Y23181429D01*
X32203428Y23181429D01*
X32346285Y23110000D01*
X32417714Y22967143D01*
X32417714Y22824286D01*
X31703428Y22681429D01*
X33060571Y23181429D02*
X33060571Y22181429D01*
X33060571Y23038571D02*
X33131999Y23110000D01*
X33274857Y23181429D01*
X33489142Y23181429D01*
X33631999Y23110000D01*
X33703428Y22967143D01*
X33703428Y22181429D01*
X35560571Y22181429D02*
X35560571Y23681429D01*
X35560571Y22967143D02*
X36417714Y22967143D01*
X36417714Y22181429D02*
X36417714Y23681429D01*
X37774857Y22181429D02*
X37774857Y22967143D01*
X37703428Y23110000D01*
X37560571Y23181429D01*
X37274857Y23181429D01*
X37132000Y23110000D01*
X37774857Y22252857D02*
X37632000Y22181429D01*
X37274857Y22181429D01*
X37132000Y22252857D01*
X37060571Y22395714D01*
X37060571Y22538571D01*
X37132000Y22681429D01*
X37274857Y22752857D01*
X37632000Y22752857D01*
X37774857Y22824286D01*
X38489143Y22181429D02*
X38489143Y23181429D01*
X38489143Y22895714D02*
X38560571Y23038571D01*
X38632000Y23110000D01*
X38774857Y23181429D01*
X38917714Y23181429D01*
X40060571Y22181429D02*
X40060571Y23681429D01*
X40060571Y22252857D02*
X39917714Y22181429D01*
X39632000Y22181429D01*
X39489142Y22252857D01*
X39417714Y22324286D01*
X39346285Y22467143D01*
X39346285Y22895714D01*
X39417714Y23038571D01*
X39489142Y23110000D01*
X39632000Y23181429D01*
X39917714Y23181429D01*
X40060571Y23110000D01*
X40632000Y23181429D02*
X40917714Y22181429D01*
X41203428Y22895714D01*
X41489143Y22181429D01*
X41774857Y23181429D01*
X42989143Y22181429D02*
X42989143Y22967143D01*
X42917714Y23110000D01*
X42774857Y23181429D01*
X42489143Y23181429D01*
X42346286Y23110000D01*
X42989143Y22252857D02*
X42846286Y22181429D01*
X42489143Y22181429D01*
X42346286Y22252857D01*
X42274857Y22395714D01*
X42274857Y22538571D01*
X42346286Y22681429D01*
X42489143Y22752857D01*
X42846286Y22752857D01*
X42989143Y22824286D01*
X43703429Y22181429D02*
X43703429Y23181429D01*
X43703429Y22895714D02*
X43774857Y23038571D01*
X43846286Y23110000D01*
X43989143Y23181429D01*
X44132000Y23181429D01*
X45203428Y22252857D02*
X45060571Y22181429D01*
X44774857Y22181429D01*
X44632000Y22252857D01*
X44560571Y22395714D01*
X44560571Y22967143D01*
X44632000Y23110000D01*
X44774857Y23181429D01*
X45060571Y23181429D01*
X45203428Y23110000D01*
X45274857Y22967143D01*
X45274857Y22824286D01*
X44560571Y22681429D01*
X47774857Y22181429D02*
X47060571Y22181429D01*
X47060571Y23681429D01*
X48274857Y22181429D02*
X48274857Y23181429D01*
X48274857Y23681429D02*
X48203428Y23610000D01*
X48274857Y23538571D01*
X48346285Y23610000D01*
X48274857Y23681429D01*
X48274857Y23538571D01*
X49632000Y22252857D02*
X49489143Y22181429D01*
X49203429Y22181429D01*
X49060571Y22252857D01*
X48989143Y22324286D01*
X48917714Y22467143D01*
X48917714Y22895714D01*
X48989143Y23038571D01*
X49060571Y23110000D01*
X49203429Y23181429D01*
X49489143Y23181429D01*
X49632000Y23110000D01*
X50846285Y22252857D02*
X50703428Y22181429D01*
X50417714Y22181429D01*
X50274857Y22252857D01*
X50203428Y22395714D01*
X50203428Y22967143D01*
X50274857Y23110000D01*
X50417714Y23181429D01*
X50703428Y23181429D01*
X50846285Y23110000D01*
X50917714Y22967143D01*
X50917714Y22824286D01*
X50203428Y22681429D01*
X51560571Y23181429D02*
X51560571Y22181429D01*
X51560571Y23038571D02*
X51631999Y23110000D01*
X51774857Y23181429D01*
X51989142Y23181429D01*
X52131999Y23110000D01*
X52203428Y22967143D01*
X52203428Y22181429D01*
X52846285Y22252857D02*
X52989142Y22181429D01*
X53274857Y22181429D01*
X53417714Y22252857D01*
X53489142Y22395714D01*
X53489142Y22467143D01*
X53417714Y22610000D01*
X53274857Y22681429D01*
X53060571Y22681429D01*
X52917714Y22752857D01*
X52846285Y22895714D01*
X52846285Y22967143D01*
X52917714Y23110000D01*
X53060571Y23181429D01*
X53274857Y23181429D01*
X53417714Y23110000D01*
X54703428Y22252857D02*
X54560571Y22181429D01*
X54274857Y22181429D01*
X54132000Y22252857D01*
X54060571Y22395714D01*
X54060571Y22967143D01*
X54132000Y23110000D01*
X54274857Y23181429D01*
X54560571Y23181429D01*
X54703428Y23110000D01*
X54774857Y22967143D01*
X54774857Y22824286D01*
X54060571Y22681429D01*
X4989143Y20781429D02*
X5274857Y19781429D01*
X5560571Y20495714D01*
X5846286Y19781429D01*
X6132000Y20781429D01*
X6560572Y20781429D02*
X6846286Y19781429D01*
X7132000Y20495714D01*
X7417715Y19781429D01*
X7703429Y20781429D01*
X8132001Y20781429D02*
X8417715Y19781429D01*
X8703429Y20495714D01*
X8989144Y19781429D01*
X9274858Y20781429D01*
X9846287Y19924286D02*
X9917715Y19852857D01*
X9846287Y19781429D01*
X9774858Y19852857D01*
X9846287Y19924286D01*
X9846287Y19781429D01*
X10346287Y20781429D02*
X10917716Y20781429D01*
X10560573Y21281429D02*
X10560573Y19995714D01*
X10632001Y19852857D01*
X10774859Y19781429D01*
X10917716Y19781429D01*
X12060573Y19781429D02*
X12060573Y20567143D01*
X11989144Y20710000D01*
X11846287Y20781429D01*
X11560573Y20781429D01*
X11417716Y20710000D01*
X12060573Y19852857D02*
X11917716Y19781429D01*
X11560573Y19781429D01*
X11417716Y19852857D01*
X11346287Y19995714D01*
X11346287Y20138571D01*
X11417716Y20281429D01*
X11560573Y20352857D01*
X11917716Y20352857D01*
X12060573Y20424286D01*
X12774859Y20781429D02*
X12774859Y19281429D01*
X12774859Y20710000D02*
X12917716Y20781429D01*
X13203430Y20781429D01*
X13346287Y20710000D01*
X13417716Y20638571D01*
X13489145Y20495714D01*
X13489145Y20067143D01*
X13417716Y19924286D01*
X13346287Y19852857D01*
X13203430Y19781429D01*
X12917716Y19781429D01*
X12774859Y19852857D01*
X14132002Y19781429D02*
X14132002Y20781429D01*
X14132002Y20495714D02*
X14203430Y20638571D01*
X14274859Y20710000D01*
X14417716Y20781429D01*
X14560573Y20781429D01*
X15060573Y19924286D02*
X15132001Y19852857D01*
X15060573Y19781429D01*
X14989144Y19852857D01*
X15060573Y19924286D01*
X15060573Y19781429D01*
X15989145Y19781429D02*
X15846287Y19852857D01*
X15774859Y19924286D01*
X15703430Y20067143D01*
X15703430Y20495714D01*
X15774859Y20638571D01*
X15846287Y20710000D01*
X15989145Y20781429D01*
X16203430Y20781429D01*
X16346287Y20710000D01*
X16417716Y20638571D01*
X16489145Y20495714D01*
X16489145Y20067143D01*
X16417716Y19924286D01*
X16346287Y19852857D01*
X16203430Y19781429D01*
X15989145Y19781429D01*
X17132002Y19781429D02*
X17132002Y20781429D01*
X17132002Y20495714D02*
X17203430Y20638571D01*
X17274859Y20710000D01*
X17417716Y20781429D01*
X17560573Y20781429D01*
X18703430Y20781429D02*
X18703430Y19567143D01*
X18632001Y19424286D01*
X18560573Y19352857D01*
X18417716Y19281429D01*
X18203430Y19281429D01*
X18060573Y19352857D01*
X18703430Y19852857D02*
X18560573Y19781429D01*
X18274859Y19781429D01*
X18132001Y19852857D01*
X18060573Y19924286D01*
X17989144Y20067143D01*
X17989144Y20495714D01*
X18060573Y20638571D01*
X18132001Y20710000D01*
X18274859Y20781429D01*
X18560573Y20781429D01*
X18703430Y20710000D01*
X20489144Y21352857D02*
X19203430Y19424286D01*
X21274859Y21281429D02*
X21560573Y21281429D01*
X21703431Y21210000D01*
X21846288Y21067143D01*
X21917716Y20781429D01*
X21917716Y20281429D01*
X21846288Y19995714D01*
X21703431Y19852857D01*
X21560573Y19781429D01*
X21274859Y19781429D01*
X21132002Y19852857D01*
X20989145Y19995714D01*
X20917716Y20281429D01*
X20917716Y20781429D01*
X20989145Y21067143D01*
X21132002Y21210000D01*
X21274859Y21281429D01*
X22560574Y19781429D02*
X22560574Y21281429D01*
X22560574Y20567143D02*
X23417717Y20567143D01*
X23417717Y19781429D02*
X23417717Y21281429D01*
X24846289Y19781429D02*
X24132003Y19781429D01*
X24132003Y21281429D01*
X4846286Y17524286D02*
X4774857Y17452857D01*
X4560571Y17381429D01*
X4417714Y17381429D01*
X4203429Y17452857D01*
X4060571Y17595714D01*
X3989143Y17738571D01*
X3917714Y18024286D01*
X3917714Y18238571D01*
X3989143Y18524286D01*
X4060571Y18667143D01*
X4203429Y18810000D01*
X4417714Y18881429D01*
X4560571Y18881429D01*
X4774857Y18810000D01*
X4846286Y18738571D01*
X5703429Y17381429D02*
X5560571Y17452857D01*
X5489143Y17524286D01*
X5417714Y17667143D01*
X5417714Y18095714D01*
X5489143Y18238571D01*
X5560571Y18310000D01*
X5703429Y18381429D01*
X5917714Y18381429D01*
X6060571Y18310000D01*
X6132000Y18238571D01*
X6203429Y18095714D01*
X6203429Y17667143D01*
X6132000Y17524286D01*
X6060571Y17452857D01*
X5917714Y17381429D01*
X5703429Y17381429D01*
X6846286Y18381429D02*
X6846286Y16881429D01*
X6846286Y18310000D02*
X6989143Y18381429D01*
X7274857Y18381429D01*
X7417714Y18310000D01*
X7489143Y18238571D01*
X7560572Y18095714D01*
X7560572Y17667143D01*
X7489143Y17524286D01*
X7417714Y17452857D01*
X7274857Y17381429D01*
X6989143Y17381429D01*
X6846286Y17452857D01*
X8060572Y18381429D02*
X8417715Y17381429D01*
X8774857Y18381429D02*
X8417715Y17381429D01*
X8274857Y17024286D01*
X8203429Y16952857D01*
X8060572Y16881429D01*
X9346286Y17381429D02*
X9346286Y18381429D01*
X9346286Y18095714D02*
X9417714Y18238571D01*
X9489143Y18310000D01*
X9632000Y18381429D01*
X9774857Y18381429D01*
X10274857Y17381429D02*
X10274857Y18381429D01*
X10274857Y18881429D02*
X10203428Y18810000D01*
X10274857Y18738571D01*
X10346285Y18810000D01*
X10274857Y18881429D01*
X10274857Y18738571D01*
X11632000Y18381429D02*
X11632000Y17167143D01*
X11560571Y17024286D01*
X11489143Y16952857D01*
X11346286Y16881429D01*
X11132000Y16881429D01*
X10989143Y16952857D01*
X11632000Y17452857D02*
X11489143Y17381429D01*
X11203429Y17381429D01*
X11060571Y17452857D01*
X10989143Y17524286D01*
X10917714Y17667143D01*
X10917714Y18095714D01*
X10989143Y18238571D01*
X11060571Y18310000D01*
X11203429Y18381429D01*
X11489143Y18381429D01*
X11632000Y18310000D01*
X12346286Y17381429D02*
X12346286Y18881429D01*
X12989143Y17381429D02*
X12989143Y18167143D01*
X12917714Y18310000D01*
X12774857Y18381429D01*
X12560572Y18381429D01*
X12417714Y18310000D01*
X12346286Y18238571D01*
X13489143Y18381429D02*
X14060572Y18381429D01*
X13703429Y18881429D02*
X13703429Y17595714D01*
X13774857Y17452857D01*
X13917715Y17381429D01*
X14060572Y17381429D01*
X16917715Y18524286D02*
X16774857Y18595714D01*
X16489143Y18595714D01*
X16346286Y18524286D01*
X16203429Y18381429D01*
X16132000Y18238571D01*
X16132000Y17952857D01*
X16203429Y17810000D01*
X16346286Y17667143D01*
X16489143Y17595714D01*
X16774857Y17595714D01*
X16917715Y17667143D01*
X16632000Y19095714D02*
X16274857Y19024286D01*
X15917715Y18810000D01*
X15703429Y18452857D01*
X15632000Y18095714D01*
X15703429Y17738571D01*
X15917715Y17381429D01*
X16274857Y17167143D01*
X16632000Y17095714D01*
X16989143Y17167143D01*
X17346286Y17381429D01*
X17560572Y17738571D01*
X17632000Y18095714D01*
X17560572Y18452857D01*
X17346286Y18810000D01*
X16989143Y19024286D01*
X16632000Y19095714D01*
X19417715Y17381429D02*
X19417715Y18881429D01*
X19989143Y18881429D01*
X20132001Y18810000D01*
X20203429Y18738571D01*
X20274858Y18595714D01*
X20274858Y18381429D01*
X20203429Y18238571D01*
X20132001Y18167143D01*
X19989143Y18095714D01*
X19417715Y18095714D01*
X21560572Y17381429D02*
X21560572Y18167143D01*
X21489143Y18310000D01*
X21346286Y18381429D01*
X21060572Y18381429D01*
X20917715Y18310000D01*
X21560572Y17452857D02*
X21417715Y17381429D01*
X21060572Y17381429D01*
X20917715Y17452857D01*
X20846286Y17595714D01*
X20846286Y17738571D01*
X20917715Y17881429D01*
X21060572Y17952857D01*
X21417715Y17952857D01*
X21560572Y18024286D01*
X22917715Y18381429D02*
X22917715Y17381429D01*
X22274858Y18381429D02*
X22274858Y17595714D01*
X22346286Y17452857D01*
X22489144Y17381429D01*
X22703429Y17381429D01*
X22846286Y17452857D01*
X22917715Y17524286D01*
X23846287Y17381429D02*
X23703429Y17452857D01*
X23632001Y17595714D01*
X23632001Y18881429D01*
X25989143Y18881429D02*
X25989143Y17810000D01*
X25917715Y17595714D01*
X25774858Y17452857D01*
X25560572Y17381429D01*
X25417715Y17381429D01*
X27346286Y17381429D02*
X27346286Y18167143D01*
X27274857Y18310000D01*
X27132000Y18381429D01*
X26846286Y18381429D01*
X26703429Y18310000D01*
X27346286Y17452857D02*
X27203429Y17381429D01*
X26846286Y17381429D01*
X26703429Y17452857D01*
X26632000Y17595714D01*
X26632000Y17738571D01*
X26703429Y17881429D01*
X26846286Y17952857D01*
X27203429Y17952857D01*
X27346286Y18024286D01*
X28060572Y18381429D02*
X28060572Y17381429D01*
X28060572Y18238571D02*
X28132000Y18310000D01*
X28274858Y18381429D01*
X28489143Y18381429D01*
X28632000Y18310000D01*
X28703429Y18167143D01*
X28703429Y17381429D01*
X29417715Y17381429D02*
X29417715Y18381429D01*
X29417715Y18881429D02*
X29346286Y18810000D01*
X29417715Y18738571D01*
X29489143Y18810000D01*
X29417715Y18881429D01*
X29417715Y18738571D01*
X30774858Y17452857D02*
X30632001Y17381429D01*
X30346287Y17381429D01*
X30203429Y17452857D01*
X30132001Y17524286D01*
X30060572Y17667143D01*
X30060572Y18095714D01*
X30132001Y18238571D01*
X30203429Y18310000D01*
X30346287Y18381429D01*
X30632001Y18381429D01*
X30774858Y18310000D01*
X31417715Y17381429D02*
X31417715Y18881429D01*
X31560572Y17952857D02*
X31989143Y17381429D01*
X31989143Y18381429D02*
X31417715Y17810000D01*
X32632001Y17381429D02*
X32632001Y18381429D01*
X32632001Y18881429D02*
X32560572Y18810000D01*
X32632001Y18738571D01*
X32703429Y18810000D01*
X32632001Y18881429D01*
X32632001Y18738571D01*
X34417715Y18738571D02*
X34489144Y18810000D01*
X34632001Y18881429D01*
X34989144Y18881429D01*
X35132001Y18810000D01*
X35203430Y18738571D01*
X35274858Y18595714D01*
X35274858Y18452857D01*
X35203430Y18238571D01*
X34346287Y17381429D01*
X35274858Y17381429D01*
X36203429Y18881429D02*
X36346286Y18881429D01*
X36489143Y18810000D01*
X36560572Y18738571D01*
X36632001Y18595714D01*
X36703429Y18310000D01*
X36703429Y17952857D01*
X36632001Y17667143D01*
X36560572Y17524286D01*
X36489143Y17452857D01*
X36346286Y17381429D01*
X36203429Y17381429D01*
X36060572Y17452857D01*
X35989143Y17524286D01*
X35917715Y17667143D01*
X35846286Y17952857D01*
X35846286Y18310000D01*
X35917715Y18595714D01*
X35989143Y18738571D01*
X36060572Y18810000D01*
X36203429Y18881429D01*
X38132000Y17381429D02*
X37274857Y17381429D01*
X37703429Y17381429D02*
X37703429Y18881429D01*
X37560572Y18667143D01*
X37417714Y18524286D01*
X37274857Y18452857D01*
X39417714Y18881429D02*
X39132000Y18881429D01*
X38989143Y18810000D01*
X38917714Y18738571D01*
X38774857Y18524286D01*
X38703428Y18238571D01*
X38703428Y17667143D01*
X38774857Y17524286D01*
X38846285Y17452857D01*
X38989143Y17381429D01*
X39274857Y17381429D01*
X39417714Y17452857D01*
X39489143Y17524286D01*
X39560571Y17667143D01*
X39560571Y18024286D01*
X39489143Y18167143D01*
X39417714Y18238571D01*
X39274857Y18310000D01*
X38989143Y18310000D01*
X38846285Y18238571D01*
X38774857Y18167143D01*
X38703428Y18024286D01*
X60332857Y96369429D02*
X60618571Y96369429D01*
X60761429Y96298000D01*
X60904286Y96155143D01*
X60975714Y95869429D01*
X60975714Y95369429D01*
X60904286Y95083714D01*
X60761429Y94940857D01*
X60618571Y94869429D01*
X60332857Y94869429D01*
X60190000Y94940857D01*
X60047143Y95083714D01*
X59975714Y95369429D01*
X59975714Y95869429D01*
X60047143Y96155143D01*
X60190000Y96298000D01*
X60332857Y96369429D01*
X61618572Y94869429D02*
X61618572Y96369429D01*
X61618572Y95655143D02*
X62475715Y95655143D01*
X62475715Y94869429D02*
X62475715Y96369429D01*
X63190001Y94869429D02*
X63190001Y96369429D01*
X63547144Y96369429D01*
X63761429Y96298000D01*
X63904287Y96155143D01*
X63975715Y96012286D01*
X64047144Y95726571D01*
X64047144Y95512286D01*
X63975715Y95226571D01*
X63904287Y95083714D01*
X63761429Y94940857D01*
X63547144Y94869429D01*
X63190001Y94869429D01*
X64618572Y94940857D02*
X64832858Y94869429D01*
X65190001Y94869429D01*
X65332858Y94940857D01*
X65404287Y95012286D01*
X65475715Y95155143D01*
X65475715Y95298000D01*
X65404287Y95440857D01*
X65332858Y95512286D01*
X65190001Y95583714D01*
X64904287Y95655143D01*
X64761429Y95726571D01*
X64690001Y95798000D01*
X64618572Y95940857D01*
X64618572Y96083714D01*
X64690001Y96226571D01*
X64761429Y96298000D01*
X64904287Y96369429D01*
X65261429Y96369429D01*
X65475715Y96298000D01*
X66118572Y94869429D02*
X66118572Y96369429D01*
X66690000Y96369429D01*
X66832858Y96298000D01*
X66904286Y96226571D01*
X66975715Y96083714D01*
X66975715Y95869429D01*
X66904286Y95726571D01*
X66832858Y95655143D01*
X66690000Y95583714D01*
X66118572Y95583714D01*
X68761429Y95869429D02*
X68761429Y94369429D01*
X68761429Y95798000D02*
X68904286Y95869429D01*
X69190000Y95869429D01*
X69332857Y95798000D01*
X69404286Y95726571D01*
X69475715Y95583714D01*
X69475715Y95155143D01*
X69404286Y95012286D01*
X69332857Y94940857D01*
X69190000Y94869429D01*
X68904286Y94869429D01*
X68761429Y94940857D01*
X70332858Y94869429D02*
X70190000Y94940857D01*
X70118572Y95012286D01*
X70047143Y95155143D01*
X70047143Y95583714D01*
X70118572Y95726571D01*
X70190000Y95798000D01*
X70332858Y95869429D01*
X70547143Y95869429D01*
X70690000Y95798000D01*
X70761429Y95726571D01*
X70832858Y95583714D01*
X70832858Y95155143D01*
X70761429Y95012286D01*
X70690000Y94940857D01*
X70547143Y94869429D01*
X70332858Y94869429D01*
X71332858Y95869429D02*
X71618572Y94869429D01*
X71904286Y95583714D01*
X72190001Y94869429D01*
X72475715Y95869429D01*
X73618572Y94940857D02*
X73475715Y94869429D01*
X73190001Y94869429D01*
X73047144Y94940857D01*
X72975715Y95083714D01*
X72975715Y95655143D01*
X73047144Y95798000D01*
X73190001Y95869429D01*
X73475715Y95869429D01*
X73618572Y95798000D01*
X73690001Y95655143D01*
X73690001Y95512286D01*
X72975715Y95369429D01*
X74332858Y94869429D02*
X74332858Y95869429D01*
X74332858Y95583714D02*
X74404286Y95726571D01*
X74475715Y95798000D01*
X74618572Y95869429D01*
X74761429Y95869429D01*
X76332857Y94940857D02*
X76475714Y94869429D01*
X76761429Y94869429D01*
X76904286Y94940857D01*
X76975714Y95083714D01*
X76975714Y95155143D01*
X76904286Y95298000D01*
X76761429Y95369429D01*
X76547143Y95369429D01*
X76404286Y95440857D01*
X76332857Y95583714D01*
X76332857Y95655143D01*
X76404286Y95798000D01*
X76547143Y95869429D01*
X76761429Y95869429D01*
X76904286Y95798000D01*
X78261429Y95869429D02*
X78261429Y94869429D01*
X77618572Y95869429D02*
X77618572Y95083714D01*
X77690000Y94940857D01*
X77832858Y94869429D01*
X78047143Y94869429D01*
X78190000Y94940857D01*
X78261429Y95012286D01*
X78975715Y95869429D02*
X78975715Y94369429D01*
X78975715Y95798000D02*
X79118572Y95869429D01*
X79404286Y95869429D01*
X79547143Y95798000D01*
X79618572Y95726571D01*
X79690001Y95583714D01*
X79690001Y95155143D01*
X79618572Y95012286D01*
X79547143Y94940857D01*
X79404286Y94869429D01*
X79118572Y94869429D01*
X78975715Y94940857D01*
X80332858Y95869429D02*
X80332858Y94369429D01*
X80332858Y95798000D02*
X80475715Y95869429D01*
X80761429Y95869429D01*
X80904286Y95798000D01*
X80975715Y95726571D01*
X81047144Y95583714D01*
X81047144Y95155143D01*
X80975715Y95012286D01*
X80904286Y94940857D01*
X80761429Y94869429D01*
X80475715Y94869429D01*
X80332858Y94940857D01*
X81904287Y94869429D02*
X81761429Y94940857D01*
X81690001Y95083714D01*
X81690001Y96369429D01*
X82332858Y95869429D02*
X82690001Y94869429D01*
X83047143Y95869429D02*
X82690001Y94869429D01*
X82547143Y94512286D01*
X82475715Y94440857D01*
X82332858Y94369429D01*
X84761429Y94869429D02*
X84761429Y96369429D01*
X84761429Y95798000D02*
X84904286Y95869429D01*
X85190000Y95869429D01*
X85332857Y95798000D01*
X85404286Y95726571D01*
X85475715Y95583714D01*
X85475715Y95155143D01*
X85404286Y95012286D01*
X85332857Y94940857D01*
X85190000Y94869429D01*
X84904286Y94869429D01*
X84761429Y94940857D01*
X86332858Y94869429D02*
X86190000Y94940857D01*
X86118572Y95012286D01*
X86047143Y95155143D01*
X86047143Y95583714D01*
X86118572Y95726571D01*
X86190000Y95798000D01*
X86332858Y95869429D01*
X86547143Y95869429D01*
X86690000Y95798000D01*
X86761429Y95726571D01*
X86832858Y95583714D01*
X86832858Y95155143D01*
X86761429Y95012286D01*
X86690000Y94940857D01*
X86547143Y94869429D01*
X86332858Y94869429D01*
X88118572Y94869429D02*
X88118572Y95655143D01*
X88047143Y95798000D01*
X87904286Y95869429D01*
X87618572Y95869429D01*
X87475715Y95798000D01*
X88118572Y94940857D02*
X87975715Y94869429D01*
X87618572Y94869429D01*
X87475715Y94940857D01*
X87404286Y95083714D01*
X87404286Y95226571D01*
X87475715Y95369429D01*
X87618572Y95440857D01*
X87975715Y95440857D01*
X88118572Y95512286D01*
X88832858Y94869429D02*
X88832858Y95869429D01*
X88832858Y95583714D02*
X88904286Y95726571D01*
X88975715Y95798000D01*
X89118572Y95869429D01*
X89261429Y95869429D01*
X90404286Y94869429D02*
X90404286Y96369429D01*
X90404286Y94940857D02*
X90261429Y94869429D01*
X89975715Y94869429D01*
X89832857Y94940857D01*
X89761429Y95012286D01*
X89690000Y95155143D01*
X89690000Y95583714D01*
X89761429Y95726571D01*
X89832857Y95798000D01*
X89975715Y95869429D01*
X90261429Y95869429D01*
X90404286Y95798000D01*
X60332857Y93969429D02*
X60618571Y93969429D01*
X60761429Y93898000D01*
X60904286Y93755143D01*
X60975714Y93469429D01*
X60975714Y92969429D01*
X60904286Y92683714D01*
X60761429Y92540857D01*
X60618571Y92469429D01*
X60332857Y92469429D01*
X60190000Y92540857D01*
X60047143Y92683714D01*
X59975714Y92969429D01*
X59975714Y93469429D01*
X60047143Y93755143D01*
X60190000Y93898000D01*
X60332857Y93969429D01*
X62261429Y93469429D02*
X62261429Y92469429D01*
X61618572Y93469429D02*
X61618572Y92683714D01*
X61690000Y92540857D01*
X61832858Y92469429D01*
X62047143Y92469429D01*
X62190000Y92540857D01*
X62261429Y92612286D01*
X62761429Y93469429D02*
X63332858Y93469429D01*
X62975715Y93969429D02*
X62975715Y92683714D01*
X63047143Y92540857D01*
X63190001Y92469429D01*
X63332858Y92469429D01*
X63832858Y93469429D02*
X63832858Y91969429D01*
X63832858Y93398000D02*
X63975715Y93469429D01*
X64261429Y93469429D01*
X64404286Y93398000D01*
X64475715Y93326571D01*
X64547144Y93183714D01*
X64547144Y92755143D01*
X64475715Y92612286D01*
X64404286Y92540857D01*
X64261429Y92469429D01*
X63975715Y92469429D01*
X63832858Y92540857D01*
X65832858Y93469429D02*
X65832858Y92469429D01*
X65190001Y93469429D02*
X65190001Y92683714D01*
X65261429Y92540857D01*
X65404287Y92469429D01*
X65618572Y92469429D01*
X65761429Y92540857D01*
X65832858Y92612286D01*
X66332858Y93469429D02*
X66904287Y93469429D01*
X66547144Y93969429D02*
X66547144Y92683714D01*
X66618572Y92540857D01*
X66761430Y92469429D01*
X66904287Y92469429D01*
X67404287Y92612286D02*
X67475715Y92540857D01*
X67404287Y92469429D01*
X67332858Y92540857D01*
X67404287Y92612286D01*
X67404287Y92469429D01*
X67404287Y93398000D02*
X67475715Y93326571D01*
X67404287Y93255143D01*
X67332858Y93326571D01*
X67404287Y93398000D01*
X67404287Y93255143D01*
X69975716Y93969429D02*
X69261430Y93969429D01*
X69190001Y93255143D01*
X69261430Y93326571D01*
X69404287Y93398000D01*
X69761430Y93398000D01*
X69904287Y93326571D01*
X69975716Y93255143D01*
X70047144Y93112286D01*
X70047144Y92755143D01*
X69975716Y92612286D01*
X69904287Y92540857D01*
X69761430Y92469429D01*
X69404287Y92469429D01*
X69261430Y92540857D01*
X69190001Y92612286D01*
X70475715Y93969429D02*
X70975715Y92469429D01*
X71475715Y93969429D01*
X72047143Y92540857D02*
X72047143Y92469429D01*
X71975715Y92326571D01*
X71904286Y92255143D01*
X74475715Y93969429D02*
X74190001Y93969429D01*
X74047144Y93898000D01*
X73975715Y93826571D01*
X73832858Y93612286D01*
X73761429Y93326571D01*
X73761429Y92755143D01*
X73832858Y92612286D01*
X73904286Y92540857D01*
X74047144Y92469429D01*
X74332858Y92469429D01*
X74475715Y92540857D01*
X74547144Y92612286D01*
X74618572Y92755143D01*
X74618572Y93112286D01*
X74547144Y93255143D01*
X74475715Y93326571D01*
X74332858Y93398000D01*
X74047144Y93398000D01*
X73904286Y93326571D01*
X73832858Y93255143D01*
X73761429Y93112286D01*
X75047143Y93969429D02*
X75547143Y92469429D01*
X76047143Y93969429D01*
X76618571Y92540857D02*
X76618571Y92469429D01*
X76547143Y92326571D01*
X76475714Y92255143D01*
X78404286Y93040857D02*
X79547143Y93040857D01*
X78975714Y92469429D02*
X78975714Y93612286D01*
X81332857Y94040857D02*
X80047143Y92112286D01*
X81832858Y93040857D02*
X82975715Y93040857D01*
X83761429Y92469429D02*
X84047144Y92469429D01*
X84190001Y92540857D01*
X84261429Y92612286D01*
X84404287Y92826571D01*
X84475715Y93112286D01*
X84475715Y93683714D01*
X84404287Y93826571D01*
X84332858Y93898000D01*
X84190001Y93969429D01*
X83904287Y93969429D01*
X83761429Y93898000D01*
X83690001Y93826571D01*
X83618572Y93683714D01*
X83618572Y93326571D01*
X83690001Y93183714D01*
X83761429Y93112286D01*
X83904287Y93040857D01*
X84190001Y93040857D01*
X84332858Y93112286D01*
X84404287Y93183714D01*
X84475715Y93326571D01*
X84904286Y93969429D02*
X85404286Y92469429D01*
X85904286Y93969429D01*
X60047143Y90069429D02*
X60047143Y91569429D01*
X60761429Y91069429D02*
X60761429Y90069429D01*
X60761429Y90926571D02*
X60832857Y90998000D01*
X60975715Y91069429D01*
X61190000Y91069429D01*
X61332857Y90998000D01*
X61404286Y90855143D01*
X61404286Y90069429D01*
X62118572Y91069429D02*
X62118572Y89569429D01*
X62118572Y90998000D02*
X62261429Y91069429D01*
X62547143Y91069429D01*
X62690000Y90998000D01*
X62761429Y90926571D01*
X62832858Y90783714D01*
X62832858Y90355143D01*
X62761429Y90212286D01*
X62690000Y90140857D01*
X62547143Y90069429D01*
X62261429Y90069429D01*
X62118572Y90140857D01*
X64118572Y91069429D02*
X64118572Y90069429D01*
X63475715Y91069429D02*
X63475715Y90283714D01*
X63547143Y90140857D01*
X63690001Y90069429D01*
X63904286Y90069429D01*
X64047143Y90140857D01*
X64118572Y90212286D01*
X64618572Y91069429D02*
X65190001Y91069429D01*
X64832858Y91569429D02*
X64832858Y90283714D01*
X64904286Y90140857D01*
X65047144Y90069429D01*
X65190001Y90069429D01*
X65690001Y90212286D02*
X65761429Y90140857D01*
X65690001Y90069429D01*
X65618572Y90140857D01*
X65690001Y90212286D01*
X65690001Y90069429D01*
X65690001Y90998000D02*
X65761429Y90926571D01*
X65690001Y90855143D01*
X65618572Y90926571D01*
X65690001Y90998000D01*
X65690001Y90855143D01*
X67475715Y90140857D02*
X67690001Y90069429D01*
X68047144Y90069429D01*
X68190001Y90140857D01*
X68261430Y90212286D01*
X68332858Y90355143D01*
X68332858Y90498000D01*
X68261430Y90640857D01*
X68190001Y90712286D01*
X68047144Y90783714D01*
X67761430Y90855143D01*
X67618572Y90926571D01*
X67547144Y90998000D01*
X67475715Y91140857D01*
X67475715Y91283714D01*
X67547144Y91426571D01*
X67618572Y91498000D01*
X67761430Y91569429D01*
X68118572Y91569429D01*
X68332858Y91498000D01*
X68975715Y90069429D02*
X68975715Y91069429D01*
X68975715Y91569429D02*
X68904286Y91498000D01*
X68975715Y91426571D01*
X69047143Y91498000D01*
X68975715Y91569429D01*
X68975715Y91426571D01*
X69690001Y91069429D02*
X69690001Y90069429D01*
X69690001Y90926571D02*
X69761429Y90998000D01*
X69904287Y91069429D01*
X70118572Y91069429D01*
X70261429Y90998000D01*
X70332858Y90855143D01*
X70332858Y90069429D01*
X71690001Y91069429D02*
X71690001Y89855143D01*
X71618572Y89712286D01*
X71547144Y89640857D01*
X71404287Y89569429D01*
X71190001Y89569429D01*
X71047144Y89640857D01*
X71690001Y90140857D02*
X71547144Y90069429D01*
X71261430Y90069429D01*
X71118572Y90140857D01*
X71047144Y90212286D01*
X70975715Y90355143D01*
X70975715Y90783714D01*
X71047144Y90926571D01*
X71118572Y90998000D01*
X71261430Y91069429D01*
X71547144Y91069429D01*
X71690001Y90998000D01*
X72618573Y90069429D02*
X72475715Y90140857D01*
X72404287Y90283714D01*
X72404287Y91569429D01*
X73761429Y90140857D02*
X73618572Y90069429D01*
X73332858Y90069429D01*
X73190001Y90140857D01*
X73118572Y90283714D01*
X73118572Y90855143D01*
X73190001Y90998000D01*
X73332858Y91069429D01*
X73618572Y91069429D01*
X73761429Y90998000D01*
X73832858Y90855143D01*
X73832858Y90712286D01*
X73118572Y90569429D01*
X75690000Y90069429D02*
X75975715Y90069429D01*
X76118572Y90140857D01*
X76190000Y90212286D01*
X76332858Y90426571D01*
X76404286Y90712286D01*
X76404286Y91283714D01*
X76332858Y91426571D01*
X76261429Y91498000D01*
X76118572Y91569429D01*
X75832858Y91569429D01*
X75690000Y91498000D01*
X75618572Y91426571D01*
X75547143Y91283714D01*
X75547143Y90926571D01*
X75618572Y90783714D01*
X75690000Y90712286D01*
X75832858Y90640857D01*
X76118572Y90640857D01*
X76261429Y90712286D01*
X76332858Y90783714D01*
X76404286Y90926571D01*
X76832857Y91569429D02*
X77332857Y90069429D01*
X77832857Y91569429D01*
X78975714Y90069429D02*
X78975714Y90855143D01*
X78904285Y90998000D01*
X78761428Y91069429D01*
X78475714Y91069429D01*
X78332857Y90998000D01*
X78975714Y90140857D02*
X78832857Y90069429D01*
X78475714Y90069429D01*
X78332857Y90140857D01*
X78261428Y90283714D01*
X78261428Y90426571D01*
X78332857Y90569429D01*
X78475714Y90640857D01*
X78832857Y90640857D01*
X78975714Y90712286D01*
X80332857Y90140857D02*
X80190000Y90069429D01*
X79904286Y90069429D01*
X79761428Y90140857D01*
X79690000Y90212286D01*
X79618571Y90355143D01*
X79618571Y90783714D01*
X79690000Y90926571D01*
X79761428Y90998000D01*
X79904286Y91069429D01*
X80190000Y91069429D01*
X80332857Y90998000D01*
X60904286Y87669429D02*
X60404286Y88383714D01*
X60047143Y87669429D02*
X60047143Y89169429D01*
X60618571Y89169429D01*
X60761429Y89098000D01*
X60832857Y89026571D01*
X60904286Y88883714D01*
X60904286Y88669429D01*
X60832857Y88526571D01*
X60761429Y88455143D01*
X60618571Y88383714D01*
X60047143Y88383714D01*
X62118571Y87740857D02*
X61975714Y87669429D01*
X61690000Y87669429D01*
X61547143Y87740857D01*
X61475714Y87883714D01*
X61475714Y88455143D01*
X61547143Y88598000D01*
X61690000Y88669429D01*
X61975714Y88669429D01*
X62118571Y88598000D01*
X62190000Y88455143D01*
X62190000Y88312286D01*
X61475714Y88169429D01*
X62690000Y88669429D02*
X63047143Y87669429D01*
X63404285Y88669429D01*
X63975714Y87669429D02*
X63975714Y88669429D01*
X63975714Y89169429D02*
X63904285Y89098000D01*
X63975714Y89026571D01*
X64047142Y89098000D01*
X63975714Y89169429D01*
X63975714Y89026571D01*
X64618571Y87740857D02*
X64761428Y87669429D01*
X65047143Y87669429D01*
X65190000Y87740857D01*
X65261428Y87883714D01*
X65261428Y87955143D01*
X65190000Y88098000D01*
X65047143Y88169429D01*
X64832857Y88169429D01*
X64690000Y88240857D01*
X64618571Y88383714D01*
X64618571Y88455143D01*
X64690000Y88598000D01*
X64832857Y88669429D01*
X65047143Y88669429D01*
X65190000Y88598000D01*
X65904286Y87669429D02*
X65904286Y88669429D01*
X65904286Y89169429D02*
X65832857Y89098000D01*
X65904286Y89026571D01*
X65975714Y89098000D01*
X65904286Y89169429D01*
X65904286Y89026571D01*
X66832858Y87669429D02*
X66690000Y87740857D01*
X66618572Y87812286D01*
X66547143Y87955143D01*
X66547143Y88383714D01*
X66618572Y88526571D01*
X66690000Y88598000D01*
X66832858Y88669429D01*
X67047143Y88669429D01*
X67190000Y88598000D01*
X67261429Y88526571D01*
X67332858Y88383714D01*
X67332858Y87955143D01*
X67261429Y87812286D01*
X67190000Y87740857D01*
X67047143Y87669429D01*
X66832858Y87669429D01*
X67975715Y88669429D02*
X67975715Y87669429D01*
X67975715Y88526571D02*
X68047143Y88598000D01*
X68190001Y88669429D01*
X68404286Y88669429D01*
X68547143Y88598000D01*
X68618572Y88455143D01*
X68618572Y87669429D01*
X71261429Y87669429D02*
X70404286Y87669429D01*
X70832858Y87669429D02*
X70832858Y89169429D01*
X70690001Y88955143D01*
X70547143Y88812286D01*
X70404286Y88740857D01*
D12*
X0Y100000000D02*
X0Y0D01*
X100000000Y100000000D02*
X0Y100000000D01*
X100000000Y0D02*
X100000000Y100000000D01*
X0Y0D02*
X100000000Y0D01*
X15425261Y71525175D02*
X15425261Y70509175D01*
X14917261Y71017175D02*
X15933261Y71017175D01*
X23235261Y73811175D02*
G75*
G03X23235261Y73811175I-4000000J0D01*
G01*
X43180000Y70739000D02*
X43180000Y69723000D01*
X42672000Y70231000D02*
X43688000Y70231000D01*
X50990000Y73025000D02*
G75*
G03X50990000Y73025000I-4000000J0D01*
G01*
X23560000Y62185000D02*
X22160000Y62185000D01*
X31860000Y55185000D02*
G75*
G03X31860000Y55185000I-9000000J0D01*
G01*
X22860000Y62885000D02*
X22860000Y61485000D01*
X23560000Y42500000D02*
X22160000Y42500000D01*
X31860000Y35500000D02*
G75*
G03X31860000Y35500000I-9000000J0D01*
G01*
X22860000Y43200000D02*
X22860000Y41800000D01*
X44515000Y62185000D02*
X43115000Y62185000D01*
X52815000Y55185000D02*
G75*
G03X52815000Y55185000I-9000000J0D01*
G01*
X43815000Y62885000D02*
X43815000Y61485000D01*
X44515000Y42500000D02*
X43115000Y42500000D01*
X52815000Y35500000D02*
G75*
G03X52815000Y35500000I-9000000J0D01*
G01*
X43815000Y43200000D02*
X43815000Y41800000D01*
X11754961Y80796175D02*
X12288361Y80796175D01*
X11754961Y80796175D02*
X11221561Y80796175D01*
X11754961Y79526175D02*
X12288361Y79526175D01*
X11754961Y79526175D02*
X11221561Y79526175D01*
X39370000Y80010000D02*
X39903400Y80010000D01*
X39370000Y80010000D02*
X38836600Y80010000D01*
X39370000Y78740000D02*
X39903400Y78740000D01*
X39370000Y78740000D02*
X38836600Y78740000D01*
X76835000Y68199000D02*
X76835000Y67183000D01*
X76327000Y67691000D02*
X77343000Y67691000D01*
X84645000Y70485000D02*
G75*
G03X84645000Y70485000I-4000000J0D01*
G01*
X83820000Y23241000D02*
X83820000Y24257000D01*
X84328000Y23749000D02*
X83312000Y23749000D01*
X84010000Y20955000D02*
G75*
G03X84010000Y20955000I-4000000J0D01*
G01*
X17330261Y85241175D02*
X17330261Y85774575D01*
X17330261Y85241175D02*
X17330261Y84707775D01*
X18600261Y85241175D02*
X18600261Y85774575D01*
X18600261Y85241175D02*
X18600261Y84707775D01*
X45085000Y84455000D02*
X45085000Y84988400D01*
X45085000Y84455000D02*
X45085000Y83921600D01*
X46355000Y84455000D02*
X46355000Y84988400D01*
X46355000Y84455000D02*
X46355000Y83921600D01*
X78460600Y64947800D02*
X77444600Y64947800D01*
X77952600Y65455800D02*
X77952600Y64439800D01*
X84746600Y61137800D02*
G75*
G03X84746600Y61137800I-4000000J0D01*
G01*
X78867000Y34290000D02*
X77851000Y34290000D01*
X78359000Y34798000D02*
X78359000Y33782000D01*
X85153000Y30480000D02*
G75*
G03X85153000Y30480000I-4000000J0D01*
G01*
X18715000Y80161175D02*
X18815000Y80161175D01*
X18115000Y80161175D02*
X18015000Y80161175D01*
X14670902Y78961175D02*
G75*
G03X14670902Y78961175I-55902J0D01*
G01*
X18165000Y79661175D02*
X18165000Y80661175D01*
X18665000Y79661175D02*
X18165000Y80161175D01*
X18665000Y79661175D02*
X18665000Y80661175D01*
X18665000Y80661175D02*
X18165000Y80161175D01*
X18415000Y81561175D02*
X19215000Y81561175D01*
X18415000Y81561175D02*
X17615000Y81561175D01*
X18415000Y78761175D02*
X17615000Y78761175D01*
X18415000Y78761175D02*
X19215000Y78761175D01*
X46655000Y79375000D02*
X46755000Y79375000D01*
X46055000Y79375000D02*
X45955000Y79375000D01*
X42610902Y78175000D02*
G75*
G03X42610902Y78175000I-55902J0D01*
G01*
X46105000Y78875000D02*
X46105000Y79875000D01*
X46605000Y78875000D02*
X46105000Y79375000D01*
X46605000Y78875000D02*
X46605000Y79875000D01*
X46605000Y79875000D02*
X46105000Y79375000D01*
X46355000Y80775000D02*
X47155000Y80775000D01*
X46355000Y80775000D02*
X45555000Y80775000D01*
X46355000Y77975000D02*
X45555000Y77975000D01*
X46355000Y77975000D02*
X47155000Y77975000D01*
X2445000Y41180000D02*
X445000Y41180000D01*
X8445000Y41180000D02*
X6445000Y41180000D01*
X6445000Y49180000D02*
X8445000Y49180000D01*
X445000Y49180000D02*
X2445000Y49180000D01*
X4445000Y49180000D02*
X2445000Y49180000D01*
X445000Y49180000D02*
X445000Y41180000D01*
X2445000Y41180000D02*
X6445000Y41180000D01*
X8445000Y41180000D02*
X8445000Y49180000D01*
X6445000Y49180000D02*
X4445000Y49180000D01*
X24225000Y93250000D02*
X24225000Y91250000D01*
X24225000Y99250000D02*
X24225000Y97250000D01*
X16225000Y97250000D02*
X16225000Y99250000D01*
X16225000Y91250000D02*
X16225000Y93250000D01*
X16225000Y95250000D02*
X16225000Y93250000D01*
X16225000Y91250000D02*
X24225000Y91250000D01*
X24225000Y93250000D02*
X24225000Y97250000D01*
X24225000Y99250000D02*
X16225000Y99250000D01*
X16225000Y97250000D02*
X16225000Y95250000D01*
X33115000Y93250000D02*
X33115000Y91250000D01*
X33115000Y99250000D02*
X33115000Y97250000D01*
X25115000Y97250000D02*
X25115000Y99250000D01*
X25115000Y91250000D02*
X25115000Y93250000D01*
X25115000Y95250000D02*
X25115000Y93250000D01*
X25115000Y91250000D02*
X33115000Y91250000D01*
X33115000Y93250000D02*
X33115000Y97250000D01*
X33115000Y99250000D02*
X25115000Y99250000D01*
X25115000Y97250000D02*
X25115000Y95250000D01*
X50895000Y93250000D02*
X50895000Y91250000D01*
X50895000Y99250000D02*
X50895000Y97250000D01*
X42895000Y97250000D02*
X42895000Y99250000D01*
X42895000Y91250000D02*
X42895000Y93250000D01*
X42895000Y95250000D02*
X42895000Y93250000D01*
X42895000Y91250000D02*
X50895000Y91250000D01*
X50895000Y93250000D02*
X50895000Y97250000D01*
X50895000Y99250000D02*
X42895000Y99250000D01*
X42895000Y97250000D02*
X42895000Y95250000D01*
X42005000Y93250000D02*
X42005000Y91250000D01*
X42005000Y99250000D02*
X42005000Y97250000D01*
X34005000Y97250000D02*
X34005000Y99250000D01*
X34005000Y91250000D02*
X34005000Y93250000D01*
X34005000Y95250000D02*
X34005000Y93250000D01*
X34005000Y91250000D02*
X42005000Y91250000D01*
X42005000Y93250000D02*
X42005000Y97250000D01*
X42005000Y99250000D02*
X34005000Y99250000D01*
X34005000Y97250000D02*
X34005000Y95250000D01*
X93250000Y73565000D02*
X91250000Y73565000D01*
X99250000Y73565000D02*
X97250000Y73565000D01*
X97250000Y81565000D02*
X99250000Y81565000D01*
X91250000Y81565000D02*
X93250000Y81565000D01*
X95250000Y81565000D02*
X93250000Y81565000D01*
X91250000Y81565000D02*
X91250000Y73565000D01*
X93250000Y73565000D02*
X97250000Y73565000D01*
X99250000Y73565000D02*
X99250000Y81565000D01*
X97250000Y81565000D02*
X95250000Y81565000D01*
X93250000Y8795000D02*
X91250000Y8795000D01*
X99250000Y8795000D02*
X97250000Y8795000D01*
X97250000Y16795000D02*
X99250000Y16795000D01*
X91250000Y16795000D02*
X93250000Y16795000D01*
X95250000Y16795000D02*
X93250000Y16795000D01*
X91250000Y16795000D02*
X91250000Y8795000D01*
X93250000Y8795000D02*
X97250000Y8795000D01*
X99250000Y8795000D02*
X99250000Y16795000D01*
X97250000Y16795000D02*
X95250000Y16795000D01*
X93250000Y63405000D02*
X91250000Y63405000D01*
X99250000Y63405000D02*
X97250000Y63405000D01*
X97250000Y71405000D02*
X99250000Y71405000D01*
X91250000Y71405000D02*
X93250000Y71405000D01*
X95250000Y71405000D02*
X93250000Y71405000D01*
X91250000Y71405000D02*
X91250000Y63405000D01*
X93250000Y63405000D02*
X97250000Y63405000D01*
X99250000Y63405000D02*
X99250000Y71405000D01*
X97250000Y71405000D02*
X95250000Y71405000D01*
X93250000Y54515000D02*
X91250000Y54515000D01*
X99250000Y54515000D02*
X97250000Y54515000D01*
X97250000Y62515000D02*
X99250000Y62515000D01*
X91250000Y62515000D02*
X93250000Y62515000D01*
X95250000Y62515000D02*
X93250000Y62515000D01*
X91250000Y62515000D02*
X91250000Y54515000D01*
X93250000Y54515000D02*
X97250000Y54515000D01*
X99250000Y54515000D02*
X99250000Y62515000D01*
X97250000Y62515000D02*
X95250000Y62515000D01*
X93250000Y45625000D02*
X91250000Y45625000D01*
X99250000Y45625000D02*
X97250000Y45625000D01*
X97250000Y53625000D02*
X99250000Y53625000D01*
X91250000Y53625000D02*
X93250000Y53625000D01*
X95250000Y53625000D02*
X93250000Y53625000D01*
X91250000Y53625000D02*
X91250000Y45625000D01*
X93250000Y45625000D02*
X97250000Y45625000D01*
X99250000Y45625000D02*
X99250000Y53625000D01*
X97250000Y53625000D02*
X95250000Y53625000D01*
X93250000Y36735000D02*
X91250000Y36735000D01*
X99250000Y36735000D02*
X97250000Y36735000D01*
X97250000Y44735000D02*
X99250000Y44735000D01*
X91250000Y44735000D02*
X93250000Y44735000D01*
X95250000Y44735000D02*
X93250000Y44735000D01*
X91250000Y44735000D02*
X91250000Y36735000D01*
X93250000Y36735000D02*
X97250000Y36735000D01*
X99250000Y36735000D02*
X99250000Y44735000D01*
X97250000Y44735000D02*
X95250000Y44735000D01*
X93250000Y27845000D02*
X91250000Y27845000D01*
X99250000Y27845000D02*
X97250000Y27845000D01*
X97250000Y35845000D02*
X99250000Y35845000D01*
X91250000Y35845000D02*
X93250000Y35845000D01*
X95250000Y35845000D02*
X93250000Y35845000D01*
X91250000Y35845000D02*
X91250000Y27845000D01*
X93250000Y27845000D02*
X97250000Y27845000D01*
X99250000Y27845000D02*
X99250000Y35845000D01*
X97250000Y35845000D02*
X95250000Y35845000D01*
X93250000Y18955000D02*
X91250000Y18955000D01*
X99250000Y18955000D02*
X97250000Y18955000D01*
X97250000Y26955000D02*
X99250000Y26955000D01*
X91250000Y26955000D02*
X93250000Y26955000D01*
X95250000Y26955000D02*
X93250000Y26955000D01*
X91250000Y26955000D02*
X91250000Y18955000D01*
X93250000Y18955000D02*
X97250000Y18955000D01*
X99250000Y18955000D02*
X99250000Y26955000D01*
X97250000Y26955000D02*
X95250000Y26955000D01*
X12885261Y71271175D02*
X12885261Y71804575D01*
X12885261Y71271175D02*
X12885261Y70737775D01*
X14155261Y71271175D02*
X14155261Y71804575D01*
X14155261Y71271175D02*
X14155261Y70737775D01*
X10345261Y71271175D02*
X10345261Y71804575D01*
X10345261Y71271175D02*
X10345261Y70737775D01*
X11615261Y71271175D02*
X11615261Y71804575D01*
X11615261Y71271175D02*
X11615261Y70737775D01*
X40640000Y70485000D02*
X40640000Y71018400D01*
X40640000Y70485000D02*
X40640000Y69951600D01*
X41910000Y70485000D02*
X41910000Y71018400D01*
X41910000Y70485000D02*
X41910000Y69951600D01*
X38100000Y70485000D02*
X38100000Y71018400D01*
X38100000Y70485000D02*
X38100000Y69951600D01*
X39370000Y70485000D02*
X39370000Y71018400D01*
X39370000Y70485000D02*
X39370000Y69951600D01*
X6858000Y78740000D02*
X6858000Y79273400D01*
X6858000Y78740000D02*
X6858000Y78206600D01*
X8128000Y78740000D02*
X8128000Y79273400D01*
X8128000Y78740000D02*
X8128000Y78206600D01*
X6477000Y74519955D02*
X5943600Y74519955D01*
X6477000Y74519955D02*
X7010400Y74519955D01*
X6477000Y75789955D02*
X5943600Y75789955D01*
X6477000Y75789955D02*
X7010400Y75789955D01*
X34671000Y77978000D02*
X34671000Y78511400D01*
X34671000Y77978000D02*
X34671000Y77444600D01*
X35941000Y77978000D02*
X35941000Y78511400D01*
X35941000Y77978000D02*
X35941000Y77444600D01*
X34290000Y73787000D02*
X33756600Y73787000D01*
X34290000Y73787000D02*
X34823400Y73787000D01*
X34290000Y75057000D02*
X33756600Y75057000D01*
X34290000Y75057000D02*
X34823400Y75057000D01*
X80645000Y75565000D02*
X80111600Y75565000D01*
X80645000Y75565000D02*
X81178400Y75565000D01*
X80645000Y76835000D02*
X80111600Y76835000D01*
X80645000Y76835000D02*
X81178400Y76835000D01*
X80010000Y14605000D02*
X79476600Y14605000D01*
X80010000Y14605000D02*
X80543400Y14605000D01*
X80010000Y15875000D02*
X79476600Y15875000D01*
X80010000Y15875000D02*
X80543400Y15875000D01*
X12415261Y76046375D02*
X12415261Y77496375D01*
X12415261Y77496375D02*
X10815261Y77496375D01*
X10815261Y77496375D02*
X10815261Y74596375D01*
X10815261Y74596375D02*
X12415261Y74596375D01*
X12415261Y74596375D02*
X12415261Y76046375D01*
X40170000Y75565000D02*
X40170000Y77015000D01*
X40170000Y77015000D02*
X38570000Y77015000D01*
X38570000Y77015000D02*
X38570000Y74115000D01*
X38570000Y74115000D02*
X40170000Y74115000D01*
X40170000Y74115000D02*
X40170000Y75565000D01*
X62590000Y46200000D02*
X68890000Y46200000D01*
X62590000Y63500000D02*
X62590000Y46200000D01*
X62590000Y80800000D02*
X62590000Y63500000D01*
X62690000Y80800000D02*
X62590000Y80800000D01*
X68890000Y80800000D02*
X62690000Y80800000D01*
X75190000Y80800000D02*
X68890000Y80800000D01*
X75190000Y63500000D02*
X75190000Y80800000D01*
X75190000Y46200000D02*
X75190000Y63500000D01*
X68890000Y46200000D02*
X75190000Y46200000D01*
X67747000Y67818000D02*
G75*
G03X67747000Y67818000I-127000J0D01*
G01*
X71430000Y68580000D02*
X71430000Y58420000D01*
X71430000Y58420000D02*
X66858000Y58420000D01*
X66858000Y58420000D02*
X66858000Y68580000D01*
X66858000Y68580000D02*
X71430000Y68580000D01*
X75190000Y44351000D02*
X68890000Y44351000D01*
X75190000Y27051000D02*
X75190000Y44351000D01*
X75190000Y9751000D02*
X75190000Y27051000D01*
X75090000Y9751000D02*
X75190000Y9751000D01*
X68890000Y9751000D02*
X75090000Y9751000D01*
X62590000Y9751000D02*
X68890000Y9751000D01*
X62590000Y27051000D02*
X62590000Y9751000D01*
X62590000Y44351000D02*
X62590000Y27051000D01*
X68890000Y44351000D02*
X62590000Y44351000D01*
X70287000Y22733000D02*
G75*
G03X70287000Y22733000I-127000J0D01*
G01*
X66350000Y21971000D02*
X66350000Y32131000D01*
X66350000Y32131000D02*
X70922000Y32131000D01*
X70922000Y32131000D02*
X70922000Y21971000D01*
X70922000Y21971000D02*
X66350000Y21971000D01*
X21844000Y89535000D02*
X20828000Y89535000D01*
X21336000Y90043000D02*
X21336000Y89027000D01*
X28130000Y85725000D02*
G75*
G03X28130000Y85725000I-4000000J0D01*
G01*
X50419000Y88745000D02*
X49403000Y88745000D01*
X49911000Y89253000D02*
X49911000Y88237000D01*
X56705000Y84935000D02*
G75*
G03X56705000Y84935000I-4000000J0D01*
G01*
X55499000Y58928000D02*
X54483000Y58928000D01*
X54991000Y59436000D02*
X54991000Y58420000D01*
X61785000Y55118000D02*
G75*
G03X61785000Y55118000I-4000000J0D01*
G01*
X55626000Y39370000D02*
X54610000Y39370000D01*
X55118000Y39878000D02*
X55118000Y38862000D01*
X61912000Y35560000D02*
G75*
G03X61912000Y35560000I-4000000J0D01*
G01*
X24741143Y72159953D02*
X24788762Y72112334D01*
X24836381Y71969477D01*
X24836381Y71874239D01*
X24788762Y71731381D01*
X24693524Y71636143D01*
X24598286Y71588524D01*
X24407810Y71540905D01*
X24264952Y71540905D01*
X24074476Y71588524D01*
X23979238Y71636143D01*
X23884000Y71731381D01*
X23836381Y71874239D01*
X23836381Y71969477D01*
X23884000Y72112334D01*
X23931619Y72159953D01*
X24836381Y73112334D02*
X24836381Y72540905D01*
X24836381Y72826619D02*
X23836381Y72826619D01*
X23979238Y72731381D01*
X24074476Y72636143D01*
X24122095Y72540905D01*
X23836381Y73731381D02*
X23836381Y73826620D01*
X23884000Y73921858D01*
X23931619Y73969477D01*
X24026857Y74017096D01*
X24217333Y74064715D01*
X24455429Y74064715D01*
X24645905Y74017096D01*
X24741143Y73969477D01*
X24788762Y73921858D01*
X24836381Y73826620D01*
X24836381Y73731381D01*
X24788762Y73636143D01*
X24741143Y73588524D01*
X24645905Y73540905D01*
X24455429Y73493286D01*
X24217333Y73493286D01*
X24026857Y73540905D01*
X23931619Y73588524D01*
X23884000Y73636143D01*
X23836381Y73731381D01*
X24836381Y75017096D02*
X24836381Y74445667D01*
X24836381Y74731381D02*
X23836381Y74731381D01*
X23979238Y74636143D01*
X24074476Y74540905D01*
X24122095Y74445667D01*
X52173143Y71905953D02*
X52220762Y71858334D01*
X52268381Y71715477D01*
X52268381Y71620239D01*
X52220762Y71477381D01*
X52125524Y71382143D01*
X52030286Y71334524D01*
X51839810Y71286905D01*
X51696952Y71286905D01*
X51506476Y71334524D01*
X51411238Y71382143D01*
X51316000Y71477381D01*
X51268381Y71620239D01*
X51268381Y71715477D01*
X51316000Y71858334D01*
X51363619Y71905953D01*
X52268381Y72858334D02*
X52268381Y72286905D01*
X52268381Y72572619D02*
X51268381Y72572619D01*
X51411238Y72477381D01*
X51506476Y72382143D01*
X51554095Y72286905D01*
X51268381Y73477381D02*
X51268381Y73572620D01*
X51316000Y73667858D01*
X51363619Y73715477D01*
X51458857Y73763096D01*
X51649333Y73810715D01*
X51887429Y73810715D01*
X52077905Y73763096D01*
X52173143Y73715477D01*
X52220762Y73667858D01*
X52268381Y73572620D01*
X52268381Y73477381D01*
X52220762Y73382143D01*
X52173143Y73334524D01*
X52077905Y73286905D01*
X51887429Y73239286D01*
X51649333Y73239286D01*
X51458857Y73286905D01*
X51363619Y73334524D01*
X51316000Y73382143D01*
X51268381Y73477381D01*
X51363619Y74191667D02*
X51316000Y74239286D01*
X51268381Y74334524D01*
X51268381Y74572620D01*
X51316000Y74667858D01*
X51363619Y74715477D01*
X51458857Y74763096D01*
X51554095Y74763096D01*
X51696952Y74715477D01*
X52268381Y74144048D01*
X52268381Y74763096D01*
X21740953Y64666857D02*
X21693334Y64619238D01*
X21550477Y64571619D01*
X21455239Y64571619D01*
X21312381Y64619238D01*
X21217143Y64714476D01*
X21169524Y64809714D01*
X21121905Y65000190D01*
X21121905Y65143048D01*
X21169524Y65333524D01*
X21217143Y65428762D01*
X21312381Y65524000D01*
X21455239Y65571619D01*
X21550477Y65571619D01*
X21693334Y65524000D01*
X21740953Y65476381D01*
X22693334Y64571619D02*
X22121905Y64571619D01*
X22407619Y64571619D02*
X22407619Y65571619D01*
X22312381Y65428762D01*
X22217143Y65333524D01*
X22121905Y65285905D01*
X23312381Y65571619D02*
X23407620Y65571619D01*
X23502858Y65524000D01*
X23550477Y65476381D01*
X23598096Y65381143D01*
X23645715Y65190667D01*
X23645715Y64952571D01*
X23598096Y64762095D01*
X23550477Y64666857D01*
X23502858Y64619238D01*
X23407620Y64571619D01*
X23312381Y64571619D01*
X23217143Y64619238D01*
X23169524Y64666857D01*
X23121905Y64762095D01*
X23074286Y64952571D01*
X23074286Y65190667D01*
X23121905Y65381143D01*
X23169524Y65476381D01*
X23217143Y65524000D01*
X23312381Y65571619D01*
X24550477Y65571619D02*
X24074286Y65571619D01*
X24026667Y65095429D01*
X24074286Y65143048D01*
X24169524Y65190667D01*
X24407620Y65190667D01*
X24502858Y65143048D01*
X24550477Y65095429D01*
X24598096Y65000190D01*
X24598096Y64762095D01*
X24550477Y64666857D01*
X24502858Y64619238D01*
X24407620Y64571619D01*
X24169524Y64571619D01*
X24074286Y64619238D01*
X24026667Y64666857D01*
X21740953Y25169857D02*
X21693334Y25122238D01*
X21550477Y25074619D01*
X21455239Y25074619D01*
X21312381Y25122238D01*
X21217143Y25217476D01*
X21169524Y25312714D01*
X21121905Y25503190D01*
X21121905Y25646048D01*
X21169524Y25836524D01*
X21217143Y25931762D01*
X21312381Y26027000D01*
X21455239Y26074619D01*
X21550477Y26074619D01*
X21693334Y26027000D01*
X21740953Y25979381D01*
X22693334Y25074619D02*
X22121905Y25074619D01*
X22407619Y25074619D02*
X22407619Y26074619D01*
X22312381Y25931762D01*
X22217143Y25836524D01*
X22121905Y25788905D01*
X23312381Y26074619D02*
X23407620Y26074619D01*
X23502858Y26027000D01*
X23550477Y25979381D01*
X23598096Y25884143D01*
X23645715Y25693667D01*
X23645715Y25455571D01*
X23598096Y25265095D01*
X23550477Y25169857D01*
X23502858Y25122238D01*
X23407620Y25074619D01*
X23312381Y25074619D01*
X23217143Y25122238D01*
X23169524Y25169857D01*
X23121905Y25265095D01*
X23074286Y25455571D01*
X23074286Y25693667D01*
X23121905Y25884143D01*
X23169524Y25979381D01*
X23217143Y26027000D01*
X23312381Y26074619D01*
X24502858Y26074619D02*
X24312381Y26074619D01*
X24217143Y26027000D01*
X24169524Y25979381D01*
X24074286Y25836524D01*
X24026667Y25646048D01*
X24026667Y25265095D01*
X24074286Y25169857D01*
X24121905Y25122238D01*
X24217143Y25074619D01*
X24407620Y25074619D01*
X24502858Y25122238D01*
X24550477Y25169857D01*
X24598096Y25265095D01*
X24598096Y25503190D01*
X24550477Y25598429D01*
X24502858Y25646048D01*
X24407620Y25693667D01*
X24217143Y25693667D01*
X24121905Y25646048D01*
X24074286Y25598429D01*
X24026667Y25503190D01*
X42695953Y64666857D02*
X42648334Y64619238D01*
X42505477Y64571619D01*
X42410239Y64571619D01*
X42267381Y64619238D01*
X42172143Y64714476D01*
X42124524Y64809714D01*
X42076905Y65000190D01*
X42076905Y65143048D01*
X42124524Y65333524D01*
X42172143Y65428762D01*
X42267381Y65524000D01*
X42410239Y65571619D01*
X42505477Y65571619D01*
X42648334Y65524000D01*
X42695953Y65476381D01*
X43648334Y64571619D02*
X43076905Y64571619D01*
X43362619Y64571619D02*
X43362619Y65571619D01*
X43267381Y65428762D01*
X43172143Y65333524D01*
X43076905Y65285905D01*
X44600715Y64571619D02*
X44029286Y64571619D01*
X44315000Y64571619D02*
X44315000Y65571619D01*
X44219762Y65428762D01*
X44124524Y65333524D01*
X44029286Y65285905D01*
X44934048Y65571619D02*
X45600715Y65571619D01*
X45172143Y64571619D01*
X42695953Y25042857D02*
X42648334Y24995238D01*
X42505477Y24947619D01*
X42410239Y24947619D01*
X42267381Y24995238D01*
X42172143Y25090476D01*
X42124524Y25185714D01*
X42076905Y25376190D01*
X42076905Y25519048D01*
X42124524Y25709524D01*
X42172143Y25804762D01*
X42267381Y25900000D01*
X42410239Y25947619D01*
X42505477Y25947619D01*
X42648334Y25900000D01*
X42695953Y25852381D01*
X43648334Y24947619D02*
X43076905Y24947619D01*
X43362619Y24947619D02*
X43362619Y25947619D01*
X43267381Y25804762D01*
X43172143Y25709524D01*
X43076905Y25661905D01*
X44600715Y24947619D02*
X44029286Y24947619D01*
X44315000Y24947619D02*
X44315000Y25947619D01*
X44219762Y25804762D01*
X44124524Y25709524D01*
X44029286Y25661905D01*
X45172143Y25519048D02*
X45076905Y25566667D01*
X45029286Y25614286D01*
X44981667Y25709524D01*
X44981667Y25757143D01*
X45029286Y25852381D01*
X45076905Y25900000D01*
X45172143Y25947619D01*
X45362620Y25947619D01*
X45457858Y25900000D01*
X45505477Y25852381D01*
X45553096Y25757143D01*
X45553096Y25709524D01*
X45505477Y25614286D01*
X45457858Y25566667D01*
X45362620Y25519048D01*
X45172143Y25519048D01*
X45076905Y25471429D01*
X45029286Y25423810D01*
X44981667Y25328571D01*
X44981667Y25138095D01*
X45029286Y25042857D01*
X45076905Y24995238D01*
X45172143Y24947619D01*
X45362620Y24947619D01*
X45457858Y24995238D01*
X45505477Y25042857D01*
X45553096Y25138095D01*
X45553096Y25328571D01*
X45505477Y25423810D01*
X45457858Y25471429D01*
X45362620Y25519048D01*
X10381914Y78280032D02*
X10334295Y78232413D01*
X10191438Y78184794D01*
X10096200Y78184794D01*
X9953342Y78232413D01*
X9858104Y78327651D01*
X9810485Y78422889D01*
X9762866Y78613365D01*
X9762866Y78756223D01*
X9810485Y78946699D01*
X9858104Y79041937D01*
X9953342Y79137175D01*
X10096200Y79184794D01*
X10191438Y79184794D01*
X10334295Y79137175D01*
X10381914Y79089556D01*
X11334295Y78184794D02*
X10762866Y78184794D01*
X11048580Y78184794D02*
X11048580Y79184794D01*
X10953342Y79041937D01*
X10858104Y78946699D01*
X10762866Y78899080D01*
X11715247Y79089556D02*
X11762866Y79137175D01*
X11858104Y79184794D01*
X12096200Y79184794D01*
X12191438Y79137175D01*
X12239057Y79089556D01*
X12286676Y78994318D01*
X12286676Y78899080D01*
X12239057Y78756223D01*
X11667628Y78184794D01*
X12286676Y78184794D01*
X13191438Y79184794D02*
X12715247Y79184794D01*
X12667628Y78708604D01*
X12715247Y78756223D01*
X12810485Y78803842D01*
X13048581Y78803842D01*
X13143819Y78756223D01*
X13191438Y78708604D01*
X13239057Y78613365D01*
X13239057Y78375270D01*
X13191438Y78280032D01*
X13143819Y78232413D01*
X13048581Y78184794D01*
X12810485Y78184794D01*
X12715247Y78232413D01*
X12667628Y78280032D01*
X37996953Y77493857D02*
X37949334Y77446238D01*
X37806477Y77398619D01*
X37711239Y77398619D01*
X37568381Y77446238D01*
X37473143Y77541476D01*
X37425524Y77636714D01*
X37377905Y77827190D01*
X37377905Y77970048D01*
X37425524Y78160524D01*
X37473143Y78255762D01*
X37568381Y78351000D01*
X37711239Y78398619D01*
X37806477Y78398619D01*
X37949334Y78351000D01*
X37996953Y78303381D01*
X38949334Y77398619D02*
X38377905Y77398619D01*
X38663619Y77398619D02*
X38663619Y78398619D01*
X38568381Y78255762D01*
X38473143Y78160524D01*
X38377905Y78112905D01*
X39330286Y78303381D02*
X39377905Y78351000D01*
X39473143Y78398619D01*
X39711239Y78398619D01*
X39806477Y78351000D01*
X39854096Y78303381D01*
X39901715Y78208143D01*
X39901715Y78112905D01*
X39854096Y77970048D01*
X39282667Y77398619D01*
X39901715Y77398619D01*
X40758858Y78398619D02*
X40568381Y78398619D01*
X40473143Y78351000D01*
X40425524Y78303381D01*
X40330286Y78160524D01*
X40282667Y77970048D01*
X40282667Y77589095D01*
X40330286Y77493857D01*
X40377905Y77446238D01*
X40473143Y77398619D01*
X40663620Y77398619D01*
X40758858Y77446238D01*
X40806477Y77493857D01*
X40854096Y77589095D01*
X40854096Y77827190D01*
X40806477Y77922429D01*
X40758858Y77970048D01*
X40663620Y78017667D01*
X40473143Y78017667D01*
X40377905Y77970048D01*
X40330286Y77922429D01*
X40282667Y77827190D01*
X83716953Y73937857D02*
X83669334Y73890238D01*
X83526477Y73842619D01*
X83431239Y73842619D01*
X83288381Y73890238D01*
X83193143Y73985476D01*
X83145524Y74080714D01*
X83097905Y74271190D01*
X83097905Y74414048D01*
X83145524Y74604524D01*
X83193143Y74699762D01*
X83288381Y74795000D01*
X83431239Y74842619D01*
X83526477Y74842619D01*
X83669334Y74795000D01*
X83716953Y74747381D01*
X84669334Y73842619D02*
X84097905Y73842619D01*
X84383619Y73842619D02*
X84383619Y74842619D01*
X84288381Y74699762D01*
X84193143Y74604524D01*
X84097905Y74556905D01*
X85050286Y74747381D02*
X85097905Y74795000D01*
X85193143Y74842619D01*
X85431239Y74842619D01*
X85526477Y74795000D01*
X85574096Y74747381D01*
X85621715Y74652143D01*
X85621715Y74556905D01*
X85574096Y74414048D01*
X85002667Y73842619D01*
X85621715Y73842619D01*
X85955048Y74842619D02*
X86621715Y74842619D01*
X86193143Y73842619D01*
X85113953Y20597857D02*
X85066334Y20550238D01*
X84923477Y20502619D01*
X84828239Y20502619D01*
X84685381Y20550238D01*
X84590143Y20645476D01*
X84542524Y20740714D01*
X84494905Y20931190D01*
X84494905Y21074048D01*
X84542524Y21264524D01*
X84590143Y21359762D01*
X84685381Y21455000D01*
X84828239Y21502619D01*
X84923477Y21502619D01*
X85066334Y21455000D01*
X85113953Y21407381D01*
X86066334Y20502619D02*
X85494905Y20502619D01*
X85780619Y20502619D02*
X85780619Y21502619D01*
X85685381Y21359762D01*
X85590143Y21264524D01*
X85494905Y21216905D01*
X86447286Y21407381D02*
X86494905Y21455000D01*
X86590143Y21502619D01*
X86828239Y21502619D01*
X86923477Y21455000D01*
X86971096Y21407381D01*
X87018715Y21312143D01*
X87018715Y21216905D01*
X86971096Y21074048D01*
X86399667Y20502619D01*
X87018715Y20502619D01*
X87590143Y21074048D02*
X87494905Y21121667D01*
X87447286Y21169286D01*
X87399667Y21264524D01*
X87399667Y21312143D01*
X87447286Y21407381D01*
X87494905Y21455000D01*
X87590143Y21502619D01*
X87780620Y21502619D01*
X87875858Y21455000D01*
X87923477Y21407381D01*
X87971096Y21312143D01*
X87971096Y21264524D01*
X87923477Y21169286D01*
X87875858Y21121667D01*
X87780620Y21074048D01*
X87590143Y21074048D01*
X87494905Y21026429D01*
X87447286Y20978810D01*
X87399667Y20883571D01*
X87399667Y20693095D01*
X87447286Y20597857D01*
X87494905Y20550238D01*
X87590143Y20502619D01*
X87780620Y20502619D01*
X87875858Y20550238D01*
X87923477Y20597857D01*
X87971096Y20693095D01*
X87971096Y20883571D01*
X87923477Y20978810D01*
X87875858Y21026429D01*
X87780620Y21074048D01*
X16867143Y84097953D02*
X16914762Y84050334D01*
X16962381Y83907477D01*
X16962381Y83812239D01*
X16914762Y83669381D01*
X16819524Y83574143D01*
X16724286Y83526524D01*
X16533810Y83478905D01*
X16390952Y83478905D01*
X16200476Y83526524D01*
X16105238Y83574143D01*
X16010000Y83669381D01*
X15962381Y83812239D01*
X15962381Y83907477D01*
X16010000Y84050334D01*
X16057619Y84097953D01*
X16962381Y85050334D02*
X16962381Y84478905D01*
X16962381Y84764619D02*
X15962381Y84764619D01*
X16105238Y84669381D01*
X16200476Y84574143D01*
X16248095Y84478905D01*
X15962381Y85383667D02*
X15962381Y86002715D01*
X16343333Y85669381D01*
X16343333Y85812239D01*
X16390952Y85907477D01*
X16438571Y85955096D01*
X16533810Y86002715D01*
X16771905Y86002715D01*
X16867143Y85955096D01*
X16914762Y85907477D01*
X16962381Y85812239D01*
X16962381Y85526524D01*
X16914762Y85431286D01*
X16867143Y85383667D01*
X15962381Y86907477D02*
X15962381Y86431286D01*
X16438571Y86383667D01*
X16390952Y86431286D01*
X16343333Y86526524D01*
X16343333Y86764620D01*
X16390952Y86859858D01*
X16438571Y86907477D01*
X16533810Y86955096D01*
X16771905Y86955096D01*
X16867143Y86907477D01*
X16914762Y86859858D01*
X16962381Y86764620D01*
X16962381Y86526524D01*
X16914762Y86431286D01*
X16867143Y86383667D01*
X47601143Y83081953D02*
X47648762Y83034334D01*
X47696381Y82891477D01*
X47696381Y82796239D01*
X47648762Y82653381D01*
X47553524Y82558143D01*
X47458286Y82510524D01*
X47267810Y82462905D01*
X47124952Y82462905D01*
X46934476Y82510524D01*
X46839238Y82558143D01*
X46744000Y82653381D01*
X46696381Y82796239D01*
X46696381Y82891477D01*
X46744000Y83034334D01*
X46791619Y83081953D01*
X47696381Y84034334D02*
X47696381Y83462905D01*
X47696381Y83748619D02*
X46696381Y83748619D01*
X46839238Y83653381D01*
X46934476Y83558143D01*
X46982095Y83462905D01*
X46696381Y84367667D02*
X46696381Y84986715D01*
X47077333Y84653381D01*
X47077333Y84796239D01*
X47124952Y84891477D01*
X47172571Y84939096D01*
X47267810Y84986715D01*
X47505905Y84986715D01*
X47601143Y84939096D01*
X47648762Y84891477D01*
X47696381Y84796239D01*
X47696381Y84510524D01*
X47648762Y84415286D01*
X47601143Y84367667D01*
X46696381Y85843858D02*
X46696381Y85653381D01*
X46744000Y85558143D01*
X46791619Y85510524D01*
X46934476Y85415286D01*
X47124952Y85367667D01*
X47505905Y85367667D01*
X47601143Y85415286D01*
X47648762Y85462905D01*
X47696381Y85558143D01*
X47696381Y85748620D01*
X47648762Y85843858D01*
X47601143Y85891477D01*
X47505905Y85939096D01*
X47267810Y85939096D01*
X47172571Y85891477D01*
X47124952Y85843858D01*
X47077333Y85748620D01*
X47077333Y85558143D01*
X47124952Y85462905D01*
X47172571Y85415286D01*
X47267810Y85367667D01*
X85802743Y60145753D02*
X85850362Y60098134D01*
X85897981Y59955277D01*
X85897981Y59860039D01*
X85850362Y59717181D01*
X85755124Y59621943D01*
X85659886Y59574324D01*
X85469410Y59526705D01*
X85326552Y59526705D01*
X85136076Y59574324D01*
X85040838Y59621943D01*
X84945600Y59717181D01*
X84897981Y59860039D01*
X84897981Y59955277D01*
X84945600Y60098134D01*
X84993219Y60145753D01*
X85897981Y61098134D02*
X85897981Y60526705D01*
X85897981Y60812419D02*
X84897981Y60812419D01*
X85040838Y60717181D01*
X85136076Y60621943D01*
X85183695Y60526705D01*
X84897981Y61431467D02*
X84897981Y62050515D01*
X85278933Y61717181D01*
X85278933Y61860039D01*
X85326552Y61955277D01*
X85374171Y62002896D01*
X85469410Y62050515D01*
X85707505Y62050515D01*
X85802743Y62002896D01*
X85850362Y61955277D01*
X85897981Y61860039D01*
X85897981Y61574324D01*
X85850362Y61479086D01*
X85802743Y61431467D01*
X84897981Y62383848D02*
X84897981Y63050515D01*
X85897981Y62621943D01*
X86463143Y29233953D02*
X86510762Y29186334D01*
X86558381Y29043477D01*
X86558381Y28948239D01*
X86510762Y28805381D01*
X86415524Y28710143D01*
X86320286Y28662524D01*
X86129810Y28614905D01*
X85986952Y28614905D01*
X85796476Y28662524D01*
X85701238Y28710143D01*
X85606000Y28805381D01*
X85558381Y28948239D01*
X85558381Y29043477D01*
X85606000Y29186334D01*
X85653619Y29233953D01*
X86558381Y30186334D02*
X86558381Y29614905D01*
X86558381Y29900619D02*
X85558381Y29900619D01*
X85701238Y29805381D01*
X85796476Y29710143D01*
X85844095Y29614905D01*
X85558381Y30519667D02*
X85558381Y31138715D01*
X85939333Y30805381D01*
X85939333Y30948239D01*
X85986952Y31043477D01*
X86034571Y31091096D01*
X86129810Y31138715D01*
X86367905Y31138715D01*
X86463143Y31091096D01*
X86510762Y31043477D01*
X86558381Y30948239D01*
X86558381Y30662524D01*
X86510762Y30567286D01*
X86463143Y30519667D01*
X85986952Y31710143D02*
X85939333Y31614905D01*
X85891714Y31567286D01*
X85796476Y31519667D01*
X85748857Y31519667D01*
X85653619Y31567286D01*
X85606000Y31614905D01*
X85558381Y31710143D01*
X85558381Y31900620D01*
X85606000Y31995858D01*
X85653619Y32043477D01*
X85748857Y32091096D01*
X85796476Y32091096D01*
X85891714Y32043477D01*
X85939333Y31995858D01*
X85986952Y31900620D01*
X85986952Y31710143D01*
X86034571Y31614905D01*
X86082190Y31567286D01*
X86177429Y31519667D01*
X86367905Y31519667D01*
X86463143Y31567286D01*
X86510762Y31614905D01*
X86558381Y31710143D01*
X86558381Y31900620D01*
X86510762Y31995858D01*
X86463143Y32043477D01*
X86367905Y32091096D01*
X86177429Y32091096D01*
X86082190Y32043477D01*
X86034571Y31995858D01*
X85986952Y31900620D01*
X24471524Y79684619D02*
X24471524Y80684619D01*
X24709619Y80684619D01*
X24852477Y80637000D01*
X24947715Y80541762D01*
X24995334Y80446524D01*
X25042953Y80256048D01*
X25042953Y80113190D01*
X24995334Y79922714D01*
X24947715Y79827476D01*
X24852477Y79732238D01*
X24709619Y79684619D01*
X24471524Y79684619D01*
X25995334Y79684619D02*
X25423905Y79684619D01*
X25709619Y79684619D02*
X25709619Y80684619D01*
X25614381Y80541762D01*
X25519143Y80446524D01*
X25423905Y80398905D01*
X26614381Y80684619D02*
X26709620Y80684619D01*
X26804858Y80637000D01*
X26852477Y80589381D01*
X26900096Y80494143D01*
X26947715Y80303667D01*
X26947715Y80065571D01*
X26900096Y79875095D01*
X26852477Y79779857D01*
X26804858Y79732238D01*
X26709620Y79684619D01*
X26614381Y79684619D01*
X26519143Y79732238D01*
X26471524Y79779857D01*
X26423905Y79875095D01*
X26376286Y80065571D01*
X26376286Y80303667D01*
X26423905Y80494143D01*
X26471524Y80589381D01*
X26519143Y80637000D01*
X26614381Y80684619D01*
X27281048Y80684619D02*
X27900096Y80684619D01*
X27566762Y80303667D01*
X27709620Y80303667D01*
X27804858Y80256048D01*
X27852477Y80208429D01*
X27900096Y80113190D01*
X27900096Y79875095D01*
X27852477Y79779857D01*
X27804858Y79732238D01*
X27709620Y79684619D01*
X27423905Y79684619D01*
X27328667Y79732238D01*
X27281048Y79779857D01*
X14153095Y79708794D02*
X14153095Y80708794D01*
X14724524Y79708794D02*
X14295952Y80280223D01*
X14724524Y80708794D02*
X14153095Y80137365D01*
X22176905Y79994508D02*
X22653096Y79994508D01*
X22081667Y79708794D02*
X22415000Y80708794D01*
X22748334Y79708794D01*
X52665524Y78795619D02*
X52665524Y79795619D01*
X52903619Y79795619D01*
X53046477Y79748000D01*
X53141715Y79652762D01*
X53189334Y79557524D01*
X53236953Y79367048D01*
X53236953Y79224190D01*
X53189334Y79033714D01*
X53141715Y78938476D01*
X53046477Y78843238D01*
X52903619Y78795619D01*
X52665524Y78795619D01*
X54189334Y78795619D02*
X53617905Y78795619D01*
X53903619Y78795619D02*
X53903619Y79795619D01*
X53808381Y79652762D01*
X53713143Y79557524D01*
X53617905Y79509905D01*
X54808381Y79795619D02*
X54903620Y79795619D01*
X54998858Y79748000D01*
X55046477Y79700381D01*
X55094096Y79605143D01*
X55141715Y79414667D01*
X55141715Y79176571D01*
X55094096Y78986095D01*
X55046477Y78890857D01*
X54998858Y78843238D01*
X54903620Y78795619D01*
X54808381Y78795619D01*
X54713143Y78843238D01*
X54665524Y78890857D01*
X54617905Y78986095D01*
X54570286Y79176571D01*
X54570286Y79414667D01*
X54617905Y79605143D01*
X54665524Y79700381D01*
X54713143Y79748000D01*
X54808381Y79795619D01*
X55998858Y79462286D02*
X55998858Y78795619D01*
X55760762Y79843238D02*
X55522667Y79128952D01*
X56141715Y79128952D01*
X42093095Y78922619D02*
X42093095Y79922619D01*
X42664524Y78922619D02*
X42235952Y79494048D01*
X42664524Y79922619D02*
X42093095Y79351190D01*
X50116905Y79208333D02*
X50593096Y79208333D01*
X50021667Y78922619D02*
X50355000Y79922619D01*
X50688334Y78922619D01*
X16279953Y88320619D02*
X15803762Y88320619D01*
X15803762Y89320619D01*
X17137096Y88320619D02*
X16565667Y88320619D01*
X16851381Y88320619D02*
X16851381Y89320619D01*
X16756143Y89177762D01*
X16660905Y89082524D01*
X16565667Y89034905D01*
X17756143Y89320619D02*
X17851382Y89320619D01*
X17946620Y89273000D01*
X17994239Y89225381D01*
X18041858Y89130143D01*
X18089477Y88939667D01*
X18089477Y88701571D01*
X18041858Y88511095D01*
X17994239Y88415857D01*
X17946620Y88368238D01*
X17851382Y88320619D01*
X17756143Y88320619D01*
X17660905Y88368238D01*
X17613286Y88415857D01*
X17565667Y88511095D01*
X17518048Y88701571D01*
X17518048Y88939667D01*
X17565667Y89130143D01*
X17613286Y89225381D01*
X17660905Y89273000D01*
X17756143Y89320619D01*
X18422810Y89320619D02*
X19041858Y89320619D01*
X18708524Y88939667D01*
X18851382Y88939667D01*
X18946620Y88892048D01*
X18994239Y88844429D01*
X19041858Y88749190D01*
X19041858Y88511095D01*
X18994239Y88415857D01*
X18946620Y88368238D01*
X18851382Y88320619D01*
X18565667Y88320619D01*
X18470429Y88368238D01*
X18422810Y88415857D01*
X44219953Y86796619D02*
X43743762Y86796619D01*
X43743762Y87796619D01*
X45077096Y86796619D02*
X44505667Y86796619D01*
X44791381Y86796619D02*
X44791381Y87796619D01*
X44696143Y87653762D01*
X44600905Y87558524D01*
X44505667Y87510905D01*
X45696143Y87796619D02*
X45791382Y87796619D01*
X45886620Y87749000D01*
X45934239Y87701381D01*
X45981858Y87606143D01*
X46029477Y87415667D01*
X46029477Y87177571D01*
X45981858Y86987095D01*
X45934239Y86891857D01*
X45886620Y86844238D01*
X45791382Y86796619D01*
X45696143Y86796619D01*
X45600905Y86844238D01*
X45553286Y86891857D01*
X45505667Y86987095D01*
X45458048Y87177571D01*
X45458048Y87415667D01*
X45505667Y87606143D01*
X45553286Y87701381D01*
X45600905Y87749000D01*
X45696143Y87796619D01*
X46886620Y87463286D02*
X46886620Y86796619D01*
X46648524Y87844238D02*
X46410429Y87129952D01*
X47029477Y87129952D01*
X2754524Y49458619D02*
X2754524Y50458619D01*
X3135477Y50458619D01*
X3230715Y50411000D01*
X3278334Y50363381D01*
X3325953Y50268143D01*
X3325953Y50125286D01*
X3278334Y50030048D01*
X3230715Y49982429D01*
X3135477Y49934810D01*
X2754524Y49934810D01*
X4278334Y49458619D02*
X3706905Y49458619D01*
X3992619Y49458619D02*
X3992619Y50458619D01*
X3897381Y50315762D01*
X3802143Y50220524D01*
X3706905Y50172905D01*
X4897381Y50458619D02*
X4992620Y50458619D01*
X5087858Y50411000D01*
X5135477Y50363381D01*
X5183096Y50268143D01*
X5230715Y50077667D01*
X5230715Y49839571D01*
X5183096Y49649095D01*
X5135477Y49553857D01*
X5087858Y49506238D01*
X4992620Y49458619D01*
X4897381Y49458619D01*
X4802143Y49506238D01*
X4754524Y49553857D01*
X4706905Y49649095D01*
X4659286Y49839571D01*
X4659286Y50077667D01*
X4706905Y50268143D01*
X4754524Y50363381D01*
X4802143Y50411000D01*
X4897381Y50458619D01*
X5564048Y50458619D02*
X6183096Y50458619D01*
X5849762Y50077667D01*
X5992620Y50077667D01*
X6087858Y50030048D01*
X6135477Y49982429D01*
X6183096Y49887190D01*
X6183096Y49649095D01*
X6135477Y49553857D01*
X6087858Y49506238D01*
X5992620Y49458619D01*
X5706905Y49458619D01*
X5611667Y49506238D01*
X5564048Y49553857D01*
X12533524Y95686619D02*
X12533524Y96686619D01*
X12914477Y96686619D01*
X13009715Y96639000D01*
X13057334Y96591381D01*
X13104953Y96496143D01*
X13104953Y96353286D01*
X13057334Y96258048D01*
X13009715Y96210429D01*
X12914477Y96162810D01*
X12533524Y96162810D01*
X14057334Y95686619D02*
X13485905Y95686619D01*
X13771619Y95686619D02*
X13771619Y96686619D01*
X13676381Y96543762D01*
X13581143Y96448524D01*
X13485905Y96400905D01*
X14676381Y96686619D02*
X14771620Y96686619D01*
X14866858Y96639000D01*
X14914477Y96591381D01*
X14962096Y96496143D01*
X15009715Y96305667D01*
X15009715Y96067571D01*
X14962096Y95877095D01*
X14914477Y95781857D01*
X14866858Y95734238D01*
X14771620Y95686619D01*
X14676381Y95686619D01*
X14581143Y95734238D01*
X14533524Y95781857D01*
X14485905Y95877095D01*
X14438286Y96067571D01*
X14438286Y96305667D01*
X14485905Y96496143D01*
X14533524Y96591381D01*
X14581143Y96639000D01*
X14676381Y96686619D01*
X15866858Y96686619D02*
X15676381Y96686619D01*
X15581143Y96639000D01*
X15533524Y96591381D01*
X15438286Y96448524D01*
X15390667Y96258048D01*
X15390667Y95877095D01*
X15438286Y95781857D01*
X15485905Y95734238D01*
X15581143Y95686619D01*
X15771620Y95686619D01*
X15866858Y95734238D01*
X15914477Y95781857D01*
X15962096Y95877095D01*
X15962096Y96115190D01*
X15914477Y96210429D01*
X15866858Y96258048D01*
X15771620Y96305667D01*
X15581143Y96305667D01*
X15485905Y96258048D01*
X15438286Y96210429D01*
X15390667Y96115190D01*
X26122524Y89844619D02*
X26122524Y90844619D01*
X26503477Y90844619D01*
X26598715Y90797000D01*
X26646334Y90749381D01*
X26693953Y90654143D01*
X26693953Y90511286D01*
X26646334Y90416048D01*
X26598715Y90368429D01*
X26503477Y90320810D01*
X26122524Y90320810D01*
X27646334Y89844619D02*
X27074905Y89844619D01*
X27360619Y89844619D02*
X27360619Y90844619D01*
X27265381Y90701762D01*
X27170143Y90606524D01*
X27074905Y90558905D01*
X28265381Y90844619D02*
X28360620Y90844619D01*
X28455858Y90797000D01*
X28503477Y90749381D01*
X28551096Y90654143D01*
X28598715Y90463667D01*
X28598715Y90225571D01*
X28551096Y90035095D01*
X28503477Y89939857D01*
X28455858Y89892238D01*
X28360620Y89844619D01*
X28265381Y89844619D01*
X28170143Y89892238D01*
X28122524Y89939857D01*
X28074905Y90035095D01*
X28027286Y90225571D01*
X28027286Y90463667D01*
X28074905Y90654143D01*
X28122524Y90749381D01*
X28170143Y90797000D01*
X28265381Y90844619D01*
X28932048Y90844619D02*
X29598715Y90844619D01*
X29170143Y89844619D01*
X47204524Y89797619D02*
X47204524Y90797619D01*
X47585477Y90797619D01*
X47680715Y90750000D01*
X47728334Y90702381D01*
X47775953Y90607143D01*
X47775953Y90464286D01*
X47728334Y90369048D01*
X47680715Y90321429D01*
X47585477Y90273810D01*
X47204524Y90273810D01*
X48728334Y89797619D02*
X48156905Y89797619D01*
X48442619Y89797619D02*
X48442619Y90797619D01*
X48347381Y90654762D01*
X48252143Y90559524D01*
X48156905Y90511905D01*
X49347381Y90797619D02*
X49442620Y90797619D01*
X49537858Y90750000D01*
X49585477Y90702381D01*
X49633096Y90607143D01*
X49680715Y90416667D01*
X49680715Y90178571D01*
X49633096Y89988095D01*
X49585477Y89892857D01*
X49537858Y89845238D01*
X49442620Y89797619D01*
X49347381Y89797619D01*
X49252143Y89845238D01*
X49204524Y89892857D01*
X49156905Y89988095D01*
X49109286Y90178571D01*
X49109286Y90416667D01*
X49156905Y90607143D01*
X49204524Y90702381D01*
X49252143Y90750000D01*
X49347381Y90797619D01*
X50252143Y90369048D02*
X50156905Y90416667D01*
X50109286Y90464286D01*
X50061667Y90559524D01*
X50061667Y90607143D01*
X50109286Y90702381D01*
X50156905Y90750000D01*
X50252143Y90797619D01*
X50442620Y90797619D01*
X50537858Y90750000D01*
X50585477Y90702381D01*
X50633096Y90607143D01*
X50633096Y90559524D01*
X50585477Y90464286D01*
X50537858Y90416667D01*
X50442620Y90369048D01*
X50252143Y90369048D01*
X50156905Y90321429D01*
X50109286Y90273810D01*
X50061667Y90178571D01*
X50061667Y89988095D01*
X50109286Y89892857D01*
X50156905Y89845238D01*
X50252143Y89797619D01*
X50442620Y89797619D01*
X50537858Y89845238D01*
X50585477Y89892857D01*
X50633096Y89988095D01*
X50633096Y90178571D01*
X50585477Y90273810D01*
X50537858Y90321429D01*
X50442620Y90369048D01*
X38314524Y89971619D02*
X38314524Y90971619D01*
X38695477Y90971619D01*
X38790715Y90924000D01*
X38838334Y90876381D01*
X38885953Y90781143D01*
X38885953Y90638286D01*
X38838334Y90543048D01*
X38790715Y90495429D01*
X38695477Y90447810D01*
X38314524Y90447810D01*
X39838334Y89971619D02*
X39266905Y89971619D01*
X39552619Y89971619D02*
X39552619Y90971619D01*
X39457381Y90828762D01*
X39362143Y90733524D01*
X39266905Y90685905D01*
X40457381Y90971619D02*
X40552620Y90971619D01*
X40647858Y90924000D01*
X40695477Y90876381D01*
X40743096Y90781143D01*
X40790715Y90590667D01*
X40790715Y90352571D01*
X40743096Y90162095D01*
X40695477Y90066857D01*
X40647858Y90019238D01*
X40552620Y89971619D01*
X40457381Y89971619D01*
X40362143Y90019238D01*
X40314524Y90066857D01*
X40266905Y90162095D01*
X40219286Y90352571D01*
X40219286Y90590667D01*
X40266905Y90781143D01*
X40314524Y90876381D01*
X40362143Y90924000D01*
X40457381Y90971619D01*
X41266905Y89971619D02*
X41457381Y89971619D01*
X41552620Y90019238D01*
X41600239Y90066857D01*
X41695477Y90209714D01*
X41743096Y90400190D01*
X41743096Y90781143D01*
X41695477Y90876381D01*
X41647858Y90924000D01*
X41552620Y90971619D01*
X41362143Y90971619D01*
X41266905Y90924000D01*
X41219286Y90876381D01*
X41171667Y90781143D01*
X41171667Y90543048D01*
X41219286Y90447810D01*
X41266905Y90400190D01*
X41362143Y90352571D01*
X41552620Y90352571D01*
X41647858Y90400190D01*
X41695477Y90447810D01*
X41743096Y90543048D01*
X90702381Y73874524D02*
X89702381Y73874524D01*
X89702381Y74255477D01*
X89750000Y74350715D01*
X89797619Y74398334D01*
X89892857Y74445953D01*
X90035714Y74445953D01*
X90130952Y74398334D01*
X90178571Y74350715D01*
X90226190Y74255477D01*
X90226190Y73874524D01*
X90702381Y75398334D02*
X90702381Y74826905D01*
X90702381Y75112619D02*
X89702381Y75112619D01*
X89845238Y75017381D01*
X89940476Y74922143D01*
X89988095Y74826905D01*
X90702381Y76350715D02*
X90702381Y75779286D01*
X90702381Y76065000D02*
X89702381Y76065000D01*
X89845238Y75969762D01*
X89940476Y75874524D01*
X89988095Y75779286D01*
X89702381Y76969762D02*
X89702381Y77065001D01*
X89750000Y77160239D01*
X89797619Y77207858D01*
X89892857Y77255477D01*
X90083333Y77303096D01*
X90321429Y77303096D01*
X90511905Y77255477D01*
X90607143Y77207858D01*
X90654762Y77160239D01*
X90702381Y77065001D01*
X90702381Y76969762D01*
X90654762Y76874524D01*
X90607143Y76826905D01*
X90511905Y76779286D01*
X90321429Y76731667D01*
X90083333Y76731667D01*
X89892857Y76779286D01*
X89797619Y76826905D01*
X89750000Y76874524D01*
X89702381Y76969762D01*
X90702381Y9104524D02*
X89702381Y9104524D01*
X89702381Y9485477D01*
X89750000Y9580715D01*
X89797619Y9628334D01*
X89892857Y9675953D01*
X90035714Y9675953D01*
X90130952Y9628334D01*
X90178571Y9580715D01*
X90226190Y9485477D01*
X90226190Y9104524D01*
X90702381Y10628334D02*
X90702381Y10056905D01*
X90702381Y10342619D02*
X89702381Y10342619D01*
X89845238Y10247381D01*
X89940476Y10152143D01*
X89988095Y10056905D01*
X90702381Y11580715D02*
X90702381Y11009286D01*
X90702381Y11295000D02*
X89702381Y11295000D01*
X89845238Y11199762D01*
X89940476Y11104524D01*
X89988095Y11009286D01*
X90702381Y12533096D02*
X90702381Y11961667D01*
X90702381Y12247381D02*
X89702381Y12247381D01*
X89845238Y12152143D01*
X89940476Y12056905D01*
X89988095Y11961667D01*
X90702381Y63714524D02*
X89702381Y63714524D01*
X89702381Y64095477D01*
X89750000Y64190715D01*
X89797619Y64238334D01*
X89892857Y64285953D01*
X90035714Y64285953D01*
X90130952Y64238334D01*
X90178571Y64190715D01*
X90226190Y64095477D01*
X90226190Y63714524D01*
X90702381Y65238334D02*
X90702381Y64666905D01*
X90702381Y64952619D02*
X89702381Y64952619D01*
X89845238Y64857381D01*
X89940476Y64762143D01*
X89988095Y64666905D01*
X90702381Y66190715D02*
X90702381Y65619286D01*
X90702381Y65905000D02*
X89702381Y65905000D01*
X89845238Y65809762D01*
X89940476Y65714524D01*
X89988095Y65619286D01*
X89797619Y66571667D02*
X89750000Y66619286D01*
X89702381Y66714524D01*
X89702381Y66952620D01*
X89750000Y67047858D01*
X89797619Y67095477D01*
X89892857Y67143096D01*
X89988095Y67143096D01*
X90130952Y67095477D01*
X90702381Y66524048D01*
X90702381Y67143096D01*
X90702381Y54824524D02*
X89702381Y54824524D01*
X89702381Y55205477D01*
X89750000Y55300715D01*
X89797619Y55348334D01*
X89892857Y55395953D01*
X90035714Y55395953D01*
X90130952Y55348334D01*
X90178571Y55300715D01*
X90226190Y55205477D01*
X90226190Y54824524D01*
X90702381Y56348334D02*
X90702381Y55776905D01*
X90702381Y56062619D02*
X89702381Y56062619D01*
X89845238Y55967381D01*
X89940476Y55872143D01*
X89988095Y55776905D01*
X90702381Y57300715D02*
X90702381Y56729286D01*
X90702381Y57015000D02*
X89702381Y57015000D01*
X89845238Y56919762D01*
X89940476Y56824524D01*
X89988095Y56729286D01*
X89702381Y57634048D02*
X89702381Y58253096D01*
X90083333Y57919762D01*
X90083333Y58062620D01*
X90130952Y58157858D01*
X90178571Y58205477D01*
X90273810Y58253096D01*
X90511905Y58253096D01*
X90607143Y58205477D01*
X90654762Y58157858D01*
X90702381Y58062620D01*
X90702381Y57776905D01*
X90654762Y57681667D01*
X90607143Y57634048D01*
X90702381Y45934524D02*
X89702381Y45934524D01*
X89702381Y46315477D01*
X89750000Y46410715D01*
X89797619Y46458334D01*
X89892857Y46505953D01*
X90035714Y46505953D01*
X90130952Y46458334D01*
X90178571Y46410715D01*
X90226190Y46315477D01*
X90226190Y45934524D01*
X90702381Y47458334D02*
X90702381Y46886905D01*
X90702381Y47172619D02*
X89702381Y47172619D01*
X89845238Y47077381D01*
X89940476Y46982143D01*
X89988095Y46886905D01*
X90702381Y48410715D02*
X90702381Y47839286D01*
X90702381Y48125000D02*
X89702381Y48125000D01*
X89845238Y48029762D01*
X89940476Y47934524D01*
X89988095Y47839286D01*
X90035714Y49267858D02*
X90702381Y49267858D01*
X89654762Y49029762D02*
X90369048Y48791667D01*
X90369048Y49410715D01*
X90702381Y37044524D02*
X89702381Y37044524D01*
X89702381Y37425477D01*
X89750000Y37520715D01*
X89797619Y37568334D01*
X89892857Y37615953D01*
X90035714Y37615953D01*
X90130952Y37568334D01*
X90178571Y37520715D01*
X90226190Y37425477D01*
X90226190Y37044524D01*
X90702381Y38568334D02*
X90702381Y37996905D01*
X90702381Y38282619D02*
X89702381Y38282619D01*
X89845238Y38187381D01*
X89940476Y38092143D01*
X89988095Y37996905D01*
X90702381Y39520715D02*
X90702381Y38949286D01*
X90702381Y39235000D02*
X89702381Y39235000D01*
X89845238Y39139762D01*
X89940476Y39044524D01*
X89988095Y38949286D01*
X89702381Y40425477D02*
X89702381Y39949286D01*
X90178571Y39901667D01*
X90130952Y39949286D01*
X90083333Y40044524D01*
X90083333Y40282620D01*
X90130952Y40377858D01*
X90178571Y40425477D01*
X90273810Y40473096D01*
X90511905Y40473096D01*
X90607143Y40425477D01*
X90654762Y40377858D01*
X90702381Y40282620D01*
X90702381Y40044524D01*
X90654762Y39949286D01*
X90607143Y39901667D01*
X90702381Y28154524D02*
X89702381Y28154524D01*
X89702381Y28535477D01*
X89750000Y28630715D01*
X89797619Y28678334D01*
X89892857Y28725953D01*
X90035714Y28725953D01*
X90130952Y28678334D01*
X90178571Y28630715D01*
X90226190Y28535477D01*
X90226190Y28154524D01*
X90702381Y29678334D02*
X90702381Y29106905D01*
X90702381Y29392619D02*
X89702381Y29392619D01*
X89845238Y29297381D01*
X89940476Y29202143D01*
X89988095Y29106905D01*
X90702381Y30630715D02*
X90702381Y30059286D01*
X90702381Y30345000D02*
X89702381Y30345000D01*
X89845238Y30249762D01*
X89940476Y30154524D01*
X89988095Y30059286D01*
X89702381Y31487858D02*
X89702381Y31297381D01*
X89750000Y31202143D01*
X89797619Y31154524D01*
X89940476Y31059286D01*
X90130952Y31011667D01*
X90511905Y31011667D01*
X90607143Y31059286D01*
X90654762Y31106905D01*
X90702381Y31202143D01*
X90702381Y31392620D01*
X90654762Y31487858D01*
X90607143Y31535477D01*
X90511905Y31583096D01*
X90273810Y31583096D01*
X90178571Y31535477D01*
X90130952Y31487858D01*
X90083333Y31392620D01*
X90083333Y31202143D01*
X90130952Y31106905D01*
X90178571Y31059286D01*
X90273810Y31011667D01*
X90702381Y19264524D02*
X89702381Y19264524D01*
X89702381Y19645477D01*
X89750000Y19740715D01*
X89797619Y19788334D01*
X89892857Y19835953D01*
X90035714Y19835953D01*
X90130952Y19788334D01*
X90178571Y19740715D01*
X90226190Y19645477D01*
X90226190Y19264524D01*
X90702381Y20788334D02*
X90702381Y20216905D01*
X90702381Y20502619D02*
X89702381Y20502619D01*
X89845238Y20407381D01*
X89940476Y20312143D01*
X89988095Y20216905D01*
X90702381Y21740715D02*
X90702381Y21169286D01*
X90702381Y21455000D02*
X89702381Y21455000D01*
X89845238Y21359762D01*
X89940476Y21264524D01*
X89988095Y21169286D01*
X89702381Y22074048D02*
X89702381Y22740715D01*
X90702381Y22312143D01*
X14041381Y66444953D02*
X13565190Y66111619D01*
X14041381Y65873524D02*
X13041381Y65873524D01*
X13041381Y66254477D01*
X13089000Y66349715D01*
X13136619Y66397334D01*
X13231857Y66444953D01*
X13374714Y66444953D01*
X13469952Y66397334D01*
X13517571Y66349715D01*
X13565190Y66254477D01*
X13565190Y65873524D01*
X14041381Y67397334D02*
X14041381Y66825905D01*
X14041381Y67111619D02*
X13041381Y67111619D01*
X13184238Y67016381D01*
X13279476Y66921143D01*
X13327095Y66825905D01*
X13041381Y68016381D02*
X13041381Y68111620D01*
X13089000Y68206858D01*
X13136619Y68254477D01*
X13231857Y68302096D01*
X13422333Y68349715D01*
X13660429Y68349715D01*
X13850905Y68302096D01*
X13946143Y68254477D01*
X13993762Y68206858D01*
X14041381Y68111620D01*
X14041381Y68016381D01*
X13993762Y67921143D01*
X13946143Y67873524D01*
X13850905Y67825905D01*
X13660429Y67778286D01*
X13422333Y67778286D01*
X13231857Y67825905D01*
X13136619Y67873524D01*
X13089000Y67921143D01*
X13041381Y68016381D01*
X14041381Y69302096D02*
X14041381Y68730667D01*
X14041381Y69016381D02*
X13041381Y69016381D01*
X13184238Y68921143D01*
X13279476Y68825905D01*
X13327095Y68730667D01*
X6881953Y71302619D02*
X6548619Y71778810D01*
X6310524Y71302619D02*
X6310524Y72302619D01*
X6691477Y72302619D01*
X6786715Y72255000D01*
X6834334Y72207381D01*
X6881953Y72112143D01*
X6881953Y71969286D01*
X6834334Y71874048D01*
X6786715Y71826429D01*
X6691477Y71778810D01*
X6310524Y71778810D01*
X7834334Y71302619D02*
X7262905Y71302619D01*
X7548619Y71302619D02*
X7548619Y72302619D01*
X7453381Y72159762D01*
X7358143Y72064524D01*
X7262905Y72016905D01*
X8453381Y72302619D02*
X8548620Y72302619D01*
X8643858Y72255000D01*
X8691477Y72207381D01*
X8739096Y72112143D01*
X8786715Y71921667D01*
X8786715Y71683571D01*
X8739096Y71493095D01*
X8691477Y71397857D01*
X8643858Y71350238D01*
X8548620Y71302619D01*
X8453381Y71302619D01*
X8358143Y71350238D01*
X8310524Y71397857D01*
X8262905Y71493095D01*
X8215286Y71683571D01*
X8215286Y71921667D01*
X8262905Y72112143D01*
X8310524Y72207381D01*
X8358143Y72255000D01*
X8453381Y72302619D01*
X9167667Y72207381D02*
X9215286Y72255000D01*
X9310524Y72302619D01*
X9548620Y72302619D01*
X9643858Y72255000D01*
X9691477Y72207381D01*
X9739096Y72112143D01*
X9739096Y72016905D01*
X9691477Y71874048D01*
X9120048Y71302619D01*
X9739096Y71302619D01*
X40917953Y67492619D02*
X40584619Y67968810D01*
X40346524Y67492619D02*
X40346524Y68492619D01*
X40727477Y68492619D01*
X40822715Y68445000D01*
X40870334Y68397381D01*
X40917953Y68302143D01*
X40917953Y68159286D01*
X40870334Y68064048D01*
X40822715Y68016429D01*
X40727477Y67968810D01*
X40346524Y67968810D01*
X41870334Y67492619D02*
X41298905Y67492619D01*
X41584619Y67492619D02*
X41584619Y68492619D01*
X41489381Y68349762D01*
X41394143Y68254524D01*
X41298905Y68206905D01*
X42489381Y68492619D02*
X42584620Y68492619D01*
X42679858Y68445000D01*
X42727477Y68397381D01*
X42775096Y68302143D01*
X42822715Y68111667D01*
X42822715Y67873571D01*
X42775096Y67683095D01*
X42727477Y67587857D01*
X42679858Y67540238D01*
X42584620Y67492619D01*
X42489381Y67492619D01*
X42394143Y67540238D01*
X42346524Y67587857D01*
X42298905Y67683095D01*
X42251286Y67873571D01*
X42251286Y68111667D01*
X42298905Y68302143D01*
X42346524Y68397381D01*
X42394143Y68445000D01*
X42489381Y68492619D01*
X43156048Y68492619D02*
X43775096Y68492619D01*
X43441762Y68111667D01*
X43584620Y68111667D01*
X43679858Y68064048D01*
X43727477Y68016429D01*
X43775096Y67921190D01*
X43775096Y67683095D01*
X43727477Y67587857D01*
X43679858Y67540238D01*
X43584620Y67492619D01*
X43298905Y67492619D01*
X43203667Y67540238D01*
X43156048Y67587857D01*
X34694953Y70540619D02*
X34361619Y71016810D01*
X34123524Y70540619D02*
X34123524Y71540619D01*
X34504477Y71540619D01*
X34599715Y71493000D01*
X34647334Y71445381D01*
X34694953Y71350143D01*
X34694953Y71207286D01*
X34647334Y71112048D01*
X34599715Y71064429D01*
X34504477Y71016810D01*
X34123524Y71016810D01*
X35647334Y70540619D02*
X35075905Y70540619D01*
X35361619Y70540619D02*
X35361619Y71540619D01*
X35266381Y71397762D01*
X35171143Y71302524D01*
X35075905Y71254905D01*
X36266381Y71540619D02*
X36361620Y71540619D01*
X36456858Y71493000D01*
X36504477Y71445381D01*
X36552096Y71350143D01*
X36599715Y71159667D01*
X36599715Y70921571D01*
X36552096Y70731095D01*
X36504477Y70635857D01*
X36456858Y70588238D01*
X36361620Y70540619D01*
X36266381Y70540619D01*
X36171143Y70588238D01*
X36123524Y70635857D01*
X36075905Y70731095D01*
X36028286Y70921571D01*
X36028286Y71159667D01*
X36075905Y71350143D01*
X36123524Y71445381D01*
X36171143Y71493000D01*
X36266381Y71540619D01*
X37456858Y71207286D02*
X37456858Y70540619D01*
X37218762Y71588238D02*
X36980667Y70873952D01*
X37599715Y70873952D01*
X6294381Y77620953D02*
X5818190Y77287619D01*
X6294381Y77049524D02*
X5294381Y77049524D01*
X5294381Y77430477D01*
X5342000Y77525715D01*
X5389619Y77573334D01*
X5484857Y77620953D01*
X5627714Y77620953D01*
X5722952Y77573334D01*
X5770571Y77525715D01*
X5818190Y77430477D01*
X5818190Y77049524D01*
X6294381Y78573334D02*
X6294381Y78001905D01*
X6294381Y78287619D02*
X5294381Y78287619D01*
X5437238Y78192381D01*
X5532476Y78097143D01*
X5580095Y78001905D01*
X5294381Y79192381D02*
X5294381Y79287620D01*
X5342000Y79382858D01*
X5389619Y79430477D01*
X5484857Y79478096D01*
X5675333Y79525715D01*
X5913429Y79525715D01*
X6103905Y79478096D01*
X6199143Y79430477D01*
X6246762Y79382858D01*
X6294381Y79287620D01*
X6294381Y79192381D01*
X6246762Y79097143D01*
X6199143Y79049524D01*
X6103905Y79001905D01*
X5913429Y78954286D01*
X5675333Y78954286D01*
X5484857Y79001905D01*
X5389619Y79049524D01*
X5342000Y79097143D01*
X5294381Y79192381D01*
X5294381Y79859048D02*
X5294381Y80525715D01*
X6294381Y80097143D01*
X5230953Y72953619D02*
X4897619Y73429810D01*
X4659524Y72953619D02*
X4659524Y73953619D01*
X5040477Y73953619D01*
X5135715Y73906000D01*
X5183334Y73858381D01*
X5230953Y73763143D01*
X5230953Y73620286D01*
X5183334Y73525048D01*
X5135715Y73477429D01*
X5040477Y73429810D01*
X4659524Y73429810D01*
X6183334Y72953619D02*
X5611905Y72953619D01*
X5897619Y72953619D02*
X5897619Y73953619D01*
X5802381Y73810762D01*
X5707143Y73715524D01*
X5611905Y73667905D01*
X6802381Y73953619D02*
X6897620Y73953619D01*
X6992858Y73906000D01*
X7040477Y73858381D01*
X7088096Y73763143D01*
X7135715Y73572667D01*
X7135715Y73334571D01*
X7088096Y73144095D01*
X7040477Y73048857D01*
X6992858Y73001238D01*
X6897620Y72953619D01*
X6802381Y72953619D01*
X6707143Y73001238D01*
X6659524Y73048857D01*
X6611905Y73144095D01*
X6564286Y73334571D01*
X6564286Y73572667D01*
X6611905Y73763143D01*
X6659524Y73858381D01*
X6707143Y73906000D01*
X6802381Y73953619D01*
X7707143Y73525048D02*
X7611905Y73572667D01*
X7564286Y73620286D01*
X7516667Y73715524D01*
X7516667Y73763143D01*
X7564286Y73858381D01*
X7611905Y73906000D01*
X7707143Y73953619D01*
X7897620Y73953619D01*
X7992858Y73906000D01*
X8040477Y73858381D01*
X8088096Y73763143D01*
X8088096Y73715524D01*
X8040477Y73620286D01*
X7992858Y73572667D01*
X7897620Y73525048D01*
X7707143Y73525048D01*
X7611905Y73477429D01*
X7564286Y73429810D01*
X7516667Y73334571D01*
X7516667Y73144095D01*
X7564286Y73048857D01*
X7611905Y73001238D01*
X7707143Y72953619D01*
X7897620Y72953619D01*
X7992858Y73001238D01*
X8040477Y73048857D01*
X8088096Y73144095D01*
X8088096Y73334571D01*
X8040477Y73429810D01*
X7992858Y73477429D01*
X7897620Y73525048D01*
X34107381Y76858953D02*
X33631190Y76525619D01*
X34107381Y76287524D02*
X33107381Y76287524D01*
X33107381Y76668477D01*
X33155000Y76763715D01*
X33202619Y76811334D01*
X33297857Y76858953D01*
X33440714Y76858953D01*
X33535952Y76811334D01*
X33583571Y76763715D01*
X33631190Y76668477D01*
X33631190Y76287524D01*
X34107381Y77811334D02*
X34107381Y77239905D01*
X34107381Y77525619D02*
X33107381Y77525619D01*
X33250238Y77430381D01*
X33345476Y77335143D01*
X33393095Y77239905D01*
X34107381Y78763715D02*
X34107381Y78192286D01*
X34107381Y78478000D02*
X33107381Y78478000D01*
X33250238Y78382762D01*
X33345476Y78287524D01*
X33393095Y78192286D01*
X33107381Y79382762D02*
X33107381Y79478001D01*
X33155000Y79573239D01*
X33202619Y79620858D01*
X33297857Y79668477D01*
X33488333Y79716096D01*
X33726429Y79716096D01*
X33916905Y79668477D01*
X34012143Y79620858D01*
X34059762Y79573239D01*
X34107381Y79478001D01*
X34107381Y79382762D01*
X34059762Y79287524D01*
X34012143Y79239905D01*
X33916905Y79192286D01*
X33726429Y79144667D01*
X33488333Y79144667D01*
X33297857Y79192286D01*
X33202619Y79239905D01*
X33155000Y79287524D01*
X33107381Y79382762D01*
X33170953Y72318619D02*
X32837619Y72794810D01*
X32599524Y72318619D02*
X32599524Y73318619D01*
X32980477Y73318619D01*
X33075715Y73271000D01*
X33123334Y73223381D01*
X33170953Y73128143D01*
X33170953Y72985286D01*
X33123334Y72890048D01*
X33075715Y72842429D01*
X32980477Y72794810D01*
X32599524Y72794810D01*
X34123334Y72318619D02*
X33551905Y72318619D01*
X33837619Y72318619D02*
X33837619Y73318619D01*
X33742381Y73175762D01*
X33647143Y73080524D01*
X33551905Y73032905D01*
X35075715Y72318619D02*
X34504286Y72318619D01*
X34790000Y72318619D02*
X34790000Y73318619D01*
X34694762Y73175762D01*
X34599524Y73080524D01*
X34504286Y73032905D01*
X36028096Y72318619D02*
X35456667Y72318619D01*
X35742381Y72318619D02*
X35742381Y73318619D01*
X35647143Y73175762D01*
X35551905Y73080524D01*
X35456667Y73032905D01*
X79779953Y77271619D02*
X79446619Y77747810D01*
X79208524Y77271619D02*
X79208524Y78271619D01*
X79589477Y78271619D01*
X79684715Y78224000D01*
X79732334Y78176381D01*
X79779953Y78081143D01*
X79779953Y77938286D01*
X79732334Y77843048D01*
X79684715Y77795429D01*
X79589477Y77747810D01*
X79208524Y77747810D01*
X80732334Y77271619D02*
X80160905Y77271619D01*
X80446619Y77271619D02*
X80446619Y78271619D01*
X80351381Y78128762D01*
X80256143Y78033524D01*
X80160905Y77985905D01*
X81684715Y77271619D02*
X81113286Y77271619D01*
X81399000Y77271619D02*
X81399000Y78271619D01*
X81303762Y78128762D01*
X81208524Y78033524D01*
X81113286Y77985905D01*
X82589477Y78271619D02*
X82113286Y78271619D01*
X82065667Y77795429D01*
X82113286Y77843048D01*
X82208524Y77890667D01*
X82446620Y77890667D01*
X82541858Y77843048D01*
X82589477Y77795429D01*
X82637096Y77700190D01*
X82637096Y77462095D01*
X82589477Y77366857D01*
X82541858Y77319238D01*
X82446620Y77271619D01*
X82208524Y77271619D01*
X82113286Y77319238D01*
X82065667Y77366857D01*
X78890953Y13009619D02*
X78557619Y13485810D01*
X78319524Y13009619D02*
X78319524Y14009619D01*
X78700477Y14009619D01*
X78795715Y13962000D01*
X78843334Y13914381D01*
X78890953Y13819143D01*
X78890953Y13676286D01*
X78843334Y13581048D01*
X78795715Y13533429D01*
X78700477Y13485810D01*
X78319524Y13485810D01*
X79843334Y13009619D02*
X79271905Y13009619D01*
X79557619Y13009619D02*
X79557619Y14009619D01*
X79462381Y13866762D01*
X79367143Y13771524D01*
X79271905Y13723905D01*
X80795715Y13009619D02*
X80224286Y13009619D01*
X80510000Y13009619D02*
X80510000Y14009619D01*
X80414762Y13866762D01*
X80319524Y13771524D01*
X80224286Y13723905D01*
X81652858Y14009619D02*
X81462381Y14009619D01*
X81367143Y13962000D01*
X81319524Y13914381D01*
X81224286Y13771524D01*
X81176667Y13581048D01*
X81176667Y13200095D01*
X81224286Y13104857D01*
X81271905Y13057238D01*
X81367143Y13009619D01*
X81557620Y13009619D01*
X81652858Y13057238D01*
X81700477Y13104857D01*
X81748096Y13200095D01*
X81748096Y13438190D01*
X81700477Y13533429D01*
X81652858Y13581048D01*
X81557620Y13628667D01*
X81367143Y13628667D01*
X81271905Y13581048D01*
X81224286Y13533429D01*
X81176667Y13438190D01*
X13767642Y74232089D02*
X14577166Y74232089D01*
X14672404Y74279708D01*
X14720023Y74327327D01*
X14767642Y74422565D01*
X14767642Y74613042D01*
X14720023Y74708280D01*
X14672404Y74755899D01*
X14577166Y74803518D01*
X13767642Y74803518D01*
X14767642Y75803518D02*
X14767642Y75232089D01*
X14767642Y75517803D02*
X13767642Y75517803D01*
X13910499Y75422565D01*
X14005737Y75327327D01*
X14053356Y75232089D01*
X13767642Y76422565D02*
X13767642Y76517804D01*
X13815261Y76613042D01*
X13862880Y76660661D01*
X13958118Y76708280D01*
X14148594Y76755899D01*
X14386690Y76755899D01*
X14577166Y76708280D01*
X14672404Y76660661D01*
X14720023Y76613042D01*
X14767642Y76517804D01*
X14767642Y76422565D01*
X14720023Y76327327D01*
X14672404Y76279708D01*
X14577166Y76232089D01*
X14386690Y76184470D01*
X14148594Y76184470D01*
X13958118Y76232089D01*
X13862880Y76279708D01*
X13815261Y76327327D01*
X13767642Y76422565D01*
X14767642Y77708280D02*
X14767642Y77136851D01*
X14767642Y77422565D02*
X13767642Y77422565D01*
X13910499Y77327327D01*
X14005737Y77232089D01*
X14053356Y77136851D01*
X41522381Y73750714D02*
X42331905Y73750714D01*
X42427143Y73798333D01*
X42474762Y73845952D01*
X42522381Y73941190D01*
X42522381Y74131667D01*
X42474762Y74226905D01*
X42427143Y74274524D01*
X42331905Y74322143D01*
X41522381Y74322143D01*
X42522381Y75322143D02*
X42522381Y74750714D01*
X42522381Y75036428D02*
X41522381Y75036428D01*
X41665238Y74941190D01*
X41760476Y74845952D01*
X41808095Y74750714D01*
X41522381Y75941190D02*
X41522381Y76036429D01*
X41570000Y76131667D01*
X41617619Y76179286D01*
X41712857Y76226905D01*
X41903333Y76274524D01*
X42141429Y76274524D01*
X42331905Y76226905D01*
X42427143Y76179286D01*
X42474762Y76131667D01*
X42522381Y76036429D01*
X42522381Y75941190D01*
X42474762Y75845952D01*
X42427143Y75798333D01*
X42331905Y75750714D01*
X42141429Y75703095D01*
X41903333Y75703095D01*
X41712857Y75750714D01*
X41617619Y75798333D01*
X41570000Y75845952D01*
X41522381Y75941190D01*
X41617619Y76655476D02*
X41570000Y76703095D01*
X41522381Y76798333D01*
X41522381Y77036429D01*
X41570000Y77131667D01*
X41617619Y77179286D01*
X41712857Y77226905D01*
X41808095Y77226905D01*
X41950952Y77179286D01*
X42522381Y76607857D01*
X42522381Y77226905D01*
X61174381Y64071714D02*
X61983905Y64071714D01*
X62079143Y64119333D01*
X62126762Y64166952D01*
X62174381Y64262190D01*
X62174381Y64452667D01*
X62126762Y64547905D01*
X62079143Y64595524D01*
X61983905Y64643143D01*
X61174381Y64643143D01*
X62174381Y65643143D02*
X62174381Y65071714D01*
X62174381Y65357428D02*
X61174381Y65357428D01*
X61317238Y65262190D01*
X61412476Y65166952D01*
X61460095Y65071714D01*
X61174381Y66262190D02*
X61174381Y66357429D01*
X61222000Y66452667D01*
X61269619Y66500286D01*
X61364857Y66547905D01*
X61555333Y66595524D01*
X61793429Y66595524D01*
X61983905Y66547905D01*
X62079143Y66500286D01*
X62126762Y66452667D01*
X62174381Y66357429D01*
X62174381Y66262190D01*
X62126762Y66166952D01*
X62079143Y66119333D01*
X61983905Y66071714D01*
X61793429Y66024095D01*
X61555333Y66024095D01*
X61364857Y66071714D01*
X61269619Y66119333D01*
X61222000Y66166952D01*
X61174381Y66262190D01*
X61174381Y66928857D02*
X61174381Y67547905D01*
X61555333Y67214571D01*
X61555333Y67357429D01*
X61602952Y67452667D01*
X61650571Y67500286D01*
X61745810Y67547905D01*
X61983905Y67547905D01*
X62079143Y67500286D01*
X62126762Y67452667D01*
X62174381Y67357429D01*
X62174381Y67071714D01*
X62126762Y66976476D01*
X62079143Y66928857D01*
X72894762Y59371429D02*
X72942381Y59514286D01*
X72942381Y59752382D01*
X72894762Y59847620D01*
X72847143Y59895239D01*
X72751905Y59942858D01*
X72656667Y59942858D01*
X72561429Y59895239D01*
X72513810Y59847620D01*
X72466190Y59752382D01*
X72418571Y59561905D01*
X72370952Y59466667D01*
X72323333Y59419048D01*
X72228095Y59371429D01*
X72132857Y59371429D01*
X72037619Y59419048D01*
X71990000Y59466667D01*
X71942381Y59561905D01*
X71942381Y59800001D01*
X71990000Y59942858D01*
X71942381Y60276191D02*
X72942381Y60514286D01*
X72228095Y60704763D01*
X72942381Y60895239D01*
X71942381Y61133334D01*
X71942381Y61990477D02*
X71942381Y61514286D01*
X72418571Y61466667D01*
X72370952Y61514286D01*
X72323333Y61609524D01*
X72323333Y61847620D01*
X72370952Y61942858D01*
X72418571Y61990477D01*
X72513810Y62038096D01*
X72751905Y62038096D01*
X72847143Y61990477D01*
X72894762Y61942858D01*
X72942381Y61847620D01*
X72942381Y61609524D01*
X72894762Y61514286D01*
X72847143Y61466667D01*
X71942381Y62657143D02*
X71942381Y62752382D01*
X71990000Y62847620D01*
X72037619Y62895239D01*
X72132857Y62942858D01*
X72323333Y62990477D01*
X72561429Y62990477D01*
X72751905Y62942858D01*
X72847143Y62895239D01*
X72894762Y62847620D01*
X72942381Y62752382D01*
X72942381Y62657143D01*
X72894762Y62561905D01*
X72847143Y62514286D01*
X72751905Y62466667D01*
X72561429Y62419048D01*
X72323333Y62419048D01*
X72132857Y62466667D01*
X72037619Y62514286D01*
X71990000Y62561905D01*
X71942381Y62657143D01*
X72894762Y63466667D02*
X72942381Y63466667D01*
X73037619Y63419048D01*
X73085238Y63371429D01*
X72894762Y64609524D02*
X72942381Y64752381D01*
X72942381Y64990477D01*
X72894762Y65085715D01*
X72847143Y65133334D01*
X72751905Y65180953D01*
X72656667Y65180953D01*
X72561429Y65133334D01*
X72513810Y65085715D01*
X72466190Y64990477D01*
X72418571Y64800000D01*
X72370952Y64704762D01*
X72323333Y64657143D01*
X72228095Y64609524D01*
X72132857Y64609524D01*
X72037619Y64657143D01*
X71990000Y64704762D01*
X71942381Y64800000D01*
X71942381Y65038096D01*
X71990000Y65180953D01*
X71942381Y65514286D02*
X72942381Y65752381D01*
X72228095Y65942858D01*
X72942381Y66133334D01*
X71942381Y66371429D01*
X71942381Y67180953D02*
X71942381Y66990476D01*
X71990000Y66895238D01*
X72037619Y66847619D01*
X72180476Y66752381D01*
X72370952Y66704762D01*
X72751905Y66704762D01*
X72847143Y66752381D01*
X72894762Y66800000D01*
X72942381Y66895238D01*
X72942381Y67085715D01*
X72894762Y67180953D01*
X72847143Y67228572D01*
X72751905Y67276191D01*
X72513810Y67276191D01*
X72418571Y67228572D01*
X72370952Y67180953D01*
X72323333Y67085715D01*
X72323333Y66895238D01*
X72370952Y66800000D01*
X72418571Y66752381D01*
X72513810Y66704762D01*
X71942381Y67609524D02*
X71942381Y68228572D01*
X72323333Y67895238D01*
X72323333Y68038096D01*
X72370952Y68133334D01*
X72418571Y68180953D01*
X72513810Y68228572D01*
X72751905Y68228572D01*
X72847143Y68180953D01*
X72894762Y68133334D01*
X72942381Y68038096D01*
X72942381Y67752381D01*
X72894762Y67657143D01*
X72847143Y67609524D01*
X74356667Y55347619D02*
X74356667Y55823810D01*
X74642381Y55252381D02*
X73642381Y55585714D01*
X74642381Y55919048D01*
X74356667Y56204762D02*
X74356667Y56680953D01*
X74642381Y56109524D02*
X73642381Y56442857D01*
X74642381Y56776191D01*
X73642381Y56966667D02*
X74642381Y57300000D01*
X73642381Y57633334D01*
X74642381Y57966667D02*
X73642381Y57966667D01*
X74642381Y58442857D02*
X73642381Y58442857D01*
X73642381Y58680952D01*
X73690000Y58823810D01*
X73785238Y58919048D01*
X73880476Y58966667D01*
X74070952Y59014286D01*
X74213810Y59014286D01*
X74404286Y58966667D01*
X74499524Y58919048D01*
X74594762Y58823810D01*
X74642381Y58680952D01*
X74642381Y58442857D01*
X74594762Y60157143D02*
X74642381Y60300000D01*
X74642381Y60538096D01*
X74594762Y60633334D01*
X74547143Y60680953D01*
X74451905Y60728572D01*
X74356667Y60728572D01*
X74261429Y60680953D01*
X74213810Y60633334D01*
X74166190Y60538096D01*
X74118571Y60347619D01*
X74070952Y60252381D01*
X74023333Y60204762D01*
X73928095Y60157143D01*
X73832857Y60157143D01*
X73737619Y60204762D01*
X73690000Y60252381D01*
X73642381Y60347619D01*
X73642381Y60585715D01*
X73690000Y60728572D01*
X73642381Y61061905D02*
X74642381Y61300000D01*
X73928095Y61490477D01*
X74642381Y61680953D01*
X73642381Y61919048D01*
X73737619Y62252381D02*
X73690000Y62300000D01*
X73642381Y62395238D01*
X73642381Y62633334D01*
X73690000Y62728572D01*
X73737619Y62776191D01*
X73832857Y62823810D01*
X73928095Y62823810D01*
X74070952Y62776191D01*
X74642381Y62204762D01*
X74642381Y62823810D01*
X73642381Y63728572D02*
X73642381Y63252381D01*
X74118571Y63204762D01*
X74070952Y63252381D01*
X74023333Y63347619D01*
X74023333Y63585715D01*
X74070952Y63680953D01*
X74118571Y63728572D01*
X74213810Y63776191D01*
X74451905Y63776191D01*
X74547143Y63728572D01*
X74594762Y63680953D01*
X74642381Y63585715D01*
X74642381Y63347619D01*
X74594762Y63252381D01*
X74547143Y63204762D01*
X74594762Y64252381D02*
X74642381Y64252381D01*
X74737619Y64204762D01*
X74785238Y64157143D01*
X74594762Y65395238D02*
X74642381Y65538095D01*
X74642381Y65776191D01*
X74594762Y65871429D01*
X74547143Y65919048D01*
X74451905Y65966667D01*
X74356667Y65966667D01*
X74261429Y65919048D01*
X74213810Y65871429D01*
X74166190Y65776191D01*
X74118571Y65585714D01*
X74070952Y65490476D01*
X74023333Y65442857D01*
X73928095Y65395238D01*
X73832857Y65395238D01*
X73737619Y65442857D01*
X73690000Y65490476D01*
X73642381Y65585714D01*
X73642381Y65823810D01*
X73690000Y65966667D01*
X73642381Y66300000D02*
X74642381Y66538095D01*
X73928095Y66728572D01*
X74642381Y66919048D01*
X73642381Y67157143D01*
X73642381Y67442857D02*
X73642381Y68061905D01*
X74023333Y67728571D01*
X74023333Y67871429D01*
X74070952Y67966667D01*
X74118571Y68014286D01*
X74213810Y68061905D01*
X74451905Y68061905D01*
X74547143Y68014286D01*
X74594762Y67966667D01*
X74642381Y67871429D01*
X74642381Y67585714D01*
X74594762Y67490476D01*
X74547143Y67442857D01*
X74070952Y68633333D02*
X74023333Y68538095D01*
X73975714Y68490476D01*
X73880476Y68442857D01*
X73832857Y68442857D01*
X73737619Y68490476D01*
X73690000Y68538095D01*
X73642381Y68633333D01*
X73642381Y68823810D01*
X73690000Y68919048D01*
X73737619Y68966667D01*
X73832857Y69014286D01*
X73880476Y69014286D01*
X73975714Y68966667D01*
X74023333Y68919048D01*
X74070952Y68823810D01*
X74070952Y68633333D01*
X74118571Y68538095D01*
X74166190Y68490476D01*
X74261429Y68442857D01*
X74451905Y68442857D01*
X74547143Y68490476D01*
X74594762Y68538095D01*
X74642381Y68633333D01*
X74642381Y68823810D01*
X74594762Y68919048D01*
X74547143Y68966667D01*
X74451905Y69014286D01*
X74261429Y69014286D01*
X74166190Y68966667D01*
X74118571Y68919048D01*
X74070952Y68823810D01*
X74594762Y69490476D02*
X74642381Y69490476D01*
X74737619Y69442857D01*
X74785238Y69395238D01*
X70866381Y67976715D02*
X70866381Y67405286D01*
X70866381Y67691000D02*
X69866381Y67691000D01*
X70009238Y67595762D01*
X70104476Y67500524D01*
X70152095Y67405286D01*
X61301381Y22161714D02*
X62110905Y22161714D01*
X62206143Y22209333D01*
X62253762Y22256952D01*
X62301381Y22352190D01*
X62301381Y22542667D01*
X62253762Y22637905D01*
X62206143Y22685524D01*
X62110905Y22733143D01*
X61301381Y22733143D01*
X62301381Y23733143D02*
X62301381Y23161714D01*
X62301381Y23447428D02*
X61301381Y23447428D01*
X61444238Y23352190D01*
X61539476Y23256952D01*
X61587095Y23161714D01*
X61301381Y24352190D02*
X61301381Y24447429D01*
X61349000Y24542667D01*
X61396619Y24590286D01*
X61491857Y24637905D01*
X61682333Y24685524D01*
X61920429Y24685524D01*
X62110905Y24637905D01*
X62206143Y24590286D01*
X62253762Y24542667D01*
X62301381Y24447429D01*
X62301381Y24352190D01*
X62253762Y24256952D01*
X62206143Y24209333D01*
X62110905Y24161714D01*
X61920429Y24114095D01*
X61682333Y24114095D01*
X61491857Y24161714D01*
X61396619Y24209333D01*
X61349000Y24256952D01*
X61301381Y24352190D01*
X61634714Y25542667D02*
X62301381Y25542667D01*
X61253762Y25304571D02*
X61968048Y25066476D01*
X61968048Y25685524D01*
X65694762Y22322429D02*
X65742381Y22465286D01*
X65742381Y22703382D01*
X65694762Y22798620D01*
X65647143Y22846239D01*
X65551905Y22893858D01*
X65456667Y22893858D01*
X65361429Y22846239D01*
X65313810Y22798620D01*
X65266190Y22703382D01*
X65218571Y22512905D01*
X65170952Y22417667D01*
X65123333Y22370048D01*
X65028095Y22322429D01*
X64932857Y22322429D01*
X64837619Y22370048D01*
X64790000Y22417667D01*
X64742381Y22512905D01*
X64742381Y22751001D01*
X64790000Y22893858D01*
X64742381Y23227191D02*
X65742381Y23465286D01*
X65028095Y23655763D01*
X65742381Y23846239D01*
X64742381Y24084334D01*
X64742381Y24941477D02*
X64742381Y24465286D01*
X65218571Y24417667D01*
X65170952Y24465286D01*
X65123333Y24560524D01*
X65123333Y24798620D01*
X65170952Y24893858D01*
X65218571Y24941477D01*
X65313810Y24989096D01*
X65551905Y24989096D01*
X65647143Y24941477D01*
X65694762Y24893858D01*
X65742381Y24798620D01*
X65742381Y24560524D01*
X65694762Y24465286D01*
X65647143Y24417667D01*
X64742381Y25608143D02*
X64742381Y25703382D01*
X64790000Y25798620D01*
X64837619Y25846239D01*
X64932857Y25893858D01*
X65123333Y25941477D01*
X65361429Y25941477D01*
X65551905Y25893858D01*
X65647143Y25846239D01*
X65694762Y25798620D01*
X65742381Y25703382D01*
X65742381Y25608143D01*
X65694762Y25512905D01*
X65647143Y25465286D01*
X65551905Y25417667D01*
X65361429Y25370048D01*
X65123333Y25370048D01*
X64932857Y25417667D01*
X64837619Y25465286D01*
X64790000Y25512905D01*
X64742381Y25608143D01*
X65694762Y26417667D02*
X65742381Y26417667D01*
X65837619Y26370048D01*
X65885238Y26322429D01*
X65694762Y27560524D02*
X65742381Y27703381D01*
X65742381Y27941477D01*
X65694762Y28036715D01*
X65647143Y28084334D01*
X65551905Y28131953D01*
X65456667Y28131953D01*
X65361429Y28084334D01*
X65313810Y28036715D01*
X65266190Y27941477D01*
X65218571Y27751000D01*
X65170952Y27655762D01*
X65123333Y27608143D01*
X65028095Y27560524D01*
X64932857Y27560524D01*
X64837619Y27608143D01*
X64790000Y27655762D01*
X64742381Y27751000D01*
X64742381Y27989096D01*
X64790000Y28131953D01*
X64742381Y28465286D02*
X65742381Y28703381D01*
X65028095Y28893858D01*
X65742381Y29084334D01*
X64742381Y29322429D01*
X64742381Y30131953D02*
X64742381Y29941476D01*
X64790000Y29846238D01*
X64837619Y29798619D01*
X64980476Y29703381D01*
X65170952Y29655762D01*
X65551905Y29655762D01*
X65647143Y29703381D01*
X65694762Y29751000D01*
X65742381Y29846238D01*
X65742381Y30036715D01*
X65694762Y30131953D01*
X65647143Y30179572D01*
X65551905Y30227191D01*
X65313810Y30227191D01*
X65218571Y30179572D01*
X65170952Y30131953D01*
X65123333Y30036715D01*
X65123333Y29846238D01*
X65170952Y29751000D01*
X65218571Y29703381D01*
X65313810Y29655762D01*
X64742381Y30560524D02*
X64742381Y31179572D01*
X65123333Y30846238D01*
X65123333Y30989096D01*
X65170952Y31084334D01*
X65218571Y31131953D01*
X65313810Y31179572D01*
X65551905Y31179572D01*
X65647143Y31131953D01*
X65694762Y31084334D01*
X65742381Y30989096D01*
X65742381Y30703381D01*
X65694762Y30608143D01*
X65647143Y30560524D01*
X63756667Y20298619D02*
X63756667Y20774810D01*
X64042381Y20203381D02*
X63042381Y20536714D01*
X64042381Y20870048D01*
X63756667Y21155762D02*
X63756667Y21631953D01*
X64042381Y21060524D02*
X63042381Y21393857D01*
X64042381Y21727191D01*
X63042381Y21917667D02*
X64042381Y22251000D01*
X63042381Y22584334D01*
X64042381Y22917667D02*
X63042381Y22917667D01*
X64042381Y23393857D02*
X63042381Y23393857D01*
X63042381Y23631952D01*
X63090000Y23774810D01*
X63185238Y23870048D01*
X63280476Y23917667D01*
X63470952Y23965286D01*
X63613810Y23965286D01*
X63804286Y23917667D01*
X63899524Y23870048D01*
X63994762Y23774810D01*
X64042381Y23631952D01*
X64042381Y23393857D01*
X63994762Y25108143D02*
X64042381Y25251000D01*
X64042381Y25489096D01*
X63994762Y25584334D01*
X63947143Y25631953D01*
X63851905Y25679572D01*
X63756667Y25679572D01*
X63661429Y25631953D01*
X63613810Y25584334D01*
X63566190Y25489096D01*
X63518571Y25298619D01*
X63470952Y25203381D01*
X63423333Y25155762D01*
X63328095Y25108143D01*
X63232857Y25108143D01*
X63137619Y25155762D01*
X63090000Y25203381D01*
X63042381Y25298619D01*
X63042381Y25536715D01*
X63090000Y25679572D01*
X63042381Y26012905D02*
X64042381Y26251000D01*
X63328095Y26441477D01*
X64042381Y26631953D01*
X63042381Y26870048D01*
X63137619Y27203381D02*
X63090000Y27251000D01*
X63042381Y27346238D01*
X63042381Y27584334D01*
X63090000Y27679572D01*
X63137619Y27727191D01*
X63232857Y27774810D01*
X63328095Y27774810D01*
X63470952Y27727191D01*
X64042381Y27155762D01*
X64042381Y27774810D01*
X63042381Y28679572D02*
X63042381Y28203381D01*
X63518571Y28155762D01*
X63470952Y28203381D01*
X63423333Y28298619D01*
X63423333Y28536715D01*
X63470952Y28631953D01*
X63518571Y28679572D01*
X63613810Y28727191D01*
X63851905Y28727191D01*
X63947143Y28679572D01*
X63994762Y28631953D01*
X64042381Y28536715D01*
X64042381Y28298619D01*
X63994762Y28203381D01*
X63947143Y28155762D01*
X63994762Y29203381D02*
X64042381Y29203381D01*
X64137619Y29155762D01*
X64185238Y29108143D01*
X63994762Y30346238D02*
X64042381Y30489095D01*
X64042381Y30727191D01*
X63994762Y30822429D01*
X63947143Y30870048D01*
X63851905Y30917667D01*
X63756667Y30917667D01*
X63661429Y30870048D01*
X63613810Y30822429D01*
X63566190Y30727191D01*
X63518571Y30536714D01*
X63470952Y30441476D01*
X63423333Y30393857D01*
X63328095Y30346238D01*
X63232857Y30346238D01*
X63137619Y30393857D01*
X63090000Y30441476D01*
X63042381Y30536714D01*
X63042381Y30774810D01*
X63090000Y30917667D01*
X63042381Y31251000D02*
X64042381Y31489095D01*
X63328095Y31679572D01*
X64042381Y31870048D01*
X63042381Y32108143D01*
X63042381Y32393857D02*
X63042381Y33012905D01*
X63423333Y32679571D01*
X63423333Y32822429D01*
X63470952Y32917667D01*
X63518571Y32965286D01*
X63613810Y33012905D01*
X63851905Y33012905D01*
X63947143Y32965286D01*
X63994762Y32917667D01*
X64042381Y32822429D01*
X64042381Y32536714D01*
X63994762Y32441476D01*
X63947143Y32393857D01*
X63470952Y33584333D02*
X63423333Y33489095D01*
X63375714Y33441476D01*
X63280476Y33393857D01*
X63232857Y33393857D01*
X63137619Y33441476D01*
X63090000Y33489095D01*
X63042381Y33584333D01*
X63042381Y33774810D01*
X63090000Y33870048D01*
X63137619Y33917667D01*
X63232857Y33965286D01*
X63280476Y33965286D01*
X63375714Y33917667D01*
X63423333Y33870048D01*
X63470952Y33774810D01*
X63470952Y33584333D01*
X63518571Y33489095D01*
X63566190Y33441476D01*
X63661429Y33393857D01*
X63851905Y33393857D01*
X63947143Y33441476D01*
X63994762Y33489095D01*
X64042381Y33584333D01*
X64042381Y33774810D01*
X63994762Y33870048D01*
X63947143Y33917667D01*
X63851905Y33965286D01*
X63661429Y33965286D01*
X63566190Y33917667D01*
X63518571Y33870048D01*
X63470952Y33774810D01*
X63994762Y34441476D02*
X64042381Y34441476D01*
X64137619Y34393857D01*
X64185238Y34346238D01*
X67818381Y23145715D02*
X67818381Y22574286D01*
X67818381Y22860000D02*
X66818381Y22860000D01*
X66961238Y22764762D01*
X67056476Y22669524D01*
X67104095Y22574286D01*
X29186143Y84732953D02*
X29233762Y84685334D01*
X29281381Y84542477D01*
X29281381Y84447239D01*
X29233762Y84304381D01*
X29138524Y84209143D01*
X29043286Y84161524D01*
X28852810Y84113905D01*
X28709952Y84113905D01*
X28519476Y84161524D01*
X28424238Y84209143D01*
X28329000Y84304381D01*
X28281381Y84447239D01*
X28281381Y84542477D01*
X28329000Y84685334D01*
X28376619Y84732953D01*
X29281381Y85685334D02*
X29281381Y85113905D01*
X29281381Y85399619D02*
X28281381Y85399619D01*
X28424238Y85304381D01*
X28519476Y85209143D01*
X28567095Y85113905D01*
X28614714Y86542477D02*
X29281381Y86542477D01*
X28233762Y86304381D02*
X28948048Y86066286D01*
X28948048Y86685334D01*
X28281381Y86971048D02*
X28281381Y87637715D01*
X29281381Y87209143D01*
X57761143Y83942953D02*
X57808762Y83895334D01*
X57856381Y83752477D01*
X57856381Y83657239D01*
X57808762Y83514381D01*
X57713524Y83419143D01*
X57618286Y83371524D01*
X57427810Y83323905D01*
X57284952Y83323905D01*
X57094476Y83371524D01*
X56999238Y83419143D01*
X56904000Y83514381D01*
X56856381Y83657239D01*
X56856381Y83752477D01*
X56904000Y83895334D01*
X56951619Y83942953D01*
X57856381Y84895334D02*
X57856381Y84323905D01*
X57856381Y84609619D02*
X56856381Y84609619D01*
X56999238Y84514381D01*
X57094476Y84419143D01*
X57142095Y84323905D01*
X57189714Y85752477D02*
X57856381Y85752477D01*
X56808762Y85514381D02*
X57523048Y85276286D01*
X57523048Y85895334D01*
X57284952Y86419143D02*
X57237333Y86323905D01*
X57189714Y86276286D01*
X57094476Y86228667D01*
X57046857Y86228667D01*
X56951619Y86276286D01*
X56904000Y86323905D01*
X56856381Y86419143D01*
X56856381Y86609620D01*
X56904000Y86704858D01*
X56951619Y86752477D01*
X57046857Y86800096D01*
X57094476Y86800096D01*
X57189714Y86752477D01*
X57237333Y86704858D01*
X57284952Y86609620D01*
X57284952Y86419143D01*
X57332571Y86323905D01*
X57380190Y86276286D01*
X57475429Y86228667D01*
X57665905Y86228667D01*
X57761143Y86276286D01*
X57808762Y86323905D01*
X57856381Y86419143D01*
X57856381Y86609620D01*
X57808762Y86704858D01*
X57761143Y86752477D01*
X57665905Y86800096D01*
X57475429Y86800096D01*
X57380190Y86752477D01*
X57332571Y86704858D01*
X57284952Y86609620D01*
X56665953Y59713857D02*
X56618334Y59666238D01*
X56475477Y59618619D01*
X56380239Y59618619D01*
X56237381Y59666238D01*
X56142143Y59761476D01*
X56094524Y59856714D01*
X56046905Y60047190D01*
X56046905Y60190048D01*
X56094524Y60380524D01*
X56142143Y60475762D01*
X56237381Y60571000D01*
X56380239Y60618619D01*
X56475477Y60618619D01*
X56618334Y60571000D01*
X56665953Y60523381D01*
X57618334Y59618619D02*
X57046905Y59618619D01*
X57332619Y59618619D02*
X57332619Y60618619D01*
X57237381Y60475762D01*
X57142143Y60380524D01*
X57046905Y60332905D01*
X58475477Y60285286D02*
X58475477Y59618619D01*
X58237381Y60666238D02*
X57999286Y59951952D01*
X58618334Y59951952D01*
X59046905Y59618619D02*
X59237381Y59618619D01*
X59332620Y59666238D01*
X59380239Y59713857D01*
X59475477Y59856714D01*
X59523096Y60047190D01*
X59523096Y60428143D01*
X59475477Y60523381D01*
X59427858Y60571000D01*
X59332620Y60618619D01*
X59142143Y60618619D01*
X59046905Y60571000D01*
X58999286Y60523381D01*
X58951667Y60428143D01*
X58951667Y60190048D01*
X58999286Y60094810D01*
X59046905Y60047190D01*
X59142143Y59999571D01*
X59332620Y59999571D01*
X59427858Y60047190D01*
X59475477Y60094810D01*
X59523096Y60190048D01*
X56792953Y40409857D02*
X56745334Y40362238D01*
X56602477Y40314619D01*
X56507239Y40314619D01*
X56364381Y40362238D01*
X56269143Y40457476D01*
X56221524Y40552714D01*
X56173905Y40743190D01*
X56173905Y40886048D01*
X56221524Y41076524D01*
X56269143Y41171762D01*
X56364381Y41267000D01*
X56507239Y41314619D01*
X56602477Y41314619D01*
X56745334Y41267000D01*
X56792953Y41219381D01*
X57745334Y40314619D02*
X57173905Y40314619D01*
X57459619Y40314619D02*
X57459619Y41314619D01*
X57364381Y41171762D01*
X57269143Y41076524D01*
X57173905Y41028905D01*
X58650096Y41314619D02*
X58173905Y41314619D01*
X58126286Y40838429D01*
X58173905Y40886048D01*
X58269143Y40933667D01*
X58507239Y40933667D01*
X58602477Y40886048D01*
X58650096Y40838429D01*
X58697715Y40743190D01*
X58697715Y40505095D01*
X58650096Y40409857D01*
X58602477Y40362238D01*
X58507239Y40314619D01*
X58269143Y40314619D01*
X58173905Y40362238D01*
X58126286Y40409857D01*
X59316762Y41314619D02*
X59412001Y41314619D01*
X59507239Y41267000D01*
X59554858Y41219381D01*
X59602477Y41124143D01*
X59650096Y40933667D01*
X59650096Y40695571D01*
X59602477Y40505095D01*
X59554858Y40409857D01*
X59507239Y40362238D01*
X59412001Y40314619D01*
X59316762Y40314619D01*
X59221524Y40362238D01*
X59173905Y40409857D01*
X59126286Y40505095D01*
X59078667Y40695571D01*
X59078667Y40933667D01*
X59126286Y41124143D01*
X59173905Y41219381D01*
X59221524Y41267000D01*
X59316762Y41314619D01*
M02*
